<svg width="90" height="90" viewBox="0 0 90 90" fill="none" xmlns="http://www.w3.org/2000/svg">
<g clip-path="url(#clip0_4215_4674)">
<path d="M14.0806 62.5402C14.2419 62.5173 14.5226 62.4219 14.7957 62.3292C15.0295 62.2497 15.2576 62.1722 15.4002 62.1438M14.0806 62.5402L20.8355 62.0255M14.0806 62.5402C13.5368 62.6177 13.1407 62.0389 13.4154 61.5633L14.0806 62.5402ZM15.4002 62.1438C16.2089 61.9822 17.235 61.9806 18.019 62.2329C19.0221 62.556 19.8956 62.5302 20.8355 62.0255M15.4002 62.1438L15.2048 61.1631L15.2043 61.1632M15.4002 62.1438L15.2043 61.1632M20.8355 62.0255L20.3624 61.1445C20.3619 61.1448 20.3613 61.1451 20.3607 61.1454C20.3605 61.1455 20.3603 61.1457 20.3601 61.1458L20.8355 62.0255ZM15.2043 61.1632C15.1177 61.1805 15.0173 61.2074 14.9145 61.2382L21.9186 51.9692L24.2147 55.4133C25.2341 57.128 27.7281 57.1167 28.7301 55.3829L28.7309 55.3815C28.9638 54.9771 29.0809 54.5266 29.0809 54.0738C29.0809 53.6214 28.9623 53.1703 28.7322 52.7683L28.7217 52.7501L28.7105 52.7323L24.2058 45.5788C23.7359 44.7823 22.8788 44.2893 21.9501 44.2893C21.0374 44.2893 20.194 44.7654 19.7192 45.5377L8.95491 59.7675C7.08151 55.2123 6.04725 50.2259 6.04725 45.0003C6.04725 23.5505 23.5457 6.05107 44.9961 6.04944C66.476 6.04782 83.9514 23.5223 83.9514 45.0003C83.9514 49.1643 83.2954 53.1765 82.0807 56.9385L70.3067 40.9658C69.9556 40.3877 69.383 39.9153 68.6618 39.7442C67.5118 39.4711 66.3555 39.9919 65.7843 40.9777C65.7837 40.9787 65.7832 40.9797 65.7826 40.9806L60.1736 50.5388L60.1734 50.5392C59.6137 51.4939 59.6382 52.6832 60.2397 53.6139L72.9076 73.2374L72.9087 73.2394L72.9353 73.2834L73.0337 73.4459C73.1174 73.5838 73.2346 73.7763 73.369 73.9952C74.3763 75.6357 76.687 75.8559 77.9771 74.4142L77.9773 74.414C81.0485 70.9803 83.5288 67.1438 85.3689 63.025C87.8724 57.4258 89.1878 51.3112 89.1878 44.9995C89.1869 33.199 84.5895 22.0997 76.2454 13.7556C67.9004 5.41066 56.801 0.813965 45.0001 0.813965C33.1985 0.813965 22.099 5.41065 13.754 13.7556C5.40992 22.0997 0.8125 33.199 0.8125 44.9995C0.8125 52.289 2.56578 59.3133 5.88101 65.5885C7.55289 68.758 9.62137 71.735 12.0632 74.4566C13.1479 75.6713 15.0904 75.5033 15.9536 74.1306L23.8189 62.9404L23.8443 62.9042L23.8664 62.8659C24.7549 61.3292 23.027 59.5725 21.4741 60.4929L15.2043 61.1632ZM68.0962 47.4217L72.7077 53.6442C72.6854 53.6491 72.6632 53.654 72.6413 53.659L72.6369 53.66C71.2059 53.9907 70.2211 54.1791 68.8264 54.1224C68.6364 54.1144 68.3633 54.0468 67.9798 53.8979C67.6659 53.7761 67.34 53.6256 66.9769 53.4579C66.9009 53.4228 66.8232 53.3869 66.7437 53.3504C66.3049 53.149 65.8151 52.9308 65.3278 52.7756C65.2176 52.7405 65.1035 52.7073 64.9863 52.6776L68.0962 47.4217Z" stroke="#09559F" stroke-width="2" stroke-miterlimit="10"/>
<path d="M58.5414 27.6204L57.3916 25.9981C57.1701 25.6849 57.1709 25.266 57.3957 24.9545L58.5324 23.3755C58.7194 23.1157 58.534 22.7534 58.2134 22.7534H54.4078V24.5132C54.4078 25.1278 53.9083 25.6275 53.2932 25.6275H50.2266V27.423C50.2266 27.8744 50.5924 28.24 51.0434 28.24H58.2199C58.5398 28.2408 58.726 27.881 58.5414 27.6204Z" fill="#09559F"/>
<path d="M53.2943 25.1052C53.6207 25.1052 53.8857 24.8404 53.8857 24.5139V22.3403V20.21C53.8857 19.8835 53.6207 19.6187 53.2943 19.6187H45.5257C45.3092 19.6187 45.1328 19.7944 45.1328 20.0117V24.713C45.1328 24.9295 45.3083 25.1061 45.5257 25.1061H53.2943V25.1052Z" fill="#09559F"/>
<path d="M72.6965 74.0464L72.7096 74.0692L72.9688 74.5189C72.9688 74.5189 72.9688 74.5189 72.9688 74.5189C73.3498 75.18 73.5453 75.9229 73.5453 76.673C73.5453 77.055 73.4953 77.4403 73.3911 77.8178M72.6965 74.0464L17.1954 78.0505L16.5498 78.8142C16.5568 78.8202 16.5639 78.8261 16.5709 78.832C16.63 78.8791 16.6889 78.9151 16.7422 78.9421C16.8579 79.0008 16.9617 79.0252 17.0284 79.0365C17.064 79.0425 17.096 79.0459 17.123 79.0479C17.1367 79.0489 17.1496 79.0495 17.1615 79.0499L17.1718 79.0502M72.6965 74.0464L72.6822 74.0244M72.6965 74.0464L72.6822 74.0244M73.3911 77.8178L72.4272 77.5517L73.3912 77.8172C73.3912 77.8174 73.3911 77.8176 73.3911 77.8178ZM73.3911 77.8178C73.1427 78.7191 72.6084 79.5189 71.8646 80.0919L71.8638 80.0925C64.1895 85.9921 54.8376 89.1859 45.0007 89.1859C34.6863 89.1859 24.9081 85.6751 17.0356 79.2171C17.0355 79.217 17.0353 79.2169 17.0352 79.2167L17.1718 79.0502M17.1718 79.0502L17.1735 79.0502L17.1948 79.0242C17.1948 79.0235 17.1948 79.0228 17.1948 79.0222L17.1718 79.0502ZM16.6744 78.0489H17.1937L16.4262 78.6899C16.418 78.6801 16.41 78.6703 16.402 78.6604L16.6744 78.0489ZM16.6744 78.0489H16.6707L16.2266 78.3035C16.227 78.3049 16.2274 78.3063 16.2277 78.3077L16.6744 78.0489ZM72.6822 74.0244L47.1744 34.6934C47.1569 34.6636 47.1417 34.6396 47.1349 34.6288L47.1323 34.6246M72.6822 74.0244L47.1323 34.6246M47.1323 34.6246C46.8216 34.1343 46.6552 33.5791 46.6552 33.0178M47.1323 34.6246L46.6552 33.0178M46.6552 33.0178V19.1123M46.6552 33.0178V19.1123M46.6552 19.1123C46.6552 18.1709 45.9165 17.3409 44.9215 17.3132L46.6552 19.1123ZM17.1873 73.971L16.18 75.7153L44.9205 17.3132C43.9131 17.2853 43.087 18.0948 43.087 19.0965V33.1769C43.087 33.7016 42.9399 34.2244 42.6651 34.6961L17.2143 73.9268L17.2002 73.9486L17.1873 73.971ZM50.4459 50.9414L50.4444 50.9411C50.0482 50.8506 49.6611 50.8077 49.2836 50.8077C48.0459 50.8077 46.9149 51.2806 45.9515 51.6834C45.7499 51.7677 45.5556 51.8489 45.3693 51.9221C44.8832 52.1124 44.4514 52.2035 44.0346 52.2035C43.771 52.2035 43.4974 52.1673 43.2026 52.0856C42.9021 52.0014 42.6127 51.8948 42.2808 51.7726C42.2062 51.7451 42.1295 51.7169 42.0499 51.6879C41.6375 51.5376 41.1655 51.3742 40.6558 51.2756L40.6513 51.2748C40.3595 51.2198 40.0727 51.1942 39.7918 51.1942C39.5756 51.1942 39.3647 51.2089 39.1597 51.2343L44.9191 41.2584L50.5197 50.9588C50.4952 50.9529 50.4705 50.9471 50.4459 50.9414Z" stroke="#09559F" stroke-width="2" stroke-miterlimit="10"/>
</g>
<circle cx="45" cy="45" r="44" stroke="#09559F" stroke-width="2"/>
<defs>
<clipPath id="clip0_4215_4674">
<rect width="86.5385" height="86.5385" fill="white" transform="translate(1.73047 1.73071)"/>
</clipPath>
</defs>
</svg>
