<svg width="90" height="87" viewBox="0 0 90 87" fill="none" xmlns="http://www.w3.org/2000/svg">
<g clip-path="url(#clip0_4215_4657)">
<path d="M84.6464 56.0896C84.5407 56.1874 84.4584 56.3068 84.4072 56.4398C84.2158 56.9343 84.0148 57.4254 83.8033 57.9139C81.6832 62.8039 78.6482 67.1969 74.7822 70.97C70.9154 74.7432 66.4143 77.705 61.403 79.7732C56.2166 81.9134 50.7045 82.9994 45.0208 82.9994C39.3371 82.9994 33.8258 81.9143 28.6385 79.7732C23.6272 77.705 19.1253 74.7432 15.2593 70.97C11.3925 67.1969 8.35743 62.8048 6.23817 57.9139C6.02676 57.4254 5.82575 56.9343 5.63428 56.4398C5.58316 56.3068 5.50085 56.1866 5.39514 56.0896C4.50447 55.2705 3.67184 54.4807 2.90419 53.7338C2.1998 53.0479 1.02493 53.7347 1.30912 54.6653C6.92264 73.0382 24.3688 86.4334 45.0216 86.4334C65.6744 86.4334 83.1206 73.0382 88.7341 54.6653C89.0183 53.7347 87.8435 53.0487 87.1391 53.7347C86.3688 54.4807 85.537 55.2705 84.6464 56.0896Z" fill="#09559F"/>
<path d="M5.36398 30.4958C5.47228 30.3962 5.55633 30.2735 5.60918 30.1369C5.80759 29.6227 6.01553 29.1119 6.2356 28.6045C8.35572 23.7145 11.3908 19.3215 15.2567 15.5484C19.1236 11.7752 23.6246 8.81338 28.636 6.74524C33.8232 4.60499 39.3354 3.51984 45.0182 3.51984C50.7019 3.51984 56.2132 4.60499 61.4004 6.7461C66.4118 8.81424 70.9137 11.7761 74.7796 15.5492C78.6464 19.3224 81.6815 23.7145 83.8008 28.6054C84.0208 29.1128 84.2296 29.6236 84.4272 30.1378C84.48 30.2743 84.5632 30.3971 84.6724 30.4967C85.5405 31.2925 86.3532 32.0617 87.1044 32.7889C87.8218 33.4834 89.0149 32.7863 88.7255 31.8411C83.1085 13.4742 65.6666 0.0858154 45.0182 0.0858154C24.3706 0.0858154 6.92873 13.4742 1.31001 31.8402C1.02063 32.7854 2.21369 33.4825 2.93195 32.788C3.68313 32.06 4.49583 31.2916 5.36398 30.4958Z" fill="#09559F"/>
<path d="M58.1032 43.8448C58.1032 51.2454 52.0473 57.2526 44.5672 57.2526C37.0872 57.2526 31.0312 51.2454 31.0312 43.8448C31.0312 36.4442 37.0872 30.437 44.5672 30.437C52.0473 30.437 58.1032 36.4442 58.1032 43.8448Z" stroke="black"/>
<path d="M0.0859375 42.4574C0.632647 40.3145 2.17487 38.8259 3.5906 37.2643C9.52556 30.7182 16.1511 24.9911 23.9228 20.6573C31.2224 16.5863 38.9812 14.2735 47.4521 14.8221C53.6176 15.2213 59.3402 17.1066 64.7684 19.9499C72.1052 23.7926 78.3928 28.978 84.1406 34.8501C85.0763 35.8057 85.9774 36.7955 86.8897 37.7734C88.179 39.1564 89.4162 40.5738 89.9127 42.4591C89.9127 43.1545 89.9127 43.8499 89.9127 44.5453C89.3807 46.5911 87.9303 48.0377 86.5796 49.5452C80.7772 56.0226 74.2721 61.6664 66.6563 65.9864C61.3867 68.9749 55.8105 71.1323 49.7646 71.9462C43.7716 72.7523 37.9371 71.9985 32.2482 70.0274C24.5189 67.348 17.8232 62.9696 11.6803 57.6941C8.09337 54.613 4.77152 51.2674 1.78325 47.6161C1.05373 46.7233 0.643044 45.5746 0.0859375 44.5435C0.0859375 43.8481 0.0859375 43.1528 0.0859375 42.4574ZM44.9742 20.1989C40.169 20.2212 35.5926 21.3167 31.2189 23.2243C21.0948 27.6413 13.0692 34.7188 5.94552 42.9261C5.5487 43.3837 5.64661 43.7099 6.0053 44.1254C12.3518 51.4674 19.4998 57.8521 28.2133 62.3567C32.9492 64.8051 37.9493 66.4243 43.3133 66.7385C48.5464 67.045 53.5526 65.983 58.3378 63.9518C68.6828 59.5605 76.8375 52.3662 84.0825 44.0267C84.4525 43.6009 84.3537 43.2764 84.0219 42.8918C77.5628 35.4099 70.2796 28.9127 61.359 24.4047C56.2229 21.8094 50.7991 20.2178 44.9742 20.1989Z" fill="#09559F"/>
<path d="M61.3765 43.5091C61.3669 52.483 54.0388 59.728 44.9821 59.7177C35.9246 59.7074 28.6137 52.447 28.625 43.473C28.6363 34.4991 35.9722 27.2447 45.0185 27.2619C54.083 27.2799 61.386 34.5334 61.3765 43.5091ZM33.2846 43.5074C33.2924 49.8818 38.5862 55.1135 45.0168 55.1015C51.4525 55.0903 56.729 49.8474 56.7169 43.4739C56.7056 37.0935 51.4231 31.8746 44.9838 31.8832C38.5472 31.8918 33.2768 37.1287 33.2846 43.5074Z" fill="#09559F"/>
</g>
<defs>
<clipPath id="clip0_4215_4657">
<rect width="90" height="86.5193" fill="white"/>
</clipPath>
</defs>
</svg>
