<svg width="214" height="214" viewBox="0 0 214 214" fill="none" xmlns="http://www.w3.org/2000/svg">
<circle cx="107" cy="107" r="107" fill="white"/>
<path d="M103.006 189.178H102.188L106.143 21.9556L106.961 22.0921L106.825 32.4667L103.006 189.178Z" fill="#0B53A1"/>
<path d="M76.4102 188.495L75.5918 188.359L93.1866 116.829L100.688 32.8762H101.507L94.0049 116.965L76.4102 188.495Z" fill="#0B53A1"/>
<path d="M137.242 188.632L119.92 117.238L112.691 30.146H113.373L120.739 117.102L138.061 188.495L137.242 188.632Z" fill="#0B53A1"/>
<path d="M127.148 144.813L103.961 144.403H86.7754V143.721H103.961L127.148 143.994V144.813Z" fill="#0B53A1"/>
<path d="M103.688 144.403L103.415 143.721L123.874 135.121L103.143 125.565L119.373 117.784L103.688 109.867L118.419 103.86L104.507 88.4349L116.373 81.473L105.325 68.5048L114.6 60.1778L105.325 53.4889L113.099 45.1619L105.598 42.2953L112.554 35.3334L106.143 33.5588V32.8762L113.781 34.9238L106.962 42.0223L114.463 44.7524L106.552 53.3524L115.964 60.1778L106.143 68.6413L117.6 81.6096L105.734 88.5715L119.646 104.133L105.598 110.003L120.737 117.784L105.052 125.565L124.966 135.121L103.688 144.403Z" fill="#0B53A1"/>
<path d="M126.466 144.13L103.143 134.302L121.01 126.521L103.143 116.556L118.555 111.095L104.097 102.632L117.327 89.527L104.643 79.9714L115.827 67.6857L104.507 58.8127L113.918 48.4381L105.325 46.9365L112.69 38.2L106.007 35.4698L112.827 30.5555L112.963 31.1016L107.098 35.3333L114.054 37.927L106.825 46.3905L114.872 48.0286L105.734 58.6762L116.646 67.6857L105.87 79.8349L118.282 89.3905L105.325 102.495L120.328 111.232L105.052 116.829L122.783 126.657L105.052 134.302L126.875 143.448L126.466 144.13Z" fill="#0B53A1"/>
<path d="M87.0485 144.54L86.9121 143.857L103.007 134.984L91.1403 126.384L103.961 117.238L93.7318 110.959L104.098 102.768L94.9593 98.127L104.507 88.5714L96.3233 81.2L104.643 72.6L97.5508 67.0031L104.78 59.7682L98.7783 54.8539L105.462 47.346L99.8695 42.9777L105.462 37.9269L100.279 33.4222L106.144 31.6476L106.416 32.3301L101.915 33.6952L106.553 37.9269L100.688 42.9777L106.689 46.9365L99.5967 54.8539L106.007 59.6317L98.5055 67.0031L105.871 72.4635L97.4144 81.2L105.734 88.4349L96.3233 97.8539L105.462 102.632L95.0957 110.959L105.462 117.102L92.5042 126.384L104.234 134.984L87.0485 144.54Z" fill="#0B53A1"/>
<path d="M103.143 143.994L88.6855 135.257L103.28 126.248L93.3229 118.467L103.962 109.867L94.4141 104.133L103.962 96.4889L95.778 88.708L105.053 80.2445L96.8692 75.0572L104.78 65.9111L98.0967 61.1334L105.326 53.4889L99.4606 48.7111L105.735 42.1587L100.279 38.2L105.053 31.9207L105.598 32.4667L101.37 38.0635L106.962 42.0222L100.688 48.5746L106.553 53.4889L99.3242 60.9968L105.871 65.7746L97.4147 74.9207L106.417 80.381L96.7328 88.708L105.189 96.4889L95.778 103.997L105.326 109.867L94.5505 118.467L104.644 126.248L90.0495 135.257L103.552 143.311L103.143 143.994Z" fill="#0B53A1"/>
<path d="M108.74 24.4199L107.922 24.4362L111.197 188.076L112.016 188.06L108.74 24.4199Z" fill="#0B53A1"/>
<path d="M76.5472 187.54L75.8652 187.13L92.2324 161.194L84.7308 151.502L100.552 143.584L100.825 144.403L85.6856 151.775L93.1872 160.921L76.5472 187.54Z" fill="#0B53A1"/>
<path d="M111.054 189.041L97.0056 161.603L77.0921 187.403L76.4102 186.857L97.142 160.102L111.736 188.632L111.054 189.041Z" fill="#0B53A1"/>
<path d="M82.9271 160.044L82.9219 160.863L131.205 161.172L131.21 160.353L82.9271 160.044Z" fill="#0B53A1"/>
<path d="M101.234 189.451L93.0508 160.238L116.101 143.857L116.783 144.267L94.0055 160.511L101.916 189.178L101.234 189.451Z" fill="#0B53A1"/>
<path d="M97.2783 161.194L96.8691 160.511L109.963 153.276L100.006 144.676L100.552 144.13L110.645 152.73L118.419 143.857L129.331 152.321L119.101 161.057L110.781 153.822L97.2783 161.194ZM111.19 153.276L119.101 160.102L128.649 152.594L118.556 144.813L111.19 153.276Z" fill="#0B53A1"/>
<path d="M96.7331 160.648L84.7305 151.502L84.8669 150.956L97.6878 160.238L96.7331 160.648Z" fill="#0B53A1"/>
<path d="M103.553 189.314L102.735 189.041L117.465 161.057L111.191 157.645L103.417 152.73L94.2783 144.676L86.7767 151.092L86.5039 150.546L94.2783 143.721L103.826 152.184L111.6 156.962L118.556 160.784L103.553 189.314Z" fill="#0B53A1"/>
<path d="M118.317 160.649L117.646 161.119L137.29 189.18L137.961 188.71L118.317 160.649Z" fill="#0B53A1"/>
<path d="M135.604 181.397L132.194 180.305L133.831 177.575H129.193L132.74 172.797L125.511 172.251L131.376 167.61L121.828 166.927L130.012 161.194L124.01 156.689L124.692 156.143L131.239 161.194L123.601 166.791H132.74L126.738 171.841L133.967 172.387L130.694 176.892H134.922L133.422 179.895L135.604 180.578V181.397Z" fill="#0B53A1"/>
<path d="M80.0918 180.441L78.4551 177.165L82.6833 176.619L79.6826 171.841L85.002 172.524L80.9102 166.927L87.8662 166.654L82.1377 161.74L88.2754 155.87L88.821 156.416L83.0925 161.876L89.2302 167.064L82.1377 167.337L86.9115 173.616L80.501 172.387L84.1836 177.302L79.5462 177.575L80.7738 180.168L80.0918 180.441Z" fill="#0B53A1"/>
<path d="M111.871 189.314L111.189 189.041L120.464 160.511L137.241 187.13L136.559 187.54L120.601 161.876L111.871 189.314Z" fill="#0B53A1"/>
<path d="M97.9603 177.575L102.461 171.841L109.417 167.473L95.2324 167.2L109.69 156.143L110.099 156.825L96.3236 166.927H112.145L103.007 172.387L99.0514 177.029L104.916 176.892L110.918 171.432L115.555 177.302L109.417 177.575H97.9603ZM110.781 172.524L106.144 176.892L109.417 176.756L114.055 176.483L110.781 172.524Z" fill="#0B53A1"/>
<path d="M96.459 172.251L102.733 166.927L103.279 167.473L97.9593 172.114H115.418L109.28 166.927H117.6L110.78 161.33L100.551 166.927L100.142 166.244L110.917 160.375L118.828 167.337H111.462L117.054 172.797L96.459 172.251Z" fill="#0B53A1"/>
<path d="M74.2275 187.676H78.1829L78.4557 191.771L73 191.635L74.2275 187.676Z" fill="#0B53A1"/>
<path d="M100.415 188.905L104.234 189.041L104.507 193H99.3242" fill="#0B53A1"/>
<path d="M109.826 188.359L108.734 191.771L113.508 191.498L112.826 188.495L109.826 188.359Z" fill="#0B53A1"/>
<path d="M135.468 187.949L139.969 188.086L140.651 191.225L135.195 191.498L135.468 187.949Z" fill="#0B53A1"/>
<path d="M115.283 55.127L115.01 54.3079L132.741 49.8032L114.191 48.1651L114.328 47.346L135.196 49.2571V49.9397L115.283 55.127Z" fill="#0B53A1"/>
<path d="M90.1856 107.956L76.4098 106.591L76.2734 105.908L96.3233 96.6254V97.308L77.9102 105.908L90.0492 107.137L95.2321 104.27L95.6413 104.952L90.322 107.956H90.1856Z" fill="#0B53A1"/>
<path d="M119.237 104.133V103.314L136.15 101.267L118.828 98.5365L118.965 97.7175L141.879 101.267L119.237 104.133Z" fill="#0B53A1"/>
<path d="M116.373 54.1714L116.782 53.3524L117.191 52.5334C117.464 51.9873 117.873 51.5778 118.146 51.0318C118.419 50.4857 118.828 50.0762 119.101 49.5302L120.056 48.0286C120.056 47.8921 120.192 47.8921 120.328 48.0286L120.465 48.1651L120.874 53.3524H120.738L124.557 48.7111C124.693 48.5746 124.693 48.5746 124.829 48.7111C124.829 48.7111 124.829 48.8476 124.966 48.8476L125.375 52.6699L124.966 52.3968L126.057 51.5778C126.193 51.4413 126.466 51.3048 126.603 51.1683L127.148 50.7587C127.966 50.2127 128.648 49.6667 129.467 49.1207C128.785 49.8032 128.103 50.3492 127.421 51.0318L126.875 51.4413C126.739 51.5778 126.466 51.7143 126.33 51.8508L125.239 52.6699C125.102 52.6699 124.966 52.6699 124.966 52.6699C124.966 52.6699 124.966 52.6699 124.966 52.5334L124.557 48.7111L124.966 48.8476L121.147 53.4889C121.01 53.6254 121.01 53.6254 120.874 53.4889C120.874 53.4889 120.874 53.3524 120.738 53.3524L120.192 48.3016L120.601 48.4381L119.646 49.9397C119.374 50.4857 118.965 50.8953 118.692 51.4413C118.283 51.8508 118.01 52.3968 117.601 52.8064L117.055 53.4889L116.373 54.1714Z" fill="#0B53A1"/>
<path d="M123.33 103.314C123.193 103.314 123.193 103.314 123.33 103.314C123.193 103.314 123.193 103.178 123.193 103.041L123.466 99.2191L119.374 102.086L119.102 101.813L123.603 98.673C123.603 98.673 123.739 98.673 123.875 98.673L124.012 98.8095L123.466 102.768L129.058 99.4921H129.195L129.331 99.6286L129.877 102.359L129.467 102.495L129.058 100.038L123.33 103.314Z" fill="#0B53A1"/>
<path d="M95.3674 102.905L77.5723 105.642L77.6344 106.047L95.4295 103.309L95.3674 102.905Z" fill="#0B53A1"/>
<path d="M84.7295 104.816L84.3203 104.679L84.8659 101.949C84.8659 101.949 84.8659 101.813 85.0023 101.813H85.1387L89.6397 103.587L89.9124 99.9016C89.9124 99.7651 89.9124 99.7651 90.0488 99.7651H90.1852L95.7774 103.86L95.5046 104.133L90.3216 100.311L90.0488 103.86C90.0488 103.86 90.0488 103.86 89.9124 103.86H89.7761L85.2751 102.359L84.7295 104.816Z" fill="#0B53A1"/>
<path d="M93.1862 106.044L83.6387 105.089L83.7751 104.816L93.1862 105.635V106.044Z" fill="#0B53A1"/>
<path d="M89.7924 103.749L89.7188 104.152L94.8172 105.086L94.8909 104.684L89.7924 103.749Z" fill="#0B53A1"/>
<path d="M121.694 80.1079C121.558 80.1079 121.558 79.9714 121.558 79.9714L121.694 74.1015L117.329 79.5619L117.057 79.2888L121.83 73.419C121.83 73.419 121.967 73.2825 122.103 73.419C122.24 73.419 122.24 73.5555 122.24 73.5555L122.103 79.4254L126.604 74.1015C126.604 74.1015 126.741 73.965 126.741 74.1015C126.877 74.1015 126.877 74.2381 126.877 74.2381L127.695 78.0603L130.696 74.5111C130.696 74.5111 130.832 74.3746 130.969 74.5111C131.105 74.5111 131.105 74.6476 131.105 74.6476V77.5142H130.696V75.1936L127.832 78.6063C127.832 78.6063 127.695 78.7428 127.695 78.6063C127.559 78.6063 127.559 78.4698 127.559 78.4698L126.741 74.6476L122.24 79.9714C121.83 80.1079 121.83 80.1079 121.694 80.1079Z" fill="#0B53A1"/>
<path d="M117.738 81.2L117.465 80.3809L137.106 75.4666L116.646 73.692L116.783 72.873L139.424 74.9206L139.561 75.6031L117.738 81.2Z" fill="#0B53A1"/>
<path d="M87.8675 85.1587L75.8649 83.3841L75.7285 82.7016L97.6879 72.4635L97.9606 73.146L77.2288 82.8381L87.8675 84.3397L97.2787 79.4254V80.1079L88.1403 85.0222L87.8675 85.1587Z" fill="#0B53A1"/>
<path d="M97.0191 78.7394L76.8418 82.8723L76.9238 83.2735L97.1012 79.1406L97.0191 78.7394Z" fill="#0B53A1"/>
<path d="M95.5052 79.1524C95.096 78.8794 94.6869 78.4698 94.4141 78.1968C94.0049 77.9238 93.7321 77.6508 93.3229 77.3778C93.1865 77.3778 93.1865 77.2413 93.0501 77.2413C92.9137 77.1048 92.9138 77.1048 92.7774 76.9683L92.2318 76.5587L91.277 75.7397L91.5498 75.6032L91.277 80.2445C91.277 80.381 91.1406 80.381 91.0042 80.381C91.0042 80.381 91.0042 80.381 90.8678 80.381L86.6397 78.3333L86.9124 78.1968L86.5033 81.0635C86.5033 81.2 86.3669 81.2 86.2305 81.2L84.321 80.654C84.0482 80.5175 83.639 80.5175 83.3662 80.381L82.5479 80.1079L82.6842 79.9714L82.4115 80.7905L82.1387 82.0191L82.2751 80.7905L82.4115 79.8349C82.4115 79.8349 82.4115 79.6984 82.5479 79.6984L83.5026 79.9714C83.7754 79.9714 84.1846 80.1079 84.4574 80.2445L86.3669 80.7905L86.0941 81.0635L86.5033 78.0603C86.5033 77.9238 86.6397 77.9238 86.776 77.9238L91.1406 80.1079L90.8678 80.2445L91.1406 75.6032C91.1406 75.4667 91.277 75.4667 91.4134 75.4667H91.5498L92.5046 76.2857L93.0501 76.6952C93.1865 76.8318 93.1865 76.8318 93.3229 76.9683C93.4593 77.1048 93.4593 77.1048 93.5957 77.2413C93.8685 77.5143 94.2777 77.9238 94.5505 78.1968C94.8233 78.4698 95.2324 78.8794 95.5052 79.1524Z" fill="#0B53A1"/>
<path d="M91.7185 80.008L91.6562 80.4128L95.5658 81.0149L95.628 80.6101L91.7185 80.008Z" fill="#0B53A1"/>
<path d="M93.1869 82.1555L86.3672 81.473L86.5036 81.0635L93.3233 81.746L93.1869 82.1555Z" fill="#0B53A1"/>
<path d="M90.8688 82.9746L82.5488 82.019L82.6852 81.746L91.8236 82.5651L90.8688 82.9746Z" fill="#0B53A1"/>
<path d="M99.5355 54.7255L81.7227 59.3917L81.8263 59.7878L99.6391 55.1217L99.5355 54.7255Z" fill="#0B53A1"/>
<path d="M89.7774 61.1334L79.2751 60.0413L79.1387 59.3588L99.3249 47.8921L99.7341 48.5746L80.639 59.4953L89.7774 60.4508L98.5065 57.9937L98.7793 58.6762L89.9138 61.1334H89.7774Z" fill="#0B53A1"/>
<path d="M94.4134 59.3587L85.2751 58.5397C85.1387 58.5397 85.1387 58.4032 85.1387 58.2667L85.2751 56.219C85.2751 56.219 85.2751 56.0825 85.4115 56.0825H85.5479L89.5033 56.9016V53.6254C89.5033 53.4889 89.5033 53.4889 89.6396 53.4889H89.7761L92.9131 55.5365L93.5951 51.4413C93.5951 51.3047 93.5951 51.3047 93.7315 51.3047C93.8678 51.3047 93.8679 51.3047 93.8679 51.3047L97.5505 54.854L97.2777 55.127L93.8679 51.8508L93.1859 55.8095C93.1859 55.8095 93.1859 55.946 93.0495 55.946H92.9131L89.9124 54.0349V57.1746C89.9124 57.1746 89.9124 57.3111 89.7761 57.3111H89.6396L85.6842 56.492L85.5479 58.1301L94.6862 59.0857L94.4134 59.3587Z" fill="#0B53A1"/>
<path d="M98.2331 58.2667L89.5039 57.4476L89.6403 57.0381L98.3695 57.8571L98.2331 58.2667Z" fill="#0B53A1"/>
<path d="M98.6429 56.9016L93.0508 56.3555L93.3236 56.0825L98.6429 56.492V56.9016Z" fill="#0B53A1"/>
<path d="M101.096 34.1048L100.551 33.9683L105.734 21L113.235 30.146L112.826 30.5556L106.007 22.0921L101.096 34.1048Z" fill="#0B53A1"/>
</svg>
