<svg width="214" height="214" viewBox="0 0 214 214" fill="none" xmlns="http://www.w3.org/2000/svg">
<circle cx="107" cy="107" r="107" fill="white"/>
<path d="M101.506 192.218H102.481H111.164V195.5H101.683L101.506 192.218Z" fill="#0B52A0"/>
<path d="M101.684 102.798L101.772 98.5403L103.101 99.0726L103.013 102.621L101.684 102.798ZM102.038 98.9839L101.949 102.444L102.57 102.355L102.658 99.25L102.038 98.9839Z" fill="#0B52A0"/>
<path d="M101.949 102.089L79 100.492V99.1613L101.684 99.5162L102.038 99.4274L101.949 102.089ZM79.2658 100.226L101.595 101.734L101.684 99.7823L79.2658 99.5162V100.226Z" fill="#0B52A0"/>
<path d="M109.392 103.153L108.063 102.798L107.975 98.9839H109.57L109.392 103.153ZM108.418 102.621L109.215 102.798L109.392 99.3387H108.418V102.621Z" fill="#0B52A0"/>
<path d="M109.305 102.355V102.089L131.191 101.556V100.758L109.393 100.048V99.6935L131.545 100.492L131.457 101.823H131.279L109.305 102.355Z" fill="#0B52A0"/>
<path d="M107.709 54.2742L106.646 53.9194L106.469 50.6371L107.975 50.371L107.709 54.2742ZM107 53.6532L107.443 53.8306L107.709 50.6371L106.912 50.8145L107 53.6532Z" fill="#0B52A0"/>
<path d="M107.443 53.5645V53.3871L107.532 53.2984C107.621 52.6774 107.621 52.1452 107.621 51.4355V51.3468L107.532 51.1694H107.709L127.114 52.2339L127.203 53.3871L107.443 53.5645ZM107.975 51.3468C107.975 52.0565 107.975 52.5887 107.798 53.2097L126.848 53.0323L126.937 52.4113L107.975 51.3468Z" fill="#0B52A0"/>
<path d="M103.102 53.2984H102.925L82.5449 51.7016V50.6371L103.102 50.7258V53.2984ZM82.8107 51.4355L102.747 53.0322V51.0806L82.8107 50.9919V51.4355Z" fill="#0B52A0"/>
<path d="M108.862 126.306L108.33 103.242L107.533 74.6774L106.912 48.2419C106.824 48.2419 106.735 48.2419 106.646 48.2419L107.267 74.6774L108.064 103.242L108.596 126.395L109.127 146.887L110.279 192.484L102.659 192.661L102.925 144.581L103.014 128.081L103.102 103.685L103.279 75.2097L103.368 50.5484V48.4194C103.279 48.4194 103.191 48.4194 103.102 48.4194V50.5484L102.925 75.2097L102.748 103.685L102.659 128.169L102.571 144.492L102.305 192.839V193.016L110.545 192.839L109.393 147.065L108.862 126.306Z" fill="#0B52A0"/>
<path d="M103.367 49.5726V26.2419C103.987 25.621 104.519 25.3548 105.139 25.3548C105.848 25.3548 106.291 25.8871 106.468 26.0645L106.557 49.75C106.645 49.75 106.822 49.75 106.911 49.75L106.822 25.9758V25.8871C106.822 25.8871 106.202 25.0887 105.227 25C104.519 25 103.81 25.3548 103.189 26.0645V26.1532V49.6613C103.189 49.5726 103.278 49.5726 103.367 49.5726Z" fill="#0B52A0"/>
<path d="M106.734 49.6613L106.646 25.9758C106.646 25.9758 106.025 25.0887 105.051 25.2661L105.139 49.6613C105.671 49.6613 106.203 49.6613 106.734 49.6613Z" fill="#0B52A0"/>
<path d="M105.051 48.3307L107 192.573L110.279 192.75L106.734 48.2419C106.203 48.2419 105.671 48.3307 105.051 48.3307Z" fill="#0B52A0"/>
<path d="M108.595 78.758L107.354 78.4919L107.266 75.0322L108.683 74.7661L108.595 78.758ZM107.62 78.2258L108.329 78.3145L108.418 75.0322L107.531 75.121L107.62 78.2258Z" fill="#0B52A0"/>
<path d="M108.33 78.0484L108.419 75.3871H108.596L129.241 76.2742V76.3629C129.33 76.5403 129.241 77.1613 129.241 77.3387V77.4274H129.153L108.33 78.0484ZM108.685 75.7419L108.596 77.7822L128.887 77.25C128.887 76.9839 128.887 76.8064 128.887 76.629L108.685 75.7419Z" fill="#0B52A0"/>
<path d="M101.24 77.9597H101.417L80.8601 75.7419L80.7715 74.5L101.24 75.2097L101.417 75.3871C101.417 75.4758 101.328 75.5645 101.417 75.7419C101.417 75.8306 101.151 75.9194 101.151 76.0081V76.1855C101.151 76.3629 101.24 76.629 101.24 76.8952L101.151 76.8065C101.151 77.0726 101.24 77.25 101.24 77.5161V77.9597ZM81.1259 75.4758L101.24 77.6936V77.5161C101.24 77.25 101.24 76.9839 101.24 76.8065C101.24 76.629 101.24 76.4516 101.24 76.2742V76.0968C101.24 76.0081 101.24 75.9194 101.151 75.8306C101.151 75.7419 101.151 75.5645 101.151 75.4758L81.1259 74.7661V75.4758Z" fill="#0B52A0"/>
<path d="M101.062 78.5807L101.151 74.2339L102.923 74.4113L103.1 78.5807H101.062ZM101.417 74.5L101.328 78.2258L102.746 78.1371L102.657 74.5887L101.417 74.5Z" fill="#0B52A0"/>
</svg>
