<svg width="214" height="219" viewBox="0 0 214 219" fill="none" xmlns="http://www.w3.org/2000/svg">
<circle cx="107" cy="107" r="107" fill="white"/>
<g clip-path="url(#clip0_3980_164)">
<path d="M50.1834 96.0417L35.891 101.892L35.9993 102.65L37.0821 102.975L37.1903 103.517L36.9738 105.25L37.6234 105.358L38.8145 162.558L38.0565 163.1V164.183L49.209 165.375V168.083L47.5848 167.975L46.3938 169.167L46.6103 177.292L53.2152 177.833L52.1324 178.267V179.567L56.2469 180.217L58.7372 178.592L101.398 183.683L100.423 184.658V185.525L103.13 186.067L105.188 185.958L106.812 184.225L152.396 189.75L151.638 190.617L151.746 191.592L152.937 191.917L154.994 192.242L156.835 192.133L158.134 190.4L165.172 191.05L166.472 189.858L166.688 181.733L164.523 181.3L167.879 177.292L174.592 177.942L175.783 176.967V169.058L157.918 166.892V162.992L162.899 164.725L168.421 162.775L168.637 151.4C168.637 151.4 173.726 150.858 171.128 149.233L171.019 146.525C171.019 146.525 174.376 145.875 174.592 142.733L175.026 124.75C175.026 124.75 174.592 121.933 171.669 121.283V118.575C171.669 118.575 175.459 116.95 169.828 115.975L170.153 104.383C170.153 104.383 170.803 102 166.147 101.892H164.956C164.956 101.892 165.389 99.8333 161.383 100.158L161.166 99.5083C161.166 99.5083 166.472 96.0417 159.975 94.2C159.975 94.2 154.886 92.3583 133.123 91.0583L86.0227 87.9167L70.6476 86.725L70.431 85.425L63.5014 85.1C63.5014 85.1 64.5841 76.4333 58.8455 75.2417L58.9538 65.6C58.9538 65.6 67.9407 64.0833 67.3993 52.4917C67.3993 52.4917 66.3165 41.4417 55.0559 40.9L54.9476 38.3C54.9476 38.3 58.5207 37.5417 54.2979 36.675C54.2979 36.675 44.8779 36.35 45.5276 37.7583C45.5276 37.7583 46.3938 38.3 46.7186 38.3L46.6103 42.0917L30.369 45.775C30.369 45.775 18.3503 47.8333 19.2165 59.6417C19.2165 59.6417 19.6496 70.475 28.2034 74.05L28.5283 86.5083L27.9869 86.6167L28.0952 88.2417H28.42V90.8417L47.8014 92.25C47.9096 92.7917 44.4448 95.175 50.1834 96.0417Z" stroke="#1356A0" stroke-miterlimit="10"/>
<path d="M29.9355 75.1333L30.1521 84.3417C30.1521 84.3417 30.0438 85.9667 30.91 86.075L39.2473 82.825V74.1583C39.2473 74.2667 34.1583 77.5167 29.9355 75.1333Z" stroke="#1356A0" stroke-miterlimit="10"/>
<path d="M32.1016 87.4833L39.4643 84.5583L40.114 84.8833L40.2223 86.2917L39.5726 87.05L46.8271 87.1584C46.8271 87.1584 47.1519 88.675 44.0119 88.675L32.1016 87.4833Z" stroke="#1356A0" stroke-miterlimit="10"/>
<path d="M48.668 87.375V90.0833L53.8652 90.3L58.6293 88.2417L48.668 87.375Z" stroke="#1356A0" stroke-miterlimit="10"/>
<path d="M40.9805 74.1583L41.0887 80.4417C41.0887 80.4417 41.4136 84.2333 46.5025 83.6917L46.9356 83.9083L46.8274 78.0583C46.8274 78.0583 43.5791 76.8667 42.6046 74.1583H40.9805Z" stroke="#1356A0" stroke-miterlimit="10"/>
<path d="M48.3418 70.5833L48.4501 75.2416L57.5452 75.5666C57.5452 75.5666 58.3032 70.6916 53.8639 70.475L48.3418 70.5833Z" stroke="#1356A0" stroke-miterlimit="10"/>
<path d="M48.668 77.95L48.7762 84.125L55.2728 84.5583C55.2728 84.5583 57.4383 84.5583 57.6549 82.2833V78.8167L48.668 77.95Z" stroke="#1356A0" stroke-miterlimit="10"/>
<path d="M39.2479 74.2666C39.2479 74.2666 48.6679 69.3916 44.8782 56.6083C44.8782 56.6083 41.4134 46.2083 31.3438 46.2083" stroke="#1356A0" stroke-miterlimit="10"/>
<path d="M49.1015 111.1V112.292L50.2926 169.925L51.5919 170.142L50.4008 110.883H49.1015L47.4774 110.775L47.3691 108.392L46.8277 108.283L46.936 107.633L50.7257 105.358L50.2926 96.15L56.2477 96.5833L124.462 101.35L128.576 101.675C128.576 101.675 156.728 103.95 161.275 100.375C161.275 100.375 166.797 97.2333 160.084 95.0667C151.964 92.25 71.1898 87.5917 71.1898 87.5917H70.7567L70.4319 88.8917L63.7188 88.5667L63.9353 90.95H60.3622L60.5788 93.4417L48.0188 93.0083C48.0188 93.0083 46.1781 94.2 47.0443 94.9583L48.885 96.15" stroke="#1356A0" stroke-miterlimit="10"/>
<path d="M51.1577 110.775L73.3542 112.508L73.4625 110.342L47.2598 108.283L47.368 110.667L51.1577 110.775Z" stroke="#1356A0" stroke-miterlimit="10"/>
<path d="M79.7418 106.767L79.6335 107.85L75.519 110.017L75.7356 110.883L76.8183 110.775L76.7101 111.208L73.3535 112.725L73.4618 110.558L79.7418 106.767Z" fill="#1356A0"/>
<path d="M68.5905 100.375L79.9594 106.333L73.4629 110.342L46.7188 108.175L46.827 107.525L50.0753 105.683L64.0429 100.267L68.5905 100.375Z" fill="#1356A0" stroke="#1356A0" stroke-miterlimit="10"/>
<path d="M79.6351 107.742L79.8517 107.633L92.0868 102.325H96.4179L97.0675 102.542L108.978 108.608L109.086 109.475L103.997 112.508L76.9282 110.45H76.3868L75.6289 109.8L79.6351 107.742Z" fill="#1356A0" stroke="#1356A0" stroke-miterlimit="10"/>
<path d="M76.8184 111.1V113.05L103.238 115.217L106.486 113.375L105.62 112.833L105.728 112.075L103.779 112.617L103.346 112.725L77.0349 110.667L76.8184 111.1Z" stroke="#1356A0" stroke-miterlimit="10"/>
<path d="M107.028 115.325L106.378 115.217V113.267L105.512 112.725L105.728 111.533L122.403 104.6L127.492 104.708L138.969 110.883L139.077 111.75L138.428 112.4L138.319 114.133L134.205 117.383L107.028 115.325Z" fill="#1356A0" stroke="#1356A0" stroke-miterlimit="10"/>
<path d="M106.379 113.267L134.639 115.217L138.104 113.05" stroke="#1356A0" stroke-miterlimit="10"/>
<path d="M139.187 111.967L139.078 111.1L128.792 105.467L127.601 104.925L125.436 106.55L133.34 115.217V117.492" fill="#1356A0"/>
<path d="M137.887 114.567L137.129 176.1L137.778 176.642L137.67 177.725L133.556 181.95L105.945 178.808V177.508H106.595L107.136 115.433L134.314 117.6L137.887 114.567Z" stroke="#1356A0" stroke-miterlimit="10"/>
<path d="M133.123 180.542L134.206 117.492L137.779 114.567L136.804 175.667L137.562 176.642L137.454 177.725L133.34 181.95L133.123 180.542Z" fill="#1356A0"/>
<path d="M103.238 115.217L105.728 113.7L106.378 114.025V115.325L107.028 115.433L106.486 175.017L103.563 178.483L103.455 177.508L103.021 176.967L103.238 115.217Z" fill="#1356A0"/>
<path d="M103.022 178.483L76.8192 175.342L76.7109 174.15L77.5771 174.042L77.144 112.833L103.239 115.108L103.022 176.208L103.563 177.942L103.672 178.483H103.022Z" stroke="#1356A0" stroke-miterlimit="10"/>
<path d="M77.3611 171.875L74.2211 174.908L48.668 171.767L49.1011 170.683L49.9673 169.925L49.1011 110.775L73.1383 112.725L76.8197 111.1L77.3611 171.875Z" stroke="#1356A0" stroke-miterlimit="10"/>
<path d="M74.2197 174.15L73.3535 112.292L76.8183 111.1L76.7101 112.833L77.0349 114.025L77.2514 171.983L74.1114 175.017V174.15H74.2197Z" fill="#1356A0"/>
<path d="M158.892 104.817L159.109 112.617L162.898 112.075V114.783L158.784 115.108L158.676 125.833L160.841 126.05L161.274 126.375V128.217L159.867 128.108L160.949 129.408L159.975 129.625L160.083 139.917L161.058 140.133V141.542L159.758 141.433L159.542 154.108L157.701 154.217L158.026 155.408L161.491 154.108L161.816 157.033L157.918 158.008L158.134 163.425L163.115 165.158L163.44 146.417C163.44 146.417 160.733 145.875 160.841 142.192L161.166 130.275C161.166 130.275 160.083 121.392 164.631 121.933L164.523 116.842V105.25L158.892 104.817Z" stroke="#1356A0" stroke-miterlimit="10"/>
<path d="M135.614 179.675L165.389 183.25L165.281 189.858L106.163 182.708L48.5598 176.208L48.0184 176.1L47.9102 169.708L49.3177 169.6L49.2095 170.792L48.7764 171.875L73.5715 175.017L77.1446 172.417L77.686 174.258L76.8198 174.367L76.9281 175.558L103.672 178.7L106.596 175.233V177.725H105.946V179.025L131.066 181.95L133.123 182.058L134.639 181.192L135.614 179.675Z" stroke="#1356A0" stroke-miterlimit="10"/>
<path d="M46.7188 42.7417C46.7188 42.7417 54.5146 45.5583 55.1643 41.55L55.056 38.95C55.056 38.95 49.7505 40.0333 46.827 38.95L46.7188 42.7417Z" stroke="#1356A0" stroke-miterlimit="10"/>
<path d="M140.486 128.433L140.27 152.917L142.435 155.192L159.543 154.217L159.976 129.625L157.81 126.7L140.486 128.433Z" stroke="#1356A0" stroke-miterlimit="10"/>
<path d="M142.219 154.65L142.652 130.492L140.486 128.433L140.27 152.917L142.219 154.65Z" fill="#1356A0"/>
<path d="M159.326 129.625L142.652 130.383L140.486 128.325L157.81 126.7L159.326 129.625Z" stroke="#1356A0" stroke-miterlimit="10"/>
<path d="M57.6538 78.8166C57.6538 78.8166 60.1441 79.3583 59.8193 85.75C59.8193 85.9666 59.711 90.5166 59.711 90.5166L63.5007 90.7333L63.6089 84.775C63.6089 84.775 64.8 76.2166 56.8958 75.35L48.5586 75.1333L48.6669 77.8416L57.6538 78.8166Z" stroke="#1356A0" stroke-miterlimit="10"/>
<path d="M40.6543 73.4C40.6543 73.4 44.8771 73.1833 46.7177 68.6333L48.4502 68.3083L48.3419 70.5833L48.6667 79.25L48.5584 90.0833L46.9343 90.4084L47.1508 77.5167C47.1508 77.5167 45.8515 74.05 42.495 74.1583H40.8708L40.6543 73.4Z" stroke="#1356A0" stroke-miterlimit="10"/>
<path d="M49.4258 70.2583C49.4258 70.2583 53.1072 70.3667 57.5465 64.625L58.9541 64.5167L58.8458 75.8917L57.5465 75.5667L57.3299 65.7083C57.4382 65.7083 55.0561 70.5833 49.4258 70.2583Z" stroke="#1356A0" stroke-miterlimit="10"/>
<path d="M71.4051 88.7833L71.5134 90.4083L67.832 91.8167L77.3603 92.9L80.7169 90.4083H77.252L77.0355 88.5667L71.4051 88.7833Z" stroke="#1356A0" stroke-miterlimit="10"/>
<path d="M96.8505 90.1916L96.7422 92.25L93.3856 93.1166L93.2773 93.7666L103.239 94.4166L106.162 92.25L102.481 91.6L102.373 89.975L96.8505 90.1916Z" stroke="#1356A0" stroke-miterlimit="10"/>
<path d="M123.703 91.925L123.595 93.4416L119.48 94.85L129.009 96.15L133.015 94.4166L129.983 93.875L129.875 91.7083L123.703 91.925Z" stroke="#1356A0" stroke-miterlimit="10"/>
<path d="M99.1246 72.425L99.2329 75.675L98.5832 76.2166V76.8666L95.5515 78.6L95.4432 80.3333L97.1756 80.55L95.4432 82.2833V83.2583L96.9591 83.9083L95.335 84.9916L95.2267 87.1583L96.8508 87.2666L94.577 88.5666L94.4688 90.5166C94.4688 90.5166 100.965 91.4916 104.538 90.3L104.322 88.5666L102.589 87.375L104.105 86.9416L104.214 84.9916L102.698 83.8L104.322 83.475L104.43 81.7416L103.023 80.6583L104.322 80.225L104.214 78.4916L101.398 77.0833L101.29 76.1083L100.749 75.4583L100.64 71.8833L99.0163 71.775L99.1246 72.425Z" fill="#1356A0"/>
<path d="M73.7867 70.3667L73.895 73.6167L73.2453 74.1583V74.9167L70.2136 76.65L70.1053 78.3833L71.8378 78.6L70.1053 80.3333V81.3083L71.6212 81.9583L69.9971 83.0417L69.8888 85.3167L71.5129 85.425L69.2391 86.725L69.1309 88.675C69.1309 88.675 75.6274 89.65 79.2005 88.4583L78.984 86.725L77.2515 85.5333L78.7674 85.1L78.8757 83.15L77.3598 81.9583L78.984 81.6333L79.0922 79.9L77.6847 78.8167L78.984 78.3833L78.8757 76.65L75.9522 75.35L75.844 74.375L75.3026 73.725V69.9333L73.6784 69.825L73.7867 70.3667Z" fill="#1356A0"/>
<path d="M125.976 73.9416L126.084 77.1916L125.435 77.7333V78.3833L122.403 80.1166L122.295 81.85L124.027 82.0666L122.295 83.8V84.775L123.811 85.425L122.187 86.5083L122.078 88.675L123.702 88.7833L121.429 90.0833L121.32 92.0333C121.32 92.0333 127.817 93.0083 131.39 91.8166L131.173 90.0833L129.441 88.8916L130.957 88.4583L131.065 86.5083L129.549 85.3166L131.173 84.9916L131.282 83.2583L129.874 82.175L131.173 81.7416L131.065 80.0083L128.142 78.7083L128.033 77.7333L127.492 77.0833L127.384 73.5083L125.76 73.4L125.976 73.9416Z" fill="#1356A0"/>
<path d="M51.4824 112.833L52.5652 170.575L53.6479 170.683L52.5652 112.942L51.4824 112.833Z" fill="#1356A0"/>
<path d="M57.1133 113.592L58.196 171.117L59.2788 171.225L58.196 113.7L57.1133 113.592Z" fill="#1356A0"/>
<path d="M62.7441 113.808L63.8269 171.767L64.9097 171.875L63.8269 113.917L62.7441 113.808Z" fill="#1356A0"/>
<path d="M68.373 114.242L69.4558 172.633L70.5386 172.742L69.4558 114.35L68.373 114.242Z" fill="#1356A0"/>
<path d="M79.418 115.108L79.6345 173.825L80.7173 173.933L80.5007 115.325L79.418 115.108Z" fill="#1356A0"/>
<path d="M85.0488 115.867L85.2654 174.367L86.3481 174.475L86.1316 116.083L85.0488 115.867Z" fill="#1356A0"/>
<path d="M90.6777 116.3L90.8943 175.233L91.977 175.342L91.7605 116.408L90.6777 116.3Z" fill="#1356A0"/>
<path d="M96.3086 116.842L96.5251 176.1L97.6079 176.208L97.4996 116.95L96.3086 116.842Z" fill="#1356A0"/>
<path d="M109.844 117.492L109.52 176.858L110.602 176.967L110.927 117.492H109.844Z" fill="#1356A0"/>
<path d="M115.473 118.358L115.148 177.508L116.231 177.617L116.556 118.467L115.473 118.358Z" fill="#1356A0"/>
<path d="M121.212 118.683L120.887 178.267L121.969 178.375L122.294 118.792L121.212 118.683Z" fill="#1356A0"/>
<path d="M126.842 119.333L126.518 179.35L127.6 179.458L127.925 119.442L126.842 119.333Z" fill="#1356A0"/>
<path d="M32.3179 51.0833C26.7959 51.0833 22.4648 55.525 22.4648 61.05C22.4648 66.575 26.9042 71.0166 32.3179 71.0166C37.84 71.0166 42.1711 66.575 42.1711 61.05C42.2793 55.525 37.84 51.0833 32.3179 51.0833ZM29.6111 66.4666L32.5345 61.7H28.8531L32.2097 55.6333H35.5662L31.9931 60.6166H35.8911L29.6111 66.4666Z" fill="#1356A0"/>
<path d="M142.651 130.492L159.867 129.733L159.434 154.325L142.326 155.3L142.651 130.492Z" stroke="#1356A0" stroke-miterlimit="10"/>
<path d="M68.5904 100.375L66.5332 102L73.5711 110.342L80.0677 106.333L68.5904 100.375Z" fill="#1356A0"/>
<path d="M96.4169 102.433L94.5762 103.95L103.238 112.617L109.193 109.583L107.028 107.742L96.4169 102.433Z" fill="#1356A0"/>
<path d="M138.212 112.292L138.104 114.025L133.99 117.275L133.557 115.758L138.212 112.292Z" fill="#1356A0"/>
</g>
<defs>
<clipPath id="clip0_3980_164">
<rect width="157" height="208" fill="white" transform="translate(19 11)"/>
</clipPath>
</defs>
</svg>
