<svg width="84" height="84" viewBox="0 0 84 84" fill="none" xmlns="http://www.w3.org/2000/svg">
<rect x="1.5" y="10.1738" width="81" height="72.3261" rx="5.34783" stroke="#09559F" stroke-width="3"/>
<line x1="1.37109" y1="24.0652" x2="83.0885" y2="24.0652" stroke="#09559F" stroke-width="3"/>
<rect x="15.1953" y="1.5" width="7.95652" height="15.2609" fill="white" stroke="#09559F" stroke-width="3"/>
<rect x="38.0234" y="1.5" width="7.95652" height="15.2609" fill="white" stroke="#09559F" stroke-width="3"/>
<rect x="60.8477" y="1.5" width="7.95652" height="15.2609" fill="white" stroke="#09559F" stroke-width="3"/>
<path d="M23.6153 53.8557C22.1904 53.8557 20.9315 53.6032 19.8386 53.0983C18.7527 52.5864 17.9053 51.8844 17.2966 50.9921C16.6879 50.0929 16.387 49.0691 16.394 47.9209C16.387 47.0217 16.5634 46.1917 16.9231 45.4308C17.2828 44.663 17.7739 44.0232 18.3964 43.5113C19.0259 42.9926 19.728 42.664 20.5027 42.5257V42.4012C19.4859 42.1383 18.6766 41.5677 18.0748 40.6892C17.473 39.8038 17.1756 38.7974 17.1825 37.6699C17.1756 36.5909 17.4488 35.626 18.0022 34.7752C18.5555 33.9244 19.3164 33.2534 20.2848 32.7623C21.2601 32.2712 22.3702 32.0257 23.6153 32.0257C24.8465 32.0257 25.9463 32.2712 26.9147 32.7623C27.8831 33.2534 28.644 33.9244 29.1973 34.7752C29.7576 35.626 30.0412 36.5909 30.0481 37.6699C30.0412 38.7974 29.7334 39.8038 29.1247 40.6892C28.5229 41.5677 27.724 42.1383 26.728 42.4012V42.5257C27.4957 42.664 28.1874 42.9926 28.8031 43.5113C29.4187 44.0232 29.9098 44.663 30.2764 45.4308C30.643 46.1917 30.8297 47.0217 30.8366 47.9209C30.8297 49.0691 30.5185 50.0929 29.9029 50.9921C29.2942 51.8844 28.4468 52.5864 27.3609 53.0983C26.2818 53.6032 25.0333 53.8557 23.6153 53.8557ZM23.6153 51.5731C24.5768 51.5731 25.4068 51.4175 26.1054 51.1062C26.804 50.7949 27.3436 50.3557 27.724 49.7885C28.1044 49.2213 28.2981 48.5573 28.305 47.7964C28.2981 46.994 28.0906 46.285 27.6825 45.6694C27.2744 45.0538 26.7176 44.5696 26.012 44.2169C25.3134 43.8641 24.5145 43.6877 23.6153 43.6877C22.7092 43.6877 21.8999 43.8641 21.1874 44.2169C20.4819 44.5696 19.9251 45.0538 19.517 45.6694C19.1158 46.285 18.9187 46.994 18.9256 47.7964C18.9187 48.5573 19.102 49.2213 19.4755 49.7885C19.8559 50.3557 20.3989 50.7949 21.1044 51.1062C21.81 51.4175 22.6469 51.5731 23.6153 51.5731ZM23.6153 41.4881C24.3762 41.4881 25.0506 41.3359 25.6385 41.0316C26.2334 40.7272 26.7003 40.3018 27.0392 39.7554C27.3782 39.209 27.5511 38.5691 27.558 37.8359C27.5511 37.1166 27.3816 36.4906 27.0496 35.958C26.7176 35.4184 26.2576 35.0034 25.6697 34.7129C25.0817 34.4155 24.3969 34.2668 23.6153 34.2668C22.8198 34.2668 22.1247 34.4155 21.5298 34.7129C20.935 35.0034 20.475 35.4184 20.1499 35.958C19.8248 36.4906 19.6657 37.1166 19.6726 37.8359C19.6657 38.5691 19.8282 39.209 20.1603 39.7554C20.4992 40.3018 20.9661 40.7272 21.561 41.0316C22.1558 41.3359 22.8406 41.4881 23.6153 41.4881ZM41.7439 53.8557C40.1806 53.8557 38.8491 53.4303 37.7493 52.5795C36.6495 51.7218 35.8091 50.4802 35.2281 48.8547C34.647 47.2223 34.3565 45.251 34.3565 42.9407C34.3565 40.6442 34.647 38.6833 35.2281 37.0578C35.816 35.4254 36.6599 34.1803 37.7597 33.3226C38.8664 32.458 40.1945 32.0257 41.7439 32.0257C43.2933 32.0257 44.6179 32.458 45.7177 33.3226C46.8244 34.1803 47.6683 35.4254 48.2493 37.0578C48.8373 38.6833 49.1312 40.6442 49.1312 42.9407C49.1312 45.251 48.8407 47.2223 48.2597 48.8547C47.6787 50.4802 46.8383 51.7218 45.7385 52.5795C44.6386 53.4303 43.3071 53.8557 41.7439 53.8557ZM41.7439 51.5731C43.2933 51.5731 44.4969 50.8261 45.3546 49.332C46.2123 47.8379 46.6411 45.7075 46.6411 42.9407C46.6411 41.1008 46.444 39.5341 46.0497 38.2406C45.6624 36.9471 45.1021 35.9614 44.3689 35.2836C43.6426 34.6057 42.7676 34.2668 41.7439 34.2668C40.2083 34.2668 39.0082 35.0242 38.1436 36.539C37.279 38.0469 36.8467 40.1808 36.8467 42.9407C36.8467 44.7806 37.0403 46.3438 37.4277 47.6304C37.815 48.917 38.3719 49.8957 39.0981 50.5667C39.8313 51.2376 40.7133 51.5731 41.7439 51.5731ZM59.3407 49.83V36.1344H61.6648V49.83H59.3407ZM53.655 44.1442V41.8201H67.3506V44.1442H53.655Z" fill="#09559F"/>
<path d="M19.734 77.4307C19.4746 77.4307 19.2433 77.4091 19.0402 77.3659C18.837 77.327 18.6965 77.2881 18.6187 77.2492L19.0077 75.9003C19.3795 75.9955 19.7081 76.03 19.9934 76.0041C20.2787 75.9782 20.5316 75.8506 20.7521 75.6215C20.9769 75.3967 21.1823 75.0314 21.3682 74.5256L21.6535 73.7474L17.9702 63.7351H19.6303L22.3798 71.6723H22.4835L25.233 63.7351H26.8931L22.6651 75.1481C22.4749 75.6626 22.2393 76.0884 21.9583 76.4256C21.6773 76.7671 21.3509 77.02 20.9791 77.1843C20.6116 77.3486 20.1966 77.4307 19.734 77.4307ZM32.7326 73.9031C31.7728 73.9031 30.945 73.6912 30.2489 73.2676C29.5572 72.8396 29.0233 72.243 28.6472 71.4778C28.2754 70.7083 28.0895 69.8134 28.0895 68.7931C28.0895 67.7729 28.2754 66.8737 28.6472 66.0955C29.0233 65.313 29.5464 64.7035 30.2165 64.2668C30.8909 63.8259 31.6777 63.6054 32.5769 63.6054C33.0957 63.6054 33.608 63.6919 34.1138 63.8648C34.6196 64.0377 35.08 64.3187 35.495 64.7078C35.9101 65.0925 36.2408 65.6027 36.4872 66.2382C36.7336 66.8737 36.8568 67.6562 36.8568 68.5856V69.2341H29.179V67.9112H35.3005C35.3005 67.3492 35.1881 66.8477 34.9633 66.4068C34.7428 65.9658 34.4272 65.6178 34.0165 65.3627C33.6102 65.1077 33.1303 64.9801 32.5769 64.9801C31.9674 64.9801 31.44 65.1315 30.9947 65.4341C30.5537 65.7324 30.2144 66.1214 29.9766 66.6013C29.7388 67.0812 29.6199 67.5956 29.6199 68.1447V69.0266C29.6199 69.7788 29.7496 70.4165 30.009 70.9396C30.2727 71.4583 30.638 71.8539 31.1049 72.1263C31.5718 72.3943 32.1144 72.5283 32.7326 72.5283C33.1346 72.5283 33.4978 72.4721 33.822 72.3597C34.1506 72.243 34.4337 72.0701 34.6715 71.8409C34.9093 71.6075 35.093 71.3178 35.2227 70.972L36.7012 71.387C36.5456 71.8885 36.284 72.3294 35.9165 72.7099C35.5491 73.086 35.0952 73.38 34.5548 73.5918C34.0144 73.7993 33.407 73.9031 32.7326 73.9031ZM42.1159 73.929C41.4847 73.929 40.9119 73.8101 40.3975 73.5723C39.883 73.3303 39.4745 72.9822 39.1719 72.5283C38.8692 72.0701 38.7179 71.5167 38.7179 70.8682C38.7179 70.2976 38.8303 69.835 39.0551 69.4805C39.2799 69.1217 39.5804 68.8407 39.9565 68.6375C40.3326 68.4343 40.7476 68.283 41.2016 68.1836C41.6598 68.0798 42.1202 67.9977 42.5828 67.9372C43.188 67.8593 43.6787 67.801 44.0548 67.7621C44.4353 67.7188 44.7119 67.6475 44.8849 67.5481C45.0621 67.4486 45.1507 67.2757 45.1507 67.0293V66.9774C45.1507 66.3376 44.9757 65.8404 44.6255 65.4859C44.2796 65.1315 43.7544 64.9542 43.0497 64.9542C42.3191 64.9542 41.7463 65.1142 41.3313 65.4341C40.9162 65.754 40.6244 66.0955 40.4558 66.4586L39.0033 65.9399C39.2626 65.3346 39.6085 64.8634 40.0408 64.5262C40.4774 64.1847 40.953 63.9469 41.4674 63.8129C41.9862 63.6746 42.4963 63.6054 42.9978 63.6054C43.3177 63.6054 43.6852 63.6443 44.1002 63.7221C44.5196 63.7956 44.9238 63.9491 45.3129 64.1825C45.7063 64.416 46.0327 64.7683 46.292 65.2395C46.5514 65.7107 46.6811 66.3419 46.6811 67.1331V73.6956H45.1507V72.3467H45.0729C44.9692 72.5629 44.7962 72.7942 44.5541 73.0406C44.3121 73.287 43.99 73.4967 43.5879 73.6696C43.1859 73.8425 42.6952 73.929 42.1159 73.929ZM42.3494 72.5543C42.9546 72.5543 43.4647 72.4354 43.8797 72.1976C44.2991 71.9598 44.6147 71.6529 44.8265 71.2768C45.0427 70.9007 45.1507 70.5051 45.1507 70.0901V68.6894C45.0859 68.7672 44.9432 68.8385 44.7227 68.9034C44.5066 68.9639 44.2559 69.0179 43.9705 69.0655C43.6895 69.1087 43.415 69.1476 43.147 69.1822C42.8833 69.2125 42.6693 69.2384 42.505 69.26C42.1073 69.3119 41.7355 69.3962 41.3896 69.5129C41.0481 69.6253 40.7714 69.7961 40.5596 70.0252C40.3521 70.25 40.2483 70.557 40.2483 70.9461C40.2483 71.4778 40.445 71.8798 40.8384 72.1522C41.2362 72.4202 41.7398 72.5543 42.3494 72.5543ZM49.4744 73.6956V63.7351H50.9529V65.2395H51.0567C51.2382 64.7467 51.5668 64.3468 52.0423 64.0399C52.5179 63.7329 53.0539 63.5794 53.6505 63.5794C53.7629 63.5794 53.9034 63.5816 54.072 63.5859C54.2406 63.5903 54.3682 63.5967 54.4546 63.6054V65.1617C54.4028 65.1487 54.2839 65.1293 54.098 65.1033C53.9164 65.0731 53.724 65.058 53.5208 65.058C53.0367 65.058 52.6043 65.1596 52.2239 65.3627C51.8478 65.5616 51.5495 65.8383 51.329 66.1928C51.1129 66.543 51.0048 66.9428 51.0048 67.3924V73.6956H49.4744ZM63.3241 65.9658L61.9493 66.3549C61.8629 66.1258 61.7353 65.9031 61.5667 65.687C61.4024 65.4665 61.1776 65.2849 60.8923 65.1423C60.607 64.9996 60.2417 64.9283 59.7964 64.9283C59.1868 64.9283 58.6789 65.0688 58.2725 65.3498C57.8704 65.6264 57.6694 65.9788 57.6694 66.4068C57.6694 66.7872 57.8078 67.0877 58.0844 67.3081C58.3611 67.5286 58.7934 67.7124 59.3814 67.8593L60.8599 68.2225C61.7504 68.4386 62.414 68.7694 62.8507 69.2146C63.2873 69.6556 63.5056 70.2241 63.5056 70.9201C63.5056 71.4908 63.3414 72.0009 63.0128 72.4505C62.6886 72.9001 62.2346 73.2546 61.651 73.514C61.0674 73.7734 60.3887 73.9031 59.6148 73.9031C58.5989 73.9031 57.758 73.6826 57.0923 73.2416C56.4265 72.8007 56.005 72.1565 55.8278 71.3092L57.2803 70.9461C57.4187 71.4821 57.6802 71.8842 58.065 72.1522C58.4541 72.4202 58.962 72.5543 59.5889 72.5543C60.3022 72.5543 60.8685 72.4029 61.2879 72.1003C61.7115 71.7934 61.9234 71.4259 61.9234 70.9979C61.9234 70.6521 61.8023 70.3624 61.5602 70.129C61.3181 69.8912 60.9463 69.714 60.4449 69.5972L58.7848 69.2082C57.8726 68.992 57.2025 68.657 56.7745 68.203C56.3509 67.7448 56.139 67.172 56.139 66.4846C56.139 65.9226 56.2968 65.4254 56.6124 64.9931C56.9323 64.5608 57.3668 64.2214 57.9158 63.975C58.4692 63.7286 59.0961 63.6054 59.7964 63.6054C60.7821 63.6054 61.5559 63.8215 62.1179 64.2539C62.6842 64.6862 63.0863 65.2568 63.3241 65.9658Z" fill="#09559F"/>
</svg>
