<svg xmlns="http://www.w3.org/2000/svg" xmlns:xlink="http://www.w3.org/1999/xlink" width="1920" height="624" viewBox="0 0 1920 624">
  <defs>
    <clipPath id="clip-path">
      <rect id="Rectangle_2334" data-name="Rectangle 2334" width="1920" height="624" transform="translate(5409 1905)" fill="#fff"/>
    </clipPath>
    <clipPath id="clip-path-2">
      <rect id="Rectangle_2333" data-name="Rectangle 2333" width="1931" height="669" fill="#fff"/>
    </clipPath>
  </defs>
  <g id="Mask_Group_15" data-name="Mask Group 15" transform="translate(-5409 -1905)" clip-path="url(#clip-path)">
    <g id="Group_4812" data-name="Group 4812" transform="translate(5409 1905)" clip-path="url(#clip-path-2)">
      <path id="Path_2941" data-name="Path 2941" d="M1107.72,327.2l-.45-1.254a6.4,6.4,0,0,0,.72-.269l.18-.09.44,1.255-.18.089C1108.17,327.017,1107.99,327.107,1107.72,327.2Z" fill="#fff"/>
      <path id="Path_2942" data-name="Path 2942" d="M1107.9,376.934l-.36-.089a4.29,4.29,0,0,0-.63-.269l.54-1.255.54.269.35.179Z" fill="#fff"/>
      <path id="Path_2943" data-name="Path 2943" d="M976.792,587.089a6.564,6.564,0,0,1-4.391-1.7,6.445,6.445,0,0,1-2.061-4.75l.269-47.676a6.467,6.467,0,0,1,7.169-6.363L1167.4,548.732a6.4,6.4,0,0,1,5.65,6.363v3.764a6.463,6.463,0,0,1-5.56,6.363C1147.51,568,1044.45,581.981,977.24,587A.67.67,0,0,1,976.792,587.089Zm.269-58.79a4.573,4.573,0,0,0-4.571,4.571l-.268,47.677a4.607,4.607,0,0,0,4.928,4.66c67.21-5.019,170.18-19,190.16-21.777a4.78,4.78,0,0,0,4.03-4.571v-3.764a4.64,4.64,0,0,0-4.12-4.57L977.6,528.389A1.136,1.136,0,0,0,977.061,528.3Z" fill="#fff"/>
      <path id="Path_2944" data-name="Path 2944" d="M1287.39,530.54a3.581,3.581,0,0,0-4.3-3.495l-108.07,22.584a3.633,3.633,0,0,0-2.87,3.495v6.542a3.49,3.49,0,0,0,4.03,3.495c15.33-2.151,70.62-10.844,109.15-29.484A3.283,3.283,0,0,0,1287.39,530.54Z" fill="#fff"/>
      <path id="Path_2945" data-name="Path 2945" d="M1172.42,550.883h-.18L978.853,528.12a1.093,1.093,0,0,1,0-2.151l149.477-18.013h.09l156.02,16.938a.978.978,0,0,1,.89.986,1.079,1.079,0,0,1-.8,1.075Zm-187.2-23.838,187.114,22.046,107.27-22.853-151.27-16.4Z" fill="#fff"/>
      <path id="Path_2946" data-name="Path 2946" d="M1169.82,550.256l2.42,2.868,5.38-1.972Z" fill="#fff"/>
      <path id="Path_2947" data-name="Path 2947" d="M1172.24,559.666l-3.05,5.018,7.08-1.433" fill="#fff"/>
      <path id="Path_2948" data-name="Path 2948" d="M1767.64,513.243a57.082,57.082,0,0,1-9.68-.985l.18-.9c10.93,1.972,18.37.9,22.22-3.136,3.85-4.123,2.33-10.037,2.33-10.037l.9-.269c.09.269,1.61,6.452-2.51,10.933C1778.21,511.81,1773.73,513.243,1767.64,513.243Z" fill="#fff"/>
      <path id="Path_2949" data-name="Path 2949" d="M1795.24,509.659h-.9v-7.08l-10.75-1.792.18-.807,11.47,1.792Z" fill="#fff"/>
      <path id="Path_2950" data-name="Path 2950" d="M1790.67,516.738l-7.53-1.254,11.11-11.561.72.627-10.04,10.307,5.92.985Z" fill="#fff"/>
      <path id="Path_2951" data-name="Path 2951" d="M1793.98,566.208l-3.22-.448-2.25-.628-.17-1.971.8-.9-69-8.335-2.42,2.6-3.41.179-4.66-.9v-1.971l.99-.986-64.7-7.8-3.85,2.42-6.82-1.165v-2.689l.18-.09-8.69-.716-.45-13.174,2.06-2.241,2.16.09v-3.226l-17.21-1.793v-2.24l1.25-.807-1.79-87.2-.98-.18.18-2.957-.09-.448-1.62-.448-.18-1.882,20.97-8.514c-2.42-.538-3.67-1.344-3.94-2.509a2.745,2.745,0,0,1,.9-2.33l-29.22-2.151v-3.943h-.54l-.17-3.316.8-.179L1598.35,385c-12.9-5.646-13.8-22.225-13.8-22.4-1.34-18.282,17.39-21.687,17.57-21.777l24.55-5.467.09-5.018a7.546,7.546,0,0,1-1.7-.807l-.09-.089-.09-.09a1.056,1.056,0,0,1,.09-.9c1.16-1.7,10.93-1.524,13.89-1.345,2.6.449,3.67.986,3.67,1.793s-1.16,1.255-2.15,1.523l.09,3.227c17.12,1.075,18.91,17.923,19,18.1.9,16.4-10.75,20.075-12.99,20.613l-.09,13.98c7.7,1.972,7.35,12.636,7.17,15.056l10.57.538.27,2.061,23.39,1.882,72.59,4.75c33.06,1.882,41.13,4.66,41.4,4.839,3.22.9,4.93,2.151,5.2,3.764.35,2.24-2.25,4.3-3.05,4.839l.09.448c2.42-.179,4.12.269,5.02,1.255a2.583,2.583,0,0,1,.62,1.434h1.35c3.04.09,5.02.717,6,2.061a2.8,2.8,0,0,1,.54,2.241l-.36,17.3c3.14.538,4.66,1.344,4.75,2.42s-1.25,1.882-1.88,2.24v3.585a7.4,7.4,0,0,1,5.2,5.646l-.72,27.513c-.27,4.3-4.21,5.735-5.47,6.094l.09,3.584c.54.359,1.35.986,1.17,1.793-.27,1.434-3.5,1.971-4.93,2.151l-.27,17.386-8.87,3.136-7.17-2.6v4.929L1826.6,530v12.726l-2.24,1.7-10.31-1.076-4.57,5.377,3.05.628-.45,13.084-2.33,2.061L1799,563.43l-2.06,2.6Zm-4.66-1.792,1.61.448,3.05.358,2.6-.09,2.06-2.6,10.84,1.075,1.8-1.524.36-12.008-3.77-.717,5.83-6.9,10.39,1.075,1.61-1.254V530.719l-27.51-3.316v-6.99l8.07,2.868,7.97-2.868.27-17.565h.36c2.06-.179,4.48-.9,4.57-1.434,0-.179-.18-.538-.98-.986l-.18-.09-.18-4.839.36-.09c.17,0,4.83-.985,5.1-5.287l.72-27.513a6.164,6.164,0,0,0-4.84-4.839l-.36-.09v-4.929l.27-.089c.72-.269,1.7-.986,1.61-1.434,0-.18-.35-.986-4.39-1.7l-.35-.09.44-18.192a2.087,2.087,0,0,0-.44-1.613c-.54-.717-1.98-1.613-5.29-1.7h-2.33l.09-.538a1.608,1.608,0,0,0-.36-1.165c-.45-.537-1.7-1.165-4.57-.9h-.36l-.45-1.792.27-.18c.9-.627,3.23-2.509,2.96-4.212-.18-1.254-1.79-2.33-4.57-3.047-.09,0-8.34-2.867-41.22-4.749l-72.59-4.75-24.11-1.972-.27-2.061-10.75-.538.09-.448c0-.089,1.52-12.815-6.72-14.608l-.36-.089.18-15.5.36-.09c.54-.089,13.53-2.509,12.54-19.716-.09-.627-1.79-16.49-18.55-17.3h-.44l-.18-4.75.35-.089a4.354,4.354,0,0,0,1.8-.717,8.208,8.208,0,0,0-2.87-.9c-6.54-.268-12.37.18-12.99.9a4.161,4.161,0,0,0,1.43.627h.45l-.18,6.542-25.27,5.646c-.81.09-18.19,3.316-16.85,20.791,0,.18.81,16.4,13.53,21.688l.27.09.54,19.8-.81.18.09,1.613h.54v3.943l30.74,2.24-1.08.717c-.45.269-1.52,1.345-1.34,2.151.09.538.89,1.524,4.75,2.061l1.61.269-23.3,9.5.09.537,1.61.449.18,1.165-.09,2.24.9.09,1.79,88.453-1.25.806v.986l17.2,1.793v5.108l-2.69-.179-1.52,1.613.36,12.009,11.56.9-3.05,1.254v1.345l5.74.985,3.76-2.419,66.85,8.065-2.06,2.062v.806l3.85.717,2.87-.09,2.51-2.6h.18l70.98,8.6-1.71,1.882Z" fill="#fff"/>
      <path id="Path_2952" data-name="Path 2952" d="M1603.28,402.834h-.09c-1.52-.179-1.7-2.061-1.7-3.226l-.36-14.967.72.359c6.27,3.495,13.8-1.255,13.89-1.255l.72-.448v14.429Zm-1.25-16.669.36,13.443c0,.089-.09,2.061.8,2.24l12.37-4.75V384.91C1613.5,385.986,1607.5,388.764,1602.03,386.165Z" fill="#fff"/>
      <path id="Path_2953" data-name="Path 2953" d="M1623,406.777l-20.08-1.972,13.18-5.287,1.52.717.18,2.6-.45.448,10.4.179.09.359a1.808,1.808,0,0,1-.45,1.523C1626.67,406.329,1625.24,406.777,1623,406.777Zm-16.31-2.509,16.4,1.613c2.33,0,3.22-.538,3.58-.986.18-.179.18-.358.27-.448l-11.74-.179,1.7-1.7-.18-1.7-.71-.358Z" fill="#fff"/>
      <path id="Path_2954" data-name="Path 2954" d="M1638.32,409.376h-.09l-8.42-.358v-5.109l17.56,1.7Zm-7.62-1.255,7.44.359,5.56-2.33-13-1.255Z" fill="#fff"/>
      <path id="Path_2955" data-name="Path 2955" d="M1628.19,399.608l-1.25-.628c-2.78.269-5.02-.179-6.54-1.434a5.878,5.878,0,0,1-2.15-3.853l-.18-10.127h3.31l.09.269c1.53,3.943,6.28,5.735,6.28,5.735l.27.09Zm-9.14-6.005a5.1,5.1,0,0,0,1.89,3.226c1.43,1.165,3.4,1.524,6,1.255h.09l.18.09-.18-7.887c-1.08-.448-4.84-2.24-6.36-5.825h-1.8Z" fill="#fff"/>
      <path id="Path_2956" data-name="Path 2956" d="M1644.5,386.613l-14.78-.538-.18-7.976,8.96-.179a6.134,6.134,0,0,1,4.75,2.151c1.97,2.42,1.34,6,1.34,6.184Zm-13.98-1.434,13.18.538a7.118,7.118,0,0,0-1.26-5.108,5.333,5.333,0,0,0-4.03-1.793l-8.06.179Z" fill="#fff"/>
      <path id="Path_2957" data-name="Path 2957" d="M1640.47,400.414l-10.48-.717-.18-10.395,14.7,1.523v5.646A4.111,4.111,0,0,1,1640.47,400.414Zm-9.59-1.613,9.59.717a3.227,3.227,0,0,0,3.14-3.047v-4.839l-12.91-1.345Z" fill="#fff"/>
      <path id="Path_2958" data-name="Path 2958" d="M1616.1,384.552l-.45-.807c.54-.269,14.16-7.528,8.51-26.527-.09-.179-5.37-15.683-20.52-15.683v-.9c15.77,0,21.24,16.131,21.33,16.31C1630.97,376.665,1616.28,384.462,1616.1,384.552Z" fill="#fff"/>
      <path id="Path_2959" data-name="Path 2959" d="M1635.28,531.795l-2.87-.538V530.9l-1.88-90.156h.8l-3.22-.089-.18-3.675-.99-.179.27-1.7,5.74-3.4-.63-14.429,9.68.717,111.3,7.708c.45,0,43.19,3.4,50-1.972.99-.538,3.32-2.241,3.14-3.854-.09-1.254-1.79-2.419-4.75-3.4-12.28-4.3-135.5-11.382-136.75-11.471h-.36l-.54,1.971-10.21-.537.35,3.584h-5.46l.36,3.854-19.63-.717c-.63.358-1.52,1.165-1.52,1.7a.7.7,0,0,0,.27.537l2.86,1.793-.44.717-2.87-1.793a1.676,1.676,0,0,1-.63-1.344c.09-1.255,1.88-2.33,2.06-2.509l.09-.09h.09l18.73.627-.36-3.763h5.47l-.36-3.675,10.48.538.54-1.882,1.08-.09c5.11.269,124.65,7.17,137.02,11.561,3.4,1.075,5.19,2.509,5.37,4.212.27,2.509-3.4,4.571-3.58,4.66-6.99,5.557-48.75,2.33-50.54,2.151l-120-8.334.63,13.98-5.91,3.495-.09.448.8.179.18,3.585,4.57.179v.449Zm-1.98-1.255,1.08.179-1.79-89.977-1.17-.089.09,1.792Z" fill="#fff"/>
      <path id="Path_2960" data-name="Path 2960" d="M1668.88,443.431h-.45l-34.23-2.689-6.18-.089-.27-4.571h.54l40.77,3.047Zm-39.97-3.674,5.38.089,33.78,2.689.09-2.51-39.43-2.957Z" fill="#fff"/>
      <path id="Path_2961" data-name="Path 2961" d="M1667.98,443.7l.18-4.392,10.49-6.183-.27,2.778-6.18,3.226.09.538,1.97-.179-.27,1.523Zm1.08-3.854-.09,2.42,3.94-1.793-1.25.09-.45-1.972,6.36-3.315v-.538Z" fill="#fff"/>
      <path id="Path_2962" data-name="Path 2962" d="M1668.7,440.025l-41.85-3.315.27-1.793,5.2-3.047,21.59-8.424,7.26.359,18.28,9.5Zm-40.77-4.122,40.59,3.137,9.14-5.646-16.84-8.693-6.73-.269-21.32,8.245-4.84,2.778Z" fill="#fff"/>
      <path id="Path_2963" data-name="Path 2963" d="M1715.66,443.431h-.18l-42.66-3.137-1.88-1.434,7.26-3.764,19.09-8.065h6.81l.98.269,18.55,9.41.36,1.882Zm-42.48-4.033.72.09,41.58,3.047,7.53-4.392-.18-.806-18.1-9.141-.81-.269h-6.54l-19.09,8.155-5.65,2.958Z" fill="#fff"/>
      <path id="Path_2964" data-name="Path 2964" d="M1714.4,447.374l-41.22-3.316v-3.5l.18-1.165h.36l40.42,3.047,4.21-1.075-.18,1.613,1.79,1.075Zm-40.32-4.122,40.06,3.226,4.12-2.42-.99-.537.09-.9-3.14.807h-.08l-40.06-3.047-.09.358v2.51Z" fill="#fff"/>
      <path id="Path_2965" data-name="Path 2965" d="M1762.17,450.959h-.18l-41.94-3.316-1.34-.179v-3.137l-1.44-.9.54-2.33,25.9-10.754,8.15.269,18.01,9.678.18,1.793-1.16.985-.18,2.6Zm-41.94-4.212,41.67,3.226,6.09-4.66.18-2.6,1.08-.9-.09-.9-17.39-9.41-7.7-.269-25.36,10.485-.27,1.255,1.34.806v2.868Z" fill="#fff"/>
      <path id="Path_2966" data-name="Path 2966" d="M1762.8,447.553h-.09l-43.56-3.047.09-.9,43.38,3.047,5.19-3.4.45.806Z" fill="#fff"/>
      <path id="Path_2967" data-name="Path 2967" d="M1769.7,442l-.18-1.344-15.87-8.6-1.88-.9-3.31,2.509,12.18,13.264v3.585" fill="#fff"/>
      <path id="Path_2968" data-name="Path 2968" d="M1761,549.718h-.18l-42.92-4.839V542.1h1.07l.81-95.354,42.21,3.316,6.18-5.019-1.25,95.085.98.807-.18,2.061Zm-42.3-5.646,41.94,4.75,6.19-6.184.09-1.254-.9-.807V540.4l1.26-93.472-5.02,4.033-41.58-3.226L1719.87,543h-1.08v1.075Z" fill="#fff"/>
      <path id="Path_2969" data-name="Path 2969" d="M1760.55,550.166l-.62-2.778,1.61-97.056,6.54-5.2-1.52,94.457,1.25,1.524-.18,1.971Zm.27-2.868.27,1.076,5.74-5.736.09-1.254-1.26-1.524,1.53-92.934-4.66,3.764Z" fill="#fff"/>
      <path id="Path_2970" data-name="Path 2970" d="M1714.58,545.058l-.45-2.33-.71-.9v-.18l.45-94.995,4.21-2.6,1.61.628v1.971l.99.179-.81,92.038Zm-.27-3.495.63.806.09.717,3.76-4.481.81-90.962-.98-.179v-2.151l-.63-.179-3.41,2.061Z" fill="#fff"/>
      <path id="Path_2971" data-name="Path 2971" d="M1715.39,544.52h-1.43l-40.69-4.839-.36-2.6,1.44-.179-.54-93.92,40.95,3.495-.45,94.009.81,2.51Zm-1.35-.9h.27l-.09-.269-.8-2.688.45-93.293-39.17-3.316.54,93.741-1.34.09.18.985Z" fill="#fff"/>
      <path id="Path_2972" data-name="Path 2972" d="M1669.87,539.054h-.18l-39.97-4.84.98-2.33,1.26-.986-1.35-91.052h.45l36.74,2.868,6.28-2.689.8,94.1Zm-38.99-5.646,38.63,4.66,4.48-4.392-.81-92.4-5.2,2.241h-.09l-36.38-2.779,1.26,90.515-1.44,1.165Z" fill="#fff"/>
      <path id="Path_2973" data-name="Path 2973" d="M1669.24,539.681V537.53l-1.35-95.264,6.28-2.241-.18,3.227.54,1.792.44,89.081Zm-.45-96.788,1.34,94.637,3.86-3.764-.45-88.632-.54-1.793.09-1.971Z" fill="#fff"/>
      <path id="Path_2974" data-name="Path 2974" d="M1806.62,524.535l-8.52-3.047-.27-8.872,6.01-1.434-.45-3.584-5.2,1.971-.8-2.778,3.04-.179.36-19.537,1.53.179V485.82l-.99-.269-.18-16.489,1.08-.269-1.89-2.241,2.24.18a21.877,21.877,0,0,1,.18-2.42l-.09-.09-3.58-.358.18-17.207,6.36-.538v-3.4l-5.82.9-.36-12.995,9.23.628v18.64l.18,8.335-.54-.09a3.073,3.073,0,0,0-2.87.9,8.521,8.521,0,0,0-1.88,4.75l.36.269v3.585h-.54v1.254l.27.359-.27.09a6.033,6.033,0,0,0,.09,1.075l-.45,14.7.45.09v3.047l-.54-.09v.448c-.18,5.2,3.5,6.1,3.68,6.1l.36.089v.359Zm-7.62-3.674,6.72,2.42.45-27.782c-1.08-.358-4.12-1.972-4.03-6.9v-.537l-.63-.09-.36,19.358-2.78.179.27.806,5.38-2.061.63,5.467-6.01,1.434Zm3.23-36.116h.09l.44-14.429a5.2,5.2,0,0,1-.09-.9l-.62.179Zm.18-17.3.17.268v-.179Zm-2.42-4.571,2.86.359a8.318,8.318,0,0,1,2.06-4.84,3.874,3.874,0,0,1,3.05-1.165l-.18-7.349V432.139l-7.44-.448.36,11.023,5.83-.9v5.108l-6.37.538Z" fill="#fff"/>
      <path id="Path_2975" data-name="Path 2975" d="M1810.2,562l-.45-.09-91.13-10.933-88.54-10.037-1.35-.269-.18-10.575,3.14-.269-.36,2.509-.45,1.076,37.46,4.66,5.83-4.3,1.16,3.943-1.43.18.18.985,40.59,4.75,5.11-6.094V543h-1.07v1.075l38.35,4.391,2.96.18,2.15-1.165,1.7-2.151h.27l46.24,5.467Zm-180.57-21.957.54.09,88.54,10.037,90.6,10.844.18-9.32-45.17-5.377-1.61,1.882-2.51,1.344-3.23-.179-39.16-4.481V542.1h1.08V539.95l-3.86,4.57h-.27l-41.49-4.839-.36-2.6,1.26-.09-.45-1.7-5.11,3.764-38.98-4.84.9-2.151.18-1.254-1.26.089Z" fill="#fff"/>
      <path id="Path_2976" data-name="Path 2976" d="M1635.01,337.771a27.4,27.4,0,0,1-7.89-1.524l-.27-.089.18-6.632.63.179c4.3,1.613,12.36,0,12.45,0l.54-.089.18,4.481a3.519,3.519,0,0,1-1.88,2.867A9.409,9.409,0,0,1,1635.01,337.771Zm-7.26-2.33c1.43.448,7.7,2.42,10.57.627a2.867,2.867,0,0,0,1.44-2.151l-.09-3.315c-1.8.358-7.8,1.254-11.83.089Z" fill="#fff"/>
      <path id="Path_2977" data-name="Path 2977" d="M1774.36,508.942l-3.5-3.854v-.179l.27-38.088,27.42-2.509,3.5,4.75v.179l-.72,38.088Zm-2.6-4.212,3.04,3.226,25.63-1.524.72-37.1-3.05-4.123-26.07,2.42Z" fill="#fff"/>
      <path id="Path_2978" data-name="Path 2978" d="M1774.71,508.494l-3.85-3.316V505l.27-38.626,4.3,3.943Zm-2.95-3.764,2.15,1.792.63-35.937-2.51-2.33Z" fill="#fff"/>
      <path id="Path_2979" data-name="Path 2979" d="M1774.8,470.854l-4.3-3.943,28.05-2.6,2.78,5.287Zm-2.15-3.226,2.51,2.33,24.74-1.165-1.89-3.495Z" fill="#fff"/>
      <path id="Path_2980" data-name="Path 2980" d="M1653.47,410.093l-6.64-.448V409.2c0-.09.18-6.99.18-7.349.36-8.783-2.68-10.037-3.04-10.127l-14.16-1.523-.18-5.019,13.17.359a11.26,11.26,0,0,1,8.25,4.212c3.4,4.391,2.6,10.485,2.51,10.754Zm-5.65-1.344,4.84.358.09-8.693c0-.089.81-6-2.33-10.127-1.7-2.24-4.3-3.495-7.62-3.853l-12.19-.359.18,3.316,13.54,1.434c.17,0,4.12,1.075,3.67,11.023C1647.91,402.117,1647.82,407.225,1647.82,408.749Z" fill="#fff"/>
      <path id="Path_2981" data-name="Path 2981" d="M1627.39,409.555l.36-20.253c-.27-.628-2.33-5.019-6.72-4.84h-2.87l-.81-2.061h.63a10.672,10.672,0,0,0,8.87-6.99l.09-.269,3.5-.717-.09,4.122.44,13.353-.09,17.028Zm-6.1-25.989c5.11,0,7.35,5.377,7.35,5.467v.089l-.36,19.358,1.53-.269.09-16.311-.45-13.353.09-3.047-1.97.359a11.776,11.776,0,0,1-8.96,7.259l.18.358h2.24A.311.311,0,0,0,1621.29,383.566Z" fill="#fff"/>
      <path id="Path_2982" data-name="Path 2982" d="M1646.57,387.24l-2.87-.717-.27-13.98a13.3,13.3,0,0,1-12.01,6v-.9c.09,0,5.56,0,12.19-8.514l.09-.179,2.87-.269Zm-2.06-1.434,1.07.269.09-16.4-1.52.09Zm-1.08-15.055a24.823,24.823,0,0,1-7.35,6.273A12.66,12.66,0,0,0,1643.43,370.751Z" fill="#fff"/>
      <path id="Path_2983" data-name="Path 2983" d="M1674.71,413.23l-16.76-1.882,6.99-2.689-.18-2.688,9.59-.359.36,2.957h6.18Zm-13-2.33,12.73,1.433,3.85-2.867h-4.3l-.36-2.868-7.89.358.18,2.42Z" fill="#fff"/>
      <path id="Path_2984" data-name="Path 2984" d="M1714.49,415.649l-15.95-1.165.27-1.882,5.02-1.254.18-3.137,9.41-.358.18,2.6,6.27,1.255Zm-14.87-1.971,14.61,1.075,3.58-2.6-4.93-.986-.18-2.419-7.7.358-.18,3.047-5.11,1.255Z" fill="#fff"/>
      <path id="Path_2985" data-name="Path 2985" d="M1754.1,418.338h-.09l-16.57-2.241,7.88-2.688.18-2.51,10.31-.358.18,3.405,5.82,1.076Zm-12.9-2.6,12.72,1.7,4.75-2.062-3.67-.717-.18-3.226-8.6.359-.18,2.24Z" fill="#fff"/>
      <path id="Path_2986" data-name="Path 2986" d="M1708.04,381.236l.18,5.018-1.07.9v1.075l-4.66,2.6-.09,2.6,2.69.358-2.6,2.6V397.9l2.33,1.075-2.51,1.613-.18,3.406,2.51.179-3.59,1.972-.09,2.957s10.04,1.434,15.42-.358l-.27-2.689-2.69-1.792,2.24-.628.09-2.957-2.24-1.792,2.51-.538.09-2.689-2.15-1.7,2.06-.717-.18-2.6-4.48-1.972-.18-1.434-.81-.986-.09-5.466-2.51-.179Z" fill="#fff"/>
      <path id="Path_2987" data-name="Path 2987" d="M1668.97,378.189l.18,5.018-1.08.9v1.075l-4.66,2.6-.09,2.6,2.69.358-2.6,2.6v1.524l2.33,1.075-2.51,1.613-.17,3.406,2.5.179-3.58,1.972-.09,2.957s10.04,1.434,15.41-.358l-.26-2.689-2.69-1.792,2.24-.628.09-2.957-2.24-1.792,2.51-.538.09-2.689-2.16-1.7,2.07-.717-.18-2.6-4.48-1.972-.18-1.434-.81-.986-.09-5.466-2.51-.179Z" fill="#fff"/>
      <path id="Path_2988" data-name="Path 2988" d="M1749.35,383.656l.18,5.018-1.07.9v1.076l-4.66,2.6-.09,2.6,2.69.358-2.6,2.6v1.524l2.33,1.075-2.51,1.613-.18,3.406,2.51.179-3.59,1.971-.09,2.958s10.04,1.434,15.42-.359l-.27-2.688-2.69-1.793,2.24-.627.09-2.957-2.24-1.793,2.51-.537.09-2.689-2.15-1.7,2.06-.717-.18-2.6-4.48-1.971-.18-1.434-.81-.986-.09-5.467-2.51-.179Z" fill="#fff"/>
      <path id="Path_2989" data-name="Path 2989" d="M1601.04,372.1l4.39-7.17h-5.64l5.11-9.23h5.1l-5.37,7.707h6Z" fill="#fff"/>
      <path id="Path_2990" data-name="Path 2990" d="M1780.09,471.571l28.95-1.255-.81,40.956-28.59,1.613Z" fill="#fff"/>
      <path id="Path_2991" data-name="Path 2991" d="M1656.24,421.474l-3.49,2.6,11.74,13.981,10.84-6.632Z" fill="#fff"/>
      <path id="Path_2992" data-name="Path 2992" d="M1702.84,424.88l-3.13,2.509,14.42,14.429,9.95-5.108-3.67-3.047Z" fill="#fff"/>
      <path id="Path_2993" data-name="Path 2993" d="M1773.1,441.818l-.09,2.778-6.99,5.287-.72-2.419Z" fill="#fff"/>
      <g id="Group_4793" data-name="Group 4793" opacity="0.8">
        <path id="Path_2994" data-name="Path 2994" d="M789.947,327.286h-.09v-.09l.09-.09.09.09v.09Z" fill="#fff"/>
      </g>
      <path id="Path_2995" data-name="Path 2995" d="M1103.95,520.5h29.4v9.947h-28.86Z" fill="#fff"/>
      <path id="Path_2996" data-name="Path 2996" d="M1104.58,249.766l.18-12.815,3.94,1.613-.35,10.754Zm1.08-11.471-.18,10.485,1.97-.269.36-9.32Z" fill="#fff"/>
      <path id="Path_2997" data-name="Path 2997" d="M1105.48,247.705l-69.54-4.84v-4.122l68.73,1.075.99-.358Zm-68.74-5.646,67.75,4.66.18-6-67.93-1.076Z" fill="#fff"/>
      <path id="Path_2998" data-name="Path 2998" d="M1128.06,250.931l-4.03-.986-.18-11.471,4.93-.09Zm-3.13-1.792,2.32.627.63-10.575-3.04.09Z" fill="#fff"/>
      <path id="Path_2999" data-name="Path 2999" d="M1127.7,248.422v-.9l66.23-1.614.09-2.33-65.96-2.24v-.9l66.94,2.24-.18,4.123h-.45Z" fill="#fff"/>
      <path id="Path_3000" data-name="Path 3000" d="M1122.95,102.882l-3.13-1.076-.45-9.947,4.48-.9Zm-2.24-1.793,1.44.538.71-9.589-2.51.448Z" fill="#fff"/>
      <path id="Path_3001" data-name="Path 3001" d="M1122.06,100.82l.09-.627.09-.09a.463.463,0,0,0,.18-.358,28.726,28.726,0,0,0,.35-5.646V93.83l-.18-.627h.63l58.88,3.226-.36,3.674Zm1.7-6.721a23.929,23.929,0,0,1-.45,5.736v.09l57.71-.627.18-1.972Z" fill="#fff"/>
      <path id="Path_3002" data-name="Path 3002" d="M1108.97,100.1h-.45l-61.83-4.839V92.038l62.28.358Zm-61.38-5.735,60.49,4.75V93.2l-60.49-.359Z" fill="#fff"/>
      <path id="Path_3003" data-name="Path 3003" d="M1126.36,321.012l-1.71-69.723-2.41-86.392-1.98-80.118h-.89l1.97,80.118,2.42,86.392,1.7,69.992,1.52,62.106,3.41,138.012-23.03.537.72-145.629.26-50.1.36-73.935.54-86.123.27-74.562V85.137a3.075,3.075,0,0,0-.9.09v6.452l-.27,74.563-.53,86.123-.36,74.2-.27,49.379-.72,146.437v.448l24.92-.538-3.41-138.639Z" fill="#fff"/>
      <path id="Path_3004" data-name="Path 3004" d="M1109.87,88.722V18.1c1.79-1.882,3.58-2.778,5.29-2.689a6.16,6.16,0,0,1,4.03,2.151l.27,71.6a4.321,4.321,0,0,1,1.07.09l-.27-71.874v-.179l-.09-.09a6.842,6.842,0,0,0-4.83-2.6c-2.16-.09-4.22.986-6.28,3.226l-.09.179V88.9C1109.15,88.632,1109.51,88.632,1109.87,88.722Z" fill="#fff"/>
      <path id="Path_3005" data-name="Path 3005" d="M1119.91,89.081l-.27-71.784a5.565,5.565,0,0,0-4.93-2.241l.18,73.845C1116.59,88.9,1118.29,88.991,1119.91,89.081Z" fill="#fff"/>
      <path id="Path_3006" data-name="Path 3006" d="M1114.98,84.868l5.91,436.531,10.04.448L1119.91,84.779C1118.2,84.779,1116.59,84.779,1114.98,84.868Z" fill="#fff"/>
      <path id="Path_3007" data-name="Path 3007" d="M1125.46,176.906l-3.85-.717-.18-10.575,4.39-.717Zm-2.95-1.434,2.06.359.35-9.858-2.59.358Z" fill="#fff"/>
      <path id="Path_3008" data-name="Path 3008" d="M1124.66,174.755l.27-7.886h.44l62.55,2.689.09.358a14.546,14.546,0,0,1-.09,2.868l-.09.358h-.35Zm1.07-6.99-.18,6.094,61.48-1.613a14.605,14.605,0,0,0,.09-1.792Z" fill="#fff"/>
      <path id="Path_3009" data-name="Path 3009" d="M1103.15,174.666l.45-.09-62.11-6.811-.27-3.764,62.02,2.151.54.627a1.135,1.135,0,0,0-.09.986c.09.269-.72.538-.72.9l.09.538a14.048,14.048,0,0,1,.36,2.061l-.27-.358c0,.717.27,1.434.27,2.151Zm-60.85-7.618,60.85,6.632V170.9a8.674,8.674,0,0,0-.09-1.613l-.09-.448c-.09-.269-.09-.538-.18-.807a1.824,1.824,0,0,1,0-.986l-60.58-2.061Z" fill="#fff"/>
      <path id="Path_3010" data-name="Path 3010" d="M1102.79,176.458l.27-13.263,5.46.537.45,12.547Zm1.07-12.278-.17,11.382,4.3-.179-.36-10.844Z" fill="#fff"/>
      <path id="Path_3011" data-name="Path 3011" d="M875.259,395.127a1.186,1.186,0,0,1-1.165,1.165h-2.509v3.674a.986.986,0,1,1-1.971,0v-3.674H867.1a1.165,1.165,0,0,1,0-2.33h2.51v-2.151H867.1a1.165,1.165,0,0,1,0-2.33h2.51v-.807a.986.986,0,1,1,1.971,0v.807h2.509a1.165,1.165,0,0,1,0,2.33h-2.509v2.151h2.509A1.129,1.129,0,0,1,875.259,395.127Z" fill="#fff"/>
      <path id="Path_3012" data-name="Path 3012" d="M807.511,395.127a1.186,1.186,0,0,1-1.165,1.165h-2.509v3.674a.985.985,0,1,1-1.971,0v-3.674h-2.51a1.165,1.165,0,1,1,0-2.33h2.51v-2.151h-2.51a1.165,1.165,0,1,1,0-2.33h2.51v-.807a.985.985,0,1,1,1.971,0v.807h2.509a1.165,1.165,0,0,1,0,2.33h-2.509v2.151h2.509A1.185,1.185,0,0,1,807.511,395.127Z" fill="#fff"/>
      <path id="Path_3013" data-name="Path 3013" d="M792.456,395.127a1.187,1.187,0,0,1-1.165,1.165h-2.509v3.674a.986.986,0,1,1-1.972,0v-3.674h-2.688a1.165,1.165,0,1,1,0-2.33h2.509v-2.151h-2.509a1.165,1.165,0,1,1,0-2.33h2.509v-.807a.986.986,0,1,1,1.972,0v.807h2.509a1.165,1.165,0,0,1,0,2.33H788.6v2.151h2.509A1.235,1.235,0,0,1,792.456,395.127Z" fill="#fff"/>
      <path id="Path_3014" data-name="Path 3014" d="M834.844,599.008H824.09V407.673H773.1V399.7h50.99V379.981h10.754V399.7h50.99v7.976h-50.99Zm-8.962-1.792h7.169V405.881h50.991V401.49H833.051V381.774h-7.169V401.49h-50.99v4.391h50.99Z" fill="#fff"/>
      <path id="Path_3015" data-name="Path 3015" d="M717.9,394.141a1.3,1.3,0,0,1-1.344,1.255h-2.958v3.853a1.169,1.169,0,0,1-2.33,0V395.4h-2.957a1.258,1.258,0,1,1,0-2.51h2.957v-2.24h-2.957a1.257,1.257,0,1,1,0-2.509h2.957v-.807a1.169,1.169,0,0,1,2.33,0v.807h2.958a1.257,1.257,0,1,1,0,2.509h-2.958v2.24h2.958A1.3,1.3,0,0,1,717.9,394.141Z" fill="#fff"/>
      <path id="Path_3016" data-name="Path 3016" d="M640.47,394.141a1.3,1.3,0,0,1-1.344,1.255h-2.868v3.853a1.169,1.169,0,0,1-2.33,0V395.4h-2.957a1.258,1.258,0,1,1,0-2.51h2.957v-2.24h-2.957a1.257,1.257,0,1,1,0-2.509h2.957v-.807a1.169,1.169,0,0,1,2.33,0v.807h2.958a1.257,1.257,0,1,1,0,2.509h-2.958v2.24h2.958A1.225,1.225,0,0,1,640.47,394.141Z" fill="#fff"/>
      <path id="Path_3017" data-name="Path 3017" d="M623.353,394.141a1.3,1.3,0,0,1-1.344,1.255h-2.957v3.853a1.169,1.169,0,0,1-2.33,0V395.4h-2.868a1.258,1.258,0,1,1,0-2.51h2.957v-2.24h-2.957a1.257,1.257,0,1,1,0-2.509h2.957v-.807a1.169,1.169,0,0,1,2.33,0v.807H622.1a1.258,1.258,0,1,1,0,2.509h-2.957v2.24H622.1A1.282,1.282,0,0,1,623.353,394.141Z" fill="#fff"/>
      <path id="Path_3018" data-name="Path 3018" d="M671.566,609.045H659.558V407.315H601.309V398.98h58.249V378.189h12.008V398.98h58.249v8.335H671.566Zm-10.216-1.792h8.424V405.522h58.249v-4.749H669.774V379.981H661.35v20.792H603.1v4.749H661.35Z" fill="#fff"/>
      <path id="Path_3019" data-name="Path 3019" d="M538.132,382.849a1.4,1.4,0,0,1-1.434,1.344h-3.136V388.4a1.258,1.258,0,0,1-2.51,0v-4.212h-3.226a1.347,1.347,0,1,1,0-2.688h3.137v-2.42h-3.137a1.347,1.347,0,1,1,0-2.688h3.137v-.9a1.258,1.258,0,0,1,2.509,0v.9h3.137a1.347,1.347,0,1,1,0,2.688h-3.137v2.42h3.137A1.424,1.424,0,0,1,538.132,382.849Z" fill="#fff"/>
      <path id="Path_3020" data-name="Path 3020" d="M453.9,382.849a1.4,1.4,0,0,1-1.434,1.344h-3.137V388.4a1.258,1.258,0,0,1-2.509,0v-4.212H443.59a1.347,1.347,0,1,1,0-2.688h3.137v-2.42H443.59a1.347,1.347,0,1,1,0-2.688h3.137v-.9a1.258,1.258,0,0,1,2.509,0v.9h3.136a1.347,1.347,0,1,1,0,2.688h-3.136v2.42h3.136A1.425,1.425,0,0,1,453.9,382.849Z" fill="#fff"/>
      <path id="Path_3021" data-name="Path 3021" d="M435.255,382.849a1.4,1.4,0,0,1-1.434,1.344h-3.136V388.4a1.258,1.258,0,0,1-2.509,0v-4.212h-3.137a1.347,1.347,0,1,1,0-2.688h3.137v-2.42h-3.137a1.347,1.347,0,1,1,0-2.688h3.137v-.9a1.258,1.258,0,0,1,2.509,0v.9h3.136a1.347,1.347,0,1,1,0,2.688h-3.136v2.42h3.136A1.4,1.4,0,0,1,435.255,382.849Z" fill="#fff"/>
      <path id="Path_3022" data-name="Path 3022" d="M487.679,616.663h-12.9V397.1H411.418v-8.872h63.357V365.642h12.9v22.584h63.357V397.1H487.679Zm-11.112-1.792h9.32V395.306h63.357v-5.288H485.887V367.435h-9.32v22.583H413.21v5.288h63.357Z" fill="#fff"/>
      <path id="Path_3023" data-name="Path 3023" d="M131.732,622.04c-59.324,0-107.447-.9-131.732-3.316l.09-1.344c101.263,10.037,618.425-5.825,623.712-6.005v1.345C619.859,612.9,319.832,622.04,131.732,622.04Z" fill="#fff"/>
      <path id="Path_3024" data-name="Path 3024" d="M471.369,422.012c0,.179-.09.358-.269.358h-2.689c-.179,0-.268-.179-.268-.358s.089-.358.268-.358H471.1C471.279,421.654,471.369,421.833,471.369,422.012Z" fill="#fff"/>
      <path id="Path_3025" data-name="Path 3025" d="M471.1,422.55h-2.688a.547.547,0,0,1,0-1.076H471.1a.547.547,0,0,1,0,1.076Zm-2.688-.717a.223.223,0,0,0,0,.358H471.1a.223.223,0,0,0,0-.358Z" fill="#fff"/>
      <path id="Path_3026" data-name="Path 3026" d="M471.369,420.847c0,.179-.09.359-.269.359h-2.689c-.179,0-.268-.18-.268-.359s.089-.358.268-.358H471.1C471.279,420.489,471.369,420.578,471.369,420.847Z" fill="#fff"/>
      <path id="Path_3027" data-name="Path 3027" d="M471.1,421.3h-2.688a.546.546,0,0,1,0-1.075H471.1a.5.5,0,0,1,.448.537C471.547,421.116,471.368,421.3,471.1,421.3Zm-2.688-.627a.223.223,0,0,0,0,.358H471.1a.223.223,0,0,0,0-.358Z" fill="#fff"/>
      <path id="Path_3028" data-name="Path 3028" d="M471.369,419.592c0,.18-.09.359-.269.359h-2.689c-.179,0-.268-.179-.268-.359s.089-.358.268-.358H471.1C471.279,419.234,471.369,419.413,471.369,419.592Z" fill="#fff"/>
      <path id="Path_3029" data-name="Path 3029" d="M471.1,420.13h-2.688a.546.546,0,0,1,0-1.075H471.1c.269,0,.448.179.448.537A.5.5,0,0,1,471.1,420.13Zm-2.688-.717a.224.224,0,0,0,0,.359H471.1a.224.224,0,0,0,0-.359Z" fill="#fff"/>
      <path id="Path_3030" data-name="Path 3030" d="M471.369,418.427c0,.18-.09.359-.269.359h-2.689c-.179,0-.268-.179-.268-.359s.089-.358.268-.358H471.1C471.279,418.069,471.369,418.158,471.369,418.427Z" fill="#fff"/>
      <path id="Path_3031" data-name="Path 3031" d="M471.1,418.875h-2.688a.546.546,0,0,1,0-1.075H471.1a.5.5,0,0,1,.448.538C471.547,418.7,471.368,418.875,471.1,418.875Zm-2.688-.627a.224.224,0,0,0,0,.359H471.1a.224.224,0,0,0,0-.359Z" fill="#fff"/>
      <path id="Path_3032" data-name="Path 3032" d="M471.369,417.173c0,.179-.09.358-.269.358h-2.689c-.179,0-.268-.179-.268-.358s.089-.359.268-.359H471.1C471.279,416.814,471.369,416.993,471.369,417.173Z" fill="#fff"/>
      <path id="Path_3033" data-name="Path 3033" d="M471.1,417.71h-2.688a.546.546,0,0,1,0-1.075H471.1c.269,0,.448.179.448.538A.5.5,0,0,1,471.1,417.71Zm-2.688-.717a.224.224,0,0,0,0,.359H471.1a.224.224,0,0,0,0-.359Z" fill="#fff"/>
      <path id="Path_3034" data-name="Path 3034" d="M471.369,416.008c0,.179-.09.358-.269.358h-2.689c-.179,0-.268-.179-.268-.358s.089-.359.268-.359H471.1C471.279,415.649,471.369,415.739,471.369,416.008Z" fill="#fff"/>
      <path id="Path_3035" data-name="Path 3035" d="M471.1,416.456h-2.688a.547.547,0,0,1,0-1.076H471.1a.5.5,0,0,1,.448.538C471.547,416.277,471.368,416.456,471.1,416.456Zm-2.688-.628a.224.224,0,0,0,0,.359H471.1a.224.224,0,0,0,0-.359Z" fill="#fff"/>
      <path id="Path_3036" data-name="Path 3036" d="M471.369,414.753c0,.179-.09.358-.269.358h-2.689c-.179,0-.268-.179-.268-.358s.089-.358.268-.358H471.1C471.279,414.395,471.369,414.574,471.369,414.753Z" fill="#fff"/>
      <path id="Path_3037" data-name="Path 3037" d="M471.1,415.291h-2.688a.547.547,0,0,1,0-1.076H471.1c.269,0,.448.18.448.538A.5.5,0,0,1,471.1,415.291Zm-2.688-.717a.223.223,0,0,0,0,.358H471.1a.223.223,0,0,0,0-.358Z" fill="#fff"/>
      <path id="Path_3038" data-name="Path 3038" d="M471.369,413.588c0,.179-.09.359-.269.359h-2.689c-.179,0-.268-.18-.268-.359s.089-.358.268-.358H471.1C471.279,413.23,471.369,413.319,471.369,413.588Z" fill="#fff"/>
      <path id="Path_3039" data-name="Path 3039" d="M471.1,414.036h-2.688a.546.546,0,0,1,0-1.075H471.1a.5.5,0,0,1,.448.537C471.547,413.857,471.368,414.036,471.1,414.036Zm-2.688-.627a.223.223,0,0,0,0,.358H471.1a.223.223,0,0,0,0-.358Z" fill="#fff"/>
      <path id="Path_3040" data-name="Path 3040" d="M472.086,457.053h-4.571a3.175,3.175,0,0,1-3.136-3.137V422.1a3.175,3.175,0,0,1,3.136-3.137h4.571a3.175,3.175,0,0,1,3.136,3.137v31.9A3.157,3.157,0,0,1,472.086,457.053Z" fill="#fff"/>
      <path id="Path_3041" data-name="Path 3041" d="M331.929,489.315c-4.839,0-7.617-.179-7.706-.179V488.6a204.711,204.711,0,0,0,59.414-6.452c18.55-4.929,34.77-12.278,48.212-22.046a109.384,109.384,0,0,0,37.459-47.05l.537.18a109.753,109.753,0,0,1-37.638,47.228c-13.531,9.769-29.841,17.207-48.391,22.136A205.588,205.588,0,0,1,331.929,489.315Z" fill="#fff"/>
      <path id="Path_3042" data-name="Path 3042" d="M180.035,607.791h-19.8a.6.6,0,0,1-.627-.538V545.327c0-.359.268-.538.627-.538h19.446a.544.544,0,1,1,0,1.076H160.858v60.761h19.177a.6.6,0,0,1,.628.537A.762.762,0,0,1,180.035,607.791Z" fill="#fff"/>
      <path id="Path_3043" data-name="Path 3043" d="M333.006,607.791H246.8a.544.544,0,1,1,0-1.076h85.671V545.954H247.156a.544.544,0,1,1,0-1.075h85.85a.6.6,0,0,1,.627.537v61.927A.706.706,0,0,1,333.006,607.791Z" fill="#fff"/>
      <path id="Path_3044" data-name="Path 3044" d="M179.677,545.865H150.821a1.972,1.972,0,0,1,0-3.944h31.544a.544.544,0,1,1,0,1.076H150.821a.806.806,0,0,0,0,1.613h28.856a.6.6,0,0,1,.627.538C180.3,545.416,179.946,545.865,179.677,545.865Z" fill="#fff"/>
      <path id="Path_3045" data-name="Path 3045" d="M337.934,619.62H155.3a.6.6,0,0,1-.627-.537v-11.92c0-.358.269-.537.627-.537h24.644a.544.544,0,1,1,0,1.075H155.928v10.754H337.307V607.7h-90.6a.544.544,0,1,1,0-1.075h91.138a.6.6,0,0,1,.627.537v11.92A.516.516,0,0,1,337.934,619.62Z" fill="#fff"/>
      <path id="Path_3046" data-name="Path 3046" d="M339.368,543.086h-94.9a.544.544,0,1,1,0-1.075h94.184l-13.8-53.323H168.385l-13.8,53.323h27.691a.544.544,0,1,1,0,1.075h-28.5a.492.492,0,0,1-.448-.268.594.594,0,0,1-.09-.538l14.07-54.488a.566.566,0,0,1,.537-.448H325.3a.5.5,0,0,1,.538.448l14.069,54.488c.09.179,0,.358-.09.538A.491.491,0,0,1,339.368,543.086Z" fill="#fff"/>
      <path id="Path_3047" data-name="Path 3047" d="M246.708,619.62H179.946a.6.6,0,0,1-.628-.537V555.006c0-.18.09-.269.18-.448l33.336-34.235a.5.5,0,0,1,.806,0l33.337,34.235a.684.684,0,0,1,.179.448v64.077C247.335,619.441,247.066,619.62,246.708,619.62Zm-66.135-1.165h65.6v-63.27l-32.8-33.607-32.8,33.607Z" fill="#fff"/>
      <path id="Path_3048" data-name="Path 3048" d="M170.537,564.864a1.522,1.522,0,0,1-.628-.09,1.77,1.77,0,0,1-1.075-1.613v-6.99a1.7,1.7,0,0,1,.448-1.165L211.669,511.9a2.435,2.435,0,0,1,3.495,0l42.388,43.107a1.485,1.485,0,0,1,.448,1.165v6.99a1.77,1.77,0,0,1-1.076,1.613,1.829,1.829,0,0,1-1.881-.358l-40.775-41.494a1.2,1.2,0,0,0-1.792,0l-22.4,22.853-18.281,18.641A2.383,2.383,0,0,1,170.537,564.864Zm42.835-52.606a1.6,1.6,0,0,0-.9.358l-42.387,43.107a.674.674,0,0,0-.18.358v6.99c0,.359.269.448.359.538a.858.858,0,0,0,.627-.09l40.774-41.493a2.434,2.434,0,0,1,3.495,0l40.775,41.493a.446.446,0,0,0,.627.09.526.526,0,0,0,.358-.538v-6.99a.463.463,0,0,0-.179-.358l-42.477-43.107A1.037,1.037,0,0,0,213.372,512.258Z" fill="#fff"/>
      <path id="Path_3049" data-name="Path 3049" d="M221.436,582.07H205.3a.6.6,0,0,1-.627-.537V555.812c0-.358.269-.538.627-.538h16.131a.6.6,0,0,1,.627.538v25.721A.672.672,0,0,1,221.436,582.07Zm-15.5-1.165H220.9V556.35H205.932Z" fill="#fff"/>
      <path id="Path_3050" data-name="Path 3050" d="M218.567,578.844H208.082a.6.6,0,0,1-.627-.538V558.949c0-.359.269-.538.627-.538h10.485a.6.6,0,0,1,.628.538v19.357A.6.6,0,0,1,218.567,578.844Zm-9.857-1.165h9.32V559.486h-9.32Z" fill="#fff"/>
      <path id="Path_3051" data-name="Path 3051" d="M218.567,569.165H208.082a.544.544,0,1,1,0-1.075h10.485a.544.544,0,1,1,0,1.075Z" fill="#fff"/>
      <path id="Path_3052" data-name="Path 3052" d="M223.587,585.117H203.155a.6.6,0,0,1-.628-.537v-3.137c0-.359.269-.538.628-.538h20.432a.6.6,0,0,1,.627.538v3.137A.77.77,0,0,1,223.587,585.117Zm-19.805-1.165h19.267v-1.971H203.782Z" fill="#fff"/>
      <path id="Path_3053" data-name="Path 3053" d="M280.492,582.07h-16.13a.6.6,0,0,1-.628-.537V555.812c0-.358.269-.538.628-.538h16.13a.6.6,0,0,1,.627.538v25.721A.768.768,0,0,1,280.492,582.07ZM264.9,580.905h14.966V556.35H264.9Z" fill="#fff"/>
      <path id="Path_3054" data-name="Path 3054" d="M277.624,578.844H267.139a.6.6,0,0,1-.627-.538V558.949c0-.359.269-.538.627-.538h10.485a.6.6,0,0,1,.627.538v19.357A.6.6,0,0,1,277.624,578.844Zm-9.858-1.165h9.32V559.486h-9.32Z" fill="#fff"/>
      <path id="Path_3055" data-name="Path 3055" d="M277.624,569.165H267.139a.544.544,0,1,1,0-1.075h10.485a.544.544,0,1,1,0,1.075Z" fill="#fff"/>
      <path id="Path_3056" data-name="Path 3056" d="M282.643,585.117H262.211a.6.6,0,0,1-.627-.537v-3.137c0-.359.269-.538.627-.538h20.432a.6.6,0,0,1,.628.538v3.137A.77.77,0,0,1,282.643,585.117Zm-19.894-1.165h19.267v-1.971H262.749Z" fill="#fff"/>
      <path id="Path_3057" data-name="Path 3057" d="M314.635,607.791H294.741a.6.6,0,0,1-.628-.538V566.835c0-.358.269-.537.628-.537h19.894a.6.6,0,0,1,.627.537v40.418A.768.768,0,0,1,314.635,607.791Zm-19.357-1.165h18.73V567.283h-18.73Z" fill="#fff"/>
      <path id="Path_3058" data-name="Path 3058" d="M310.871,603.758H298.414a.6.6,0,0,1-.627-.538V588.881c0-.358.269-.537.627-.537a.6.6,0,0,1,.628.537v13.712h11.291V571.406H299.042v14.339c0,.358-.269.537-.628.537a.6.6,0,0,1-.627-.537V570.868c0-.358.269-.538.627-.538h12.457a.6.6,0,0,1,.627.538v32.263A.613.613,0,0,1,310.871,603.758Z" fill="#fff"/>
      <path id="Path_3059" data-name="Path 3059" d="M298.414,589.419a2.151,2.151,0,1,1,2.151-2.151A2.18,2.18,0,0,1,298.414,589.419Zm0-3.137a.986.986,0,1,0,.986.986A1,1,0,0,0,298.414,586.282Z" fill="#fff"/>
      <path id="Path_3060" data-name="Path 3060" d="M342.774,545.865H247.156a.544.544,0,1,1,0-1.076h95.618a.806.806,0,0,0,0-1.613H244.467a.544.544,0,1,1,0-1.075h98.4a1.989,1.989,0,0,1,1.972,1.971A1.923,1.923,0,0,1,342.774,545.865Z" fill="#fff"/>
      <path id="Path_3061" data-name="Path 3061" d="M353.975,603.31h-9.5a7.19,7.19,0,0,1-7.169-7.17V574.005a7.19,7.19,0,0,1,7.169-7.17h9.5a7.19,7.19,0,0,1,7.169,7.17V596.14A7.19,7.19,0,0,1,353.975,603.31Zm-9.5-35.31a6,6,0,0,0-6,6.005V596.14a6,6,0,0,0,6,6.005h9.5a6,6,0,0,0,6-6.005V574.005a6,6,0,0,0-6-6.005Z" fill="#fff"/>
      <path id="Path_3062" data-name="Path 3062" d="M349.225,619.62a.6.6,0,0,1-.627-.537V593.989c0-.358.269-.537.627-.537a.6.6,0,0,1,.627.537v25.094A.653.653,0,0,1,349.225,619.62Z" fill="#fff"/>
      <path id="Path_3063" data-name="Path 3063" d="M1336.86,669l-.36-1.344c70.08-17.924,123.94-42.569,160.05-73.129,34.86-29.574,50.63-58.61,46.69-86.212-7.71-53.861-88.99-90.067-115.69-101.9-51.98-23.122-169.01-46.154-170.27-46.333-7.79-1.344-46.6-8.424-47.94-19.895-.45-4.033,3.23-7.618,11.29-11.023,26.17-10.934,55.02-12.995,82.89-14.877,4.84-.358,9.77-.717,14.7-1.075,91.68-7.259,185.23-12.547,286.14-16.311L1931,298.249v1.345l-326.64-1.345c-100.82,3.675-194.38,9.052-286.05,16.311-4.84.358-9.86.717-14.7,1.075-27.78,1.882-56.45,3.854-82.44,14.787-7.44,3.137-10.93,6.274-10.49,9.59.99,8.692,29.93,15.862,46.78,18.73,1.17.269,118.47,23.211,170.54,46.422,26.88,12.009,108.61,48.394,116.41,102.971,4.03,28.051-11.83,57.446-47.14,87.378C1461.15,626.252,1407.12,650.987,1336.86,669Z" fill="#fff"/>
      <path id="Path_3064" data-name="Path 3064" d="M1125.64,321.909l-.36-1.345c.27-.089.63-.179.9-.268,40.86-10.575,91.85-16.58,97.5-17.3a3.41,3.41,0,0,1,.71-.089c24.56-4.212,158.44-25,379.07-26.259h324.76V278H1603.46c-220.45,1.254-354.24,22.135-378.8,26.258a3.889,3.889,0,0,1-.8.09c-5.65.627-56.55,6.631-97.32,17.206A3.8,3.8,0,0,1,1125.64,321.909Z" fill="#fff"/>
      <path id="Path_3065" data-name="Path 3065" d="M624.877,612.9v-1.344h.448c7.348-.18,13.711-.269,16.847-.538,14.7-1.344,31.545-2.33,47.765-3.316l1.165-.09c11.47-.716,22.313-1.344,32.35-2.061,14.518-1.075,27.243-1.7,39.43-2.24,24.734-1.165,50.274-2.33,94.543-7.17,16.041-1.792,42.567-4.032,70.616-6.363,95.8-8.065,240.609-20.253,305.489-38.894,44.36-12.726,94.55-32.89,89.44-75.727-1.61-13.084-12.01-32.532-52.51-50.814a293.587,293.587,0,0,0-49.29-16.579c-5.38-.986-53.68-10.127-93.29-23.48-.27-.09-.63-.179-.9-.269l.45-1.255c.27.09.63.18.9.269,39.61,13.264,87.82,22.4,93.2,23.391.98.179,97.32,21.418,102.96,68.558,5.29,43.912-45.52,64.345-90.33,77.25-65.06,18.731-209.87,30.919-305.761,38.984-28.049,2.33-54.485,4.571-70.616,6.363-44.269,4.84-69.9,6.094-94.632,7.259-12.187.538-24.912,1.165-39.43,2.241-10.037.717-20.88,1.434-32.351,2.061l-1.165.09c-16.22.985-33.067,1.971-47.764,3.226-3.226.269-9.588.448-16.937.627Z" fill="#fff"/>
      <g id="Group_4794" data-name="Group 4794" opacity="0.9">
        <path id="Path_3066" data-name="Path 3066" d="M1905.1,287.854h-7.08v-.18l7.08.09Z" fill="#fff"/>
        <path id="Path_3067" data-name="Path 3067" d="M1890.85,287.764l-7.17-.09v-.179l7.17.09Z" fill="#fff"/>
        <path id="Path_3068" data-name="Path 3068" d="M1876.6,287.674l-7.16-.089v-.179l7.16.089Z" fill="#fff"/>
        <path id="Path_3069" data-name="Path 3069" d="M1862.27,287.585l-7.08-.09v-.269l7.08.09Z" fill="#fff"/>
        <path id="Path_3070" data-name="Path 3070" d="M1848.02,287.406h-7.17v-.359l7.17.09Z" fill="#fff"/>
        <path id="Path_3071" data-name="Path 3071" d="M1833.77,287.316h-7.17v-.358h7.17Z" fill="#fff"/>
        <path id="Path_3072" data-name="Path 3072" d="M1819.43,287.226h-7.08v-.448l7.08.09Z" fill="#fff"/>
        <path id="Path_3073" data-name="Path 3073" d="M1805.18,287.137h-7.17V286.6l7.17.09Z" fill="#fff"/>
        <path id="Path_3074" data-name="Path 3074" d="M1790.93,287.047h-7.17v-.538l7.17.09Z" fill="#fff"/>
        <path id="Path_3075" data-name="Path 3075" d="M1776.6,287.047l-7.08-.089v-.538h7.08Z" fill="#fff"/>
        <path id="Path_3076" data-name="Path 3076" d="M1762.35,286.958h-7.17v-.717l7.17.089Z" fill="#fff"/>
        <path id="Path_3077" data-name="Path 3077" d="M1748.1,286.868h-7.17v-.717l7.17.09Z" fill="#fff"/>
        <path id="Path_3078" data-name="Path 3078" d="M1733.76,286.778h-7.08v-.717l7.08.09Z" fill="#fff"/>
        <path id="Path_3079" data-name="Path 3079" d="M1719.51,286.778l-7.17-.089v-.717l7.17.089Z" fill="#fff"/>
        <path id="Path_3080" data-name="Path 3080" d="M1705.26,286.689h-7.17v-.717h7.17Z" fill="#fff"/>
        <path id="Path_3081" data-name="Path 3081" d="M1690.92,286.689l-7.08-.09v-.717h7.08Z" fill="#fff"/>
        <path id="Path_3082" data-name="Path 3082" d="M1676.67,286.6h-7.16v-.807l7.16.09Z" fill="#fff"/>
        <path id="Path_3083" data-name="Path 3083" d="M1662.43,286.6h-7.17v-.807h7.17Z" fill="#fff"/>
        <path id="Path_3084" data-name="Path 3084" d="M1648.09,286.6h-7.08v-.807h7.08Z" fill="#fff"/>
        <path id="Path_3085" data-name="Path 3085" d="M1633.84,286.6h-7.17v-.807h7.17Z" fill="#fff"/>
        <path id="Path_3086" data-name="Path 3086" d="M1619.59,286.689h-7.17v-.807l7.17-.09Z" fill="#fff"/>
        <path id="Path_3087" data-name="Path 3087" d="M1605.25,286.778h-7.08v-.806l7.08-.09Z" fill="#fff"/>
        <path id="Path_3088" data-name="Path 3088" d="M1591.01,286.868l-7.17.089v-.9l7.17-.089Z" fill="#fff"/>
        <path id="Path_3089" data-name="Path 3089" d="M1576.76,287.137l-7.17.089v-.9l7.08-.089Z" fill="#fff"/>
        <path id="Path_3090" data-name="Path 3090" d="M1562.42,287.495l-7.08.359-.09-.986,7.17-.269Z" fill="#fff"/>
        <path id="Path_3091" data-name="Path 3091" d="M1548.17,288.123l-7.08.358-.09-.9,7.17-.359Z" fill="#fff"/>
        <path id="Path_3092" data-name="Path 3092" d="M1533.92,288.84l-7.08.358-.09-.986,7.17-.269Z" fill="#fff"/>
        <path id="Path_3093" data-name="Path 3093" d="M1519.67,289.556l-7.08.359-.09-.986,7.17-.358Z" fill="#fff"/>
        <path id="Path_3094" data-name="Path 3094" d="M1505.42,290.273l-7.08.359-.09-.986,7.17-.358Z" fill="#fff"/>
        <path id="Path_3095" data-name="Path 3095" d="M1491.17,290.99l-7.16.359v-.986l7.08-.358Z" fill="#fff"/>
        <path id="Path_3096" data-name="Path 3096" d="M1476.92,291.707l-7.16.448V291.08l7.08-.359Z" fill="#fff"/>
        <path id="Path_3097" data-name="Path 3097" d="M1462.68,292.514l-7.17.358v-.985l7.08-.449Z" fill="#fff"/>
        <path id="Path_3098" data-name="Path 3098" d="M1448.43,293.32l-7.17.359-.09-.986,7.17-.448Z" fill="#fff"/>
        <path id="Path_3099" data-name="Path 3099" d="M1434.18,294.127l-7.17.448-.09-1.075,7.17-.448Z" fill="#fff"/>
        <path id="Path_3100" data-name="Path 3100" d="M1419.93,295.023l-7.17.448-.09-1.165,7.17-.448Z" fill="#fff"/>
        <path id="Path_3101" data-name="Path 3101" d="M1405.68,295.919l-7.17.448-.09-1.165,7.17-.448Z" fill="#fff"/>
        <path id="Path_3102" data-name="Path 3102" d="M1391.43,296.816l-7.16.448-.09-1.076,7.16-.537Z" fill="#fff"/>
        <path id="Path_3103" data-name="Path 3103" d="M1377.18,297.8l-7.16.448-.09-1.165,7.16-.448Z" fill="#fff"/>
        <path id="Path_3104" data-name="Path 3104" d="M1362.94,298.787l-7.17.538-.09-1.165,7.17-.538Z" fill="#fff"/>
        <path id="Path_3105" data-name="Path 3105" d="M1348.69,299.863l-7.17.537-.09-1.165,7.17-.537Z" fill="#fff"/>
        <path id="Path_3106" data-name="Path 3106" d="M1334.44,300.938l-7.08.627-.09-1.254,7.08-.538Z" fill="#fff"/>
        <path id="Path_3107" data-name="Path 3107" d="M1320.19,302.193l-7.08.627-.09-1.255,7.08-.627Z" fill="#fff"/>
        <path id="Path_3108" data-name="Path 3108" d="M1306.03,303.447l-7.17.628-.09-1.255,7.08-.627Z" fill="#fff"/>
        <path id="Path_3109" data-name="Path 3109" d="M1291.78,304.792l-7.08.716-.17-1.254,7.16-.717Z" fill="#fff"/>
        <path id="Path_3110" data-name="Path 3110" d="M1277.62,306.226l-7.17.806-.08-1.255,7.07-.806Z" fill="#fff"/>
        <path id="Path_3111" data-name="Path 3111" d="M1263.38,307.839l-7.08.9-.18-1.345,7.17-.806Z" fill="#fff"/>
        <path id="Path_3112" data-name="Path 3112" d="M1249.22,309.631l-7.08.986-.18-1.345,7.08-.985Z" fill="#fff"/>
        <path id="Path_3113" data-name="Path 3113" d="M1235.15,311.6l-7.08,1.165-.18-1.345,6.99-1.075Z" fill="#fff"/>
        <path id="Path_3114" data-name="Path 3114" d="M1221.08,314.022l-6.99,1.345-.27-1.255,6.99-1.434Z" fill="#fff"/>
        <path id="Path_3115" data-name="Path 3115" d="M1207.1,316.98l-6.81,1.971-.36-1.165,6.9-2.061Z" fill="#fff"/>
        <path id="Path_3116" data-name="Path 3116" d="M1193.75,321.55l-6.55,2.958-.53-1.165,6.54-2.958Z" fill="#fff"/>
        <path id="Path_3117" data-name="Path 3117" d="M1181.02,327.823a50.765,50.765,0,0,0-5.73,4.033l-.81-.985a44.319,44.319,0,0,1,5.91-4.213Z" fill="#fff"/>
        <path id="Path_3118" data-name="Path 3118" d="M1170.8,337.144a9.66,9.66,0,0,0-1.16,6.452l-1.25.269a8.846,8.846,0,0,1,0-3.764,14.234,14.234,0,0,1,1.25-3.5Z" fill="#fff"/>
        <path id="Path_3119" data-name="Path 3119" d="M1172.69,349.6a32.219,32.219,0,0,0,5.02,4.929l-.81.986a31.083,31.083,0,0,1-5.2-5.109Z" fill="#fff"/>
        <path id="Path_3120" data-name="Path 3120" d="M1183.44,358.652l6.09,3.585-.62,1.075-6.19-3.674Z" fill="#fff"/>
        <path id="Path_3121" data-name="Path 3121" d="M1195.81,365.553l6.45,3.047-.54,1.075-6.45-3.047Z" fill="#fff"/>
        <path id="Path_3122" data-name="Path 3122" d="M1208.8,371.468l6.54,2.688-.44,1.076-6.64-2.689Z" fill="#fff"/>
        <path id="Path_3123" data-name="Path 3123" d="M1221.97,376.755l6.72,2.509-.44,1.076-6.63-2.51Z" fill="#fff"/>
        <path id="Path_3124" data-name="Path 3124" d="M1235.42,381.684l6.72,2.33-.36,1.075-6.81-2.33Z" fill="#fff"/>
        <path id="Path_3125" data-name="Path 3125" d="M1248.86,386.344l6.81,2.241-.36,1.075-6.81-2.24Z" fill="#fff"/>
        <path id="Path_3126" data-name="Path 3126" d="M1262.48,390.735l6.81,2.151-.36.986-6.81-2.061Z" fill="#fff"/>
        <path id="Path_3127" data-name="Path 3127" d="M1276.1,395.037l6.72,2.061-.27,1.076-6.81-2.151Z" fill="#fff"/>
        <path id="Path_3128" data-name="Path 3128" d="M1289.63,399.339l6.81,2.151-.27.985-6.81-2.15Z" fill="#fff"/>
        <path id="Path_3129" data-name="Path 3129" d="M1303.25,403.73l6.82,2.241-.36.985-6.81-2.24Z" fill="#fff"/>
        <path id="Path_3130" data-name="Path 3130" d="M1316.79,408.3l6.72,2.33-.36.985-6.72-2.33Z" fill="#fff"/>
        <path id="Path_3131" data-name="Path 3131" d="M1330.23,413.05l6.72,2.51-.36.9-6.72-2.42Z" fill="#fff"/>
        <path id="Path_3132" data-name="Path 3132" d="M1343.58,418.069l6.72,2.689-.45.9-6.63-2.6Z" fill="#fff"/>
        <path id="Path_3133" data-name="Path 3133" d="M1356.84,423.446l6.63,2.778-.44.9-6.55-2.778Z" fill="#fff"/>
        <path id="Path_3134" data-name="Path 3134" d="M1369.93,429.182l6.54,3.047-.45.806-6.45-2.957Z" fill="#fff"/>
        <path id="Path_3135" data-name="Path 3135" d="M1382.83,435.365l6.36,3.316-.44.807-6.37-3.316Z" fill="#fff"/>
        <path id="Path_3136" data-name="Path 3136" d="M1395.47,442.087l6.09,3.674-.45.807-6.09-3.675Z" fill="#fff"/>
        <path id="Path_3137" data-name="Path 3137" d="M1407.65,449.615l5.92,4.032-.54.717-5.91-4.032Z" fill="#fff"/>
        <path id="Path_3138" data-name="Path 3138" d="M1419.21,457.949l5.56,4.571-.63.627-5.46-4.481Z" fill="#fff"/>
        <path id="Path_3139" data-name="Path 3139" d="M1429.97,467.449l4.84,5.287-.63.538-4.84-5.2Z" fill="#fff"/>
        <path id="Path_3140" data-name="Path 3140" d="M1439.2,478.382c1.34,1.972,2.6,4.033,3.76,6.094l-.72.359a67.512,67.512,0,0,0-3.76-6.005Z" fill="#fff"/>
        <path id="Path_3141" data-name="Path 3141" d="M1446.01,491.018a46.73,46.73,0,0,1,2.06,6.9l-.81.179a44.464,44.464,0,0,0-2.06-6.811Z" fill="#fff"/>
        <path id="Path_3142" data-name="Path 3142" d="M1449.06,505a38,38,0,0,1-.18,7.169l-.81-.089a46.531,46.531,0,0,0,.18-7.08Z" fill="#fff"/>
        <path id="Path_3143" data-name="Path 3143" d="M1447.71,519.338a59.862,59.862,0,0,1-2.15,6.811l-.72-.269a47.174,47.174,0,0,0,2.15-6.722Z" fill="#fff"/>
        <path id="Path_3144" data-name="Path 3144" d="M1442.51,532.691a69.238,69.238,0,0,1-3.58,6.183l-.63-.448c1.26-1.971,2.42-4.032,3.59-6.183Z" fill="#fff"/>
        <path id="Path_3145" data-name="Path 3145" d="M1434.9,544.789l-4.48,5.556-.63-.448,4.48-5.556Z" fill="#fff"/>
        <path id="Path_3146" data-name="Path 3146" d="M1425.67,555.723l-5.11,5.108-.45-.538,4.93-5.108Z" fill="#fff"/>
        <path id="Path_3147" data-name="Path 3147" d="M1415.36,565.67l-5.38,4.66-.44-.537,5.37-4.661Z" fill="#fff"/>
        <path id="Path_3148" data-name="Path 3148" d="M1404.43,574.9l-5.65,4.3-.45-.538,5.65-4.3Z" fill="#fff"/>
        <path id="Path_3149" data-name="Path 3149" d="M1393.05,583.5l-5.92,4.033-.36-.538,5.83-4.122Z" fill="#fff"/>
        <path id="Path_3150" data-name="Path 3150" d="M1381.22,591.57l-6.01,3.853-.35-.537,6-3.943Z" fill="#fff"/>
        <path id="Path_3151" data-name="Path 3151" d="M1369.12,599.187l-6.09,3.675-.27-.538,6.09-3.674Z" fill="#fff"/>
        <path id="Path_3152" data-name="Path 3152" d="M1356.84,606.446l-6.18,3.5-.27-.449,6.18-3.584Z" fill="#fff"/>
        <path id="Path_3153" data-name="Path 3153" d="M1344.39,613.347l-6.28,3.406-.26-.448,6.27-3.406Z" fill="#fff"/>
        <path id="Path_3154" data-name="Path 3154" d="M1331.75,620.068l-6.36,3.227-.18-.359,6.36-3.316Z" fill="#fff"/>
        <path id="Path_3155" data-name="Path 3155" d="M1319.03,626.521l-6.46,3.137-.18-.359,6.46-3.137Z" fill="#fff"/>
        <path id="Path_3156" data-name="Path 3156" d="M1306.12,632.705l-6.45,3.047-.09-.269,6.45-3.047Z" fill="#fff"/>
        <path id="Path_3157" data-name="Path 3157" d="M1293.22,638.8l-6.54,2.867-.09-.179,6.54-2.957Z" fill="#fff"/>
        <path id="Path_3158" data-name="Path 3158" d="M1280.22,644.624l-6.54,2.868-.09-.18,6.54-2.867Z" fill="#fff"/>
        <path id="Path_3159" data-name="Path 3159" d="M1267.14,650.359l-6.63,2.779v-.18l6.54-2.778Z" fill="#fff"/>
        <path id="Path_3160" data-name="Path 3160" d="M1253.97,655.916l-6.63,2.688v-.089l6.63-2.689Z" fill="#fff"/>
        <path id="Path_3161" data-name="Path 3161" d="M1240.79,661.382l-6.63,2.6,6.54-2.688Z" fill="#fff"/>
        <path id="Path_3162" data-name="Path 3162" d="M1227.26,666.76l-3.31,1.344Z" fill="#fff"/>
      </g>
      <g id="Group_4795" data-name="Group 4795" opacity="0.8">
        <path id="Path_3163" data-name="Path 3163" d="M4.033,305.329H.986v-.9H4.033c243.3,0,806.436-5.2,1103.777-15.952v.9C810.469,300.131,247.335,305.329,4.033,305.329Z" fill="#fff"/>
      </g>
      <path id="Path_3164" data-name="Path 3164" d="M1123.35,287.948v.9l218.48,1.054V289Z" fill="#fff"/>
      <path id="Path_3165" data-name="Path 3165" d="M701.049,423.8a109.04,109.04,0,0,1-35.577-6.005,129.835,129.835,0,0,1-48.212-29.663l.358-.359a128.734,128.734,0,0,0,48.033,29.484,109.735,109.735,0,0,0,52.6,4.571c22.045-3.585,43.91-13.98,65.149-31.008l.358.448c-21.328,17.117-43.283,27.6-65.418,31.1A112.6,112.6,0,0,1,701.049,423.8Z" fill="#fff"/>
      <path id="Path_3166" data-name="Path 3166" d="M555.248,414.395c-15.234,0-32.35-2.6-51.08-7.887-40.505-11.292-74.917-31.008-75.186-31.187l.269-.448c.359.179,34.681,19.9,75.1,31.187,23.747,6.632,44.807,9.052,62.729,7.259,22.4-2.24,39.879-11.112,51.887-26.347l.448.358c-12.1,15.325-29.752,24.287-52.245,26.527C563.314,414.215,559.371,414.395,555.248,414.395Z" fill="#fff"/>
      <path id="Path_3167" data-name="Path 3167" d="M548.257,424.88c-3.047,0-6.094-.09-9.141-.358-28.407-2.42-51.8-15.773-66.4-26.527a151.931,151.931,0,0,1-25.272-23.122l.448-.358a150.732,150.732,0,0,0,25.182,23.031c14.607,10.755,37.907,24.108,66.135,26.438,33.068,2.778,65.777-9.679,97.141-37.1l.359.448C608.119,412.333,578.457,424.88,548.257,424.88Z" fill="#fff"/>
      <g id="Group_4796" data-name="Group 4796" opacity="0.8">
        <path id="Path_3168" data-name="Path 3168" d="M620.845,427.658a92.92,92.92,0,0,1-15.772-1.344c-45.7-7.886-70.527-48.484-70.706-48.932l.538-.358c.269.448,24.913,40.866,70.347,48.663,33.247,5.735,69.092-7.08,106.461-38l.179-.179.18.179c.179.18,21.417,19.537,51.348,29.485,17.565,5.825,34.681,7.259,50.722,4.391,20.163-3.674,38.892-14.16,55.65-31.277l.448.449c-16.847,17.206-35.666,27.871-56.009,31.545-16.22,2.958-33.426,1.434-51.08-4.391-28.5-9.41-49.108-27.423-51.348-29.4C680.259,414.484,649.7,427.658,620.845,427.658Z" fill="#fff"/>
      </g>
      <path id="Path_3169" data-name="Path 3169" d="M1491.17,272.8h-1.25l6.45-271.185,1.26.09-.09,16.938Z" fill="#fff"/>
      <path id="Path_3170" data-name="Path 3170" d="M1447.98,271.633l-1.17-.269,28.5-115.966,12.19-136.13,1.25.09-12.18,136.31Z" fill="#fff"/>
      <path id="Path_3171" data-name="Path 3171" d="M1546.91,271.991l-28.14-115.876L1506.95,14.877l1.25-.09,11.83,141.149,28.14,115.786Z" fill="#fff"/>
      <path id="Path_3172" data-name="Path 3172" d="M1530.43,200.745l-37.55-.538h-27.87v-1.255h27.87l37.55.538Z" fill="#fff"/>
      <path id="Path_3173" data-name="Path 3173" d="M1492.43,200.207l-.45-1.165,33.25-13.891-33.7-15.414,26.35-12.816-25.54-12.815,24.11-9.679-22.77-25.093,19.27-11.292-17.92-20.971,15.14-13.532-15.14-10.754,12.72-13.622-12.27-4.57,11.29-11.382-10.31-2.778V19.178l12.28,3.406-10.93,11.471,12.18,4.571L1497,52.606l15.23,10.844-15.86,13.712,18.64,21.24-19.35,11.292,22.58,25.272-22.76,9.32,24.73,12.636-25.63,12.726,32.26,15.5Z" fill="#fff"/>
      <path id="Path_3174" data-name="Path 3174" d="M1529.44,199.759l-38-15.952,29.13-12.636-29.04-16.132,25.09-8.961-23.65-13.533,21.59-21.418-20.61-15.5,18.1-19.806L1493.77,61.3l15.33-16.848-14.07-2.509,11.92-13.98-10.67-4.481,10.94-8.066.26,1.075-9.58,6.721,11.2,4.122-11.65,13.8,13.17,2.778L1495.66,61.12l17.65,14.518-17.48,19.806,20.35,15.594-21.15,21.239,24.28,14.071-24.64,8.961,28.77,16.042-28.77,12.457,35.31,14.787Z" fill="#fff"/>
      <path id="Path_3175" data-name="Path 3175" d="M1465.45,200.476l-.26-1.165,26.07-14.518L1472,170.9l20.88-14.877-16.58-10.037,16.67-13.264-14.7-7.707,15.5-15.5-13.35-11.829,13.53-13.98-11.47-8.962,11.74-11.919-9.77-7.886,10.85-12.188-9.14-7.169,9.05-8.066-8.43-7.438,9.68-2.778.36,1.165-7.44,2.24,7.8,6.811-9.59,8.066,9.68,6.452-11.47,12.9,10.39,7.8L1484,74.562l11.83,9.051-13.71,13.98,13.53,11.83-15.23,15.324,14.88,7.708-16.76,13.353,16.67,10.127L1474.15,170.9l19.08,14.07Z" fill="#fff"/>
      <path id="Path_3176" data-name="Path 3176" d="M1491.53,199.58l-23.57-14.25,23.75-14.7-16.13-12.546,17.21-13.891-15.59-9.5,15.77-12.278-13.44-12.546,15.14-13.8-13.35-8.424,12.72-14.787-10.66-7.707,11.65-12.367-9.41-7.886,10.04-10.575-8.79-6.363,7.71-10.216.99.807-6.9,9.141,8.96,6.453L1487.5,44.809l9.41,7.8-11.56,12.367,10.66,7.707-13.89,14.787,14.7,8.872-15.77,13.532,13.89,12.636-15.41,12.1,15.5,9.409-17.39,14.071,16.4,12.725-23.92,14.518,22.04,13.085Z" fill="#fff"/>
      <path id="Path_3177" data-name="Path 3177" d="M1500.44,5.661l-1.25.025,5.29,265.4,1.26-.025Z" fill="#fff"/>
      <path id="Path_3178" data-name="Path 3178" d="M1448.25,270.109l-1.08-.717,26.53-41.941-12.1-15.862,25.63-12.637.54,1.076-24.47,12.009,12.01,14.876Z" fill="#fff"/>
      <path id="Path_3179" data-name="Path 3179" d="M1504.44,272.439l-22.85-44.45-32.44,41.851-.99-.806,33.69-43.465L1505.6,271.9Z" fill="#fff"/>
      <path id="Path_3180" data-name="Path 3180" d="M1458.68,225.583l-.01,1.254,78.41.5.01-1.255Z" fill="#fff"/>
      <path id="Path_3181" data-name="Path 3181" d="M1488.31,273.156l-13.09-47.318,37.28-26.527,1.17.538-37.01,26.527,12.9,46.422Z" fill="#fff"/>
      <path id="Path_3182" data-name="Path 3182" d="M1482.03,227.361l-.62-1.165,21.23-11.65-16.22-13.891.81-.986,16.31,13.981,12.64-14.429,17.74,13.8-16.67,14.16-13.62-11.65Zm22.59-12.9,12.81,10.934,15.5-12.188-16.4-12.637Z" fill="#fff"/>
      <path id="Path_3183" data-name="Path 3183" d="M1481.23,226.465l-19.63-14.787.27-.986,20.7,15.056Z" fill="#fff"/>
      <path id="Path_3184" data-name="Path 3184" d="M1492.07,273.067l-1.17-.538,23.84-45.347-10.12-5.646-12.73-7.8-14.7-13.263-12.18,10.575-.54-.9,12.72-11.023,15.51,13.622,12.63,7.707,11.11,6.183Z" fill="#fff"/>
      <path id="Path_3185" data-name="Path 3185" d="M1516.11,226.677l-1.02.72,31.93,45.58,1.03-.72Z" fill="#fff"/>
      <path id="Path_3186" data-name="Path 3186" d="M1544.23,260.072l-5.56-1.7,2.69-4.3h-7.53l5.65-7.8-11.74-.9,9.5-7.618-15.51-.986,13.35-9.41-9.58-7.348,1.07-.717,10.58,8.155-12.37,9.051h14.7l-9.59,8.066,11.65.986-5.38,7.349h6.99l-2.51,4.749,3.5,1.255Z" fill="#fff"/>
      <path id="Path_3187" data-name="Path 3187" d="M1454.07,258.638l-2.69-5.377,6.82-.9-4.75-7.8,8.6,1.165-6.63-9.051,11.38-.449-9.5-7.886,10.04-9.589.89.9-9.41,8.783,10.04,8.6-11.56.269,7.8,10.306-10.31-1.972,5.83,7.8-7.53.538,2.15,4.122Z" fill="#fff"/>
      <path id="Path_3188" data-name="Path 3188" d="M1505.78,272.977l-1.25-.358,15.05-46.423,27.33,43.2-1.07.717-25.9-41.672Z" fill="#fff"/>
      <path id="Path_3189" data-name="Path 3189" d="M1483.11,253.978l7.35-9.231,11.2-7.169-23.03-.359,23.48-18.013.71,1.075-22.31,16.49h25.72l-14.88,8.962-6.36,7.528,9.41-.269,9.68-8.962,7.62,9.5-10.04.448Zm20.88-8.155-7.53,6.99,5.29-.179,7.44-.359Z" fill="#fff"/>
      <path id="Path_3190" data-name="Path 3190" d="M1480.69,245.464l10.22-8.782.8.9-8.69,7.617,28.5-.179-10.04-8.245,13.53-.179-11.02-8.962-16.67,9.141-.63-1.075,17.48-9.679,12.81,11.471-12.01-.089,9.06,8.782Z" fill="#fff"/>
      <path id="Path_3191" data-name="Path 3191" d="M1444.49,270.378h6.63l.27,6.632-8.79-.179Z" fill="#fff"/>
      <path id="Path_3192" data-name="Path 3192" d="M1487.05,272.35l6.19.268.53,6.274h-8.51" fill="#fff"/>
      <path id="Path_3193" data-name="Path 3193" d="M1502.29,271.543l-1.62,5.467,7.71-.359-1.16-4.929Z" fill="#fff"/>
      <path id="Path_3194" data-name="Path 3194" d="M1543.96,270.916l7.26.089,1.25,5.2-8.78.448Z" fill="#fff"/>
      <path id="Path_3195" data-name="Path 3195" d="M1511.16,55.294l-.36-1.255,28.86-7.349-30.12-2.6.09-1.255,33.88,2.957.09,1.255Z" fill="#fff"/>
      <path id="Path_3196" data-name="Path 3196" d="M1470.47,141.059l-22.31-2.24-.27-1.165,32.53-15.056.09,1.165-29.93,14.07,19.8,1.971,8.43-4.749.62,1.165-8.6,4.749Z" fill="#fff"/>
      <path id="Path_3197" data-name="Path 3197" d="M1517.7,134.786l-.18-1.255,27.6-3.4-28.05-4.481.18-1.255,37.1,5.825Z" fill="#fff"/>
      <path id="Path_3198" data-name="Path 3198" d="M1513.04,53.771l.72-1.255.71-1.255c.54-.806.99-1.613,1.53-2.42s1.07-1.613,1.61-2.33l1.61-2.33c.09-.179.27-.179.45-.09.09.09.09.179.18.269l.72,8.334-.54-.179,6.09-7.528c.09-.179.27-.179.45-.09.09.09.09.09.09.179l.72,6.094-.54-.179,1.79-1.434c.27-.269.63-.448.9-.717l.89-.627c1.26-.9,2.51-1.792,3.77-2.6-1.17.986-2.24,2.061-3.41,3.047l-.89.717c-.27.269-.63.448-.9.717l-1.79,1.434c-.18.09-.36.09-.45-.09,0-.09-.09-.09-.09-.179l-.72-6.094.54.179-6.09,7.528c-.09.179-.27.179-.45.09a.277.277,0,0,1-.09-.179l-.72-8.334.63.179-1.61,2.33-1.62,2.42c-.53.807-1.16,1.524-1.79,2.33l-.89,1.165Z" fill="#fff"/>
      <path id="Path_3199" data-name="Path 3199" d="M1524.24,133.531c-.09,0-.09,0-.18-.089s-.18-.18-.18-.269l.45-6.274-6.72,4.571-.36-.538,7.26-5.018a.274.274,0,0,1,.36,0c.09.089.18.179.18.269l-.45,6.273,9.05-5.288a.17.17,0,0,1,.27,0c.09,0,.18.09.18.269l.81,4.391-.63.09-.72-3.943-9.23,5.377C1524.33,133.531,1524.24,133.531,1524.24,133.531Z" fill="#fff"/>
      <path id="Path_3200" data-name="Path 3200" d="M1478.95,132.886l-28.96,4.452.1.62,28.96-4.452Z" fill="#fff"/>
      <path id="Path_3201" data-name="Path 3201" d="M1461.69,136.04l-.63-.089.81-4.3a.193.193,0,0,1,.18-.179.169.169,0,0,1,.27,0l7.35,2.957.45-5.914c0-.09.09-.18.17-.269s.27,0,.36,0l8.96,6.631-.35.538-8.52-6.273-.45,5.735c0,.09-.08,0-.17.09a.169.169,0,0,1-.27,0l-7.35-2.778Z" fill="#fff"/>
      <path id="Path_3202" data-name="Path 3202" d="M1475.31,137.833,1459.9,136.4l.18-.448,15.23,1.254Z" fill="#fff"/>
      <path id="Path_3203" data-name="Path 3203" d="M1469.99,134.322l-.11.617,8.37,1.533.11-.617Z" fill="#fff"/>
      <path id="Path_3204" data-name="Path 3204" d="M1521.73,95.892h-.09c-.09-.09-.18-.179-.18-.269l.18-9.41-7.08,8.872-.53-.358,7.7-9.589c.09-.09.27-.179.36-.09s.18.179.18.269l-.18,9.41,7.17-8.514c.09-.09.18-.09.36-.09q.135,0,.27.269l1.34,6.184,4.84-5.736c.09-.09.27-.179.36-.09s.18.179.18.269l-.09,4.75h-.63l.09-3.854-4.66,5.556c-.09.09-.18.09-.36.09q-.135,0-.27-.269l-1.34-6.184L1522,95.8A.331.331,0,0,1,1521.73,95.892Z" fill="#fff"/>
      <path id="Path_3205" data-name="Path 3205" d="M1515.19,97.684l-.36-1.255,31.73-8.066-33.07-2.957.09-1.255,36.83,3.226.09,1.255Z" fill="#fff"/>
      <path id="Path_3206" data-name="Path 3206" d="M1466.8,103.957l-19.63-2.688-.18-1.255,35.67-16.49.54,1.165-33.7,15.594,17.3,2.419,15.23-7.886v1.075l-14.87,8.065Z" fill="#fff"/>
      <path id="Path_3207" data-name="Path 3207" d="M1481.72,93.677l-32.84,6.72.13.615,32.83-6.72Z" fill="#fff"/>
      <path id="Path_3208" data-name="Path 3208" d="M1479.08,94.368c-.54-.448-1.35-.986-1.89-1.434s-1.16-.9-1.7-1.344a1.578,1.578,0,0,1-.45-.358c-.18-.09-.27-.269-.36-.358l-.8-.717-1.62-1.434.54-.179-.45,7.528c0,.179-.17.269-.35.269h-.09l-7.17-3.5.45-.269-.81,4.839c0,.179-.18.269-.36.269l-3.05-.9c-.53-.179-.98-.269-1.52-.448l-1.52-.538.27-.179-.36,1.434-.36,1.882.18-1.972.18-1.434a.193.193,0,0,1,.18-.179l1.52.359a9.449,9.449,0,0,1,1.52.448l3.05.9-.45.269.81-4.839c0-.179.18-.269.36-.269h.09l7.17,3.5-.45.269.45-7.528c0-.179.17-.269.35-.269.09,0,.18,0,.18.09l1.62,1.434.8.717c.18.09.27.269.45.359l.36.358c.54.538.99.986,1.52,1.523Z" fill="#fff"/>
      <path id="Path_3209" data-name="Path 3209" d="M1473.03,95.838l-.1.62,6.29.968.1-.62Z" fill="#fff"/>
      <path id="Path_3210" data-name="Path 3210" d="M1475.4,99.207l-11.2-1.255.36-.448,10.93.986Z" fill="#fff"/>
      <path id="Path_3211" data-name="Path 3211" d="M1471.46,100.462l-13.44-1.434.27-.448,14.87,1.255Z" fill="#fff"/>
      <path id="Path_3212" data-name="Path 3212" d="M1485.74,54.569l-28.95,7.579.16.607,28.95-7.579Z" fill="#fff"/>
      <path id="Path_3213" data-name="Path 3213" d="M1469.76,65.152l-17.03-1.7-.27-1.255,32.89-18.641.63,1.165-31.1,17.655,14.88,1.524,14.33-3.943.27,1.255-14.33,3.943Z" fill="#fff"/>
      <path id="Path_3214" data-name="Path 3214" d="M1477.37,62.285l-14.78-1.434c-.18,0-.27-.179-.27-.358l.18-3.226c0-.09.09-.179.09-.269a.332.332,0,0,1,.27-.09l6.36,1.434V53.054c0-.09.09-.269.18-.269a.275.275,0,0,1,.36,0l5.01,3.226,1.17-6.632c0-.09.09-.179.18-.269a.542.542,0,0,1,.36.09l5.91,5.825-.45.448-5.46-5.377-1.17,6.453c0,.09-.09.179-.18.269h-.27l-4.92-3.226V58.61a.317.317,0,0,1-.36.358l-6.46-1.434-.08,2.6,14.69,1.7Z" fill="#fff"/>
      <path id="Path_3215" data-name="Path 3215" d="M1483.56,60.4l-14.07-1.344.09-.627,14.07,1.344Z" fill="#fff"/>
      <path id="Path_3216" data-name="Path 3216" d="M1484.27,58.341l-9.14-.986.45-.448,8.69.717Z" fill="#fff"/>
      <path id="Path_3217" data-name="Path 3217" d="M1488.13,21.24l-.81-.269L1495.83,0l12.1,14.966-.72.538L1496.1,1.7Z" fill="#fff"/>
      <path id="Path_3218" data-name="Path 3218" d="M793.8,298.7h-1.523l-1.076-.18-.089-1.075.358-.538-34.143.09-1.254,1.613-1.7.358-2.42-.179v-1.075l.538-.628-34.232.09-2.151,1.7-3.764-.179v-1.524l.09-.09-4.75.18-.09-7.528,1.165-1.434,1.255-.09V286.33l-9.5.09v-1.344l.717-.538L701.5,234.8h-.538l.09-1.7v-.269l-.9-.179-.09-1.076,11.65-5.645c-1.255-.18-1.972-.628-2.151-1.255a1.535,1.535,0,0,1,.538-1.344l-16.131-.09.09-2.24h-.269l-.09-1.882.448-.09v-10.4c-7.169-2.778-7.348-12.1-7.348-12.188-.448-10.216,10.037-12.457,10.126-12.546l13.532-3.5.09-2.779a4.065,4.065,0,0,1-.9-.448h-.09v-.089c-.09-.18-.09-.359.09-.448.627-.986,5.914-.986,7.438-.986,1.344.269,1.881.448,1.881.9s-.627.717-1.165.806v1.7c9.051.269,9.858,9.41,9.858,9.5.269,8.872-5.915,11.112-7.08,11.471l-.268,7.707c4.032.9,3.763,6.721,3.584,8.066h5.556l.09,1.075,12.187.269,36.2.179c15.772-.089,19.536,1.165,19.715,1.165,1.524.359,2.33.986,2.42,1.793.179,1.165-1.075,2.24-1.434,2.6l.09.179a2.563,2.563,0,0,1,2.33.448,1.435,1.435,0,0,1,.269.717h.627c1.434-.09,2.33.179,2.778.806A1.636,1.636,0,0,1,805,226.2l-.179,8.962c1.433.179,2.15.538,2.24,1.076s-.538.985-.9,1.254v1.882a3.385,3.385,0,0,1,2.419,2.689l-.358,14.339a3.87,3.87,0,0,1-2.509,3.4l.089,1.882c.269.179.628.448.538.9-.179.717-1.613,1.165-2.33,1.345l-.179,9.141-4.212,2.151-3.405-.986v2.6l12.9.179v6.721l-1.075,1.076-4.84.089-2.15,3.137,1.434.09-.18,6.99-1.075,1.254-5.108.09-.986,1.524Zm-2.24-.628.806.179H793.8l1.255-.268.985-1.524,5.108-.09.807-.9.179-6.363-1.792-.179,2.778-4.033,4.839-.089.717-.717V278l-12.9-.179v-3.764l3.853,1.075,3.764-1.972.179-9.23h.179a3.955,3.955,0,0,0,2.151-.986c0-.09-.09-.269-.448-.448l-.09-.09-.089-2.509.179-.09a3.351,3.351,0,0,0,2.33-3.047l.358-14.339a2.89,2.89,0,0,0-2.24-2.33h-.179v-2.509l.089-.09c.359-.179.807-.537.807-.806,0-.09-.179-.538-2.061-.717h-.18l.18-9.41a1.111,1.111,0,0,0-.18-.807c-.268-.358-.9-.717-2.419-.717l-1.075.09.089-.269a.7.7,0,0,0-.179-.627c-.269-.269-.807-.538-2.151-.269h-.179l-.179-.9.089-.09c.448-.358,1.524-1.434,1.345-2.24-.09-.628-.807-1.165-2.151-1.434-.09,0-3.943-1.255-19.536-1.165l-36.2-.179-12.546-.269-.09-1.076-5.645.09v-.269c0-.09.9-7.08-3.406-7.886h-.179l.269-8.514h.179c.269-.09,7.169-1.7,6.9-11.023,0-.359-.807-8.872-9.589-9.052h-.179v-2.6l.179-.089a1.383,1.383,0,0,0,.9-.448c-.09-.09-.358-.269-1.523-.448-3.495,0-6.632.269-6.99.717a2.03,2.03,0,0,0,.806.358h.269L711,181.029l-13.89,3.585c-.448.089-10.127,2.15-9.679,12.008,0,.09.18,9.231,7.259,11.83l.179.09v11.112l-.448.09v.9h.359l-.09,2.241,16.937.179-.538.448c-.268.179-.9.806-.806,1.255.089.268.448.806,2.509.985l.9.09-12.9,6.184v.358l.9.179.09.628-.09,1.254h.538l-.269,50.366-.717.537v.538l9.5-.089-.09,2.957-1.523.09-.9,1.075.089,6.9,6.363-.269-1.7.986v.806l3.137.179,2.151-1.7,35.307-.09-1.075,1.255v.448l1.972.179,1.523-.269,1.255-1.613h.089l35.039-.09-.806,1.076Z" fill="#fff"/>
      <path id="Path_3219" data-name="Path 3219" d="M696.658,218.668c-.9-.089-.986-1.165-.9-1.792v-8.334l.358.179c3.405,1.792,7.617-1.076,7.707-1.076l.358-.268-.179,8.065Zm-.448-9.32v7.528s-.09,1.165.358,1.255l6.9-3.047.179-6.811C702.572,208.9,699.167,210.6,696.21,209.348Z" fill="#fff"/>
      <path id="Path_3220" data-name="Path 3220" d="M707.5,220.192l-11.022-.448,7.348-3.406.806.359.09,1.434-.269.269,5.646-.269v.179a1.172,1.172,0,0,1-.269.9C709.472,219.834,708.666,220.1,707.5,220.192Zm-8.961-.807,8.961.359c1.255-.09,1.792-.448,1.972-.717.089-.09.089-.179.179-.269l-6.363.269.986-.986-.09-.986-.358-.179Z" fill="#fff"/>
      <path id="Path_3221" data-name="Path 3221" d="M715.836,221.088l-4.57.09.089-2.868,9.41.359Zm-4.122-.448,4.032-.089,3.047-1.524-6.99-.269Z" fill="#fff"/>
      <path id="Path_3222" data-name="Path 3222" d="M710.459,216.07l-.717-.269a4.261,4.261,0,0,1-3.585-.628,3.074,3.074,0,0,1-1.165-2.061v-5.646l1.792-.089.09.179c.807,2.151,3.316,2.957,3.316,3.047l.179.089Zm-4.929-3.047a2.507,2.507,0,0,0,.986,1.7,4.089,4.089,0,0,0,3.226.538h.089l.09.09v-4.392a5.938,5.938,0,0,1-3.405-3.047l-.986.09Z" fill="#fff"/>
      <path id="Path_3223" data-name="Path 3223" d="M719.331,208.362l-7.976.09v-4.391l4.84-.359a2.9,2.9,0,0,1,2.509,1.076,5,5,0,0,1,.627,3.4Zm-7.438-.448,7.08-.089a3.887,3.887,0,0,0-.628-2.778,2.434,2.434,0,0,0-2.15-.9l-4.391.359Z" fill="#fff"/>
      <path id="Path_3224" data-name="Path 3224" d="M717,216.07l-5.646-.09v-5.736l7.886.448-.089,3.137A2.264,2.264,0,0,1,717,216.07Zm-5.108-.538,5.2.089a1.827,1.827,0,0,0,1.7-1.792l.09-2.688-6.9-.359Z" fill="#fff"/>
      <path id="Path_3225" data-name="Path 3225" d="M704.008,208l-.18-.448c.359-.179,7.8-4.571,5.019-14.966,0-.09-2.689-8.514-11.023-8.245v-.538c8.6-.269,11.381,8.514,11.471,8.6C712.162,203.254,704.1,208,704.008,208Z" fill="#fff"/>
      <path id="Path_3226" data-name="Path 3226" d="M712.61,290.363l-1.613-.09v-.179l.18-51.082h.448l-1.793.089-.089-2.061-.538-.089.179-.986,3.226-2.151-.179-8.066h5.2l56.9.179c.179,0,20.611.269,23.837-2.778.448-.358,1.523-1.254,1.434-2.061-.09-.627-.807-1.255-2.241-1.613-5.735-1.882-67.031-1.7-67.748-1.7h-.179l-.269,1.076-5.377.089.18,1.972-2.868.179.179,2.151-10.574.358a2.968,2.968,0,0,0-.9.986.331.331,0,0,0,.089.269l1.524.9-.269.448-1.524-.9a1.071,1.071,0,0,1-.358-.717,2.482,2.482,0,0,1,1.165-1.434h.179l10.126-.269-.179-2.061,2.868-.179-.179-1.972,5.556-.089.269-1.076.537-.089c2.689,0,62.013-.179,67.838,1.7,1.613.448,2.42,1.165,2.509,1.971.09,1.344-1.613,2.509-1.613,2.509-3.316,3.137-23.21,2.868-24.106,2.868l-61.654-.179.179,7.8-3.226,2.24-.09.269.448.09.09,1.971,2.509-.089v.269Zm-1.075-.627h.627l.18-50.9h-.628v.985Z" fill="#fff"/>
      <path id="Path_3227" data-name="Path 3227" d="M731.7,238.743h-18.55l-3.4.179-.09-2.509H731.7Zm-21.417-.359,2.957-.179,18.012.09.09-1.434H710.28Z" fill="#fff"/>
      <path id="Path_3228" data-name="Path 3228" d="M731.25,238.922l.179-2.42,5.556-3.763-.179,1.523-3.226,2.061.09.269,1.075-.179-.179.806Zm.538-2.151-.09,1.345,2.151-1.165-.627.089-.18-1.075,3.406-2.061v-.269Z" fill="#fff"/>
      <path id="Path_3229" data-name="Path 3229" d="M731.609,236.861l-22.4-.09.179-.985,2.868-1.882,11.739-5.557,3.854-.089,9.5,4.48Zm-21.866-.538,21.776.09,4.839-3.495-8.782-4.123-3.585.09-11.56,5.467-2.688,1.792Z" fill="#fff"/>
      <path id="Path_3230" data-name="Path 3230" d="M755.8,236.861l-22.045.09-.986-.717,3.854-2.33,9.947-5.109,3.495-.269.448.09,9.32,4.391.179.986Zm-21.866-.448h21.777l3.853-2.689-.09-.448-9.051-4.212-.448-.089-3.315.268-9.948,5.2-2.957,1.882Z" fill="#fff"/>
      <path id="Path_3231" data-name="Path 3231" d="M755.176,239.012l-21.238-.09V237.04l.089-.627H755l2.151-.807-.09.9.9.537Zm-20.7-.538,20.611.09,2.062-1.434-.449-.269.09-.448-1.613.538H734.565v.179Z" fill="#fff"/>
      <path id="Path_3232" data-name="Path 3232" d="M778.834,238.922H758.043l-.717-.089v-1.7l-.717-.448.269-1.255,12.994-6.721,3.943-.18,8.693,4.481.089.986-.537.538-.09,1.344Zm-20.791-.538h20.611l2.958-2.688.089-1.344.538-.538v-.448l-8.424-4.3-3.764.179-12.635,6.632-.179.717.627.359v1.523Z" fill="#fff"/>
      <path id="Path_3233" data-name="Path 3233" d="M779.1,237.13h-.09l-21.417.089v-.448l21.417-.179,2.51-1.972.268.449Z" fill="#fff"/>
      <path id="Path_3234" data-name="Path 3234" d="M782.419,233.9v-.717l-7.707-3.944-.9-.448-1.613,1.524,5.915,6.542-.09,1.882" fill="#fff"/>
      <path id="Path_3235" data-name="Path 3235" d="M777.849,291.976h-.09l-21.507.179v-1.523l.538-.09,1.075-52.157h20.79l3.047-2.868-.9,50.813.448.359-.089,1.075Zm-21.149-.358,20.97-.179,3.047-3.764.089-.717-.448-.359v-.089l.9-50.007-2.419,2.33H758.313L757.238,290.9l-.538.089Z" fill="#fff"/>
      <path id="Path_3236" data-name="Path 3236" d="M777.579,292.245l-.268-1.434,1.165-52.158,3.136-3.047-1.075,50.545.627.717-.09,1.075Zm.18-1.613.089.538,2.778-3.5.09-.717-.627-.717,1.075-49.738-2.24,2.15Z" fill="#fff"/>
      <path id="Path_3237" data-name="Path 3237" d="M754.549,292.424l-.179-1.254-.358-.449v-.089l.9-52.068,2.151-1.524.806.269v1.075h.448l-.986,50.276Zm-.089-1.882.358.359.09.358,1.971-2.688.986-49.738h-.448v-1.166l-.269-.089-1.7,1.255Z" fill="#fff"/>
      <path id="Path_3238" data-name="Path 3238" d="M755,292.066l-.717.089H733.043l-.18-1.433.717-.18.627-52.247,21.06.179-.9,51.441.358,1.344Zm-.717-.359h.179v-.179l-.448-1.434.9-51.082-20.163-.179-.627,52.157-.717.18.09.537Z" fill="#fff"/>
      <path id="Path_3239" data-name="Path 3239" d="M731.249,292.155H709.473l.537-1.344.717-.717.448-51.62h19.984l3.316-1.7-.448,52.337Zm-21.059-.627h20.88l2.419-2.778.448-51.441-2.778,1.434H711.623l-.448,51.351-.806.807Z" fill="#fff"/>
      <path id="Path_3240" data-name="Path 3240" d="M730.891,292.514v-1.255l.269-53.143,3.315-1.524-.089,1.793.268.985-.627,49.559Zm.717-54.04-.269,52.785,2.061-2.419.627-49.38-.269-.986.09-1.075Z" fill="#fff"/>
      <path id="Path_3241" data-name="Path 3241" d="M799.893,275.666l-4.032-1.165-.09-4.661,2.868-1.075-.179-1.882-2.42,1.344-.358-1.434,1.433-.268.18-10.307h.717V255.5l-.448-.09-.09-8.6.538-.18-.9-1.075h1.076a6.389,6.389,0,0,1,.089-1.255l-1.7-.089.089-8.962,2.958-.538v-1.7l-2.689.717L796.757,227h4.3v9.589l.09,4.3h-.269a1.825,1.825,0,0,0-1.344.537,5.594,5.594,0,0,0-.9,2.6l.179.09V246h-.269v.717l.09.179-.09.09v.538l-.179,7.707h.179v1.613h-.269v.269c-.089,2.688,1.613,3.047,1.7,3.047h.179v.179Zm-3.584-1.524,3.226.9.269-14.7c-.538-.179-1.972-.807-1.882-3.406v-.268h-.269l-.179,10.216-1.344.269.089.448,2.509-1.344.269,2.867L796.13,270.2Zm1.523-19.178.269-7.528v-.448l-.269.089Zm.09-9.052.09.09A.088.088,0,0,0,797.922,245.912Zm-1.075-2.33h1.344a5.637,5.637,0,0,1,.986-2.6,1.87,1.87,0,0,1,1.433-.717l-.089-3.764v-9.23h-3.495l.179,5.735,2.688-.717v2.689l-2.957.538Z" fill="#fff"/>
      <path id="Path_3242" data-name="Path 3242" d="M801.506,295.382h-.268l-44.718.179-46.957.538-.717-.09v-6.094l1.7-.359-.179,1.434-.269.628,20.253.089,3.137-2.778.537,2.151-.717.179.09.538,21.149-.09,2.688-3.674v3.047l-.537.09v.627l19.267-.09,1.433-.089,1.076-.807.9-1.255h22.314Zm-92.123.089h.269l46.958-.448,44.538-.179.09-4.929H779.551l-.806,1.165-1.255.9-1.613.09-19.626.089v-1.523l.538-.09v-1.165l-1.971,2.778h-.09l-21.6.09-.179-1.434.717-.179-.269-.9-2.778,2.419-21.149-.089.538-1.255.089-.717-.717.179Z" fill="#fff"/>
      <path id="Path_3243" data-name="Path 3243" d="M714.85,181.835a11.219,11.219,0,0,1-4.212-.716l-.179-.09.179-3.674.269.089c2.33.807,6.632-.179,6.632-.179l.268-.09v2.42a2.058,2.058,0,0,1-1.075,1.613A2.773,2.773,0,0,1,714.85,181.835ZM711,180.67c.806.269,4.122,1.165,5.645.18a1.745,1.745,0,0,0,.807-1.255V177.8c-.986.179-4.212.806-6.363.179Z" fill="#fff"/>
      <path id="Path_3244" data-name="Path 3244" d="M784.48,269.213l-1.7-1.882v-.089l.269-20.254,13.084-2.509,1.613,2.33v.089l-.359,19.985Zm-1.255-2.151,1.434,1.613,12.277-2.15.359-19.537-1.434-2.061-12.456,2.419Z" fill="#fff"/>
      <path id="Path_3245" data-name="Path 3245" d="M784.659,268.944l-1.882-1.613v-.089l.269-20.613,2.061,1.882Zm-1.434-1.882.986.9.448-19.179-1.165-1.075Z" fill="#fff"/>
      <path id="Path_3246" data-name="Path 3246" d="M784.838,248.959l-2.061-1.882,13.353-2.6,1.344,2.6Zm-1.075-1.613,1.255,1.076,11.739-1.7-.9-1.7Z" fill="#fff"/>
      <path id="Path_3247" data-name="Path 3247" d="M723.9,221h-3.494v-.269s.179-3.854.179-4.033c.269-4.839-1.344-5.467-1.524-5.467l-7.617-.358-.09-2.778,7.08-.18a5.583,5.583,0,0,1,4.391,2.062c1.792,2.33,1.255,5.645,1.255,5.825Zm-3.046-.538h2.6l.18-4.75c0-.09.537-3.316-1.165-5.467a5.119,5.119,0,0,0-4.033-1.882l-6.542.18v1.792l7.259.358c.09,0,2.151.449,1.882,5.915C721.034,216.787,720.855,219.565,720.855,220.461Z" fill="#fff"/>
      <path id="Path_3248" data-name="Path 3248" d="M709.833,221.536l.448-11.292c-.18-.358-1.165-2.688-3.585-2.509l-1.613.09-.358-1.076h.358a6.43,6.43,0,0,0,4.929-4.122l.089-.09,1.882-.448-.089,2.241.089,7.348-.269,9.5Zm-2.958-14.249c2.778-.179,3.943,2.778,3.943,2.778l-.448,10.754.807-.179.269-9.051-.09-7.349.09-1.7-1.076.269a7.213,7.213,0,0,1-5.018,4.3l.09.179,1.254-.09C706.786,207.287,706.786,207.287,706.875,207.287Z" fill="#fff"/>
      <path id="Path_3249" data-name="Path 3249" d="M720.407,208.631l-1.523-.269v-7.707a7.775,7.775,0,0,1-6.542,3.585V203.7s2.957-.089,6.631-5.018l.09-.09,1.523-.179Zm-.986-.717.628.09.268-9.051-.806.089Zm-.448-8.245a15.582,15.582,0,0,1-4.032,3.675A7.462,7.462,0,0,0,718.973,199.669Z" fill="#fff"/>
      <path id="Path_3250" data-name="Path 3250" d="M735.013,221.984l-8.783-.448,3.764-1.7-.089-1.434,5.018-.538.179,1.613,3.226-.179Zm-6.811-.806,6.631.358,2.061-1.7-2.24.179-.179-1.524-4.122.448.089,1.345Z" fill="#fff"/>
      <path id="Path_3251" data-name="Path 3251" d="M755.446,221.9l-8.065-.09.179-.986,2.6-.9.09-1.7,4.749-.537.09,1.434,3.136.448Zm-7.527-.538,7.438.09,1.792-1.524-2.509-.358-.09-1.345-3.943.448-.09,1.614-2.6.9Z" fill="#fff"/>
      <path id="Path_3252" data-name="Path 3252" d="M774.981,221.984l-8.155-.627,3.854-1.7.089-1.344,5.019-.538.089,1.793,2.778.358ZM768.708,221l6.183.448,2.33-1.255-1.792-.269-.09-1.7-4.211.449-.09,1.165Z" fill="#fff"/>
      <path id="Path_3253" data-name="Path 3253" d="M752.4,203.7l.089,2.689-.538.537v.628l-2.33,1.523-.089,1.434,1.344.09-1.344,1.523v.807l1.165.538-1.344.985-.09,1.793h1.255l-1.793,1.165-.089,1.613s5.018.448,7.8-.717l-.089-1.434-1.345-.9,1.165-.448.09-1.613-1.165-.9,1.255-.359.089-1.434-1.075-.9,1.075-.448-.089-1.434-2.241-.986-.089-.806-.448-.538v-2.868h-1.255Z" fill="#fff"/>
      <path id="Path_3254" data-name="Path 3254" d="M732.414,203.075l.09,2.688-.538.538v.628l-2.419,1.523-.09,1.434,1.434.09-1.434,1.523v.807l1.255.537-1.345.986-.089,1.882h1.344l-1.882,1.165-.09,1.613s5.2.448,8.066-.717l-.09-1.434-1.434-.9,1.165-.448.09-1.613-1.165-.9,1.344-.359.09-1.523-1.076-.9,1.076-.448-.09-1.434-2.33-.986-.09-.807-.448-.537v-2.958h-1.344Z" fill="#fff"/>
      <path id="Path_3255" data-name="Path 3255" d="M772.831,203.882l.089,2.6-.537.538v.538l-2.241,1.523-.089,1.434,1.344.09-1.344,1.434v.806l1.165.538-1.255.9-.09,1.793h1.255l-1.792,1.165-.09,1.613s4.929.448,7.528-.717l-.09-1.434-1.344-.9,1.075-.448.09-1.613-1.076-.9,1.255-.358.09-1.434-1.076-.807.986-.448-.09-1.344-2.15-.9-.09-.717L774,206.3v-2.868h-1.255Z" fill="#fff"/>
      <path id="Path_3256" data-name="Path 3256" d="M695.852,201.462l2.6-4.123-3.137.18,2.958-5.288,2.867-.09-3.047,4.392,3.316-.179Z" fill="#fff"/>
      <path id="Path_3257" data-name="Path 3257" d="M725.245,227.182l-1.882,1.524,6.094,7.259,5.735-4.123Z" fill="#fff"/>
      <g id="Group_4797" data-name="Group 4797" opacity="0.4">
        <path id="Path_3258" data-name="Path 3258" d="M893.9,88.095a11.885,11.885,0,0,0,16.31,1.613,3.406,3.406,0,0,1,1.165-.807,6.029,6.029,0,0,1,1.792.09c1.882,0,3.137-2.24,2.509-4.033a4.151,4.151,0,0,1-2.509,2.689,4.292,4.292,0,0,1-3.495-.179,4.524,4.524,0,0,1-2.6,2.689,9.182,9.182,0,0,1-3.853.627,13.562,13.562,0,0,1-2.688-.179,15.046,15.046,0,0,1-4.212-1.972c-1.076-.627-2.241-1.524-2.42-2.778A18.8,18.8,0,0,0,893.9,88.095Z" fill="#2972b9"/>
        <path id="Path_3259" data-name="Path 3259" d="M893.9,88.095a7.575,7.575,0,0,1-9.679-.09c.359.359-3.584,1.165-4.122,1.076-1.434-.269-3.316-1.076-3.495-2.689-.358-2.688,2.689-4.212,5.2-4.033a4.586,4.586,0,0,0-3.137,1.882,2.606,2.606,0,0,0,.538,3.405,3.759,3.759,0,0,0,2.419.358,3.3,3.3,0,0,0,2.51-1.434,6.805,6.805,0,0,0,4.66,2.061A16.834,16.834,0,0,0,893.9,88.095Z" fill="#2972b9"/>
        <path id="Path_3260" data-name="Path 3260" d="M902.86,92.665a5.926,5.926,0,0,1-1.255-.09,11.374,11.374,0,0,1-7.8-3.943,8.07,8.07,0,0,1-9.589-.179,17.22,17.22,0,0,1-4.122.9c-1.792-.269-3.584-1.344-3.853-3.137a3.687,3.687,0,0,1,1.882-3.674,5.553,5.553,0,0,1,5.376-.448,7.72,7.72,0,0,1,4.929-3.674,8.152,8.152,0,0,1,6.184.627,10.21,10.21,0,0,1,9.319-3.405A10.367,10.367,0,0,1,911.553,82a4.557,4.557,0,0,1,4.66,2.6,3.8,3.8,0,0,1-.449,3.226,2.842,2.842,0,0,1-2.419,1.344,1.974,1.974,0,0,1-.717-.09,1.832,1.832,0,0,0-.986,0,2.051,2.051,0,0,0-.9.627l-.09.09A11.513,11.513,0,0,1,902.86,92.665Zm-8.961-5.2.268.358a11.291,11.291,0,0,0,7.528,3.943,11.172,11.172,0,0,0,8.155-2.33l.09-.09a4.311,4.311,0,0,1,1.254-.806,3.39,3.39,0,0,1,1.344,0c.18,0,.448.09.628.09a2.15,2.15,0,0,0,1.7-.986,2.645,2.645,0,0,0,.359-2.42,3.851,3.851,0,0,0-4.033-2.061l-.358.09-.09-.359a9,9,0,0,0-6.99-6.094,9.232,9.232,0,0,0-8.692,3.405l-.269.358-.359-.269a7.252,7.252,0,0,0-5.825-.807,6.826,6.826,0,0,0-4.57,3.674l-.179.448-.448-.269a4.737,4.737,0,0,0-4.839.269,2.652,2.652,0,0,0-1.434,2.778c.179,1.344,1.7,2.151,3.136,2.33a12.982,12.982,0,0,0,3.675-.9.392.392,0,0,0-.09.269h.358l.359-.359a7.042,7.042,0,0,0,9.051.09Z" fill="#fff"/>
      </g>
      <g id="Group_4798" data-name="Group 4798" opacity="0.4">
        <path id="Path_3261" data-name="Path 3261" d="M1636.08,30.112c1.43,2.061,4.21,2.509,6.72,2.778,7.62.717,15.33,1.165,22.85-.179,2.6-.448,5.92-.627,7.89-2.6,2.15-2.24,1.07-4.839-1.26-6.452.45,2.061-1.07,4.212-3.04,5.108a13.627,13.627,0,0,1-6.28.717,6.015,6.015,0,0,0,2.87-3.764,12.326,12.326,0,0,1-14.52,1.792,6.347,6.347,0,0,1-3.49,2.778A14.129,14.129,0,0,1,1636.08,30.112Z" fill="#2972b9"/>
        <path id="Path_3262" data-name="Path 3262" d="M1602.92,29.395a4.361,4.361,0,0,0,1.35,1.524c3.85,3.047,8.96,3.585,13.89,3.943a35.044,35.044,0,0,0,9.68-.179,14.308,14.308,0,0,0,8.33-4.57,10.335,10.335,0,0,1-5.2-4.929,4.317,4.317,0,0,1-2.33,4.57,9.946,9.946,0,0,1-5.37.986c-3.68-.09-7.62-1.075-10.13-3.853a8.945,8.945,0,0,0,5.47,5.019,17.874,17.874,0,0,0,7.52.806,7.053,7.053,0,0,1-3.04.9A34.348,34.348,0,0,1,1602.92,29.395Z" fill="#2972b9"/>
        <path id="Path_3263" data-name="Path 3263" d="M1623,35.489c-1.62,0-3.23-.09-4.93-.179-5.02-.359-10.22-.986-14.07-4.033a4.99,4.99,0,0,1-1.43-1.613,3.307,3.307,0,0,1-.09-2.778,4.952,4.952,0,0,1,2.68-2.868,10.39,10.39,0,0,1,5.92-.448c2.87-7.976,11.2-12.636,18.91-10.485a13.866,13.866,0,0,1,11.47-8.066,13.606,13.606,0,0,1,12.36,6.363,8.282,8.282,0,0,1,9.77,1.613c2.87,2.868,3.32,6.9,3.32,9.41a6.31,6.31,0,0,1,5.64.807,5.679,5.679,0,0,1,2.6,3.854,4.449,4.449,0,0,1-1.25,3.316c-1.71,1.792-4.39,2.151-6.72,2.509-.45.09-.99.179-1.44.269-7.88,1.434-15.95.9-23.03.179-2.6-.269-5.2-.717-6.72-2.509a14.092,14.092,0,0,1-8.24,4.3A26.962,26.962,0,0,1,1623,35.489ZM1608.48,24.2a8.74,8.74,0,0,0-3.05.538,4.238,4.238,0,0,0-2.15,2.33,2.389,2.389,0,0,0,.09,2.061,5.736,5.736,0,0,0,1.17,1.344c3.67,2.957,8.51,3.5,13.62,3.854a37.852,37.852,0,0,0,9.59-.179,13.677,13.677,0,0,0,8.06-4.391l.36-.448.36.538c1.25,1.882,3.85,2.33,6.45,2.6,6.99.627,15.06,1.255,22.76-.179.45-.09.9-.179,1.44-.269,2.24-.359,4.66-.717,6.18-2.241a3.014,3.014,0,0,0,.99-2.6,4.544,4.544,0,0,0-2.24-3.226,5.5,5.5,0,0,0-5.38-.448l-.63.269v-.717c.09-2.24-.18-6.452-3.05-9.41-2.42-2.509-6.54-3.047-9.05-1.255l-.44.269-.27-.448a12.645,12.645,0,0,0-22.68,1.434l-.18.358-.35-.09c-7.44-2.24-15.6,2.241-18.28,10.127l-.09.358h-.36C1610.36,24.376,1609.47,24.2,1608.48,24.2Z" fill="#fff"/>
      </g>
      <g id="Group_4799" data-name="Group 4799" opacity="0.4">
        <path id="Path_3264" data-name="Path 3264" d="M1706.97,108.08c-9.23-5.109-10.04-19.716-.36-24.645.71-.358,1.7-.9,2.6-1.255-4.84,2.33-7.35,7.976-7.44,13.353,0,2.778.45,5.736,2.24,7.886a9.8,9.8,0,0,0,6.72,3.047,21.17,21.17,0,0,0,7.44-1.165C1715.3,107.99,1710.37,110.051,1706.97,108.08Z" fill="#2972b9"/>
        <path id="Path_3265" data-name="Path 3265" d="M1749.08,112.65a6.54,6.54,0,0,0-8.06-9.679c1.88-.358,3.76,1.434,4.12,3.316a7.673,7.673,0,0,1-1.52,5.467,6.174,6.174,0,0,1-1.71,1.7,6.074,6.074,0,0,1-3.58.537c-2.78-.179-6-.9-7.26-3.405-.27,1.882,1.08,3.764,2.78,4.75a11.053,11.053,0,0,0,5.65,1.165,18.839,18.839,0,0,0,5.46-.538A8.626,8.626,0,0,0,1749.08,112.65Z" fill="#2972b9"/>
        <path id="Path_3266" data-name="Path 3266" d="M1777.94,118.475a2.56,2.56,0,0,1,.09,3.227,3.345,3.345,0,0,1-2.06.9,56.113,56.113,0,0,1-8.69.627c-13.54.09-27.07.09-40.6.179a10.227,10.227,0,0,1-4.03-.537,3.273,3.273,0,0,1-2.06-3.227c2.15,1.524,4.75,1.793,7.35,1.882a37.6,37.6,0,0,0,9.49-.627,14.88,14.88,0,0,0,8.07-4.75,5.83,5.83,0,0,1-2.51,5.377c9.14-1.165,18.46-.089,27.69-.269C1773.28,121.253,1776.95,120.985,1777.94,118.475Z" fill="#2972b9"/>
        <path id="Path_3267" data-name="Path 3267" d="M1720.59,119.73a13.09,13.09,0,0,1-6.81,3.047,8.407,8.407,0,0,1-6.9-2.33,60.051,60.051,0,0,1-24.29,1.434,9.617,9.617,0,0,1-3.85-1.165,3.4,3.4,0,0,1-1.71-3.406c1.08,2.062,3.95,2.51,6.28,2.778a27,27,0,0,0,8.06-.537,5.638,5.638,0,0,1-3.22-1.882,35.186,35.186,0,0,0,21.86-1.793,3.388,3.388,0,0,0,1.7,3.406,5.955,5.955,0,0,0,3.95.448,10.123,10.123,0,0,0,7.97-9.5C1724.35,113.367,1723.28,117.669,1720.59,119.73Z" fill="#2972b9"/>
        <path id="Path_3268" data-name="Path 3268" d="M1726.32,123.942a9,9,0,0,1-3.76-.627,4.1,4.1,0,0,1-2.33-2.689,12.515,12.515,0,0,1-6.36,2.6,8.885,8.885,0,0,1-7.08-2.33,60.026,60.026,0,0,1-24.29,1.344,9.609,9.609,0,0,1-4.03-1.254,3.87,3.87,0,0,1-1.88-3.854,4.046,4.046,0,0,1,3.13-2.957,9.726,9.726,0,0,1,3.59.089,7.436,7.436,0,0,1,3.49-6.542,14.682,14.682,0,0,1,7.8-1.972,35.588,35.588,0,0,1,9.77,1.076,15.388,15.388,0,0,1-5.2-11.919,13.252,13.252,0,0,1,7.17-11.919l.27-.09a18.656,18.656,0,0,1,4.21-1.7,11.988,11.988,0,0,1,4.75.9,11.741,11.741,0,0,1,5.64-7.349c7.53-4.391,18.11-2.151,23.12,5.019,4.66,6.632,3.77,16.4-1.79,22.225a7.012,7.012,0,0,1,7.53,9.679,8.6,8.6,0,0,1,9.59,3.047,28.045,28.045,0,0,1,15.59,1.345,7.109,7.109,0,0,1,3.14,2.061,3,3,0,0,1,0,3.853,4.393,4.393,0,0,1-2.24,1.076,47.857,47.857,0,0,1-8.79.627l-40.59.179A.979.979,0,0,1,1726.32,123.942Zm-5.11-5.288-.18,1.076a2.8,2.8,0,0,0,1.8,2.688,9.341,9.341,0,0,0,3.85.538l40.59-.179a39.841,39.841,0,0,0,8.61-.627,3.718,3.718,0,0,0,1.79-.807,2.282,2.282,0,0,0-.09-2.689,5.508,5.508,0,0,0-2.69-1.792,27.147,27.147,0,0,0-15.32-1.255l-.27.09-.18-.269a7.5,7.5,0,0,0-9.77-2.419l-1.7.985,1.07-1.613a6.123,6.123,0,0,0-7.52-9.051l-2.96,1.344,2.51-2.061a16.551,16.551,0,0,0-19-26.975c-3.22,1.882-5.2,4.75-5.38,7.528h-.89c-.27-.538-3.86-1.076-4.48-.986a14.691,14.691,0,0,0-3.95,1.613l-.26.09a12.446,12.446,0,0,0-6.73,11.2,14.416,14.416,0,0,0,6.99,12.726l-.35.806a32.853,32.853,0,0,0-12.1-1.792,13.809,13.809,0,0,0-7.35,1.882c-2.24,1.434-3.5,4.033-3.05,6.184l.09.627-.62-.09a11.4,11.4,0,0,0-3.86-.269,3.213,3.213,0,0,0-2.51,2.241,3.033,3.033,0,0,0,1.53,2.957,10.355,10.355,0,0,0,3.67,1.165,59.177,59.177,0,0,0,24.11-1.434l.27-.089.17.179a8,8,0,0,0,6.55,2.24,13.6,13.6,0,0,0,6.63-2.957Z" fill="#fff"/>
      </g>
      <g id="Group_4800" data-name="Group 4800" opacity="0.8">
        <path id="Path_3269" data-name="Path 3269" d="M1669.6,378.458c-2.96,0-13-7.618-24.47-18.641-15.59-14.966-54.93-56.37-82.62-118.027-29.31-65.242-36.03-131.112-19.81-195.637l.63.179c-16.13,64.435-9.5,130.125,19.8,195.278,27.7,61.657,66.95,102.971,82.54,117.848,13.98,13.353,22.67,18.909,24.2,18.461.08,0,.08-.09.08-.09l.63.18a.951.951,0,0,1-.54.627C1669.87,378.368,1669.78,378.458,1669.6,378.458Z" fill="#fff"/>
      </g>
      <g id="Group_4801" data-name="Group 4801" opacity="0.8">
        <path id="Path_3270" data-name="Path 3270" d="M1708.58,381.594c-43.38-23.121-78.68-52.964-105.03-88.722a283.145,283.145,0,0,1-45.7-96.429c-15.77-60.223-8.16-108.617-8.07-109.155l.63.09c-.09.448-7.62,48.842,8.06,108.886a280.028,280.028,0,0,0,45.62,96.16c26.25,35.668,61.56,65.511,104.85,88.543Z" fill="#fff"/>
      </g>
      <g id="Group_4802" data-name="Group 4802" opacity="0.8">
        <path id="Path_3271" data-name="Path 3271" d="M1750.79,384.283A311.129,311.129,0,0,1,1648,314.291c-23.48-24.018-43.64-52.337-60.04-83.972-27.78-53.95-34.95-99.656-34.95-100.1l.63-.089c.08.448,7.16,46.153,34.94,99.924a348.807,348.807,0,0,0,59.87,83.793,310.894,310.894,0,0,0,102.6,69.813Z" fill="#fff"/>
      </g>
      <g id="Group_4803" data-name="Group 4803" opacity="0.8">
        <path id="Path_3272" data-name="Path 3272" d="M1311.23,145.092c-33.69,0-63.98-10.4-84.77-20.074-27.07-12.547-44.54-26.527-44.72-26.707l.36-.448c.18.179,17.56,14.16,44.62,26.617,24.92,11.561,63.36,24.107,104.94,18.64,46.42-6.094,87.29-33.069,121.52-80.208l.54.358c-34.33,47.228-75.28,74.293-121.88,80.387A148.56,148.56,0,0,1,1311.23,145.092Z" fill="#fff"/>
      </g>
      <g id="Group_4804" data-name="Group 4804" opacity="0.8">
        <path id="Path_3273" data-name="Path 3273" d="M1305.85,196.085a275.685,275.685,0,0,1-55.65-6.005,339.616,339.616,0,0,1-62.28-19.088l.27-.538a339.987,339.987,0,0,0,62.19,19.089c32.89,6.721,80.83,11.2,122.33-6.274,34.86-14.7,60.13-42.389,74.91-82.538l.63.179c-14.97,40.239-40.24,68.11-75.28,82.9C1351.38,192.858,1327.99,196.085,1305.85,196.085Z" fill="#fff"/>
      </g>
      <g id="Group_4805" data-name="Group 4805" opacity="0.8">
        <path id="Path_3274" data-name="Path 3274" d="M1254.41,250.035c-34.41,0-59.5-4.75-59.86-4.84l.09-.627c.54.09,51.44,9.769,107.9,1.434,33.15-4.929,61.74-14.966,84.86-29.932,28.95-18.731,49.56-45.168,61.12-78.6l.63.18c-11.65,33.606-32.35,60.133-61.39,78.953-23.21,15.056-51.89,25.093-85.13,30.022A331.148,331.148,0,0,1,1254.41,250.035Z" fill="#fff"/>
      </g>
      <g id="Group_4806" data-name="Group 4806" opacity="0.8">
        <path id="Path_3275" data-name="Path 3275" d="M808.138,211.23c-44.18,0-75.455-7.8-75.814-7.886l.179-.628c.538.09,51.349,12.816,115.244,5.736,37.548-4.122,72.139-14.249,102.787-29.843,38.355-19.537,70.8-48.035,96.336-84.6l.54.358c-25.54,36.654-58.073,65.152-96.518,84.779-30.827,15.683-65.418,25.81-103.056,29.932A367.167,367.167,0,0,1,808.138,211.23Z" fill="#fff"/>
      </g>
      <g id="Group_4807" data-name="Group 4807" opacity="0.8">
        <path id="Path_3276" data-name="Path 3276" d="M864.953,221.178c-5.735,0-11.56-.179-17.385-.448-55.382-2.6-95.081-16.849-95.439-16.938l.179-.627c.359.179,40.058,14.338,95.26,16.937a339.422,339.422,0,0,0,93.288-8.155A285.206,285.206,0,0,0,1041.67,166.78l.36.537a285.072,285.072,0,0,1-101.085,45.257A327.49,327.49,0,0,1,864.953,221.178Z" fill="#fff"/>
      </g>
      <g id="Group_4808" data-name="Group 4808" opacity="0.8">
        <path id="Path_3277" data-name="Path 3277" d="M938.974,251.289c-6,0-11.919-.179-17.744-.448A323.768,323.768,0,0,1,838.7,236.592a245.129,245.129,0,0,1-49.467-21.6c-10.843-6.363-16.489-11.113-16.489-11.2l.448-.448c.18.179,22.4,18.909,65.867,32.71A322.407,322.407,0,0,0,921.41,250.3c36.472,1.7,75.275-1.882,115.33-10.844l.18.627C1003.05,247.526,970.249,251.289,938.974,251.289Z" fill="#fff"/>
      </g>
      <g id="Group_4809" data-name="Group 4809" opacity="0.8">
        <path id="Path_3278" data-name="Path 3278" d="M788.065,388.764c-33.067-35.4-46.33-84.152-51.528-118.834a331.228,331.228,0,0,1-3.495-67.393l.9.09a337.514,337.514,0,0,0,3.495,67.213c5.2,34.5,18.371,83.076,51.349,118.3Z" fill="#fff"/>
      </g>
      <g id="Group_4810" data-name="Group 4810" opacity="0.8">
        <path id="Path_3279" data-name="Path 3279" d="M803.03,388.4c-30.827-31.725-42.835-80.387-47.5-115.518-5.108-38.087-2.868-69.095-2.778-69.454l.9.09a381.517,381.517,0,0,0,2.778,69.275c4.66,35.041,16.668,83.434,47.227,114.98Z" fill="#fff"/>
      </g>
      <g id="Group_4811" data-name="Group 4811" opacity="0.8">
        <path id="Path_3280" data-name="Path 3280" d="M871.674,388.943c-19.984-5.019-37.638-17.924-52.335-38.267-11.739-16.31-21.776-37.371-29.662-62.643a410.345,410.345,0,0,1-16.31-84.42l.9-.09a411.71,411.71,0,0,0,16.22,84.151c7.886,25.183,17.834,46.243,29.483,62.375,14.607,20.253,32.082,32.979,51.887,37.908Z" fill="#fff"/>
      </g>
      <path id="Path_3281" data-name="Path 3281" d="M733.759,425.687a131.227,131.227,0,0,1-37.011-5.736c-33.694-9.858-60.489-29.3-60.758-29.484l.359-.448c.268.179,27.063,19.626,60.668,29.394,19.715,5.736,37.907,7.17,54.127,4.212,20.163-3.764,37.279-14.428,50.722-31.724l.448.358c-13.532,17.386-30.738,28.14-50.991,31.994A104.085,104.085,0,0,1,733.759,425.687Z" fill="#fff"/>
    </g>
  </g>
</svg>
