<svg width="1920" height="362" viewBox="0 0 1920 362" fill="none" xmlns="http://www.w3.org/2000/svg">
<g clip-path="url(#clip0_3285_8745)">
<path d="M243.399 348.9L241.699 348.8L250.099 2H251.799L251.699 23.7L243.399 348.9Z" fill="white"/>
<path d="M188.302 347.3L186.602 347L223.102 198.6L238.702 24.3999L240.402 24.5999L224.802 198.8V198.9L188.302 347.3Z" fill="white"/>
<path d="M314.702 347.7L278.802 199.5L263.602 18.7999L265.202 18.7L280.402 199.2L316.302 347.3L314.702 347.7Z" fill="white"/>
<path d="M293.6 256.6L245.6 256H210V254.3H245.6L293.6 254.9V256.6Z" fill="white"/>
<path d="M245.098 255.9L244.498 254.3L286.998 236.6L243.898 216.8L277.598 200.5L244.798 184.1L275.698 171.7L246.598 139.6L271.298 125.1L248.198 98.2L267.698 81L248.298 67.2L264.598 49.7001L248.898 44L263.398 29.6L250.298 26V24.3L265.898 28.8L251.898 43.4001L267.398 49.3L250.798 67.1L270.398 81.1L249.998 98.6001L273.798 125.7L249.198 140.1L278.098 172.5L248.898 184.4L280.598 200.7L247.798 217L289.098 236.9L245.098 255.9Z" fill="white"/>
<path d="M292.399 255.4L243.699 235L280.999 218.8L243.899 198.2L275.999 186.7L245.699 169.3L273.299 142L246.999 122.2L270.299 96.8001L246.799 78.2001L266.399 56.8001L248.499 53.6001L263.699 35.7001L249.999 29.8001L263.999 19.6001L264.299 20.9001L251.999 29.6001L266.399 34.9001L251.499 52.4001L268.299 56.0001L249.099 78.1001L271.799 96.7001L249.399 122L275.399 141.9L248.399 169L279.499 187.1L247.899 198.6L284.799 219L247.899 234.9L292.999 253.8L292.399 255.4Z" fill="white"/>
<path d="M210.499 256.2L210.199 254.8L243.499 236.3L218.899 218.5L245.699 199.6L224.399 186.7L245.699 169.7L226.899 160L246.799 140.1L229.699 124.9L246.999 107.1L232.399 95.6L247.399 80.4L234.899 70.3L248.799 54.7L237.199 45.6L248.599 35L237.799 25.6L250.099 22L250.599 23.6L241.099 26.4L250.999 35.1L238.799 45.6L251.099 53.8L236.499 70.3L249.799 80.3L234.199 95.4L249.399 106.9L231.799 124.8L249.199 140L229.599 159.6L248.599 169.5L227.199 186.5L248.499 199.5L221.599 218.7L245.899 236.6L210.499 256.2Z" fill="white"/>
<path d="M243.801 255.1L213.801 236.9L244.101 218.2L223.401 202.2L245.501 184.4L225.601 172.3L245.701 156.6L228.501 140.6L247.901 123L230.901 112.2L247.201 93.1999L233.501 83.3999L248.401 67.5999L236.301 57.5999L249.201 44.0999L237.901 35.8999L247.701 22.8999L249.001 23.8999L240.101 35.5999L251.601 43.7999L238.601 57.4999L250.701 67.4999L236.001 82.8999L249.701 92.6999L231.901 111.7L250.701 123L230.501 140.3L248.201 156.5L228.501 172L248.401 184.1L226.101 202L247.001 218.3L216.501 236.8L244.701 253.7L243.801 255.1Z" fill="white"/>
<path d="M255.399 7.1001H253.699L260.499 346.6H262.199L255.399 7.1001Z" fill="white"/>
<path d="M188.499 345.4L187.199 344.5L221.199 290.9L205.799 270.6L238.499 254.3L239.199 255.7L207.699 271L223.099 290L188.499 345.4Z" fill="white"/>
<path d="M260.4 348.4L231.2 291.5L189.7 345.1L188.5 344.1L231.6 288.5L261.9 347.7L260.4 348.4Z" fill="white"/>
<path d="M201.898 288.4V290.1L302.198 290.7V289L201.898 288.4Z" fill="white"/>
<path d="M239.8 349.2L223 288.7L270.6 254.7L272.3 255.4L224.9 289.4L241.4 348.7L239.8 349.2Z" fill="white"/>
<path d="M231.698 290.6L230.898 289.2L258.098 274.3L237.298 256.5L238.298 255.3L259.198 273.2L275.398 254.8L298.098 272.4L276.898 290.5L259.498 275.5L231.698 290.6ZM260.598 274.2L276.998 288.3L296.798 272.8L275.798 256.6L260.598 274.2Z" fill="white"/>
<path d="M230.702 289.6L205.602 270.7L205.902 269.5L232.402 288.8L230.702 289.6Z" fill="white"/>
<path d="M244.598 349.2L243.198 348.5L273.598 290.4L260.798 283.3L244.398 273.4L225.598 256.4L209.998 269.9L209.398 268.7L225.598 254.6L245.398 272L261.698 281.8L275.898 289.8L244.598 349.2Z" fill="white"/>
<path d="M275.298 289.7L273.898 290.7L314.698 348.9L316.098 347.9L275.298 289.7Z" fill="white"/>
<path d="M311.3 332.5L304.2 330.3L307.6 324.8L298.1 324.7L305.2 314.9L290.2 313.7L302.3 304L282.5 302.8L299.5 290.8L287.3 281.4L288.6 280.5L302.3 290.9L286.4 302.6H305.2L293 312.6L307.9 313.8L301 323.2H310L306.7 329.4L311.3 330.8V332.5Z" fill="white"/>
<path d="M196.002 330.8L192.602 323.8L201.302 322.8L195.202 312.9L206.302 314.3L197.702 302.7L212.302 302.2L200.202 292.1L212.902 279.8L214.002 281L202.102 292L214.902 303L200.102 303.4L210.002 316.5L196.902 314L204.402 323.9L194.802 324.6L197.502 329.8L196.002 330.8Z" fill="white"/>
<path d="M262.1 349.1L260.5 348.6L279.8 289.2L314.8 344.5L313.5 345.4L280.3 292L262.1 349.1Z" fill="white"/>
<path d="M233.2 324.7L242.6 312.9L257 303.8L227.5 303.4L257.5 280.3L258.4 281.6L229.8 302.6H262.7L243.7 314.1L235.5 323.7L247.6 323.3L259.9 311.8L269.6 324L256.8 324.6H233.2V324.7ZM259.8 314.3L250.2 323.3L256.9 323.1L266.4 322.7L259.8 314.3Z" fill="white"/>
<path d="M230 313.8L243 302.6L244.1 303.7L233 313.4L269.3 313.2L256.5 302.6L273.8 302.4L259.8 290.9L238.5 302.6L237.7 301.2L260 289L276.5 303.5H261.2L272.7 314.7L230 313.8Z" fill="white"/>
<path d="M183.701 345.8H192.201L192.601 354.2L181.301 354L183.701 345.8Z" fill="white"/>
<path d="M238.101 348.2L246.101 348.6L246.701 356.7H235.801" fill="white"/>
<path d="M257.6 347.1L255.5 354.1L265.3 353.7L264 347.3L257.6 347.1Z" fill="white"/>
<path d="M311.002 346.4L320.202 346.6L321.902 353.1L310.602 353.7L311.002 346.4Z" fill="white"/>
<path d="M268.9 70.6L268.6 69L305.5 59.6L267 56.2L267.1 54.5L310.5 58.3L310.6 60L268.9 70.6Z" fill="white"/>
<path d="M216.902 180.3L188.302 177.4L188.102 175.8L229.602 156.5L229.702 158.1L191.502 176L216.802 178.6L227.602 172.6L228.402 173.9L217.302 180.1L216.902 180.3Z" fill="white"/>
<path d="M277.402 172.3L277.202 170.7L312.502 166.2L276.602 160.5L276.802 158.9L324.202 166.4L277.402 172.3Z" fill="white"/>
<path d="M271.398 68.6L272.298 67L273.198 65.4C273.798 64.4 274.398 63.3 275.198 62.3C275.898 61.3 276.498 60.2 277.298 59.3L279.398 56.3C279.498 56.1 279.798 56.1 279.998 56.2C280.098 56.3 280.198 56.4 280.198 56.5L281.098 67.2L280.398 67L288.198 57.4C288.298 57.2 288.598 57.2 288.798 57.3C288.898 57.4 288.898 57.5 288.898 57.6L289.798 65.5L289.198 65.2L291.498 63.4C291.898 63.1 292.198 62.8 292.598 62.5L293.798 61.7C295.398 60.6 296.998 59.4 298.598 58.4C297.198 59.7 295.698 61 294.298 62.3L293.198 63.2C292.798 63.5 292.498 63.8 292.098 64.1L289.798 65.9C289.598 66 289.398 66 289.198 65.8C289.198 65.7 289.098 65.7 289.098 65.6L288.198 57.7L288.898 57.9L281.098 67.5C280.998 67.7 280.698 67.7 280.498 67.6C280.398 67.5 280.398 67.4 280.398 67.3L279.498 56.6L280.198 56.8L278.098 59.8C277.398 60.8 276.798 61.9 275.998 62.8C275.198 63.7 274.598 64.8 273.698 65.7L272.598 67.1L271.398 68.6Z" fill="white"/>
<path d="M285.701 170.7C285.601 170.7 285.601 170.7 285.501 170.6C285.401 170.5 285.301 170.4 285.301 170.2L285.801 162.2L277.201 168.1L276.801 167.4L286.101 161C286.201 160.9 286.401 160.9 286.501 161C286.601 161.1 286.701 161.2 286.701 161.4L286.201 169.5L297.801 162.7C297.901 162.6 298.001 162.6 298.201 162.7C298.301 162.8 298.401 162.9 298.401 163L299.401 168.6L298.601 168.7L297.701 163.7L285.901 170.6C285.901 170.6 285.801 170.7 285.701 170.7Z" fill="white"/>
<path d="M227.801 169.8L190.801 175.5L190.901 176.3L227.901 170.6L227.801 169.8Z" fill="white"/>
<path d="M205.601 173.8L204.801 173.7L205.801 168.1C205.801 168 205.901 167.9 206.001 167.8C206.101 167.7 206.201 167.7 206.301 167.8L215.601 171.5L216.101 163.9C216.101 163.8 216.201 163.6 216.301 163.6C216.401 163.5 216.601 163.6 216.701 163.6L228.201 172.1L227.701 172.7L216.801 164.7L216.301 172.1C216.301 172.2 216.201 172.1 216.101 172.2C216.001 172.3 215.901 172.3 215.701 172.2L206.301 168.6L205.601 173.8Z" fill="white"/>
<path d="M223.101 176.2L203.301 174.3L203.601 173.7L223.101 175.4V176.2Z" fill="white"/>
<path d="M216.2 171.7L216 172.5L226.7 174.5L226.8 173.7L216.2 171.7Z" fill="white"/>
<path d="M282.599 122.6H282.499C282.299 122.5 282.199 122.4 282.199 122.2L282.399 110.2L273.299 121.6L272.699 121.1L282.499 108.8C282.599 108.7 282.799 108.6 282.899 108.7C283.099 108.8 283.199 108.9 283.199 109.1L282.999 121.2L292.199 110.3C292.299 110.2 292.499 110.1 292.599 110.2C292.699 110.2 292.899 110.4 292.899 110.5L294.699 118.4L300.899 111C300.999 110.9 301.199 110.8 301.299 110.9C301.499 111 301.599 111.1 301.599 111.3L301.499 117.4H300.699L300.799 112.4L294.799 119.5C294.699 119.6 294.499 119.7 294.399 119.6C294.299 119.6 294.099 119.4 294.099 119.3L292.299 111.4L282.899 122.6C282.799 122.5 282.699 122.6 282.599 122.6Z" fill="white"/>
<path d="M274.202 124.7L273.802 123.1L314.302 112.7L272.102 109L272.202 107.3L319.302 111.4L319.502 113.1L274.202 124.7Z" fill="white"/>
<path d="M212.3 132.8L187.2 129.4L187 127.8L232.6 106.6L233.3 108.2L190.2 128.2L212.1 131.2L231.8 121.2L231.7 122.6L212.7 132.8H212.3Z" fill="white"/>
<path d="M231.301 119.7L189.301 128.3L189.501 129.1L231.501 120.5L231.301 119.7Z" fill="white"/>
<path d="M227.9 120.6C227.2 120.1 226.2 119.4 225.5 118.7C224.8 118.2 224.1 117.6 223.3 117C223.1 116.9 222.9 116.7 222.8 116.6C222.6 116.5 222.5 116.3 222.3 116.2L221.3 115.3L219.2 113.5L219.9 113.2L219.4 122.8C219.4 123 219.2 123.2 219 123.2C218.9 123.2 218.9 123.2 218.8 123.2L209.7 118.7L210.3 118.4L209.4 124.5C209.4 124.7 209.2 124.9 208.9 124.8L205.1 123.7C204.5 123.5 203.8 123.4 203.1 123.1L201.2 122.4L201.5 122.2L201 124L200.5 126.4L200.7 123.9L200.9 122C200.9 121.9 201 121.8 201.2 121.8L203.2 122.2C203.8 122.3 204.4 122.5 205.2 122.7L209 123.8L208.5 124.1L209.4 118C209.4 117.8 209.6 117.6 209.9 117.7H210L219.1 122.2L218.5 122.5L219 112.9C219 112.7 219.2 112.5 219.4 112.5C219.5 112.5 219.6 112.5 219.6 112.6L221.7 114.4L222.7 115.3C222.9 115.4 223 115.6 223.2 115.7C223.4 115.8 223.5 116 223.7 116.2C224.3 116.8 225 117.4 225.7 118.2C226.5 119.1 227.3 119.9 227.9 120.6Z" fill="white"/>
<path d="M220.1 122.4L220 123.2L228 124.4L228.1 123.6L220.1 122.4Z" fill="white"/>
<path d="M223.198 126.7L208.898 125.1L209.398 124.5L223.298 125.8L223.198 126.7Z" fill="white"/>
<path d="M218.3 128.4L201 126.5L201.3 125.9L220.5 127.6L218.3 128.4Z" fill="white"/>
<path d="M236.498 69.7L199.398 79.4L199.598 80.2L236.698 70.5L236.498 69.7Z" fill="white"/>
<path d="M216.1 83.2001L194.3 81.0001L194 79.4001L236 55.6001L236.8 57.0001L197 79.6001L216 81.6001L234.2 76.6001L234.6 78.2001L216.2 83.3001H216.1V83.2001Z" fill="white"/>
<path d="M225.698 79.5L206.798 77.7C206.598 77.7 206.398 77.5 206.398 77.3L206.598 73.2C206.598 73.1 206.698 73 206.798 72.9C206.898 72.8 206.998 72.8 207.098 72.8L215.298 74.7V68C215.298 67.9 215.398 67.7 215.498 67.7C215.598 67.6 215.798 67.6 215.898 67.7L222.298 71.8L223.698 63.3C223.698 63.2 223.798 63 223.998 63C224.098 63 224.298 63 224.398 63.1L231.998 70.6L231.398 71.2L224.498 64.3L223.098 72.6C223.098 72.7 222.998 72.8 222.898 72.9C222.798 73 222.598 72.9 222.498 72.9L216.198 68.8V75.2C216.198 75.3 216.098 75.4 216.098 75.5C215.998 75.6 215.898 75.6 215.798 75.6L207.598 73.7L207.498 77L226.398 79L225.698 79.5Z" fill="white"/>
<path d="M233.699 77.1001L215.699 75.4001L215.799 74.6001L233.799 76.3001L233.699 77.1001Z" fill="white"/>
<path d="M234.498 74.4L222.898 73.3L223.398 72.7L234.598 73.6L234.498 74.4Z" fill="white"/>
<path d="M239.502 27L238.602 26.7L249.302 0L264.802 18.9L264.002 19.6L249.602 2L239.502 27Z" fill="white"/>
<path d="M550.802 356.2L549.602 356.1L555.402 113.6H556.602L556.502 128.8L550.802 356.2Z" fill="white"/>
<path d="M512.2 355.1L511 354.9L536.6 251.1L547.5 129.2L548.7 129.3L537.8 251.2V251.3L512.2 355.1Z" fill="white"/>
<path d="M600.602 355.4L575.502 251.7L564.902 125.4L566.002 125.3L576.602 251.6L601.702 355.2L600.602 355.4Z" fill="white"/>
<path d="M585.902 291.7L552.302 291.3H527.402V290.1H552.302L585.902 290.5V291.7Z" fill="white"/>
<path d="M552.001 291.2L551.601 290.1L581.401 277.7L551.301 263.9L574.901 252.5L551.901 241.1L573.501 232.4L553.201 210L570.501 199.9L554.201 181L567.801 169L554.301 159.4L565.701 147.2L554.701 143.1L564.801 133L555.601 130.5V129.3L566.501 132.4L556.701 142.6L567.601 146.7L556.001 159.1L569.701 168.9L555.401 181.1L572.101 200.1L554.901 210.2L575.101 232.9L554.701 241.2L576.901 252.6L553.901 264L582.801 277.9L552.001 291.2Z" fill="white"/>
<path d="M585.102 290.8L551.102 276.5L577.202 265.2L551.302 250.8L573.702 242.8L552.502 230.6L571.802 211.5L553.302 197.6L569.602 179.9L553.202 166.9L566.902 151.9L554.402 149.7L565.002 137.2L555.402 133.1L565.202 125.9L565.402 126.8L556.902 132.9L567.002 136.6L556.602 148.8L568.302 151.3L554.902 166.7L570.802 179.7L555.002 197.5L573.202 211.4L554.302 230.4L576.002 243L553.902 251L579.702 265.3L553.902 276.4L585.502 289.6L585.102 290.8Z" fill="white"/>
<path d="M527.802 291.4L527.602 290.4L550.902 277.4L533.702 264.9L552.502 251.7L537.602 242.6L552.502 230.7L539.302 223.9L553.202 210L541.302 199.4L553.402 186.9L543.202 178.9L553.702 168.3L544.902 161.2L554.602 150.3L546.502 143.9L554.502 136.7L547.002 130.1L555.602 127.6L556.002 128.7L549.302 130.7L556.302 136.8L547.802 144.1L556.402 149.8L546.002 161.2L555.302 168.2L544.402 178.8L555.002 186.8L542.702 199.3L554.902 209.9L541.202 223.6L554.502 230.6L539.502 242.5L554.402 251.6L535.602 265L552.602 277.5L527.802 291.4Z" fill="white"/>
<path d="M551.102 290.6L530.102 277.9L551.302 264.8L536.802 253.6L552.202 241.1L538.302 232.6L552.302 221.6L540.302 210.4L553.802 198.1L541.902 190.6L553.302 177.3L543.702 170.4L554.102 159.3L545.602 152.3L554.702 142.9L546.802 137.2L553.702 128.1L554.602 128.8L548.402 137L556.402 142.7L547.302 152.3L555.802 159.3L545.402 170.3L555.002 177.2L542.502 190.5L555.702 198.4L541.602 210.5L554.002 221.8L540.202 232.7L554.102 241.2L538.502 253.7L553.102 265.1L531.702 278.1L551.402 289.9L551.102 290.6Z" fill="white"/>
<path d="M559.2 117.1H558L562.7 354.5H563.9L559.2 117.1Z" fill="white"/>
<path d="M512.4 353.7L511.5 353L535.2 315.5L524.4 301.3L547.3 289.9L547.8 290.9L525.9 301.6L536.7 314.9L512.4 353.7Z" fill="white"/>
<path d="M562.702 355.8L542.302 316L513.302 353.5L512.402 352.8L542.502 313.9L563.702 355.3L562.702 355.8Z" fill="white"/>
<path d="M521.801 313.9V315.1L592.001 315.5V314.3L521.801 313.9Z" fill="white"/>
<path d="M548.302 356.4L536.602 314.1L569.902 290.4L571.102 290.9L537.902 314.6L549.402 356.1L548.302 356.4Z" fill="white"/>
<path d="M542.6 315.4L542 314.4L561 304L546.4 291.5L547.1 290.6L561.7 303.1L573 290.2L588.9 302.5L574.1 315.2L562 304.8L542.6 315.4ZM562.8 304L574.2 313.8L588 302.9L573.3 291.6L562.8 304Z" fill="white"/>
<path d="M541.902 314.7L524.402 301.5L524.602 300.6L543.102 314.1L541.902 314.7Z" fill="white"/>
<path d="M551.6 356.4L550.6 355.9L571.9 315.3L562.9 310.3L551.5 303.3L538.3 291.4L527.4 300.9L527 300L538.3 290.2L552.1 302.4L563.5 309.3L573.4 314.9L551.6 356.4Z" fill="white"/>
<path d="M573.099 314.7L572.199 315.4L600.699 356.1L601.599 355.4L573.099 314.7Z" fill="white"/>
<path d="M598.299 344.7L593.299 343.2L595.699 339.4L588.999 339.3L593.999 332.4L583.499 331.5L591.999 324.7L578.199 323.8L590.099 315.4L581.599 308.8L582.499 308.1L592.099 315.3L580.999 323.5H593.999L585.499 330.7L595.899 331.6L590.999 338.2H597.299L594.999 342.5L598.199 343.5L598.299 344.7Z" fill="white"/>
<path d="M517.599 343.5L515.199 338.6L521.299 337.9L516.999 330.9L524.699 331.9L518.699 323.8L528.899 323.4L520.399 316.3L529.299 307.7L530.099 308.6L521.799 316.4L530.799 324.1L520.399 324.4L527.399 333.6L518.199 331.9L523.399 338.9L516.699 339.4L518.599 343L517.599 343.5Z" fill="white"/>
<path d="M563.799 356.3L562.699 355.9L576.199 314.3L600.699 353L599.799 353.7L576.599 316.4L563.799 356.3Z" fill="white"/>
<path d="M543.599 339.2L550.199 330.9L560.299 324.5L539.699 324.2L560.699 308.1L561.399 309L541.399 323.7H564.399L551.099 331.7L545.399 338.4L553.899 338.1L562.499 330.1L569.299 338.6L560.299 339H543.599V339.2ZM562.199 332L555.499 338.3L560.199 338.2L566.899 337.9L562.199 332Z" fill="white"/>
<path d="M541.402 331.6L550.502 323.8L551.302 324.6L543.602 331.4L569.002 331.3L560.002 323.9L572.102 323.8L562.302 315.8L547.402 324L546.802 323L562.402 314.5L573.902 324.6H563.202L571.202 332.4L541.402 331.6Z" fill="white"/>
<path d="M509.001 354H514.901L515.201 359.9L507.301 359.8L509.001 354Z" fill="white"/>
<path d="M547.1 355.7L552.7 356L553.1 361.6H545.5" fill="white"/>
<path d="M560.701 354.9L559.301 359.8L566.201 359.5L565.301 355L560.701 354.9Z" fill="white"/>
<path d="M598.101 354.4L604.501 354.5L605.701 359.1L597.801 359.5L598.101 354.4Z" fill="white"/>
<path d="M568.601 161.6L568.401 160.5L594.201 153.9L567.301 151.5L567.401 150.3L597.701 153L597.801 154.2L568.601 161.6Z" fill="white"/>
<path d="M532.299 238.3L512.299 236.3L512.199 235.2L541.199 221.7L541.299 222.8L514.599 235.3L532.299 237.1L539.799 232.9L540.399 233.8L532.699 238.1L532.299 238.3Z" fill="white"/>
<path d="M574.602 232.7L574.502 231.6L599.202 228.5L574.102 224.5L574.202 223.4L607.402 228.6L574.602 232.7Z" fill="white"/>
<path d="M570.402 160.2L571.102 159.1L571.802 158C572.202 157.3 572.702 156.6 573.202 155.8C573.702 155.1 574.102 154.4 574.602 153.7L576.002 151.6C576.102 151.5 576.302 151.5 576.402 151.5C576.502 151.6 576.502 151.6 576.502 151.7L577.202 159.2L576.702 159.1L582.102 152.4C582.202 152.3 582.402 152.3 582.502 152.3C582.602 152.4 582.602 152.4 582.602 152.5L583.302 158L582.902 157.8L584.502 156.6C584.802 156.4 585.002 156.2 585.302 155.9L586.202 155.3C587.302 154.5 588.402 153.7 589.502 153C588.502 153.9 587.502 154.8 586.502 155.8L585.702 156.5C585.402 156.7 585.202 156.9 584.902 157.2L583.302 158.4C583.202 158.5 583.002 158.5 582.902 158.3C582.902 158.2 582.802 158.2 582.802 158.2L582.102 152.7L582.602 152.8L577.202 159.5C577.102 159.6 576.902 159.6 576.802 159.6C576.702 159.5 576.702 159.5 576.702 159.4L576.002 151.9L576.502 152L575.102 154.1C574.602 154.8 574.202 155.5 573.702 156.2C573.202 156.9 572.702 157.6 572.102 158.2L571.302 159.2L570.402 160.2Z" fill="white"/>
<path d="M580.299 231.6C580.199 231.6 580.199 231.6 580.199 231.5C580.099 231.4 580.099 231.4 580.099 231.2L580.499 225.6L574.499 229.7L574.199 229.2L580.699 224.7C580.799 224.6 580.899 224.6 580.999 224.7C581.099 224.8 581.099 224.8 581.099 225L580.699 230.6L588.799 225.8C588.899 225.7 588.899 225.7 589.099 225.8C589.199 225.9 589.199 225.9 589.199 226L589.899 229.9L589.299 230L588.599 226.5L580.299 231.4C580.499 231.5 580.399 231.6 580.299 231.6Z" fill="white"/>
<path d="M539.9 231L514 235L514.1 235.6L540 231.6L539.9 231Z" fill="white"/>
<path d="M524.401 233.7L523.801 233.6L524.501 229.7C524.501 229.6 524.601 229.6 524.601 229.5C524.701 229.4 524.701 229.4 524.801 229.5L531.301 232.1L531.701 226.8C531.701 226.7 531.801 226.6 531.801 226.6C531.901 226.5 532.001 226.6 532.101 226.6L540.101 232.5L539.701 232.9L532.101 227.3L531.701 232.4C531.701 232.5 531.601 232.4 531.601 232.5C531.501 232.6 531.501 232.6 531.301 232.5L524.701 230L524.401 233.7Z" fill="white"/>
<path d="M536.601 235.4L522.801 234.1L523.001 233.7L536.601 234.9V235.4Z" fill="white"/>
<path d="M531.799 232.3L531.699 232.9L539.199 234.3L539.299 233.7L531.799 232.3Z" fill="white"/>
<path d="M578.199 197.9C577.999 197.8 577.899 197.8 577.899 197.6L577.999 189.2L571.599 197.2L571.199 196.8L578.099 188.2C578.199 188.1 578.299 188.1 578.399 188.1C578.499 188.2 578.599 188.2 578.599 188.4L578.499 196.9L584.899 189.3C584.999 189.2 585.099 189.2 585.199 189.2C585.299 189.2 585.399 189.3 585.399 189.4L586.599 194.9L590.899 189.8C590.999 189.7 591.099 189.7 591.199 189.7C591.299 189.8 591.399 189.8 591.399 190L591.299 194.3H590.699L590.799 190.8L586.599 195.8C586.499 195.9 586.399 195.9 586.299 195.9C586.199 195.9 586.099 195.8 586.099 195.7L584.899 190.2L578.299 198C578.299 197.8 578.299 197.9 578.199 197.9Z" fill="white"/>
<path d="M572.301 199.4L572.001 198.3L600.301 191.1L570.801 188.5L570.901 187.3L603.801 190.2L603.901 191.4L572.301 199.4Z" fill="white"/>
<path d="M529.002 205.1L511.502 202.7L511.402 201.6L543.302 186.8L543.802 187.9L513.702 201.9L529.002 204L542.802 197L542.702 198L529.402 205.2H529.002V205.1Z" fill="white"/>
<path d="M542.302 195.9L512.902 201.9L513.002 202.5L542.402 196.5L542.302 195.9Z" fill="white"/>
<path d="M539.902 196.5C539.402 196.1 538.702 195.6 538.202 195.2C537.702 194.8 537.202 194.4 536.702 194C536.602 193.9 536.402 193.8 536.302 193.7C536.202 193.6 536.102 193.5 535.902 193.4L535.202 192.7L533.802 191.5L534.302 191.3L533.902 198C533.902 198.1 533.802 198.3 533.602 198.3C533.502 198.3 533.502 198.3 533.502 198.3L527.102 195.2L527.502 195L526.802 199.3C526.802 199.4 526.702 199.6 526.402 199.5L523.702 198.7C523.302 198.6 522.802 198.5 522.302 198.3L521.002 197.8L521.202 197.7L520.802 198.9L520.402 200.6L520.502 198.9L520.602 197.6C520.602 197.5 520.702 197.5 520.802 197.5L522.202 197.8C522.602 197.9 523.102 198 523.602 198.2L526.302 199L525.902 199.2L526.602 194.9C526.602 194.8 526.702 194.6 527.002 194.7H527.102L533.502 197.8L533.102 198L533.502 191.3C533.502 191.2 533.602 191 533.802 191C533.902 191 533.902 191 533.902 191.1L535.302 192.3L536.002 193C536.102 193.1 536.202 193.2 536.402 193.3C536.502 193.4 536.602 193.5 536.802 193.7C537.202 194.1 537.702 194.6 538.202 195.1C538.902 195.4 539.502 196 539.902 196.5Z" fill="white"/>
<path d="M534.502 197.8L534.402 198.4L540.002 199.3L540.102 198.7L534.502 197.8Z" fill="white"/>
<path d="M536.699 200.8L526.699 199.7L527.099 199.3L536.799 200.2L536.699 200.8Z" fill="white"/>
<path d="M533.202 202L521.102 200.7L521.302 200.3L534.702 201.5L533.202 202Z" fill="white"/>
<path d="M546.002 160.9L520.102 167.7L520.202 168.3L546.102 161.5L546.002 160.9Z" fill="white"/>
<path d="M531.699 170.4L516.399 168.8L516.199 167.7L545.599 151L546.199 152L518.399 167.8L531.699 169.2L544.399 165.7L544.699 166.8L531.799 170.3H531.699V170.4Z" fill="white"/>
<path d="M538.402 167.8L525.202 166.6C525.102 166.6 524.902 166.5 524.902 166.3L525.002 163.4C525.002 163.3 525.102 163.3 525.102 163.2C525.102 163.1 525.202 163.1 525.302 163.1L531.002 164.4V159.7C531.002 159.6 531.102 159.5 531.102 159.5C531.202 159.4 531.302 159.4 531.402 159.5L535.902 162.4L536.902 156.5C536.902 156.4 537.002 156.3 537.102 156.3C537.202 156.3 537.302 156.3 537.402 156.4L542.702 161.6L542.302 162L537.402 157.1L536.402 162.9C536.402 163 536.302 163 536.302 163.1C536.202 163.2 536.102 163.1 536.002 163.1L531.602 160.2V164.7C531.602 164.8 531.502 164.8 531.502 164.9C531.402 165 531.402 165 531.302 165L525.602 163.7L525.502 166L538.702 167.4L538.402 167.8Z" fill="white"/>
<path d="M544.002 166.1L531.402 164.9L531.502 164.3L544.102 165.5L544.002 166.1Z" fill="white"/>
<path d="M544.6 164.2L536.5 163.4L536.9 163L544.7 163.7L544.6 164.2Z" fill="white"/>
<path d="M548.102 131.1L547.402 130.9L554.902 112.2L565.802 125.4L565.202 125.9L555.102 113.5L548.102 131.1Z" fill="white"/>
<path d="M826.298 357.3L825.398 357.2L829.998 165H830.898L830.798 177L826.298 357.3Z" fill="white"/>
<path d="M795.701 356.4L794.801 356.2L815.001 274L823.701 177.4L824.601 177.5L815.901 274.1V274.2L795.701 356.4Z" fill="white"/>
<path d="M865.698 356.7L845.798 274.5L837.398 174.4L838.298 174.3L846.698 274.4L866.598 356.5L865.698 356.7Z" fill="white"/>
<path d="M854.101 306.2L827.501 305.9H807.801V305H827.501L854.101 305.3V306.2Z" fill="white"/>
<path d="M827.198 305.8L826.898 304.9L850.498 295.1L826.598 284.1L845.298 275.1L827.098 266L844.198 259.1L827.998 241.4L841.698 233.4L828.898 218.5L839.698 209L828.998 201.4L837.998 191.7L829.298 188.4L837.298 180.4L829.998 178.4V177.5L838.698 180L830.998 188L839.598 191.3L830.398 201.2L841.198 208.9L829.898 218.6L843.098 233.6L829.398 241.6L845.398 259.6L829.198 266.2L846.798 275.2L828.598 284.2L851.498 295.2L827.198 305.8Z" fill="white"/>
<path d="M853.398 305.5L826.398 294.2L847.098 285.2L826.598 273.8L844.398 267.4L827.598 257.8L842.898 242.7L828.298 231.7L841.198 217.6L828.198 207.3L838.998 195.4L829.098 193.6L837.498 183.7L829.898 180.5L837.598 174.8L837.798 175.5L830.998 180.3L838.998 183.2L830.698 192.9L839.998 194.9L829.398 207.1L841.998 217.4L829.598 231.4L843.998 242.4L828.998 257.4L846.198 267.4L828.698 273.8L849.098 285.1L828.698 293.9L853.698 304.4L853.398 305.5Z" fill="white"/>
<path d="M808.001 305.9L807.801 305.1L826.301 294.8L812.601 284.9L827.501 274.4L815.701 267.2L827.501 257.8L817.101 252.4L828.101 241.4L818.601 233L828.201 223.1L820.101 216.7L828.401 208.3L821.501 202.7L829.201 194L822.801 189L829.201 183.3L823.201 178.1L830.001 176.1L830.301 177L825.001 178.5L830.501 183.3L823.701 189.1L830.501 193.6L822.401 202.7L829.701 208.3L821.001 216.7L829.401 223.1L819.601 233L829.201 241.4L818.401 252.2L829.001 257.7L817.101 267.1L828.901 274.3L814.001 284.9L827.501 294.8L808.001 305.9Z" fill="white"/>
<path d="M826.498 305.3L809.898 295.2L826.698 284.8L815.198 275.9L827.398 266L816.398 259.3L827.498 250.6L817.998 241.7L828.698 231.9L819.298 225.9L828.298 215.3L820.698 209.8L828.998 201L822.298 195.4L829.498 187.9L823.198 183.4L828.698 176.2L829.398 176.8L824.498 183.3L830.898 187.8L823.698 195.4L830.398 201L822.198 209.7L829.798 215.2L819.898 225.8L830.298 232.1L819.098 241.7L828.898 250.7L817.998 259.3L828.998 266L816.698 275.9L828.298 284.9L811.398 295.2L826.998 304.6L826.498 305.3Z" fill="white"/>
<path d="M832.9 167.8H832L835.8 356H836.7L832.9 167.8Z" fill="white"/>
<path d="M795.798 355.3L795.098 354.8L813.898 325.1L805.398 313.9L823.498 304.9L823.898 305.7L806.498 314.2L814.998 324.8L795.798 355.3Z" fill="white"/>
<path d="M835.701 357L819.501 325.4L796.501 355.1L795.801 354.5L819.701 323.7L836.501 356.5L835.701 357Z" fill="white"/>
<path d="M803.199 323.8V324.7L858.799 325.1V324.2L803.199 323.8Z" fill="white"/>
<path d="M824.198 357.5L814.898 324L841.298 305.2L842.198 305.6L815.998 324.4L825.098 357.3L824.198 357.5Z" fill="white"/>
<path d="M819.801 325L819.301 324.2L834.401 315.9L822.901 306L823.501 305.3L835.101 315.2L844.101 305L856.701 314.8L844.901 324.8L835.301 316.5L819.801 325ZM835.801 315.9L844.901 323.7L855.901 315.1L844.301 306.1L835.801 315.9Z" fill="white"/>
<path d="M819.201 324.4L805.301 313.9L805.501 313.2L820.201 323.9L819.201 324.4Z" fill="white"/>
<path d="M826.9 357.5L826.1 357.1L843 324.9L835.9 320.9L826.8 315.4L816.4 306L807.8 313.5L807.5 312.8L816.5 305L827.5 314.6L836.5 320.1L844.4 324.5L826.9 357.5Z" fill="white"/>
<path d="M843.898 324.5L843.098 325L865.698 357.3L866.498 356.8L843.898 324.5Z" fill="white"/>
<path d="M863.898 348.2L859.898 347L861.798 344L856.498 343.9L860.498 338.4L852.198 337.7L858.898 332.3L847.898 331.6L857.298 324.9L850.498 319.7L851.198 319.2L858.798 324.9L849.998 331.4H860.398L853.598 337.1L861.898 337.8L858.098 343H863.098L861.298 346.4L863.798 347.2L863.898 348.2Z" fill="white"/>
<path d="M799.998 347.3L798.098 343.4L802.898 342.8L799.498 337.3L805.598 338.1L800.798 331.7L808.898 331.4L802.198 325.8L809.298 319L809.898 319.7L803.298 325.9L810.398 332L802.198 332.2L807.698 339.5L800.398 338.1L804.498 343.6L799.198 344L800.698 346.9L799.998 347.3Z" fill="white"/>
<path d="M836.599 357.4L835.699 357.1L846.399 324.2L865.799 354.8L865.099 355.3L846.699 325.7L836.599 357.4Z" fill="white"/>
<path d="M820.598 343.9L825.798 337.4L833.798 332.4L817.398 332.2L833.998 319.4L834.498 320.1L818.698 331.7H836.998L826.398 338.1L821.898 343.4L828.598 343.2L835.398 336.8L840.798 343.6L833.698 343.9H820.598ZM835.298 338.1L829.998 343.1L833.698 343L838.998 342.8L835.298 338.1Z" fill="white"/>
<path d="M818.801 337.8L826.001 331.6L826.601 332.2L820.501 337.6L840.601 337.5L833.501 331.6L843.101 331.5L835.401 325.1L823.601 331.6L823.101 330.8L835.401 324L844.501 332H836.001L842.401 338.2L818.801 337.8Z" fill="white"/>
<path d="M793.099 355.6H797.799L797.999 360.2L791.699 360.1L793.099 355.6Z" fill="white"/>
<path d="M823.3 356.9L827.7 357.1L828 361.6H822" fill="white"/>
<path d="M834.1 356.3L833 360.2L838.5 360L837.8 356.4L834.1 356.3Z" fill="white"/>
<path d="M863.698 355.9L868.798 356L869.698 359.6L863.398 359.9L863.698 355.9Z" fill="white"/>
<path d="M840.401 203.1L840.201 202.2L860.601 197L839.301 195.1L839.401 194.2L863.401 196.3L863.501 197.2L840.401 203.1Z" fill="white"/>
<path d="M811.599 263.9L795.799 262.3L795.699 261.4L818.699 250.7L818.799 251.6L797.599 261.5L811.599 262.9L817.599 259.6L818.099 260.3L811.999 263.7L811.599 263.9Z" fill="white"/>
<path d="M845.099 259.4L844.999 258.5L864.599 256L844.699 252.8L844.799 251.9L871.099 256L845.099 259.4Z" fill="white"/>
<path d="M841.699 202L842.199 201.1L842.699 200.2C842.999 199.6 843.399 199.1 843.799 198.5C844.199 197.9 844.499 197.4 844.899 196.8L845.999 195.1C846.099 195 846.199 195 846.299 195C846.399 195.1 846.399 195.1 846.399 195.2L846.899 201.1L846.499 201L850.799 195.7C850.899 195.6 850.999 195.6 851.099 195.6C851.199 195.7 851.199 195.7 851.199 195.8L851.699 200.2L851.399 200L852.699 199C852.899 198.8 853.099 198.7 853.299 198.5L853.999 198C854.899 197.4 855.799 196.7 856.599 196.2C855.799 196.9 854.999 197.6 854.199 198.4L853.599 198.9C853.399 199.1 853.199 199.2 852.999 199.4L851.699 200.4C851.599 200.5 851.499 200.5 851.399 200.3C851.399 200.2 851.299 200.2 851.299 200.2L850.799 195.8L851.199 195.9L846.899 201.2C846.799 201.3 846.699 201.3 846.599 201.3C846.499 201.2 846.499 201.2 846.499 201.1L845.999 195.2L846.399 195.3L845.299 197C844.899 197.6 844.599 198.1 844.199 198.7C843.799 199.2 843.399 199.8 842.899 200.3L842.299 201.1L841.699 202Z" fill="white"/>
<path d="M849.701 258.5C849.601 258.5 849.601 258.5 849.601 258.4C849.501 258.3 849.501 258.3 849.501 258.2L849.801 253.8L845.001 257.1L844.801 256.7L850.001 253.1C850.101 253 850.201 253 850.201 253.1C850.301 253.2 850.301 253.2 850.301 253.3L850.001 257.8L856.401 254C856.501 253.9 856.501 253.9 856.601 254C856.701 254.1 856.701 254.1 856.701 254.2L857.301 257.3L856.801 257.4L856.301 254.6L849.801 258.4C849.801 258.5 849.701 258.5 849.701 258.5Z" fill="white"/>
<path d="M817.598 258.1L797.098 261.3L797.198 261.8L817.698 258.6L817.598 258.1Z" fill="white"/>
<path d="M805.301 260.3L804.801 260.2L805.401 257.1C805.401 257 805.501 257 805.501 256.9C805.601 256.8 805.601 256.8 805.701 256.9L810.901 259L811.201 254.8C811.201 254.7 811.301 254.6 811.301 254.6C811.401 254.5 811.501 254.6 811.501 254.6L817.901 259.3L817.601 259.6L811.601 255.2L811.301 259.3C811.301 259.4 811.201 259.3 811.201 259.4C811.101 259.5 811.101 259.5 811.001 259.4L805.801 257.4L805.301 260.3Z" fill="white"/>
<path d="M815 261.6L804 260.6L804.2 260.3L815 261.2V261.6Z" fill="white"/>
<path d="M811.198 259.1L811.098 259.6L816.998 260.7L817.098 260.2L811.198 259.1Z" fill="white"/>
<path d="M847.9 231.9C847.7 231.8 847.7 231.8 847.7 231.7L847.8 225L842.8 231.3L842.5 231L848 224.2C848.1 224.1 848.2 224.1 848.2 224.1C848.3 224.2 848.4 224.2 848.4 224.3L848.3 231L853.4 225C853.5 224.9 853.6 224.9 853.6 224.9C853.7 224.9 853.8 225 853.8 225.1L854.8 229.5L858.2 225.4C858.3 225.3 858.4 225.3 858.4 225.3C858.5 225.4 858.6 225.4 858.6 225.5L858.5 228.9H858L858.1 226.1L854.8 230.1C854.7 230.2 854.6 230.2 854.6 230.2C854.5 230.2 854.4 230.1 854.4 230L853.4 225.6L848.2 231.8C848.1 231.8 848 231.9 847.9 231.9Z" fill="white"/>
<path d="M843.298 233.1L843.098 232.2L865.498 226.5L842.098 224.4L842.198 223.5L868.298 225.8L868.398 226.7L843.298 233.1Z" fill="white"/>
<path d="M809 237.5L795.1 235.6L795 234.7L820.2 222.9L820.6 223.8L796.8 235L809 236.7L819.9 231.1L819.8 231.9L809.2 237.6H809V237.5Z" fill="white"/>
<path d="M819.499 230.3L796.199 235.1L796.299 235.5L819.599 230.7L819.499 230.3Z" fill="white"/>
<path d="M817.6 230.8C817.2 230.5 816.7 230.1 816.3 229.8C815.9 229.5 815.5 229.2 815.1 228.9C815 228.8 814.9 228.7 814.8 228.7C814.7 228.6 814.6 228.5 814.5 228.5L813.9 228L812.8 227L813.2 226.8L812.9 232.1C812.9 232.2 812.8 232.3 812.7 232.3C812.6 232.3 812.6 232.3 812.6 232.3L807.6 229.8L807.9 229.6L807.4 233C807.4 233.1 807.3 233.2 807.1 233.2L805 232.6C804.7 232.5 804.3 232.4 803.9 232.3L802.9 231.9L803.1 231.8L802.8 232.8L802.5 234.1L802.6 232.7L802.7 231.7C802.7 231.6 802.8 231.6 802.9 231.6L804 231.8C804.3 231.9 804.7 232 805.1 232.1L807.2 232.7L806.9 232.9L807.4 229.5C807.4 229.4 807.5 229.3 807.7 229.3H807.8L812.8 231.8L812.5 232L812.8 226.7C812.8 226.6 812.9 226.5 813 226.5C813.1 226.5 813.1 226.5 813.1 226.6L814.2 227.6L814.8 228.1C814.9 228.2 815 228.3 815.1 228.3C815.2 228.4 815.3 228.5 815.4 228.6C815.7 228.9 816.1 229.3 816.5 229.7C816.8 229.9 817.3 230.4 817.6 230.8Z" fill="white"/>
<path d="M813.299 231.8L813.199 232.3L817.599 233L817.699 232.5L813.299 231.8Z" fill="white"/>
<path d="M815.099 234.2L807.199 233.3L807.499 233L815.199 233.7L815.099 234.2Z" fill="white"/>
<path d="M812.299 235.1L802.699 234.1L802.899 233.8L813.499 234.7L812.299 235.1Z" fill="white"/>
<path d="M822.398 202.6L801.898 208L801.998 208.4L822.498 203L822.398 202.6Z" fill="white"/>
<path d="M811.101 210.1L799.001 208.8L798.801 207.9L822.101 194.7L822.601 195.5L800.601 208L811.201 209.1L821.301 206.3L821.501 207.2L811.301 210H811.101V210.1Z" fill="white"/>
<path d="M816.399 208L805.899 207C805.799 207 805.699 206.9 805.699 206.8L805.799 204.5C805.799 204.4 805.899 204.4 805.899 204.3C805.999 204.2 805.999 204.2 806.099 204.2L810.599 205.2V201.5C810.599 201.4 810.699 201.3 810.699 201.3C810.799 201.2 810.899 201.2 810.899 201.3L814.499 203.6L815.299 198.9C815.299 198.8 815.399 198.7 815.499 198.7C815.599 198.7 815.699 198.7 815.699 198.8L819.899 202.9L819.599 203.2L815.799 199.4L814.999 204C814.999 204.1 814.899 204.1 814.899 204.2C814.899 204.3 814.699 204.2 814.699 204.2L811.199 201.9V205.5C811.199 205.6 811.099 205.6 811.099 205.7C810.999 205.8 810.999 205.8 810.899 205.8L806.399 204.8L806.299 206.6L816.799 207.7L816.399 208Z" fill="white"/>
<path d="M820.898 206.7L810.898 205.8L810.998 205.3L820.998 206.2L820.898 206.7Z" fill="white"/>
<path d="M821.298 205.2L814.898 204.6L815.198 204.3L821.398 204.8L821.298 205.2Z" fill="white"/>
<path d="M824.098 178.9L823.598 178.7L829.598 163.9L838.198 174.4L837.698 174.8L829.698 165L824.098 178.9Z" fill="white"/>
<path d="M1074.4 358.1H1073.6L1077.4 199.7H1078.2V209.6L1074.4 358.1Z" fill="white"/>
<path d="M1049.2 357.3L1048.4 357.2L1065.1 289.4L1072.2 209.8L1073 209.9L1065.9 289.5L1049.2 357.3Z" fill="white"/>
<path d="M1106.9 357.5L1090.5 289.8L1083.6 207.3H1084.3L1091.3 289.8L1107.7 357.5H1106.9Z" fill="white"/>
<path d="M1097.3 315.9L1075.4 315.6H1059.1V314.8H1075.4L1097.3 315.1V315.9Z" fill="white"/>
<path d="M1075.1 315.6L1074.8 314.9L1094.2 306.8L1074.5 297.8L1089.9 290.4L1074.9 282.9L1089 277.2L1075.7 262.5L1087 255.9L1076.5 243.6L1085.4 235.8L1076.6 229.5L1084 221.5L1076.8 218.8L1083.4 212.2L1077.4 210.5V209.7L1084.5 211.7L1078.1 218.4L1085.2 221.1L1077.6 229.2L1086.5 235.6L1077.2 243.6L1088.1 256L1076.8 262.6L1090 277.4L1076.7 282.8L1091.2 290.2L1076.2 297.6L1095.1 306.7L1075.1 315.6Z" fill="white"/>
<path d="M1096.8 315.4L1074.6 306.1L1091.6 298.7L1074.7 289.3L1089.4 284.1L1075.5 276.2L1088.1 263.7L1076 254.6L1086.6 243L1075.9 234.5L1084.8 224.7L1076.6 223.2L1083.6 215L1077.4 212.4L1083.8 207.7L1083.9 208.3L1078.3 212.3L1084.9 214.7L1078.1 222.7L1085.8 224.4L1077.1 234.5L1087.5 243L1077.3 254.5L1089.2 263.6L1076.9 276L1091.1 284.3L1076.7 289.5L1093.5 298.8L1076.7 306.1L1097.3 314.8L1096.8 315.4Z" fill="white"/>
<path d="M1059.4 315.7L1059.3 315L1074.5 306.5L1063.2 298.4L1075.4 289.7L1065.7 283.8L1075.4 276L1066.8 271.6L1075.9 262.5L1068.1 255.5L1076 247.4L1069.3 242.2L1076.2 235.2L1070.5 230.6L1076.8 223.5L1071.5 219.3L1076.7 214.6L1071.8 210.3L1077.4 208.6L1077.6 209.3L1073.2 210.6L1077.7 214.6L1072.1 219.4L1077.7 223.1L1071 230.6L1077.1 235.2L1070 242.1L1077 247.3L1069 255.5L1076.9 262.5L1068 271.4L1076.7 275.9L1066.9 283.7L1076.6 289.7L1064.3 298.4L1075.4 306.6L1059.4 315.7Z" fill="white"/>
<path d="M1074.6 315.2L1060.9 306.9L1074.8 298.3L1065.3 291L1075.4 282.9L1066.3 277.4L1075.5 270.2L1067.7 262.9L1076.5 254.9L1068.7 250L1076.1 241.3L1069.9 236.8L1076.7 229.6L1071.2 225L1077.1 218.9L1071.9 215.2L1076.4 209.2L1077 209.7L1072.9 215L1078.1 218.7L1072.1 224.9L1077.6 229.5L1070.8 236.7L1077 241.2L1068.9 249.9L1077.5 255.1L1068.3 263L1076.4 270.4L1067.4 277.5L1076.5 283L1066.3 291.2L1075.9 298.6L1062 307.1L1074.9 314.8L1074.6 315.2Z" fill="white"/>
<path d="M1079.8 201.9H1079L1082.1 357H1082.9L1079.8 201.9Z" fill="white"/>
<path d="M1049.3 356.4L1048.7 356L1064.2 331.5L1057.2 322.2L1072.1 314.8L1072.4 315.5L1058.1 322.5L1065.1 331.2L1049.3 356.4Z" fill="white"/>
<path d="M1082.1 357.8L1068.8 331.8L1049.8 356.3L1049.2 355.8L1068.9 330.4L1082.8 357.4L1082.1 357.8Z" fill="white"/>
<path d="M1055.4 330.4V331.2L1101.2 331.5V330.7L1055.4 330.4Z" fill="white"/>
<path d="M1072.7 358.2L1065 330.6L1086.8 315.1L1087.6 315.4L1065.9 330.9L1073.4 358L1072.7 358.2Z" fill="white"/>
<path d="M1069 331.4L1068.6 330.7L1081 323.9L1071.5 315.8L1072 315.2L1081.6 323.4L1089 315L1099.4 323L1089.7 331.3L1081.8 324.4L1069 331.4ZM1082.2 324L1089.7 330.4L1098.7 323.3L1089.1 315.9L1082.2 324Z" fill="white"/>
<path d="M1068.6 331L1057.2 322.3L1057.3 321.7L1069.4 330.5L1068.6 331Z" fill="white"/>
<path d="M1074.9 358.2L1074.2 357.9L1088.1 331.4L1082.2 328.1L1074.7 323.6L1066.1 315.8L1059 322L1058.7 321.4L1066.1 315L1075.1 322.9L1082.5 327.4L1089 331L1074.9 358.2Z" fill="white"/>
<path d="M1089 331L1088.4 331.4L1107 358L1107.6 357.6L1089 331Z" fill="white"/>
<path d="M1105.4 350.6L1102.1 349.6L1103.7 347.1H1099.3L1102.6 342.6L1095.7 342L1101.2 337.6L1092.2 337L1100 331.5L1094.4 327.2L1095 326.8L1101.2 331.5L1093.9 336.8H1102.5L1096.9 341.5L1103.7 342.1L1100.5 346.4H1104.6L1103.1 349.2L1105.2 349.9L1105.4 350.6Z" fill="white"/>
<path d="M1052.7 349.8L1051.1 346.6L1055.1 346.1L1052.3 341.6L1057.4 342.3L1053.5 337L1060.2 336.8L1054.7 332.2L1060.5 326.6L1061 327.2L1055.6 332.3L1061.5 337.3L1054.7 337.5L1059.2 343.5L1053.2 342.4L1056.6 346.9L1052.2 347.2L1053.4 349.6L1052.7 349.8Z" fill="white"/>
<path d="M1082.9 358.1L1082.2 357.9L1091 330.8L1107 356.1L1106.4 356.5L1091.3 332.1L1082.9 358.1Z" fill="white"/>
<path d="M1069.7 347L1074 341.6L1080.6 337.4L1067.1 337.2L1080.8 326.7L1081.2 327.3L1068.1 336.9H1083.1L1074.4 342.1L1070.7 346.5L1076.2 346.3L1081.8 341.1L1086.2 346.7L1080.3 347H1069.7ZM1081.9 342.3L1077.5 346.4L1080.6 346.3L1085 346.1L1081.9 342.3Z" fill="white"/>
<path d="M1068.2 342L1074.2 336.9L1074.7 337.4L1069.6 341.8L1086.2 341.7L1080.3 336.9L1088.2 336.8L1081.8 331.6L1072.1 336.9L1071.7 336.2L1081.9 330.6L1089.4 337.2H1082.4L1087.6 342.3L1068.2 342Z" fill="white"/>
<path d="M1047.1 356.6H1051L1051.2 360.4L1046 360.3L1047.1 356.6Z" fill="white"/>
<path d="M1072 357.7L1075.6 357.9L1075.9 361.6H1070.9" fill="white"/>
<path d="M1080.9 357.2L1080 360.4L1084.5 360.2L1083.9 357.3L1080.9 357.2Z" fill="white"/>
<path d="M1105.3 356.9L1109.5 357L1110.3 360L1105.1 360.3L1105.3 356.9Z" fill="white"/>
<path d="M1086 231L1085.9 230.3L1102.7 226L1085.1 224.4V223.6L1104.9 225.3V226.1L1086 231Z" fill="white"/>
<path d="M1062.3 281.1L1049.2 279.8L1049.1 279.1L1068.1 270.3V271L1050.7 279.2L1062.2 280.4L1067.1 277.7L1067.5 278.3L1062.4 281.1H1062.3Z" fill="white"/>
<path d="M1089.9 277.4L1089.8 276.7L1105.9 274.7L1089.5 272.1L1089.6 271.4L1111.3 274.8L1089.9 277.4Z" fill="white"/>
<path d="M1087.2 230.1L1087.6 229.4L1088 228.7C1088.3 228.2 1088.6 227.8 1088.9 227.3C1089.2 226.8 1089.5 226.4 1089.8 225.9L1090.7 224.5C1090.7 224.4 1090.9 224.4 1091 224.5L1091.1 224.6L1091.5 229.5L1091.2 229.4L1094.7 225C1094.7 224.9 1094.9 224.9 1095 225V225.1L1095.4 228.7L1095.1 228.6L1096.1 227.8C1096.3 227.7 1096.4 227.5 1096.6 227.4L1097.2 227C1097.9 226.5 1098.7 226 1099.4 225.5C1098.7 226.1 1098.1 226.7 1097.4 227.3L1096.9 227.7C1096.7 227.8 1096.6 228 1096.4 228.1L1095.4 228.9C1095.3 228.9 1095.2 228.9 1095.1 228.9C1095.1 228.9 1095.1 228.9 1095.1 228.8L1094.7 225.2L1095 225.3L1091.5 229.7C1091.5 229.8 1091.3 229.8 1091.2 229.7V229.6L1090.8 224.7L1091.1 224.8L1090.2 226.2C1089.9 226.7 1089.6 227.1 1089.3 227.6C1089 228 1088.6 228.5 1088.3 228.9L1087.8 229.6L1087.2 230.1Z" fill="white"/>
<path d="M1093.7 276.7C1093.6 276.7 1093.6 276.7 1093.7 276.7C1093.6 276.6 1093.5 276.6 1093.5 276.5L1093.7 272.9L1089.8 275.6L1089.6 275.3L1093.9 272.4C1093.9 272.4 1094 272.4 1094.1 272.4C1094.1 272.4 1094.2 272.5 1094.2 272.6L1094 276.3L1099.3 273.2C1099.3 273.2 1099.4 273.2 1099.5 273.2L1099.6 273.3L1100.1 275.9H1099.7L1099.3 273.6L1093.7 276.7Z" fill="white"/>
<path d="M1067.3 276.3L1050.4 278.9L1050.5 279.3L1067.4 276.7L1067.3 276.3Z" fill="white"/>
<path d="M1057.1 278.1H1056.7L1057.2 275.5C1057.2 275.5 1057.2 275.4 1057.3 275.4H1057.4L1061.7 277.1L1061.9 273.6C1061.9 273.6 1061.9 273.5 1062 273.5C1062 273.5 1062.1 273.5 1062.2 273.5L1067.4 277.4L1067.2 277.7L1062.2 274.1L1062 277.5C1062 277.5 1062 277.5 1061.9 277.5C1061.9 277.5 1061.8 277.5 1061.7 277.5L1057.4 275.8L1057.1 278.1Z" fill="white"/>
<path d="M1065.1 279.2L1056.1 278.3L1056.2 278L1065.1 278.8V279.2Z" fill="white"/>
<path d="M1062 277.1L1061.9 277.5L1066.8 278.4L1066.9 278L1062 277.1Z" fill="white"/>
<path d="M1092.3 254.7C1092.2 254.7 1092.1 254.6 1092.1 254.5L1092.2 249L1088 254.2L1087.7 254L1092.2 248.4C1092.2 248.4 1092.3 248.3 1092.4 248.4C1092.5 248.4 1092.5 248.5 1092.5 248.6L1092.4 254.1L1096.6 249.1C1096.6 249.1 1096.7 249 1096.8 249.1L1096.9 249.2L1097.7 252.8L1100.5 249.4C1100.5 249.4 1100.6 249.3 1100.7 249.4C1100.8 249.4 1100.8 249.5 1100.8 249.6V252.4H1100.4V250.1L1097.7 253.4C1097.7 253.4 1097.6 253.5 1097.5 253.4L1097.4 253.3L1096.6 249.7L1092.3 254.8C1092.4 254.6 1092.3 254.7 1092.3 254.7Z" fill="white"/>
<path d="M1088.4 255.7L1088.2 255L1106.7 250.3L1087.4 248.6V247.8L1108.9 249.7L1109 250.5L1088.4 255.7Z" fill="white"/>
<path d="M1060.2 259.4L1048.8 257.8L1048.7 257.1L1069.5 247.4L1069.8 248.1L1050.1 257.2L1060.1 258.6L1069.1 254V254.7L1060.4 259.4H1060.2Z" fill="white"/>
<path d="M1068.9 253.4L1049.7 257.3L1049.8 257.7L1069 253.8L1068.9 253.4Z" fill="white"/>
<path d="M1067.3 253.8C1067 253.6 1066.5 253.2 1066.2 252.9C1065.9 252.7 1065.5 252.4 1065.2 252.1C1065.1 252.1 1065 252 1065 251.9C1064.9 251.9 1064.9 251.8 1064.8 251.7L1064.3 251.3L1063.4 250.5L1063.7 250.4L1063.5 254.8C1063.5 254.9 1063.4 255 1063.3 255C1063.3 255 1063.3 255 1063.2 255L1059 253L1059.3 252.9L1058.9 255.7C1058.9 255.8 1058.8 255.9 1058.7 255.8L1057 255.3C1056.7 255.2 1056.4 255.2 1056.1 255L1055.2 254.7L1055.3 254.6L1055.1 255.4L1054.9 256.5L1055 255.4L1055.1 254.5C1055.1 254.5 1055.1 254.4 1055.2 254.4L1056.1 254.6C1056.4 254.6 1056.7 254.7 1057 254.8L1058.7 255.3L1058.5 255.4L1058.9 252.6C1058.9 252.5 1059 252.4 1059.1 252.5L1063.3 254.5L1063 254.6L1063.2 250.2C1063.2 250.1 1063.3 250 1063.4 250H1063.5L1064.4 250.8L1064.9 251.2C1065 251.2 1065 251.3 1065.1 251.4C1065.2 251.4 1065.2 251.5 1065.3 251.6C1065.6 251.9 1065.9 252.2 1066.2 252.5C1066.6 253.1 1067 253.5 1067.3 253.8Z" fill="white"/>
<path d="M1063.7 254.6L1063.6 255L1067.2 255.6L1067.3 255.2L1063.7 254.6Z" fill="white"/>
<path d="M1065.2 256.6L1058.7 255.9L1058.9 255.6L1065.2 256.2V256.6Z" fill="white"/>
<path d="M1062.9 257.3L1055 256.4L1055.1 256.1L1063.8 256.9L1062.9 257.3Z" fill="white"/>
<path d="M1071.2 230.5L1054.3 234.9L1054.4 235.3L1071.3 230.9L1071.2 230.5Z" fill="white"/>
<path d="M1061.9 236.7L1051.9 235.7L1051.8 235L1071 224.1L1071.4 224.8L1053.2 235.1L1061.9 236L1070.2 233.7L1070.4 234.4L1061.9 236.7Z" fill="white"/>
<path d="M1066.3 235L1057.6 234.2C1057.5 234.2 1057.4 234.1 1057.4 234L1057.5 232.1C1057.5 232.1 1057.5 232 1057.6 232H1057.7L1061.4 232.9V229.8C1061.4 229.8 1061.4 229.7 1061.5 229.7C1061.5 229.7 1061.6 229.7 1061.7 229.7L1064.6 231.6L1065.3 227.7C1065.3 227.7 1065.3 227.6 1065.4 227.6C1065.4 227.6 1065.5 227.6 1065.6 227.6L1069.1 231L1068.8 231.3L1065.6 228.1L1064.9 231.9C1064.9 231.9 1064.9 232 1064.8 232C1064.7 232 1064.7 232 1064.6 232L1061.7 230.1V233V233.1H1061.6L1057.9 232.2V233.7L1066.6 234.6L1066.3 235Z" fill="white"/>
<path d="M1069.9 233.9L1061.7 233.1V232.7L1069.9 233.5V233.9Z" fill="white"/>
<path d="M1070.3 232.7L1065 232.2L1065.2 231.9L1070.3 232.3V232.7Z" fill="white"/>
<path d="M1072.6 211L1072.2 210.9L1077.1 198.7L1084.2 207.4L1083.8 207.7L1077.2 199.6L1072.6 211Z" fill="white"/>
<path d="M1026.5 258.8C990.7 258.8 959.5 254.2 936 249.2C894.4 240.3 867.6 228.1 865.4 227C806.2 237.5 738.3 227.4 691.6 217.1C642.3 206.2 605.9 192.7 603.8 191.9C512.8 195.5 440.2 173.6 395.3 154.6C349.3 135.1 322.3 114.6 319.2 112.2C315.4 114.9 277.9 141.1 222.4 166.8C168.7 191.6 86.6 220.9 1 219.5V218.5C86.4 219.9 168.3 190.6 221.9 165.8C280 138.9 318.5 111.4 318.9 111.1L319.2 110.9L319.5 111.1C319.8 111.3 347.2 133 395.7 153.6C440.5 172.6 513 194.4 603.9 190.8H604H604.1C604.5 190.9 641.4 204.8 691.9 216C738.5 226.3 806.3 236.4 865.4 225.9H865.6L865.7 226C866 226.1 893.2 238.9 936.2 248.2C976 256.7 1037.8 263.9 1106.6 249.8L1106.8 250.8C1078.5 256.6 1051.4 258.8 1026.5 258.8Z" fill="white"/>
<g opacity="0.5">
<path d="M1007 266.3C928.3 266.3 805.9 239.2 801.7 238.2C750.1 247 676.1 237.3 623.1 227.6C567.1 217.3 522.1 204.9 519.6 204.2C502 207.4 484 208.8 466 208.8C404.5 208.8 343 192.7 298 177.1C237.5 156.2 193.4 131.9 189.5 129.7C186.6 131.8 159.5 151.2 124.2 170.1C89.8 188.5 40.4 210.2 0 209.1V208.1C40.2 209.2 89.5 187.6 123.7 169.2C160.9 149.3 188.9 128.8 189.1 128.6L189.4 128.4L189.7 128.6C190.1 128.9 235.4 154.3 298.4 176.1C356.5 196.2 442.1 217.2 519.6 203.2H519.7H519.8C520.3 203.3 566 216.1 623.4 226.6C676.3 236.3 750.2 246 801.7 237.2H801.8H801.9C803.9 237.6 999.9 281.4 1056.6 258.8L1057 259.7C1045.2 264.5 1027.6 266.3 1007 266.3Z" fill="white"/>
</g>
<path d="M1483 304.4C1463.2 304.4 1443 304.1 1422.3 303.5C1255.5 298.7 1116.1 276 1111.3 275.3C1068.1 288.7 1002.5 301.1 934.298 283.7C895.498 273.8 873.198 258.5 870.898 256.8C793.298 278.7 725.698 270 682.698 258.8C637.898 247.1 609.598 230.4 607.198 229C589.298 232 571.498 233.3 554.098 233.3C498.698 233.3 447.698 220.1 411.098 207.2C361.098 189.6 326.998 168.9 324.098 167.1C320.198 168.5 267.098 187 202.598 203.6C140.998 219.3 55.9984 236.5 0.898438 228.7L0.998438 227.7C105.998 242.6 321.798 166.7 323.898 166L324.098 165.9L324.298 166C324.598 166.2 359.398 187.8 411.398 206.1C459.398 223 532.298 240.5 607.198 227.8H607.398L607.598 227.9C607.898 228.1 636.498 245.6 682.998 257.7C725.898 268.9 793.398 277.6 870.898 255.7L871.098 255.6L871.298 255.7C871.498 255.9 893.998 272.2 934.598 282.6C972.098 292.2 1033.1 298.5 1111.1 274.2H1111.2H1111.3C1112.7 274.4 1253.5 297.6 1422.3 302.5C1521.4 305.3 1610.7 301.4 1687.6 290.7C1783.7 277.4 1860.7 253.5 1916.3 219.8L1916.8 220.7C1861 254.5 1783.9 278.4 1687.7 291.8C1626.9 300.1 1558.2 304.4 1483 304.4Z" fill="url(#paint0_linear_3285_8745)"/>
<path d="M1401.3 239.4C1240.4 239.4 1108.9 226.5 1105.1 226.1C1093.7 228.3 1080.5 229.2 1066.1 229.2C984.202 229.2 866.902 198.6 863.402 197.7C719.502 202.1 601.602 156.2 597.702 154.7C558.502 155.4 492.802 147.7 402.502 107.6C351.202 84.9001 314.602 61.6001 310.602 59.0001C307.302 62.6001 275.302 95.8001 223.802 124.6C191.902 142.4 158.902 155.1 125.602 162.3C84.0016 171.3 41.9016 171.6 0.601562 163.3L0.801562 162.3C42.1016 170.6 84.0016 170.3 125.402 161.3C158.602 154.2 191.502 141.5 223.302 123.7C277.402 93.4001 309.902 58.3001 310.202 57.9001L310.502 57.6001L310.902 57.8001C311.302 58.0001 349.002 82.6001 403.002 106.5C452.802 128.6 527.102 154.7 597.902 153.5H598.002H598.102C599.302 154 718.102 200.9 863.602 196.5H863.702H863.802C865.402 196.9 1028.5 239.8 1105.2 224.9H1105.3H1105.4C1106.8 225 1248.9 239.2 1419.1 238.2C1519.1 237.6 1609 232 1686.5 221.5C1783.3 208.4 1860.8 187.5 1916.7 159.6L1917.1 160.5C1861.1 188.5 1783.5 209.4 1686.6 222.5C1609.1 233 1519.1 238.7 1419 239.2C1413 239.4 1407.1 239.4 1401.3 239.4Z" fill="url(#paint1_linear_3285_8745)"/>
<path d="M1210.1 261.4C1121.5 261.4 1061.3 259.9 1060.3 259.9V258.9C1061.9 258.9 1226.6 263.1 1414 257.6C1524 254.4 1620.3 248.5 1700 240.2C1799.6 229.8 1873.7 215.4 1920 197.6L1920.4 198.5C1874 216.4 1799.9 230.7 1700.2 241.2C1620.4 249.5 1524.2 255.4 1414.1 258.6C1339.5 260.7 1268.6 261.4 1210.1 261.4Z" fill="url(#paint2_linear_3285_8745)"/>
<path d="M1434.3 271.8C1427.1 271.8 1419.9 271.8 1412.6 271.7C1245.9 270.1 1110.3 250.6 1108.9 250.4L1109 249.4C1110.3 249.6 1245.9 269.1 1412.5 270.7C1510.4 271.6 1599.7 266.3 1677.9 254.9C1775.7 240.6 1856.3 216.6 1917.7 183.7L1918.2 184.6C1856.8 217.6 1776 241.6 1678.1 255.9C1605.7 266.4 1523.8 271.8 1434.3 271.8Z" fill="url(#paint3_linear_3285_8745)"/>
<g opacity="0.5">
<path d="M1412.6 264.9C1398.4 264.9 1384 264.8 1369.4 264.5C1199 261 1065.5 237.9 1061.9 237.2C957.601 245.4 806.801 210 800.501 208.6C781.501 218.8 757.401 222.7 731.801 222.7C696.001 222.7 657.201 215.1 625.301 206.8C567.201 191.6 518.701 170.5 516.201 169.4C467.101 170 388.101 162.9 290.501 126.2C235.601 105.6 198.901 84.4 194.301 81.8C168.301 134.8 117.201 161 78.8008 173.7C37.2008 187.5 1.20078 188.7 0.800781 188.7V187.7C1.20078 187.7 37.0008 186.5 78.5008 172.7C116.801 160 167.801 133.8 193.601 80.8L193.801 80.3L194.301 80.6C194.701 80.8 232.501 103.3 290.801 125.2C344.601 145.4 427.401 169.4 516.201 168.3H516.301H516.401C516.901 168.5 566.101 190.2 625.401 205.7C680.101 220 754.801 232 800.001 207.6L800.201 207.5H800.401C801.901 207.9 955.801 244.5 1061.7 236.2H1061.8H1061.9C1063.2 236.4 1197.5 259.9 1369.3 263.4C1470.2 265.5 1564.1 260.3 1648.4 248.2C1753.8 233 1844.4 206.7 1917.6 170L1918 170.9C1844.6 207.7 1753.9 234 1648.4 249.2C1576.5 259.7 1497.3 264.9 1412.6 264.9Z" fill="url(#paint4_linear_3285_8745)"/>
</g>
<g opacity="0.5">
<path d="M971.3 294.7C943.5 294.7 915.3 291 891.6 286.7C841.2 277.5 800 263.2 797.1 262.2C731.6 283.7 658.2 275.4 608 264.7C555.3 253.4 516.6 237.1 514 236C482.3 241.9 421.4 242.9 310.8 214.2C247.5 197.8 196 178.8 191.1 177C164.6 215.8 114.2 233 76.4 240.7C35.5 249 0.3 248 0 248V247C0.3 247 35.4 248 76.2 239.7C113.8 232.1 164.2 214.9 190.4 176.1L190.6 175.8L191 175.9C191.5 176.1 244.8 196.1 311 213.3C372 229.1 456.8 245.8 513.9 235.1H514.1L514.2 235.2C514.6 235.4 553.9 252.3 608.2 263.9C658.3 274.6 731.6 282.9 796.9 261.4L797.1 261.3L797.3 261.4C797.7 261.5 839.9 276.4 891.8 285.9C939.7 294.7 1006 300.7 1049.6 279.2L1049.7 279.1H1049.8C1051.4 279.2 1207 293.9 1389.2 292.3C1496.2 291.4 1591.2 285.1 1671.7 273.7C1772.3 259.4 1850.3 237 1903.5 207.1L1904 208C1850.7 238 1772.5 260.4 1671.8 274.7C1591.3 286.1 1496.1 292.4 1389.1 293.3C1379.6 293.4 1370.2 293.4 1360.9 293.4C1193.4 293.4 1055 280.6 1049.8 280.1C1027.7 290.8 999.8 294.7 971.3 294.7Z" fill="url(#paint5_linear_3285_8745)"/>
</g>
</g>
<defs>
<linearGradient id="paint0_linear_3285_8745" x1="1263.43" y1="275.836" x2="1885.68" y2="176.459" gradientUnits="userSpaceOnUse">
<stop stop-color="white"/>
<stop offset="1" stop-color="white" stop-opacity="0"/>
</linearGradient>
<linearGradient id="paint1_linear_3285_8745" x1="1263.53" y1="201.906" x2="1892.54" y2="125.352" gradientUnits="userSpaceOnUse">
<stop stop-color="white"/>
<stop offset="1" stop-color="white" stop-opacity="0"/>
</linearGradient>
<linearGradient id="paint2_linear_3285_8745" x1="1627.09" y1="248.242" x2="1906.78" y2="204.71" gradientUnits="userSpaceOnUse">
<stop stop-color="white"/>
<stop offset="1" stop-color="white" stop-opacity="0"/>
</linearGradient>
<linearGradient id="paint3_linear_3285_8745" x1="1642.21" y1="253.63" x2="1908.76" y2="225.361" gradientUnits="userSpaceOnUse">
<stop stop-color="white"/>
<stop offset="1" stop-color="white" stop-opacity="0"/>
</linearGradient>
<linearGradient id="paint4_linear_3285_8745" x1="1264.19" y1="226.828" x2="1893.7" y2="151.348" gradientUnits="userSpaceOnUse">
<stop stop-color="white"/>
<stop offset="1" stop-color="white" stop-opacity="0"/>
</linearGradient>
<linearGradient id="paint5_linear_3285_8745" x1="1254.69" y1="270.178" x2="1867.89" y2="156.812" gradientUnits="userSpaceOnUse">
<stop stop-color="white"/>
<stop offset="1" stop-color="white" stop-opacity="0"/>
</linearGradient>
<clipPath id="clip0_3285_8745">
<rect width="1920.4" height="361.6" fill="white"/>
</clipPath>
</defs>
</svg>
