<svg width="1918" height="532" viewBox="0 0 1918 532" fill="none" xmlns="http://www.w3.org/2000/svg">
<g clip-path="url(#clip0_3285_10517)">
<path d="M1467.6 531L1469.8 531.1V530.9H1467.6V531Z" fill="#0B53A1"/>
<path d="M163.1 495.7H165.9H191.2V505.2H163.6L163.1 495.7Z" fill="white"/>
<path d="M165.5 497.9V497.5L166.8 239.6L167.3 157.3L167.6 86.1001L167.9 3.0001L168 2.9001C169.7 1.0001 171.4 9.87989e-05 173.2 0.100099C175.6 0.200099 177.1 2.3001 177.2 2.4001L177.3 2.5001V2.6001L180.6 156L182.9 238.6L189.3 497.5L165.5 497.9ZM168.7 3.2001L168.4 86.0001L168.1 157.2L167.6 239.5L166.4 497L188.4 496.5L182 238.5L179.7 155.9L176.3 2.7001C176 2.3001 174.8 0.900099 173 0.800099C171.6 0.800099 170.2 1.6001 168.7 3.2001Z" fill="white"/>
<path d="M163.699 237.1L163.899 224.8L167.699 226.4L167.299 236.7L163.699 237.1ZM164.699 226.1L164.499 236.1L166.399 235.9L166.699 227L164.699 226.1Z" fill="white"/>
<path d="M164.5 235.1L98.0996 230.5V226.6L163.8 227.6L164.8 227.3L164.5 235.1ZM98.8996 229.7L163.7 234.2L163.9 228.5L98.9996 227.5V229.7H98.8996Z" fill="white"/>
<path d="M186.099 238.1L182.299 237.1L182.199 226.1L186.899 226L186.099 238.1ZM183.099 236.5L185.299 237.1L185.899 227H182.999L183.099 236.5Z" fill="white"/>
<path d="M185.799 235.8L185.699 234.9L249.099 233.4L249.199 231.1L186.099 229L186.199 228.2L249.999 230.3L249.899 234.2H249.499L185.799 235.8Z" fill="white"/>
<path d="M183.599 168.1L179.899 167.4L179.799 157.3L183.999 156.7L183.599 168.1ZM180.799 166.8L182.799 167.2L183.099 157.8L180.599 158.2L180.799 166.8Z" fill="white"/>
<path d="M182.9 166.1L183.1 158.5H183.5L243.3 161.1L243.4 161.4C243.5 162 243.3 163.8 243.3 164.1V164.5H242.9L182.9 166.1ZM183.9 159.5L183.7 165.3L242.4 163.8C242.5 163.1 242.5 162.5 242.5 162.1L183.9 159.5Z" fill="white"/>
<path d="M181.3 96.7L178.3 95.6L177.9 86.1L182.2 85.3L181.3 96.7ZM179.1 95.1L180.5 95.6L181.2 86.4L178.8 86.9L179.1 95.1Z" fill="white"/>
<path d="M180.4 94.8V94.2L180.5 94.1C180.6 94 180.6 93.9 180.7 93.7C181.1 92 181.1 90.3 181.1 88.3C181.1 88.2 181.1 88.1 181.1 88.1L180.9 87.5H181.5L237.8 90.6L237.5 94.1L180.4 94.8ZM182 88.4C182 90.3 182 92.1 181.6 93.9C181.6 93.9 181.6 93.9 181.6 94L236.7 93.4L236.9 91.5L182 88.4Z" fill="white"/>
<path d="M163.199 166L162.699 165.9L103.399 159.4L103.199 155.8L163.299 157.8L162.899 158.4C162.799 158.6 162.699 158.9 162.799 159.3C162.899 159.6 162.899 159.8 162.999 160.1L163.099 160.6C163.199 161.1 163.199 161.6 163.199 162.2C163.199 162.9 163.199 163.6 163.199 164.3V166ZM104.199 158.7L162.299 165V164.5C162.299 163.8 162.299 163.1 162.299 162.4C162.299 161.8 162.299 161.3 162.199 160.8L162.099 160.4C162.099 160.1 161.999 159.9 161.899 159.7C161.799 159.4 161.799 159 161.899 158.7L103.999 156.8L104.199 158.7Z" fill="white"/>
<path d="M167.799 94.1H167.299L108.299 89.4V86.3L167.799 86.6V94.1ZM109.199 88.6L166.999 93.2V87.6L109.199 87.3V88.6Z" fill="white"/>
<path d="M172.699 0.599987L179.199 496.5L188.799 496.9L176.799 2.59999C176.799 2.59999 175.299 0.299987 172.699 0.599987Z" fill="white"/>
<path d="M162 167.8L162.2 155.1L167.4 155.6L167.8 167.6L162 167.8ZM163 156L162.8 166.9L166.9 166.7L166.5 156.3L163 156Z" fill="white"/>
<path d="M478 498H480.1H499.1V505.2H478.4L478 498Z" fill="white"/>
<path d="M479.801 499.7V499.4L480.801 305.5L481.201 243.6L481.401 190L481.601 127.6L481.701 127.5C483.001 126 484.301 125.3 485.601 125.4C487.401 125.5 488.601 127.1 488.601 127.1L488.701 127.2V127.3L491.201 242.6L492.901 304.7L497.701 499.4L479.801 499.7ZM482.201 127.8L482.001 190L481.801 243.6L481.401 305.5L480.401 499.1L497.001 498.7L492.201 304.7L490.501 242.6L488.001 127.4C487.801 127.1 486.901 126.1 485.501 126C484.401 126 483.301 126.6 482.201 127.8Z" fill="white"/>
<path d="M478.4 303.6L478.5 294.4L481.3 295.6L481 303.3L478.4 303.6ZM479.2 295.4L479.1 302.9L480.5 302.7L480.7 296L479.2 295.4Z" fill="white"/>
<path d="M479 302.1L429 298.6V295.7L478.4 296.5L479.1 296.3L479 302.1ZM429.7 298.1L478.4 301.5L478.5 297.2L429.7 296.4V298.1Z" fill="white"/>
<path d="M495.301 304.4L492.401 303.7L492.301 295.4L495.801 295.3L495.301 304.4ZM493.001 303.2L494.701 303.6L495.101 296H492.901L493.001 303.2Z" fill="white"/>
<path d="M495 302.6V302L542.6 300.8L542.7 299.1L495.3 297.6V296.9L543.3 298.5L543.2 301.5H542.9L495 302.6Z" fill="white"/>
<path d="M493.4 251.8L490.6 251.3L490.5 243.7L493.7 243.2L493.4 251.8ZM491.3 250.7L492.8 251L493.1 243.9L491.2 244.2L491.3 250.7Z" fill="white"/>
<path d="M492.801 250.3L493.001 244.6H493.301L538.301 246.5L538.401 246.7C538.501 247.1 538.301 248.5 538.301 248.8V249.1H538.001L492.801 250.3ZM493.601 245.3L493.501 249.7L537.601 248.6C537.701 248.1 537.701 247.6 537.701 247.3L493.601 245.3Z" fill="white"/>
<path d="M491.6 198.1L489.4 197.3L489.1 190.1L492.3 189.5L491.6 198.1ZM490 196.8L491 197.2L491.5 190.3L489.7 190.7L490 196.8Z" fill="white"/>
<path d="M491 196.6V196.1L491.1 196C491.2 195.9 491.2 195.8 491.2 195.7C491.5 194.4 491.5 193.2 491.5 191.7C491.5 191.6 491.5 191.6 491.5 191.5L491.4 191.1H491.9L534.2 193.4L533.9 196.1L491 196.6ZM492.2 191.8C492.2 193.3 492.2 194.6 491.9 195.9L533.3 195.4L533.4 194L492.2 191.8Z" fill="white"/>
<path d="M478.001 250.2H477.601L433.001 245.3L432.801 242.6L478.001 244.1L477.701 244.6C477.601 244.8 477.501 245 477.601 245.3C477.701 245.5 477.701 245.7 477.801 245.9L477.901 246.3C477.901 246.7 478.001 247.1 478.001 247.5C478.001 248 478.001 248.6 478.001 249.1V250.2ZM433.701 244.7L477.401 249.5V249.1C477.401 248.6 477.401 248 477.401 247.5C477.401 247.1 477.401 246.7 477.301 246.3L477.201 246C477.201 245.8 477.101 245.6 477.101 245.4C477.001 245.2 477.001 244.9 477.101 244.7L433.601 243.2L433.701 244.7Z" fill="white"/>
<path d="M481.501 196.1H481.201L436.801 192.6V190.3L481.501 190.6V196.1ZM437.401 192L480.801 195.4V191.2L437.401 190.9V192Z" fill="white"/>
<path d="M485.199 125.8L490.099 498.7L497.299 499L488.199 127.3C488.199 127.3 487.099 125.5 485.199 125.8Z" fill="white"/>
<path d="M477.1 251.5L477.3 242L481.2 242.4L481.5 251.4L477.1 251.5ZM477.9 242.7L477.8 250.9L480.9 250.8L480.6 243L477.9 242.7Z" fill="white"/>
<path d="M795.4 500H797H810.7V505.2H795.7L795.4 500Z" fill="white"/>
<path d="M796.699 501.2V501L797.399 360.8L797.699 316.1L797.799 277.4L797.899 232.3L797.999 232.2C798.899 231.1 799.899 230.6 800.799 230.7C802.099 230.8 802.899 231.9 802.999 232V232.1V232.2L804.799 315.5L806.099 360.4L809.599 501.1L796.699 501.2ZM798.499 232.4L798.399 277.4L798.299 316.1L797.999 360.8L797.299 500.7L809.299 500.4L805.799 360.2L804.499 315.3L802.699 232C802.499 231.8 801.899 231 800.899 231C800.099 231.1 799.299 231.5 798.499 232.4Z" fill="white"/>
<path d="M795.799 359.5L795.899 352.8L797.899 353.6L797.699 359.2L795.799 359.5ZM796.299 353.5L796.199 358.9L797.199 358.8L797.399 353.9L796.299 353.5Z" fill="white"/>
<path d="M796.2 358.4L760.1 355.9V353.8L795.8 354.4L796.3 354.2L796.2 358.4ZM760.5 355.5L795.7 357.9L795.8 354.8L760.5 354.2V355.5Z" fill="white"/>
<path d="M807.899 360.1L805.799 359.6L805.699 353.6H808.199L807.899 360.1ZM806.299 359.2L807.499 359.5L807.799 354H806.199L806.299 359.2Z" fill="white"/>
<path d="M807.699 358.8V358.3L842.099 357.5L842.199 356.3L807.899 355.1L807.999 354.6L842.699 355.8L842.599 357.9H842.399L807.699 358.8Z" fill="white"/>
<path d="M806.6 322L804.6 321.6L804.5 316.1L806.8 315.7L806.6 322ZM805 321.3L806.1 321.5L806.3 316.4L805 316.6V321.3Z" fill="white"/>
<path d="M806.199 320.9L806.299 316.8H806.499L838.999 318.2V318.4C839.099 318.7 838.999 319.7 838.899 319.9V320.1H838.699L806.199 320.9ZM806.699 317.3L806.599 320.5L838.499 319.7C838.499 319.3 838.599 319 838.599 318.8L806.699 317.3Z" fill="white"/>
<path d="M805.3 283.2L803.7 282.6L803.5 277.4L805.8 277L805.3 283.2ZM804.1 282.3L804.9 282.6L805.3 277.6L804 277.9L804.1 282.3Z" fill="white"/>
<path d="M804.799 282.2V281.9L804.899 281.8C804.899 281.7 804.999 281.7 804.999 281.6C805.199 280.7 805.199 279.8 805.199 278.7V278.6L805.099 278.3H805.399L835.999 280L835.799 281.9L804.799 282.2ZM805.699 278.7C805.699 279.8 805.699 280.7 805.499 281.7L835.399 281.4L835.499 280.4L805.699 278.7Z" fill="white"/>
<path d="M795.5 320.9H795.2L763 317.4L762.9 315.5L795.6 316.6L795.4 316.9C795.3 317 795.3 317.2 795.3 317.4C795.3 317.5 795.4 317.7 795.4 317.8V318.1C795.4 318.4 795.4 318.7 795.5 319C795.5 319.4 795.5 319.8 795.5 320.2V320.9ZM763.4 316.9L795 320.3V320C795 319.6 795 319.2 795 318.8C795 318.5 795 318.2 795 318V317.8C795 317.7 794.9 317.5 794.9 317.4C794.8 317.2 794.8 317 794.9 316.9L763.5 315.8L763.4 316.9Z" fill="white"/>
<path d="M798 281.8H797.7L765.6 279.3V277.6L797.9 277.8V281.8H798ZM766.1 278.8L797.5 281.3V278.2L766.1 278V278.8Z" fill="white"/>
<path d="M800.699 231L804.199 500.5L809.399 500.7L802.799 232C802.799 232 802.099 230.8 800.699 231Z" fill="white"/>
<path d="M794.799 321.8L794.899 314.9L797.699 315.2L797.899 321.7L794.799 321.8ZM795.399 315.4L795.299 321.3L797.499 321.2L797.299 315.6L795.399 315.4Z" fill="white"/>
<path d="M1921.5 52.4001C1613.7 320.6 854.2 279.7 835.4 281.4C643.8 323.5 533.4 194.1 533.3 195.5C340.6 228.8 236.7 93.3001 236.7 93.3001C236.7 93.3001 125.7 152.6 0.0996094 144.1" stroke="white" stroke-miterlimit="10"/>
<path d="M242.6 162C242.6 162 342.8 291.3 537.7 247.2C525.2 250 620.1 372.9 838.5 318.7C832.9 323.2 1531.8 415.2 1919.3 127.2" stroke="white" stroke-miterlimit="10"/>
<path d="M1926.9 205.3C1286 521.5 852.4 358.4 840.8 358.4C600.5 424 530 299.1 542.7 299.1C341.7 350.9 251.4 232.5 251.4 232.5C251.4 232.5 113 289.5 0.0996094 292.4" stroke="white" stroke-miterlimit="10"/>
<path opacity="0.6" d="M1921.5 94.7002C1533.2 377.1 767.4 287.1 766.1 278.8C669.6 342.5 437.4 190.9 437.4 192C334.1 220.7 109.2 87.2002 109.2 87.2002C109.2 87.2002 97.4996 114.5 0.0996094 103.2" stroke="white" stroke-miterlimit="10"/>
<path opacity="0.6" d="M1917.2 163.2C1622.4 384 1106.1 311 763 317.3C566.2 320.9 431.8 243.4 433.6 243.2C328.6 270.3 102.8 158.2 102.8 158.2C102.8 158.2 58.9 189.3 0.5 188.8" stroke="white" stroke-miterlimit="10"/>
<path opacity="0.6" d="M1920.1 180.8C1464.1 471.6 757.9 359 760.6 354.2C550.5 423.5 436 298.7 429.8 298C259.5 342.9 98.9996 229.6 98.9996 229.6C98.9996 229.6 42.4996 259.1 0.0996094 257" stroke="white" stroke-miterlimit="10"/>
</g>
<defs>
<clipPath id="clip0_3285_10517">
<rect width="1927.1" height="531.1" fill="white"/>
</clipPath>
</defs>
</svg>
