<svg width="76" height="76" viewBox="0 0 76 76" fill="none" xmlns="http://www.w3.org/2000/svg">
<path d="M0 32.2817C0.083151 32.0659 0.207877 31.8069 0.291028 31.5911C0.914661 29.9943 2.28665 29.0449 4.0744 29.0449C4.82276 29.0449 5.73742 29.2606 6.23632 28.9154C6.69365 28.5701 6.73523 27.5775 6.98468 26.887C7.60831 25.2902 8.27352 23.7365 9.06346 21.8807C8.6477 21.5355 8.10722 21.0608 7.56674 20.5429C5.73742 18.6871 5.73742 16.2703 7.52516 14.4145C9.64551 12.2135 11.7659 10.0125 13.8862 7.81147C15.674 5.99886 17.9606 5.99886 19.7484 7.81147C20.2473 8.32936 20.7046 9.10619 21.2451 9.23566C21.7856 9.32198 22.4508 8.71777 23.116 8.45883C24.5295 7.89779 25.9015 7.29358 27.3151 6.7757C27.7724 6.60307 27.9803 6.43044 27.9387 5.91255C27.8972 5.3515 27.9387 4.79046 27.9387 4.22941C28.0219 1.72629 29.6017 0.0431573 32.0131 0C33.6346 0 35.2144 0 36.8359 0C38.2495 0 39.663 0 41.0766 0C43.5711 0.0431573 45.1926 1.72629 45.2341 4.31573C45.2341 5.0494 45.0263 5.95571 45.3589 6.47359C45.6915 6.94832 46.6061 6.94832 47.2298 7.25043C48.6017 7.85463 49.9737 8.50199 51.3457 9.14935C51.7615 9.36513 52.0109 9.32198 52.302 8.97672C52.7177 8.50199 53.1751 8.07041 53.5908 7.59568C55.1707 6.08518 57.4573 5.99886 59.0372 7.55253C61.3238 9.83986 63.5689 12.2135 65.814 14.5872C67.3523 16.2271 67.3107 18.6008 65.814 20.2839C65.2735 20.8881 64.6499 21.406 64.2341 21.8376C65.1072 24.2112 65.9387 26.4123 66.8118 28.6133C66.895 28.7859 67.1444 28.9585 67.3523 28.9585C68.0591 29.0017 68.7243 28.9585 69.4311 29.0017C71.4683 29.088 73.1729 30.7711 73.1729 32.8859C73.2144 36.2521 73.1729 39.6184 73.1729 42.9847C73.1729 44.1068 72.674 45.0131 71.9672 45.833C72.0919 46.0057 72.2582 46.2215 72.3829 46.3941C77.081 52.2203 77.2473 60.5065 72.7155 66.5054C72.5077 66.8075 72.2998 67.0664 72.0503 67.3254C71.593 67.757 71.0525 67.757 70.5952 67.3685C70.1379 66.9801 70.0963 66.4191 70.3873 65.9012C70.4705 65.7286 70.6368 65.5559 70.7615 65.4265C74.1707 60.8518 74.8775 55.8455 72.3829 50.6235C69.8468 45.4015 65.5646 42.8983 59.9519 43.1141C53.3414 43.3731 48.0613 48.9404 47.6039 56.0182C47.1466 62.6212 51.8862 68.8359 58.2473 70.0443C61.116 70.6053 63.86 70.1738 66.4792 68.9222C66.6039 68.8359 66.7287 68.7927 66.895 68.7064C67.5602 68.4475 68.1422 68.6633 68.4333 69.2243C68.7243 69.8285 68.5164 70.4327 67.8928 70.778C66.2298 71.6843 64.442 72.2885 62.5295 72.5043C57.7068 73.0221 53.5492 71.5116 50.0153 68.1022C49.849 67.9296 49.4748 67.8864 49.267 67.9296C48.1028 68.318 46.9387 68.8359 45.7746 69.2243C45.4004 69.3538 45.3173 69.5696 45.3173 69.958C45.3173 70.6917 45.3589 71.3822 45.3173 72.1158C45.151 74.36 43.5295 75.9137 41.326 75.9568C39.5799 76 37.8337 75.9568 36.0459 75.9568C34.7155 75.9568 33.4267 75.9568 32.0963 75.9568C29.6849 75.9137 28.0635 74.2305 28.0219 71.7274C28.0219 71.1232 28.0635 70.4759 27.9803 69.8717C27.9387 69.6559 27.7309 69.3538 27.523 69.2675C25.6105 68.4043 23.698 67.6275 21.7856 66.7643C21.4114 66.5917 21.2035 66.6349 20.954 66.937C20.5383 67.4117 20.081 67.8433 19.6652 68.318C18.0438 69.9148 15.7155 69.958 14.1357 68.318C11.8906 66.0307 9.64551 63.7433 7.48359 61.4128C5.90372 59.7297 5.90372 57.3129 7.52516 55.6297C8.06565 55.0687 8.6477 54.5508 9.06346 54.1192C8.1488 51.7456 7.35886 49.5014 6.48578 47.3004C6.40263 47.1278 6.15317 46.9983 5.9453 46.9551C5.36324 46.912 4.82276 46.9551 4.2407 46.9551C2.2035 46.9551 0.873085 45.9194 0.249453 43.9773C0.207877 43.891 0.166302 43.8047 0.124726 43.7183C0 39.8773 0 36.0795 0 32.2817ZM31.0153 58.0897C31.0153 57.7445 31.0569 57.5287 31.0569 57.2697C31.0569 53.8603 31.0569 50.4509 31.0569 47.0415C31.0569 46.5236 30.8906 46.2215 30.4333 46.0057C22.1597 41.6468 20.9956 29.8648 28.2713 23.866C29.0197 23.2618 29.9344 22.7439 30.849 22.3986C31.8884 22.0102 32.9278 22.6576 33.2188 23.7797C33.3851 24.3407 33.3851 24.9449 33.3851 25.506C33.3851 28.1817 33.3435 30.8575 33.3851 33.5332C33.3851 35.3027 34.7987 36.8995 36.4617 37.0721C37.7921 37.2016 39.3304 35.8637 39.7046 34.2669C39.7877 33.8785 39.7877 33.4901 39.7877 33.1016C39.7877 30.469 39.7462 27.8796 39.7877 25.247C39.7877 24.7723 39.8293 24.2544 39.954 23.8228C40.2451 22.6576 41.2845 22.0534 42.3654 22.3986C43.0306 22.6144 43.6958 22.9597 44.2779 23.3481C52.1772 29.088 51.3457 41.431 42.7396 46.0057C42.3239 46.2215 42.116 46.4804 42.116 46.9983C42.1576 50.4509 42.116 53.9466 42.116 57.3992C42.116 57.615 42.1576 57.8308 42.1576 58.0897C42.3654 58.0466 42.4902 58.0466 42.5733 58.0034C43.2385 57.7445 43.8621 57.4855 44.5274 57.2697C45.0263 57.0971 45.3173 56.8382 45.2757 56.1476C45.2341 55.5434 45.3173 54.8961 45.442 54.2919C46.5646 47.9478 50.0985 43.6752 55.9606 41.5173C56.3348 41.3878 56.5011 41.1721 56.5427 40.7836C56.8337 38.2805 56.7505 35.7774 56.2101 33.2743C53.8403 22.3123 43.1969 15.1482 32.6368 17.5219C30.7659 17.9534 29.0197 18.7734 27.1904 19.4639C26.442 19.766 25.7352 19.5503 25.5274 18.8597C25.3195 18.2555 25.5689 17.6945 26.3173 17.3061C30.1422 15.2777 34.2166 14.4577 38.4989 14.803C49.6411 15.7524 58.5799 25.506 58.9125 37.1153C58.954 38.3237 58.9125 39.5752 58.9125 40.8268C63.1116 40.3952 66.895 41.5605 70.3873 44.4089C70.5952 43.7615 70.8862 43.2436 70.8862 42.7257C70.9278 39.5752 70.9278 36.4248 70.8862 33.2311C70.8862 31.9796 70.221 31.3322 68.9737 31.289C68.0175 31.289 67.1028 31.289 66.1466 31.289C65.4398 31.289 64.9825 30.9438 64.8162 30.2101C64.151 27.5344 63.1532 25.0312 61.7812 22.6144C61.407 21.9239 61.4902 21.3629 62.0306 20.845C62.7374 20.1545 63.4026 19.4639 64.0678 18.7303C64.8578 17.8671 64.8578 16.9177 64.0678 16.0545C61.9059 13.8103 59.744 11.523 57.5405 9.32198C56.7505 8.50199 55.7943 8.54515 54.9628 9.36513C54.256 10.0988 53.5492 10.8325 52.884 11.523C52.4267 11.9977 51.8862 12.084 51.3457 11.7388C49.0175 10.3146 46.523 9.27882 43.9037 8.54514C43.2385 8.37251 42.9475 7.89779 42.9475 7.20727C42.9475 6.21465 42.9475 5.26519 42.9475 4.27257C42.9475 2.97785 42.2823 2.28734 41.035 2.24418C38.0416 2.24418 35.0481 2.24418 32.0547 2.24418C30.7659 2.24418 30.1422 2.9347 30.1007 4.22941C30.1007 5.22203 30.1007 6.17149 30.1007 7.16411C30.1007 7.94094 29.7681 8.37251 29.0613 8.54514C26.4836 9.23566 24.0722 10.3146 21.744 11.6956C21.0788 12.084 20.5383 11.9977 19.9978 11.4367C19.3326 10.7462 18.6674 10.0556 18.0022 9.36513C17.1707 8.54515 16.2144 8.50199 15.3829 9.36513C13.3873 11.6525 11.2254 13.8535 9.10503 16.0977C8.23195 17.0471 8.23195 17.9534 9.14661 18.9029C9.77024 19.5934 10.4354 20.2408 11.1007 20.9313C11.6411 21.4923 11.7243 22.0534 11.3501 22.7007C9.97812 25.0744 8.98031 27.6207 8.3151 30.2964C8.1488 31.0301 7.69147 31.3754 6.98468 31.3754C6.02845 31.3754 5.07221 31.3754 4.0744 31.3754C2.91028 31.3754 2.24508 32.0659 2.24508 33.2743C2.24508 36.4248 2.24508 39.5752 2.24508 42.7689C2.24508 43.9341 2.91028 44.6246 4.03282 44.6678C5.03063 44.6678 6.02845 44.6678 6.98468 44.6678C7.69147 44.6678 8.10722 45.0131 8.27352 45.7036C8.93873 48.4225 9.97812 50.9688 11.3085 53.3424C11.6827 53.9898 11.5996 54.5508 11.0591 55.0687C10.3939 55.7592 9.72866 56.4497 9.06346 57.1403C8.19037 58.0466 8.19037 58.996 9.02188 59.9023C11.1422 62.1465 13.2626 64.3475 15.4245 66.5485C16.2976 67.4548 17.2538 67.4117 18.1685 66.5054C18.8337 65.8149 19.4989 65.1244 20.1641 64.4338C20.663 63.916 21.2035 63.8728 21.7856 64.2181C24.1138 65.6422 26.5667 66.678 29.1444 67.4117C29.8512 67.6275 30.1422 68.0591 30.1422 68.7927C30.1422 69.7422 30.1422 70.6917 30.1422 71.6411C30.1838 73.0221 30.8074 73.6695 32.0963 73.6695C35.0481 73.6695 38.0416 73.6695 40.9934 73.6695C42.3238 73.6695 42.9475 72.979 42.9475 71.6411C42.9475 70.7348 42.9475 69.7853 42.9475 68.879C42.9475 67.9296 43.1554 67.6706 44.07 67.3685C45.2341 66.9801 46.3567 66.5917 47.5208 66.1601C47.6871 66.117 47.8534 65.9875 48.0197 65.9012C47.9365 65.9012 47.8534 65.9012 47.7702 65.9443C46.9387 63.8296 46.0656 61.6718 45.2341 59.5139C45.151 59.5571 44.9015 59.6434 44.6937 59.7297C40.5361 61.4128 36.2954 61.8012 31.93 60.8086C17.919 57.7013 10.3107 42.1215 16.1313 28.4838C17.4201 25.4196 19.3326 22.8302 21.744 20.6292C22.3676 20.0681 22.9912 20.0681 23.4486 20.586C23.9059 21.1039 23.8228 21.7513 23.2407 22.3555C23.1575 22.4418 23.0744 22.5281 22.9497 22.6144C13.3457 31.7638 14.4267 47.6888 25.1532 55.3277C26.9825 56.4929 28.8534 57.4855 31.0153 58.0897ZM39.9125 58.6508C39.9125 58.3055 39.9125 58.0034 39.9125 57.7445C39.9125 53.8603 39.954 49.9761 39.9125 46.1351C39.9125 45.1857 40.2451 44.6678 41.1182 44.2794C48.5186 41.0426 49.8074 30.7712 43.5295 25.6354C43.1138 25.2902 42.6565 25.0312 42.116 24.6428C42.116 25.0312 42.0744 25.247 42.0744 25.4628C42.0744 28.0091 42.116 30.5985 42.0744 33.1448C42.0744 33.749 42.0328 34.3101 41.9081 34.9143C41.326 37.5037 38.7484 39.5752 36.4617 39.4026C33.6346 39.1437 31.3063 36.5974 31.2648 33.6627C31.2232 30.9869 31.2648 28.3112 31.2648 25.6354C31.2648 25.3765 31.2648 25.0744 31.2648 24.8154C31.0985 24.8154 31.0153 24.8154 30.9737 24.8586C30.7243 25.0312 30.4748 25.1607 30.2254 25.3333C26.9409 27.7501 25.361 31.0301 25.7352 35.13C26.1094 39.4026 28.3545 42.4668 32.1379 44.2362C33.0109 44.6246 33.3435 45.1425 33.302 46.092C33.2604 49.674 33.302 53.2993 33.302 56.8813C33.302 57.4424 33.302 58.0034 33.302 58.6076C35.5055 59.0392 37.6674 59.0392 39.9125 58.6508Z" fill="white"/>
<path d="M58.9121 54.896C60.1594 53.3424 61.4067 51.8319 62.6539 50.2782C63.7349 48.9403 65.1069 48.4224 66.7699 48.854C69.306 49.5877 70.4285 52.7382 68.8071 54.896C66.6452 57.7444 64.3585 60.5496 62.0719 63.2685C60.8246 64.7359 58.6627 64.8654 57.166 63.657C55.794 62.5349 54.4636 61.3696 53.2163 60.1612C51.7196 58.737 51.6364 56.3634 52.9253 54.8097C54.2141 53.2129 56.4176 52.9108 58.0806 54.1192C58.2885 54.3781 58.5795 54.5939 58.9121 54.896ZM67.2688 52.9108C67.2688 51.9182 66.9362 51.4434 66.3126 51.1413C65.6474 50.8392 64.9406 51.055 64.4001 51.7024C62.945 53.4718 61.5314 55.2413 60.1178 57.0107C59.411 57.8739 58.9121 57.917 58.0391 57.1834C57.6649 56.8381 57.2907 56.4928 56.9165 56.1907C56.1266 55.5434 55.2119 55.5865 54.5883 56.3202C54.0062 57.0539 54.0894 58.0034 54.8793 58.6939C56.0019 59.7296 57.1244 60.7223 58.2885 61.6717C59.12 62.4054 59.9931 62.3191 60.6999 61.4559C62.7787 58.9097 64.8159 56.4065 66.8531 53.8171C67.0609 53.515 67.1857 53.0834 67.2688 52.9108Z" fill="white"/>
</svg>
