<svg width="86" height="86" viewBox="0 0 86 86" fill="none" xmlns="http://www.w3.org/2000/svg">
<g clip-path="url(#clip0_1537_4111)">
<path d="M0 54.6046C0.0930736 53.9535 0.232684 53.3023 0.325758 52.6046C0.465368 51.5814 0.744589 51.2558 1.7684 51.0697C3.02489 50.8372 4.28139 50.6046 5.58442 50.3721C6.04978 50.279 6.28247 50.093 6.42208 49.6279C7.02706 48.0465 7.72511 46.4651 8.33009 44.8837C8.42316 44.6046 8.42316 44.093 8.28355 43.8604C7.5855 42.6976 6.79437 41.5814 6.00325 40.4651C5.58442 39.8139 5.58442 39.2558 6.04978 38.6046C7.67857 36.4186 9.54004 34.5581 11.7273 32.9302C12.3788 32.4651 12.9372 32.4651 13.5887 32.9302C14.7056 33.6744 15.8225 34.4186 16.8929 35.2093C17.2652 35.4883 17.5444 35.4883 18.0097 35.3023C19.5455 34.6046 21.1277 33.9535 22.71 33.3488C23.1753 33.1628 23.3615 32.9302 23.4545 32.4651C23.6872 31.1628 23.9665 29.9069 24.1991 28.6046C24.3387 27.7209 24.8041 27.3023 25.6883 27.2093C28.2478 26.8837 30.8074 26.8837 33.3669 27.2093C34.2511 27.3023 34.7165 27.7209 34.9026 28.6046C35.1353 29.8604 35.368 31.1162 35.6007 32.4186C35.6937 32.9302 35.8799 33.2093 36.4383 33.3953C38.0206 33.9535 39.5563 34.6511 41.092 35.3023C41.5574 35.4883 41.8366 35.4883 42.2089 35.2093C43.3258 34.4186 44.4892 33.6744 45.6061 32.8837C46.211 32.4651 46.7695 32.5116 47.3745 32.9302C49.5617 34.5581 51.4697 36.4651 53.0985 38.6511C53.5173 39.2093 53.5173 39.7674 53.145 40.3721C52.3539 41.5349 51.5628 42.6511 50.8182 43.8604C50.6786 44.1395 50.632 44.6046 50.7716 44.8837C51.3766 46.4651 52.1212 48 52.6797 49.6279C52.8658 50.093 53.052 50.3256 53.5173 50.3721C54.7738 50.6046 55.9838 50.8372 57.2403 51.0697C58.4502 51.3023 58.6364 51.5349 58.8225 52.7442C59.1948 55.3023 59.1483 57.8139 58.8225 60.3721C58.7294 61.2093 58.3106 61.6744 57.4729 61.8139C56.1699 62.0465 54.8204 62.3256 53.5173 62.5581C53.0985 62.6511 52.8658 62.7907 52.7262 63.2558C52.1212 64.8837 51.3766 66.4651 50.7716 68.0465C50.6786 68.3256 50.6786 68.7442 50.8182 69.0232C51.5628 70.186 52.3074 71.3023 53.0985 72.4186C53.5639 73.0697 53.5639 73.6744 53.052 74.3256C51.4232 76.4651 49.5617 78.3256 47.421 79.9535C46.816 80.4186 46.211 80.4651 45.5595 80C44.4426 79.2093 43.3258 78.4186 42.1623 77.7209C41.8831 77.5814 41.4178 77.5349 41.1385 77.6744C39.5563 78.279 38.0206 78.9767 36.3918 79.6279C35.9264 79.8139 35.6937 80 35.6472 80.4651C35.4145 81.7209 35.1818 82.9767 34.9491 84.279C34.8095 85.1628 34.3907 85.6279 33.46 85.7674C30.8539 86.1395 28.2944 86.1395 25.6883 85.7674C24.8041 85.6279 24.3853 85.2093 24.2457 84.3256C24.013 83.0697 23.7803 81.8139 23.5476 80.5116C23.4545 80.0465 23.2684 79.7674 22.7565 79.5814C21.1742 79.0232 19.6385 78.3721 18.1028 77.6744C17.684 77.4883 17.3582 77.4418 16.9859 77.7209C15.9156 78.4651 14.7987 79.2093 13.7284 79.9535C13.0303 80.4651 12.3788 80.4651 11.6807 79.907C9.58658 78.3256 7.77165 76.4651 6.18939 74.4186C5.67749 73.7674 5.63095 73.1163 6.14286 72.4186C6.88745 71.3488 7.5855 70.2325 8.37662 69.1628C8.65584 68.7442 8.70238 68.4186 8.4697 67.9535C7.77165 66.4186 7.12013 64.8837 6.56169 63.3023C6.37554 62.8372 6.18939 62.6046 5.72403 62.5581C4.421 62.3256 3.07143 62.0465 1.7684 61.8139C0.977273 61.6744 0.511905 61.2558 0.465368 60.4186C0.418831 59.7209 0.279221 58.9767 0.13961 58.279C0 57.0697 0 55.8139 0 54.6046ZM2.69913 59.4418C4.28139 59.7674 5.77056 60.0465 7.25974 60.3256C7.95779 60.4651 8.42316 60.8372 8.56277 61.5349C9.07468 63.7209 9.91234 65.7209 11.0758 67.6279C11.5411 68.3256 11.4946 68.9767 10.9827 69.6279C10.2381 70.6511 9.49351 71.7209 8.84199 72.8372C8.70238 73.0697 8.65584 73.5349 8.79546 73.6744C10.0054 75.0232 11.3084 76.279 12.5649 77.6279C13.961 76.6976 15.171 75.907 16.381 75.0232C17.079 74.5581 17.684 74.5116 18.382 74.9302C20.2435 76.093 22.2446 76.9302 24.3853 77.4418C25.1764 77.6279 25.5487 78.0465 25.6883 78.8837C25.921 80.3721 26.2468 81.8139 26.5725 83.3488C27.6429 83.3953 28.6201 83.4883 29.5974 83.4883C30.5747 83.4883 31.552 83.3953 32.5292 83.3488C32.855 81.7674 33.1342 80.3256 33.4134 78.8372C33.553 78.0465 33.9719 77.6744 34.7165 77.4883C36.9037 76.9767 38.9048 76.1395 40.8128 74.9767C41.4643 74.5581 42.0693 74.6046 42.6742 75.0232C43.7446 75.7674 44.8615 76.5116 45.9318 77.2558C46.3041 77.5349 46.5833 77.5349 46.9556 77.2093C48.0725 76.093 49.1894 74.9302 50.3528 73.8139C50.6786 73.4883 50.632 73.2558 50.3994 72.8837C49.6082 71.7674 48.9102 70.6511 48.1191 69.5349C47.7002 68.9302 47.7002 68.3721 48.0725 67.7674C49.2359 65.8604 50.1201 63.8139 50.632 61.5814C50.8182 60.8372 51.237 60.4651 52.0281 60.3256C53.2846 60.093 54.5411 59.8604 55.8442 59.6279C56.3095 59.5349 56.5887 59.3953 56.5887 58.8372C56.5422 57.2558 56.5887 55.7209 56.5887 54.1395C56.5887 53.6744 56.4026 53.4883 55.9372 53.3953C54.6342 53.1628 53.3777 52.8837 52.0747 52.6511C51.3301 52.5116 50.9113 52.1395 50.7251 51.3953C50.2132 49.2093 49.3755 47.2093 48.2121 45.3023C47.7933 44.6046 47.8398 44 48.3052 43.3488C49.0498 42.279 49.7944 41.2093 50.4924 40.093C50.632 39.9069 50.632 39.4418 50.539 39.3023C49.2825 37.9535 48.026 36.6511 46.7229 35.3023C45.2803 36.279 44.0238 37.1163 42.8139 37.9535C42.2089 38.3721 41.6504 38.4186 41.0455 38.0465C39.0909 36.8372 36.9968 36 34.8095 35.4418C34.1115 35.3023 33.7392 34.8837 33.6461 34.186C33.4134 32.8837 33.1342 31.6279 32.9015 30.3256C32.8084 29.8139 32.6223 29.5349 32.0639 29.5814C30.5747 29.6279 29.039 29.6279 27.5498 29.5814C26.9913 29.5814 26.7587 29.8139 26.6656 30.3256C26.4329 31.5814 26.1537 32.7907 25.9675 34.0465C25.8279 34.8837 25.4091 35.2558 24.618 35.5349C22.6169 36.279 20.6158 37.1162 18.6613 38C17.8701 38.3721 17.2652 38.4186 16.5671 37.9069C15.3571 37.0697 14.1472 36.2325 12.7511 35.3488C11.4946 36.6511 10.2381 37.9535 8.9816 39.2558C8.65584 39.6279 8.74892 39.8604 8.9816 40.186C9.72619 41.2558 10.4708 42.3721 11.2154 43.4418C11.6807 44.093 11.6807 44.6511 11.2619 45.3023C10.0519 47.2093 9.21429 49.2558 8.70238 51.4883C8.56277 52.1395 8.14394 52.5581 7.44589 52.6511C6.09632 52.8837 4.74675 53.1628 3.39719 53.4418C3.1645 53.4883 2.83874 53.8139 2.83874 54.0465C2.6526 55.8139 2.69913 57.5814 2.69913 59.4418Z" fill="white"/>
<path d="M47.2343 0C47.8393 0.139535 48.4908 0.27907 49.0958 0.418605C49.9334 0.55814 50.3988 1.06977 50.3988 1.90698C50.4453 2.65116 50.678 3.2093 51.5157 3.44186C51.7484 3.48837 51.981 3.62791 52.1672 3.81395C53.0049 4.55814 53.8425 4.69767 54.9129 4.18605C55.2386 4.04651 55.9832 4.23256 56.2624 4.51163C58.0774 6.27907 59.2408 8.37209 59.9388 10.8372C60.125 11.5814 59.7527 12.093 59.1942 12.4651C58.5427 12.8837 58.217 13.3488 58.4497 14.1395C58.4962 14.2791 58.4962 14.4651 58.4497 14.6512C58.217 15.8605 58.4031 16.8372 59.5665 17.5814C59.8458 17.7674 59.9388 18.5116 59.8458 18.9302C59.2408 21.2093 58.0774 23.2093 56.4486 24.9302C55.8901 25.5349 55.2852 25.6744 54.5871 25.3023C53.8425 24.8837 53.191 24.9302 52.5395 25.5349C52.4464 25.6279 52.3533 25.6744 52.2603 25.7209C51.1899 26.186 50.3057 26.7442 50.3057 28.1395C50.3057 28.4651 49.7007 28.9767 49.2819 29.0698C46.9551 29.7209 44.5817 29.6744 42.2083 29.1163C41.3707 28.9302 41.0914 28.3256 41.0449 27.5814C41.0449 26.8372 40.7657 26.3721 40.0211 26.1395C39.7884 26.093 39.6023 25.9535 39.4161 25.814C38.5319 25.1163 37.6942 24.7442 36.5308 25.3954C36.2051 25.5814 35.4605 25.3023 35.1347 24.9767C33.4129 23.3023 32.296 21.2558 31.5979 18.9767C31.3652 18.2326 31.5514 17.6279 32.2029 17.2093C32.994 16.7442 33.2733 16.1395 33.0406 15.2558C32.994 15.1163 32.994 14.9302 33.0406 14.7442C33.2267 13.6279 33.0871 12.7442 32.0168 12.1395C31.7375 11.9535 31.5514 11.2093 31.6445 10.8372C32.2494 8.37209 33.5059 6.27907 35.2743 4.51163C35.7397 4.04651 36.2516 4 36.81 4.27907C37.6477 4.74419 38.3923 4.69767 39.0904 4.04651C39.1834 3.95349 39.323 3.86047 39.4626 3.81395C40.4865 3.44186 41.1845 2.83721 41.231 1.5814C41.231 1.2093 41.836 0.744186 42.2549 0.55814C42.8133 0.232558 43.5113 0.139535 44.2094 0C45.1867 0 46.2105 0 47.2343 0ZM57.4259 10.7907C57.3328 10.6977 57.2397 10.6047 57.1932 10.5116C57.1466 10.3721 57.1001 10.186 57.007 10.0465C56.5417 9.2093 56.0297 8.32558 55.5644 7.48837C55.2386 6.88372 54.7733 6.69767 54.1217 7.06977C53.3772 7.48837 52.7256 7.30233 52.0276 6.7907C51.283 6.23256 50.4919 5.72093 49.6542 5.39535C48.6304 5.02326 48.072 4.4186 48.0254 3.34884C48.0254 2.83721 47.7462 2.65116 47.2808 2.65116C46.2105 2.65116 45.1401 2.65116 44.1163 2.65116C43.5114 2.65116 43.2787 2.93023 43.2787 3.53488C43.2787 4.46512 42.8133 4.97674 41.9291 5.34884C41.0914 5.67442 40.3003 6.09302 39.6023 6.65116C38.7181 7.34884 37.9269 7.5814 36.9497 7.02326C36.5308 6.7907 36.2516 6.93023 36.0655 7.30233C35.5536 8.18605 34.9951 9.06977 34.4832 9.95349C34.1575 10.5116 34.2505 10.9302 34.809 11.2558C35.5536 11.7209 35.7862 12.3721 35.6466 13.2558C35.507 14.1395 35.4605 15.1163 35.6001 16C35.7862 17.0698 35.5536 17.8605 34.6228 18.4186C34.2505 18.6512 34.1575 18.9302 34.3901 19.3488C34.902 20.2791 35.4139 21.2093 35.9724 22.093C36.2516 22.6047 36.6239 22.7442 37.1823 22.4186C38.02 21.9535 38.7181 22.1395 39.5092 22.7442C40.2072 23.3023 40.9984 23.7674 41.836 24.093C42.8133 24.4651 43.3717 25.0698 43.3717 26.1395C43.3717 26.6512 43.651 26.8372 44.1163 26.8372C45.1867 26.8372 46.3036 26.8372 47.3739 26.8372C47.8393 26.8372 48.1185 26.6047 48.1185 26.0465C48.1185 25.0233 48.6304 24.4651 49.6542 24.093C50.4453 23.814 51.1899 23.3954 51.8414 22.8372C52.6791 22.093 53.5168 21.907 54.494 22.4651C54.8663 22.6977 55.1921 22.5581 55.3782 22.186C55.8901 21.3023 56.402 20.4651 56.9139 19.5814C57.2862 18.9767 57.2397 18.5116 56.5882 18.1395C55.8436 17.7209 55.704 17.0698 55.7971 16.2791C55.8901 15.3023 55.9367 14.3256 55.7971 13.3488C55.6575 12.3256 55.8436 11.5814 56.7278 11.0698C56.9605 10.9767 57.1932 10.8837 57.4259 10.7907Z" fill="white"/>
<path d="M72.132 52.279C70.6893 52.3255 70.5497 52.279 69.9913 50.9302C69.7586 50.4186 69.4794 50.1395 68.9209 50.0465C68.409 49.9999 67.8506 49.9069 67.3852 49.6744C66.6406 49.3023 66.1287 49.4883 65.5703 50C64.8722 50.6046 64.2207 50.5581 63.4296 50.093C61.5681 48.8837 60.0324 47.3488 58.8225 45.4883C58.3106 44.6976 58.3105 44.0465 58.9155 43.3488C59.4274 42.7906 59.6136 42.2325 59.1947 41.5348C59.1017 41.3488 59.0086 41.1162 59.0086 40.8837C58.9155 39.7209 58.4502 38.9302 57.2867 38.5581C56.961 38.4651 56.6352 37.8139 56.6352 37.4418C56.5421 34.9302 57.2402 32.6046 58.4502 30.372C58.9155 29.5813 59.6601 29.6279 60.3582 29.7674C60.9631 29.9069 61.382 29.7674 61.7077 29.2558C61.8008 29.0697 61.987 28.8837 62.1731 28.7441C63.1038 27.9999 63.8484 27.2558 63.4296 25.8604C63.3365 25.5813 63.7554 24.9767 64.1277 24.7441C66.2218 23.4883 68.5486 22.9302 71.0151 22.8372C71.7131 22.8372 72.2251 23.1162 72.4112 23.8139C72.6904 24.7441 73.2023 25.2093 74.1796 25.2093C74.2727 25.2093 74.4123 25.2558 74.5054 25.3023C75.5757 25.8139 76.5064 25.8139 77.4372 24.9302C77.6699 24.6976 78.461 24.7441 78.8333 24.9767C80.974 26.186 82.6493 27.9069 83.9058 29.9999C84.2781 30.6046 84.2315 31.2093 83.7662 31.6744C83.1147 32.3255 82.9751 33.0232 83.4404 33.8604C83.487 34 83.5335 34.1395 83.5335 34.279C83.6731 35.3953 84.0454 36.2325 85.2554 36.6046C85.5811 36.6976 85.9534 37.4418 85.9534 37.8604C85.9534 40.279 85.3484 42.5581 84.1385 44.6976C83.7196 45.4418 83.1147 45.6279 82.3701 45.4418C81.672 45.2558 81.1136 45.3953 80.7413 46.0465C80.6482 46.2325 80.4621 46.4186 80.2759 46.5581C79.2986 47.2093 78.8333 48.0465 79.1125 49.3023C79.2521 49.9534 78.7402 50.3255 78.2283 50.6046C76.3668 51.5813 74.3192 52.186 72.132 52.279ZM64.2673 47.7674C64.6396 47.5348 64.8257 47.4418 64.9188 47.3023C65.7099 46.5581 66.501 46.5581 67.4318 46.9767C68.2229 47.3488 69.0606 47.5813 69.9447 47.6279C70.9686 47.7209 71.6201 48.093 71.8993 49.1162C72.0389 49.6744 72.4112 49.8139 72.9231 49.6744C73.9004 49.4418 74.8776 49.1627 75.8084 48.8837C76.3668 48.7441 76.646 48.4651 76.4599 47.8139C76.1807 46.8837 76.5995 46.2325 77.3906 45.6744C78.0887 45.1627 78.7402 44.5581 79.2521 43.8604C79.8571 42.9767 80.5551 42.5116 81.6255 42.7906C82.1374 42.9302 82.4166 42.6976 82.5562 42.2325C82.8354 41.2558 83.0681 40.279 83.3473 39.3488C83.5335 38.6976 83.3473 38.372 82.6958 38.186C81.8582 37.9534 81.4859 37.3488 81.3463 36.4651C81.2067 35.5813 81.0205 34.6046 80.6482 33.8139C80.1828 32.7906 80.2294 31.9999 80.974 31.2093C81.1136 31.0232 81.2067 30.6046 81.067 30.4651C80.2759 29.3023 79.2986 28.3255 78.0887 27.5813C77.9025 27.7209 77.7629 27.7674 77.6233 27.9069C76.8322 28.6511 75.9945 28.6976 75.0173 28.2325C74.3192 27.9069 73.4815 27.6744 72.6904 27.5813C71.6201 27.4883 70.8755 27.1162 70.5497 26.0465C70.4101 25.5813 70.1774 25.3953 69.6655 25.5348C68.6883 25.8139 67.6644 26.0465 66.6872 26.279C65.9891 26.4651 65.803 26.8837 65.9891 27.5348C66.2218 28.3255 65.896 28.8837 65.2445 29.3953C64.4999 30 63.7554 30.6046 63.1969 31.3953C62.5454 32.279 61.8008 32.6511 60.777 32.4186C60.2651 32.279 60.0324 32.5116 59.9393 32.9302C59.6601 33.9069 59.3809 34.9302 59.1017 35.9069C58.9155 36.5116 59.1017 36.8372 59.7067 37.0232C60.6374 37.3023 61.0097 37.9069 61.1028 38.8837C61.1958 39.7209 61.382 40.6046 61.7543 41.3953C62.2196 42.4186 62.1731 43.2558 61.4285 44.093C61.2889 44.2325 61.2424 44.7441 61.382 44.8837C62.4058 45.8139 63.3831 46.7906 64.2673 47.7674Z" fill="white"/>
<path d="M29.5983 45.7673C35.5085 45.7673 40.3018 50.6045 40.2553 56.465C40.2087 62.372 35.4154 67.1627 29.5518 67.1162C23.6882 67.1162 18.8483 62.2324 18.8949 56.372C18.8949 50.558 23.7347 45.7673 29.5983 45.7673ZM29.5518 48.3255C25.0377 48.3255 21.3613 52.0464 21.4079 56.5115C21.4544 60.9766 25.1308 64.6045 29.5518 64.6511C34.0193 64.6511 37.7423 60.9766 37.7423 56.465C37.7423 51.9534 34.0659 48.279 29.5518 48.3255Z" fill="white"/>
<path d="M47.048 56C46.7222 63.3023 43.7904 68.5582 37.7406 71.7675C31.7839 74.9302 25.7807 74.5116 20.0566 70.9768C19.824 70.8372 19.5913 70.6512 19.4051 70.4651C18.9398 70 18.8467 69.3954 19.2655 68.8837C19.6378 68.3256 20.1963 68.1861 20.8012 68.4651C20.9874 68.5581 21.1735 68.6977 21.3597 68.8372C30.1551 74.6047 41.7428 69.9535 44.1162 59.7209C45.0469 55.6279 44.3023 51.7675 42.022 48.2326C41.8359 47.9535 41.6497 47.7209 41.5566 47.4419C41.3705 46.7907 41.5566 46.2791 42.2082 45.9535C42.8597 45.6279 43.4181 45.8605 43.8369 46.4186C45.0004 48.0465 45.8846 49.814 46.3499 51.7675C46.6757 53.3488 46.8618 54.9302 47.048 56Z" fill="white"/>
<path d="M14.6587 56.6976C14.7052 59.3953 15.4963 62.093 17.0786 64.5581C17.2182 64.7442 17.3578 64.9302 17.4509 65.1162C17.8232 65.7674 17.6836 66.4186 17.1251 66.8372C16.5667 67.2558 15.729 67.1628 15.3567 66.5116C14.4725 64.9302 13.5418 63.3953 12.9833 61.7209C10.703 54.7442 13.123 47.1162 18.9866 42.6511C24.7572 38.2325 32.7149 37.9069 38.9043 41.8139C39.1836 42 39.5093 42.1395 39.742 42.3721C40.2074 42.8372 40.347 43.3953 39.9747 43.9535C39.6024 44.5581 38.9974 44.6976 38.3459 44.4186C38.0667 44.3256 37.834 44.093 37.5548 43.9069C32.6219 40.9302 27.5494 40.6976 22.4769 43.3488C17.637 45.9069 14.6121 51.0232 14.6587 56.6976Z" fill="white"/>
<path d="M39.0918 14.7443C39.0918 10.6047 42.8613 7.44195 46.91 8.18614C47.9338 8.37218 48.4457 8.93032 48.3061 9.72102C48.1665 10.5117 47.515 10.8373 46.4911 10.6513C44.3039 10.2792 42.2098 11.628 41.6979 13.7675C41.186 16.0001 42.5821 18.1861 44.7693 18.6978C47.5615 19.3954 50.1676 16.9768 49.7953 14.1396C49.7953 14.0001 49.7487 13.8606 49.7487 13.721C49.6556 12.7908 50.0279 12.1861 50.7725 12.0931C51.4706 12.0001 52.029 12.4652 52.2152 13.3024C53.0528 16.9768 50.4002 20.7443 46.6308 21.2559C42.6751 21.8606 39.1383 18.7908 39.0918 14.7443Z" fill="white"/>
<path d="M70.8751 44.2326C68.6413 44.1396 66.5937 42.9768 65.3837 40.5582C64.1738 38.1396 64.4064 35.7675 66.0352 33.628C67.7105 31.4419 69.9443 30.6512 72.6435 31.1164C73.5277 31.2559 74.0396 31.9071 73.8999 32.6047C73.7603 33.3954 73.1088 33.721 72.085 33.5815C69.2463 33.1629 67.059 35.1164 67.1986 37.9071C67.2917 40.1861 69.3393 41.9071 71.7593 41.721C73.993 41.535 75.7149 39.3489 75.4357 37.1164C75.4357 37.0233 75.3891 36.8838 75.3426 36.7908C75.203 35.814 75.5753 35.2094 76.3199 35.0699C77.0644 34.9303 77.6229 35.3954 77.809 36.3257C78.6467 40.3722 75.5287 44.2326 70.8751 44.2326Z" fill="white"/>
</g>
<defs>
<clipPath id="clip0_1537_4111">
<rect width="86" height="86" fill="white"/>
</clipPath>
</defs>
</svg>
