<svg width="76" height="81" viewBox="0 0 76 81" fill="none" xmlns="http://www.w3.org/2000/svg">
<g clip-path="url(#clip0_1537_4160)">
<path d="M36.903 81.0001C36.3764 80.8253 35.806 80.6942 35.2794 80.4758C33.1293 79.602 31.6374 78.1166 30.8476 75.8884C30.7159 75.4952 30.5843 75.2768 30.0577 75.1894C28.4781 75.0146 27.6005 73.9661 27.5566 72.3496C27.5566 71.2574 27.5127 70.2088 27.5566 69.1166C27.5566 68.6797 27.4249 68.5049 26.9861 68.3302C25.5381 67.7185 24.0901 67.1069 22.642 66.4078C22.2471 66.2331 21.9838 66.2331 21.6767 66.5826C21.2379 67.0632 20.7991 67.5001 20.3164 67.937C18.6051 69.5098 16.1917 69.5098 14.5242 67.8933C12.1986 65.6214 9.91686 63.3496 7.67898 61.0777C6.01155 59.3739 6.01155 56.9709 7.67898 55.2671C8.24942 54.6991 8.81986 54.1748 9.25866 53.7379C8.38106 51.4661 7.50346 49.2816 6.66975 47.0972C6.58199 46.9224 6.27483 46.7476 6.09931 46.7476C5.39723 46.7039 4.73903 46.7476 4.03695 46.7039C1.79908 46.6603 0.0877598 44.9127 0.0438799 42.6845C0 39.4078 0 36.1311 0 32.8981C0 30.6263 1.7552 28.9224 4.03695 28.835C4.73903 28.7913 5.39723 28.8787 6.09931 28.7913C6.31871 28.7913 6.58199 28.5729 6.66975 28.3981C7.10854 27.3059 7.4157 26.2137 7.8545 25.1214C8.2933 24.0729 8.81986 23.0243 9.3903 21.8447C8.86374 21.3641 8.24942 20.8399 7.67898 20.2719C6.01155 18.5243 6.01155 16.1214 7.72286 14.4175C9.96074 12.1894 12.1547 9.96123 14.3926 7.77676C16.2356 5.94181 18.649 5.9855 20.5358 7.82045C21.0624 8.30103 21.5012 8.869 21.8961 9.2622C24.2217 8.34472 26.4157 7.51463 28.6097 6.64084C28.7852 6.55346 28.9607 6.20395 28.9607 5.9855C29.0485 5.1554 28.9607 4.28162 29.0924 3.45152C29.3557 1.57288 30.9792 0.0437533 32.9099 0.0437533C36.2887 6.39977e-05 39.7113 6.39977e-05 43.134 0.0437533C45.2841 0.0874426 46.9076 1.83502 46.9954 4.10686C47.0393 4.93696 46.776 5.94181 47.1709 6.46608C47.5658 6.99036 48.6628 7.03404 49.4088 7.33987C50.9007 7.95152 52.3487 8.60686 54.06 9.34958C54.455 8.91269 54.9376 8.34472 55.4642 7.82045C57.351 5.9855 59.7206 5.9855 61.6074 7.82045C63.8014 10.0049 65.9954 12.1457 68.1894 14.3739C70.0323 16.2088 70.0323 18.6117 68.1894 20.4904C67.7067 21.0146 67.1801 21.4952 66.6097 22.0195C67.0485 22.8933 67.4873 23.7234 67.8383 24.5972C68.3649 25.8205 68.8037 27.0438 69.2425 28.3107C69.3741 28.7476 69.5935 28.9224 70.0762 28.9224C70.9538 28.9224 71.8753 28.8787 72.7529 29.0535C74.6397 29.403 75.9561 30.9758 76 32.8981C76 33.5535 76 34.2088 76 34.8641C75.9561 35.6069 75.5173 36.0874 74.8152 36.0874C74.157 36.0874 73.6744 35.6069 73.6305 34.8641C73.5866 34.2525 73.6305 33.6408 73.6305 33.0292C73.5866 31.937 72.9284 31.2816 71.8314 31.2379C70.7783 31.1942 69.7691 31.2379 68.7159 31.2379C67.97 31.2379 67.5312 30.8884 67.3557 30.1894C66.6536 27.4806 65.6005 24.9467 64.1524 22.5438C63.8014 21.9321 63.8891 21.4078 64.3718 20.8836C65.0739 20.1845 65.8199 19.4855 66.5219 18.7428C67.3995 17.869 67.3995 16.9078 66.5219 16.034C64.3279 13.8059 62.0901 11.6214 59.8961 9.43696C59.0185 8.56317 58.097 8.56317 57.1755 9.43696C56.4734 10.136 55.7714 10.7913 55.1132 11.4904C54.5866 12.0583 54.0162 12.102 53.3141 11.7088C50.9446 10.3107 48.4434 9.30589 45.8106 8.60686C45.0208 8.38841 44.6697 7.95152 44.6697 7.12142C44.7136 6.16026 44.6697 5.24278 44.6697 4.28162C44.6259 2.97094 43.9677 2.3156 42.6952 2.3156C39.5797 2.3156 36.5081 2.3156 33.3926 2.3156C32.1201 2.3156 31.418 2.97094 31.418 4.23793C31.418 5.19909 31.3741 6.11657 31.418 7.07773C31.4619 7.90783 31.067 8.34472 30.321 8.56317C27.6443 9.21851 25.1432 10.2671 22.8176 11.6651C22.1155 12.0583 21.545 11.9709 20.9746 11.403C20.3164 10.7039 19.6143 10.0049 18.9122 9.34958C18.0346 8.51948 17.1132 8.51948 16.2356 9.34958C13.9977 11.534 11.8037 13.7185 9.6097 15.9467C8.68822 16.8641 8.7321 17.7816 9.65358 18.6991C10.3118 19.3544 10.97 20.0098 11.6282 20.6651C12.2425 21.2331 12.3303 21.8447 11.8915 22.5874C10.5312 24.903 9.47806 27.3933 8.77598 30.0146C8.55658 30.8447 8.0739 31.1942 7.24018 31.1506C6.31871 31.1069 5.39723 31.1506 4.47575 31.1506C3.15935 31.1506 2.50115 31.8059 2.50115 33.0729C2.50115 36.1748 2.50115 39.2331 2.50115 42.335C2.50115 43.6457 3.15935 44.2573 4.47575 44.2573C5.44111 44.2573 6.36259 44.2573 7.32795 44.2573C8.0739 44.2573 8.60046 44.5632 8.77598 45.3059C9.47806 48.0146 10.5312 50.5486 11.9792 52.9515C12.3303 53.5632 12.2425 54.0874 11.7598 54.6117C11.0577 55.3107 10.3118 56.0098 9.6097 56.7525C8.7321 57.6263 8.7321 58.5875 9.6097 59.4612C11.8037 61.6894 14.0416 63.8739 16.2356 66.0583C17.1132 66.9321 18.0346 66.8884 18.9561 66.0583C19.6582 65.403 20.3603 64.704 21.0185 64.0049C21.545 63.437 22.1155 63.3933 22.8176 63.7428C24.3533 64.5292 25.933 65.2719 27.6005 66.102C27.6882 64.0049 27.2494 61.9078 29.8383 61.1214C29.6189 60.8593 29.3995 60.5972 29.224 60.3787C26.1524 56.8836 22.9931 53.3884 20.4919 49.4127C18.4734 46.1797 16.8938 42.7282 16.4111 38.8836C15.5774 32.5486 17.552 27.0001 21.7206 22.1942C22.2471 21.5826 22.9492 21.5389 23.4758 22.0195C24.0023 22.5001 24.0023 23.1554 23.4319 23.8544C21.4134 26.2137 19.9215 28.835 19.1316 31.8496C17.903 36.6117 18.7367 41.1554 20.9307 45.4806C22.9492 49.4564 25.7575 52.8205 28.6536 56.1845C29.97 57.67 31.2425 59.1554 32.5589 60.6408C32.7344 60.8156 32.9099 60.9904 33.261 61.2962C33.3049 60.8156 33.3487 60.5098 33.3487 60.2476C33.3487 57.3641 33.3487 54.4806 33.3487 51.6408C33.3487 51.0729 33.2171 50.7671 32.6028 50.5486C27.2494 48.3641 25.4065 41.3739 29.0485 36.9612C29.97 35.8253 31.1109 34.9515 32.6467 34.8205C34.3141 34.6457 35.5866 35.6506 35.6305 37.3544C35.7182 39.801 35.6744 42.2476 35.6744 44.6942C35.6744 46.136 35.6744 47.534 35.6744 49.1069C37.2102 49.1069 38.7021 49.1069 40.3256 49.1069C40.3256 48.7137 40.3256 48.4078 40.3256 48.102C40.3256 44.8253 40.3256 41.5486 40.3256 38.3156C40.3256 37.8787 40.3256 37.3981 40.4134 36.9612C40.7206 35.301 42.3441 34.3836 44.0554 34.9515C46.6882 35.8253 48.0046 37.8787 48.6189 40.4127C49.6282 44.7816 47.3903 48.8884 43.3095 50.6797C43.0462 50.7671 42.739 51.1166 42.739 51.3787C42.6952 54.5243 42.6952 57.67 42.739 60.7719C42.739 60.8593 42.7829 60.9904 42.8268 61.1651C43.0023 61.0777 43.2217 61.034 43.3095 60.903C46.9076 56.7088 50.7691 52.7331 53.709 48.0583C55.6836 44.9564 57.1316 41.636 57.4388 37.9224C57.9215 31.5001 55.4642 26.301 50.7691 22.0632C46.9515 18.6117 42.4757 16.7768 37.254 16.9952C33.8753 17.1263 30.8476 18.2185 27.9954 20.0098C27.8199 20.1408 27.6443 20.2719 27.4688 20.3593C26.8106 20.7088 26.1524 20.5777 25.8014 20.0098C25.4503 19.4418 25.582 18.7865 26.1963 18.3496C28.9607 16.4709 31.9885 15.2476 35.3233 14.7671C46.9076 13.1069 58.3603 22.2816 59.7206 34.1651C60.291 39.102 58.8868 43.6457 56.4734 47.9272C54.1039 52.0777 50.9885 55.6603 47.873 59.2428C47.3464 59.8544 46.8199 60.4661 46.2055 61.1214C48.8383 61.9078 48.4434 64.0049 48.4434 66.102C50.0231 65.3593 51.4711 64.6603 52.8753 63.9175C54.1478 63.2622 54.3233 63.2622 55.3326 64.2671C55.9469 64.8787 56.5612 65.4904 57.1755 66.102C57.9654 66.8447 58.9307 66.8884 59.7206 66.102C62.0023 63.8739 64.2841 61.602 66.5219 59.3302C67.2679 58.5438 67.2679 57.5826 66.5219 56.7962C65.8199 56.0535 65.1178 55.3544 64.3718 54.6554C63.8014 54.0874 63.7136 53.5195 64.1086 52.8205C65.4688 50.5049 66.5219 48.0146 67.224 45.3933C67.4434 44.6069 67.9261 44.2137 68.7598 44.2137C69.7252 44.2573 70.7344 44.2137 71.6998 44.2137C72.8845 44.2137 73.4988 43.5583 73.5427 42.3787C73.5427 41.7234 73.5427 41.068 73.5427 40.4127C73.5866 39.6263 74.0693 39.102 74.7714 39.1457C75.4734 39.1457 75.9122 39.6263 75.9561 40.4564C75.9561 41.1991 75.9561 41.9418 75.9561 42.6845C75.8684 44.8253 74.2009 46.5292 72.0508 46.6166C71.1732 46.6603 70.0762 46.3544 69.5058 46.7913C68.9353 47.2282 68.8915 48.3641 68.5404 49.1506C67.9261 50.5923 67.2679 51.9904 66.6097 53.5632C67.0924 54.0001 67.6189 54.5243 68.1455 55.0486C69.9446 56.8836 69.9446 59.2865 68.1455 61.0777C65.9515 63.3059 63.7136 65.4904 61.5196 67.6748C59.7206 69.4661 57.2633 69.4661 55.4203 67.6748C54.8938 67.1506 54.4111 66.3642 53.7968 66.2331C53.2263 66.102 52.5243 66.7574 51.9099 67.0632C50.9446 67.5001 49.9792 67.8933 48.97 68.2428C48.5312 68.4175 48.3995 68.5923 48.3995 69.0292C48.4434 70.0777 48.3995 71.1263 48.3995 72.1748C48.3995 73.8787 47.5219 74.8399 45.8106 75.1457C45.5912 75.1894 45.2402 75.4078 45.1963 75.6263C44.1871 78.4224 42.2564 80.1263 39.3164 80.7379C39.2286 80.7379 39.1409 80.8253 39.0531 80.869C38.3949 81.0001 37.649 81.0001 36.903 81.0001ZM37.9561 72.8739C40.3256 72.8739 42.6513 72.8302 45.0208 72.8739C45.8106 72.8739 46.0739 72.6991 46.0739 71.869C46.03 69.3787 46.03 66.9321 46.0739 64.4418C46.0739 63.6991 45.8984 63.437 45.1085 63.437C40.3695 63.4807 35.6305 63.4807 30.8915 63.437C30.1894 63.437 29.9261 63.6117 29.9261 64.3544C29.97 66.8884 29.97 69.4224 29.9261 71.9564C29.9261 72.7428 30.2333 72.8739 30.8915 72.8739C33.261 72.8739 35.6305 72.8739 37.9561 72.8739ZM35.7621 61.034C37.2979 61.034 38.7898 61.034 40.3256 61.034C40.3256 57.801 40.3256 54.6554 40.3256 51.5098C38.7898 51.5098 37.2979 51.5098 35.7621 51.5098C35.7621 54.6991 35.7621 57.8447 35.7621 61.034ZM42.7829 48.2768C43.1778 48.0583 43.485 47.9272 43.7921 47.7088C45.8106 46.3107 46.9076 43.4709 46.3372 40.9806C45.9861 39.4515 45.2841 38.1845 43.8799 37.3544C43.0462 36.8739 42.739 37.0486 42.739 38.0098C42.739 41.2428 42.739 44.4321 42.739 47.6651C42.6952 47.8399 42.739 48.0146 42.7829 48.2768ZM33.2171 37.2234C31.6374 37.0923 30.0577 38.8836 29.6189 41.1991C29.0924 44.0826 30.8037 47.4467 33.2171 48.1457C33.2171 44.5195 33.2171 40.8496 33.2171 37.2234ZM42.739 75.3205C39.5797 75.3205 36.4203 75.3205 33.261 75.3205C33.612 77.1117 35.8499 78.6408 38.0439 78.6408C40.2379 78.6408 42.388 77.068 42.739 75.3205Z" fill="white"/>
</g>
<defs>
<clipPath id="clip0_1537_4160">
<rect width="76" height="81" fill="white"/>
</clipPath>
</defs>
</svg>
