<svg width="76" height="76" viewBox="0 0 76 76" fill="none" xmlns="http://www.w3.org/2000/svg">
<g clip-path="url(#clip0_1537_4103)">
<path d="M76.0008 8.60372C76.0008 9.152 76.0008 9.70028 76.0008 10.2486C75.579 11.5138 74.6934 12.3995 73.8077 13.3274C71.3615 15.7735 68.9153 18.2197 66.4692 20.6659C66.1318 21.0033 66.0474 21.2563 66.3005 21.7203C67.8609 24.3351 68.9997 27.1609 69.7167 30.1132C69.8432 30.6193 70.0119 30.8723 70.5602 30.9145C71.3193 30.9988 72.0785 31.2097 72.8376 31.2941C74.3981 31.4628 75.4947 32.2219 76.043 33.7402C76.043 36.6082 76.043 39.4761 76.043 42.344C75.4947 43.8201 74.4403 44.5793 72.922 44.748C72.1207 44.8324 71.3193 45.0432 70.518 45.1276C70.0962 45.1698 69.8854 45.3385 69.7588 45.8024C68.9575 49.0499 67.6922 52.1287 65.9631 54.9966C65.8365 55.2075 65.8787 55.6292 66.0052 55.7979C66.5535 56.6415 67.1861 57.4428 67.7344 58.2863C68.7045 59.7202 68.5779 61.1964 67.3127 62.4617C65.71 64.0643 64.1495 65.667 62.5469 67.2275C61.1972 68.5349 59.7633 68.6614 58.2028 67.607C57.4015 67.0588 56.6423 66.4683 55.841 65.9622C55.6301 65.8357 55.2083 65.7935 54.9975 65.92C52.0874 67.6492 49.0086 68.9145 45.7189 69.758C45.508 69.8002 45.2128 70.1376 45.1706 70.3906C44.9597 71.1919 44.8332 72.0355 44.7489 72.879C44.5802 74.4395 43.821 75.4938 42.3449 75.9999C39.4769 75.9999 36.609 75.9999 33.7411 75.9999C32.2649 75.4517 31.5058 74.3973 31.3371 72.8368C31.2527 72.0355 31.0419 71.2341 30.9575 70.4328C30.9153 70.011 30.7466 69.8002 30.2827 69.6736C27.0352 68.8723 23.9564 67.607 21.0885 65.8779C20.8776 65.7513 20.4558 65.7935 20.2871 65.92C19.4436 66.4683 18.6423 67.1009 17.7988 67.6492C16.3227 68.6192 14.8887 68.4927 13.6234 67.2275C12.0208 65.6248 10.4181 64.0643 8.85762 62.4617C7.55018 61.1542 7.42366 59.6781 8.43587 58.2019C8.98415 57.4006 9.53242 56.6414 10.1229 55.8401C10.3759 55.5449 10.4181 55.2918 10.2072 54.9123C8.43587 52.0443 7.1706 48.9655 6.36927 45.718C6.24275 45.2541 6.03187 45.1276 5.61012 45.0854C4.68226 44.9589 3.7544 44.7902 2.82654 44.6215C1.05518 44.3262 0.0851441 43.1453 0.0429688 41.3318C0.0429688 39.0965 0.0429688 36.819 0.0429688 34.5837C0.0429688 32.7702 1.05518 31.5893 2.86872 31.2941C3.79658 31.1254 4.72443 30.9567 5.65229 30.8301C6.07405 30.788 6.24275 30.5771 6.3271 30.1975C7.12843 26.95 8.39369 23.8712 10.1651 21.0033C10.3759 20.6237 10.3338 20.4128 10.0807 20.0754C9.44807 19.3584 8.85762 18.5571 8.30934 17.7136C7.33931 16.2375 7.46583 14.8035 8.68892 13.5382C10.2916 11.9356 11.8521 10.3329 13.4547 8.77242C14.8043 7.46498 16.2383 7.29628 17.7988 8.39284C18.6001 8.94112 19.3593 9.53158 20.1606 10.0377C20.3715 10.1642 20.7932 10.2064 20.9619 10.0799C23.872 8.35067 26.9508 7.0854 30.2405 6.2419C30.4514 6.19972 30.7466 5.86232 30.7888 5.60927C30.9997 4.68141 31.1262 3.71138 31.2949 2.74134C31.6323 1.01215 32.8132 -5.5782e-05 34.6268 -5.5782e-05C36.8621 -5.5782e-05 39.1395 -5.5782e-05 41.3748 -5.5782e-05C43.1884 -5.5782e-05 44.3693 0.969977 44.6645 2.74134C44.8332 3.62702 45.0019 4.55488 45.0863 5.44057C45.1284 5.98884 45.3815 6.19972 45.8876 6.32625C48.882 7.04323 51.6656 8.18196 54.3227 9.74245C54.7866 9.9955 55.0396 9.95333 55.377 9.57375C58.0763 6.83235 60.7755 4.13313 63.5169 1.43391C65.457 -0.50616 67.7766 -0.463985 69.7167 1.43391C71.1085 2.82569 72.5002 4.25966 73.9342 5.60927C74.7777 6.49495 75.6212 7.42281 76.0008 8.60372ZM63.7699 23.3229C61.619 25.4739 59.5102 27.5826 57.4436 29.6914C57.3171 29.8601 57.3171 30.2819 57.4015 30.5349C58.498 33.4028 59.0041 36.3551 58.7511 39.3917C57.8654 50.9056 47.4481 60.6059 34.6268 58.4972C23.5768 56.6836 15.3105 46.0976 17.5879 34.0776C19.9076 21.5937 33.6567 13.8335 45.5502 18.6836C45.9719 18.8523 46.225 18.768 46.478 18.4728C47.9964 16.9544 49.5147 15.4361 51.033 13.9178C51.5813 13.3695 52.1295 12.8634 52.6778 12.3151C52.4248 12.1886 52.2982 12.1043 52.1717 12.0199C49.5568 10.586 46.7733 9.57375 43.8632 8.9833C42.851 8.77242 42.5557 8.43502 42.387 7.42281C42.3449 7.16976 42.3027 6.87453 42.2605 6.62148C42.0496 5.44057 41.8388 4.25966 41.6701 3.07875C39.1395 3.07875 36.7355 3.07875 34.2894 3.07875C34.0363 4.55488 33.7833 5.98885 33.5302 7.42281C33.3615 8.39284 33.0241 8.77242 32.0962 8.94112C28.3426 9.70028 24.8843 11.1342 21.6789 13.243C20.6667 13.9178 20.2871 13.8756 19.3171 13.2008C18.1362 12.3573 16.9975 11.556 15.8587 10.7547C14.0874 12.526 12.4003 14.213 10.629 15.9844C11.3881 17.081 12.2316 18.2197 13.033 19.3584C13.75 20.3706 13.7921 20.7502 13.1173 21.7624C11.0507 24.9256 9.61678 28.384 8.85762 32.0954C8.64674 33.1076 8.30934 33.4028 7.29713 33.6137C5.86317 33.8668 4.38703 34.1198 2.95307 34.3729C2.95307 36.9034 2.95307 39.3074 2.95307 41.7535C4.38703 42.0066 5.82099 42.2597 7.21278 42.4705C8.18281 42.5971 8.68892 43.1032 8.85762 44.0732C9.61678 47.7425 11.0086 51.1587 13.0752 54.2796C13.7921 55.3762 13.75 55.7136 13.033 56.768C12.2316 57.9067 11.3881 59.0454 10.629 60.142C12.4003 61.9134 14.0874 63.6004 15.8587 65.3717C16.9553 64.6126 18.094 63.7691 19.2328 62.9678C20.2871 62.2086 20.6245 62.2086 21.7211 62.9256C24.8843 64.9922 28.3005 66.384 32.0119 67.1431C33.0241 67.354 33.3193 67.6914 33.5302 68.7036C33.7833 70.1376 34.0363 71.6137 34.2894 73.0477C36.7777 73.0477 39.2239 73.0477 41.6701 73.0477C41.9231 71.5715 42.1762 70.1376 42.4292 68.7036C42.5979 67.6914 42.9353 67.354 43.9475 67.1431C47.7011 66.384 51.1595 64.95 54.3648 62.8412C55.2927 62.2086 55.7144 62.2508 56.6423 62.9256C57.8232 63.7691 58.9619 64.5704 60.1007 65.3717C61.872 63.6004 63.5591 61.9134 65.3304 60.142C64.5291 59.0033 63.6856 57.8224 62.8421 56.6415C62.2094 55.7558 62.2094 55.334 62.7999 54.4062C64.9087 51.2008 66.3426 47.7003 67.1018 43.9045C67.3127 42.9766 67.6501 42.6392 68.6201 42.4705C70.0541 42.2175 71.5302 41.9644 72.9642 41.7114C72.9642 39.223 72.9642 36.819 72.9642 34.3307C71.5302 34.0776 70.0962 33.8668 68.7045 33.6137C67.5657 33.4028 67.2705 33.1498 67.0596 32.0532C66.427 28.9744 65.3726 26.1065 63.7699 23.3229ZM47.5324 36.2708C48.5025 42.5127 43.6523 47.4894 38.4225 47.6581C32.9819 47.8268 28.4692 43.6514 28.3426 38.3373C28.2583 35.6803 29.1018 33.3607 30.9575 31.4628C33.3615 28.9744 36.2716 28.0044 39.73 28.5105C40.1939 27.1609 40.7422 25.8534 41.1218 24.5038C41.5014 23.0277 42.8931 22.3951 43.6945 21.2141C36.6934 18.5149 27.71 21.2141 22.9442 28.5105C18.4314 35.4272 19.6545 45.2963 25.7699 51.0321C31.8854 56.768 41.9653 57.2741 48.7977 52.2552C55.5036 47.3207 57.1062 37.7891 54.7866 32.2219C54.3648 32.6437 53.9431 33.0654 53.6057 33.4872C52.973 34.2463 52.1717 34.7103 51.2017 35.0055C49.9364 35.4272 48.7555 35.849 47.5324 36.2708ZM38.6756 31.4206C36.2294 30.9567 33.4037 32.4328 32.0962 34.8368C30.7466 37.3673 31.2106 40.6148 33.1928 42.6814C35.2172 44.748 38.5069 45.2541 41.1218 43.9045C43.4836 42.6814 45.0019 39.8557 44.538 37.3251C44.2849 37.4095 44.074 37.4517 43.821 37.536C42.0496 38.1265 40.2783 38.7591 38.5069 39.3496C37.8743 39.5604 37.326 39.4761 36.8621 39.0121C36.4403 38.5482 36.356 38.0421 36.5668 37.4517C36.8199 36.7769 37.0729 36.0599 37.2838 35.3429C37.7899 34.0355 38.2538 32.7702 38.6756 31.4206ZM69.7167 13.2008C70.6867 12.2308 71.6567 11.2608 72.6268 10.2907C73.175 9.74245 73.175 9.19417 72.6268 8.64589C70.8554 6.87453 69.1262 5.10316 67.3548 3.37397C66.8909 2.91004 66.3005 2.86787 65.8365 3.3318C64.8243 4.30183 63.8121 5.35621 62.8421 6.32625C65.1617 8.56154 67.397 10.839 69.7167 13.2008ZM56.2627 12.8634C53.2261 15.9001 50.1895 19.021 47.0685 22.0155C46.3937 22.6481 46.0985 23.2807 46.478 24.1243C46.6046 24.4195 46.8154 24.8834 47.0685 24.9256C47.7433 25.0521 48.3759 25.6004 49.0929 24.8412C52.1295 21.7624 55.2083 18.7258 58.245 15.647C58.4137 15.4783 58.5402 15.3096 58.6667 15.1831C57.8654 14.4239 57.0641 13.6648 56.2627 12.8634ZM60.8177 17.3762C60.7755 17.4184 60.6911 17.4184 60.649 17.4605C57.4436 20.6659 54.1961 23.8712 50.9908 27.1187C50.8643 27.2452 50.7378 27.4983 50.7378 27.667C50.7799 29.0166 51.0752 29.354 52.3826 29.607C52.6778 29.6914 53.1418 29.6914 53.3105 29.4805C56.6001 26.233 59.8898 22.9433 63.1373 19.6958C62.3782 18.9367 61.619 18.1775 60.8177 17.3762ZM67.4814 15.394C65.1617 13.0743 62.9264 10.7968 60.6911 8.56154C60.0163 9.23635 59.2572 9.95333 58.6667 10.5438C60.9442 12.8213 63.2217 15.0987 65.4991 17.3762C66.0896 16.7436 66.8066 16.0688 67.4814 15.394ZM43.9053 26.0221C43.8632 26.0221 43.7788 26.0643 43.7366 26.0643C43.3992 27.0765 43.0197 28.0887 42.6823 29.1431C42.6401 29.2696 42.7244 29.5649 42.8088 29.6492C44.4114 30.5771 45.6345 31.8845 46.5624 33.5294C47.7433 33.1076 48.882 32.728 50.1895 32.2641C48.8399 31.8423 48.5446 31.6736 48.4181 30.4506C48.2072 28.7635 47.4903 27.7935 45.7189 27.7092C44.7067 27.6248 43.9897 27.1187 43.9053 26.0221ZM41.8388 32.2219C41.7122 32.3063 41.6279 32.3906 41.5014 32.4328C41.1639 33.4028 40.8265 34.415 40.4048 35.5538C41.5857 35.132 42.5979 34.7946 43.5679 34.4572C43.6101 34.3729 43.6945 34.2463 43.7366 34.162C43.1462 33.5294 42.4714 32.8967 41.8388 32.2219Z" fill="white"/>
</g>
<defs>
<clipPath id="clip0_1537_4103">
<rect width="76" height="76" fill="white"/>
</clipPath>
</defs>
</svg>
