<svg xmlns="http://www.w3.org/2000/svg" xmlns:xlink="http://www.w3.org/1999/xlink" width="2182" height="521" viewBox="0 0 2182 521">
  <defs>
    <clipPath id="clip-path">
      <rect id="Rectangle_5" data-name="Rectangle 5" width="2182" height="521" transform="translate(0 449)" fill="#fff"/>
    </clipPath>
    <clipPath id="clip-path-2">
      <rect id="Rectangle_1" data-name="Rectangle 1" width="4012.1" height="238.218" transform="translate(-1164.57 244) rotate(1.547)" fill="#fff"/>
    </clipPath>
    <clipPath id="clip-path-3">
      <rect id="Rectangle_3" data-name="Rectangle 3" width="712" height="511" transform="translate(32 13)" fill="#fff"/>
    </clipPath>
    <clipPath id="clip-path-4">
      <rect id="Rectangle_2" data-name="Rectangle 2" width="71" height="25.952" transform="translate(593 21)" fill="#fff"/>
    </clipPath>
    <clipPath id="clip-path-5">
      <rect id="Rectangle_4" data-name="Rectangle 4" width="100" height="50" transform="translate(713)" fill="#fff"/>
    </clipPath>
  </defs>
  <g id="mono_bg_img_1" transform="translate(0 -449)" clip-path="url(#clip-path)">
    <g id="mono_bg_img_1-2" data-name="mono_bg_img_1" transform="translate(193.002 460)">
      <g id="Group_1" data-name="Group 1" clip-path="url(#clip-path-2)">
        <path id="Path_1" data-name="Path 1" d="M1169,496s-21.5-7-37.74-11.692c-32.53-9.395-56.26-18.808-96.57-30.321-44.458-12.7-62.152-20.052-94.623-26.86-71-14.626-146.853-14.607-218.7-5.368C582.308,439.48,352,472.5,310.5,481s-146,23-146,23" fill="none" stroke="#09559f" stroke-miterlimit="10" stroke-width="1"/>
        <path id="Path_2" data-name="Path 2" d="M-1170.86,477.119C-779.1,485.4-390.829,499.716,0,504c430.635,1.179,823.5-.5,1254-.5,0,0-259.087-22.376-445.493-48.8-93.99-13.325-126-17.3-239.887-39.293s-166.38-28.12-239.887-7.948S183.632,446.6,109.894,467.6l-10.446-.282c-29.473,7.566-58.72,6.776-87.911,3.9-72.949-8.241-145.616-26.927-218.621-33.08-43.814-3.274-85.6-4.4-129.58-1.409-85.878,6.042-167.8,20.552-251.763,32.918-169.555,7.962-339.053,13.837-508.383,13.444C-1121.88,482.414-1144.86,481.793-1170.86,477.119Zm0,0C-1167.94,477.2-1165.66,478.1-1170.86,477.119Z" fill="none" stroke="#09559f" stroke-miterlimit="10" stroke-width="1"/>
        <path id="Path_3" data-name="Path 3" d="M1233,503.5c14.1,0,16.45-.638,26.25-.761,138.36-1.737,244.5-37.406,347.88-72.241,86.56-31.109,161.99-28.132,265.2,11.343,61.87,23.66,83.62,61.73,103.66,62.9" fill="none" stroke="#09559f" stroke-miterlimit="10" stroke-width="1"/>
      </g>
      <path id="Path_4" data-name="Path 4" d="M741.5,164.5C920.833,213.167,1314.8,289.6,1526,280s363.33-40.667,394-58" fill="none" stroke="#0b56a0" stroke-width="1"/>
      <path id="Path_5" data-name="Path 5" d="M604,158c179.333,48.667,588.8,129.6,800,120s475.33-91.667,506-109" fill="none" stroke="#0b56a0" stroke-width="1"/>
      <g id="Group_4" data-name="Group 4" clip-path="url(#clip-path-3)">
        <path id="Path_6" data-name="Path 6" d="M122.218,496.426h33.007v9.613H122.847Z" fill="#1356a0"/>
        <path id="Path_7" data-name="Path 7" d="M128.19,16.537l-.314,67.291-.314,71.716-.629,82.855-1.572,259.857L152.4,497.8l-7.544-260.315-2.672-83.16-3.929-138.4S134.006,10.739,128.19,16.537Z" fill="none" stroke="#1356a0" stroke-miterlimit="10" stroke-width="1"/>
        <path id="Path_8" data-name="Path 8" d="M127.091,238.553l-3.458-1.221-.315,11.139,3.3-.3Z" fill="none" stroke="#1356a0" stroke-miterlimit="10" stroke-width="1"/>
        <path id="Path_9" data-name="Path 9" d="M123,239.926l-77.173-1.069v3.052l77.487,4.578.157-6.714Z" fill="none" stroke="#1356a0" stroke-miterlimit="10" stroke-width="1"/>
        <path id="Path_10" data-name="Path 10" d="M145.166,238.4h4.4l-.785,11.139-3.458-.763Z" fill="none" stroke="#1356a0" stroke-miterlimit="10" stroke-width="1"/>
        <path id="Path_11" data-name="Path 11" d="M149.409,240.384l74.972,2.136-.157,3.2-75.286,1.526" fill="none" stroke="#1356a0" stroke-miterlimit="10" stroke-width="1"/>
        <path id="Path_12" data-name="Path 12" d="M142.337,156.155l3.929-.61v1.831l-.472,8.7-3.3-.457Z" fill="none" stroke="#1356a0" stroke-miterlimit="10" stroke-width="1"/>
        <path id="Path_13" data-name="Path 13" d="M216.523,159.97l-70.257-2.594-.314,6.714,70.256-1.526A6.169,6.169,0,0,0,216.523,159.97Z" fill="none" stroke="#1356a0" stroke-miterlimit="10" stroke-width="1"/>
        <path id="Path_14" data-name="Path 14" d="M140.607,93.289l2.515.763.943-10.376-3.929.61Z" fill="none" stroke="#1356a0" stroke-miterlimit="10" stroke-width="1"/>
        <path id="Path_15" data-name="Path 15" d="M143.908,85.813v.305a21.633,21.633,0,0,1-.472,5.493.786.786,0,0,1-.314.61l66.328-.61.314-2.746Z" fill="none" stroke="#1356a0" stroke-miterlimit="10" stroke-width="1"/>
        <path id="Path_16" data-name="Path 16" d="M121.747,160.886a6.093,6.093,0,0,0-.157-1.679v-.457c0-.306-.158-.458-.158-.763a1.578,1.578,0,0,1,.158-1.221l-69.629-1.984.157,2.747,69.629,6.561Z" fill="none" stroke="#1356a0" stroke-miterlimit="10" stroke-width="1"/>
        <path id="Path_17" data-name="Path 17" d="M124.733,84.9l-66.8-.305v2.289l66.8,4.578Z" fill="none" stroke="#1356a0" stroke-miterlimit="10" stroke-width="1"/>
        <path id="Path_18" data-name="Path 18" d="M127.876,18.216l-1.886-.61v4.73l2.043-.458Z" fill="#1356a0"/>
        <path id="Path_19" data-name="Path 19" d="M125.676,18.674,98.8,15.47v1.373l26.877,4.425Z" fill="none" stroke="#1356a0" stroke-miterlimit="10" stroke-width="1"/>
        <path id="Path_20" data-name="Path 20" d="M138.25,18.521l2.672-.305-.158,4.73-2.357-.763Z" fill="#1356a0"/>
        <path id="Path_21" data-name="Path 21" d="M140.922,19.131l27.191-.763v1.373l-27.348,2.136Z" fill="none" stroke="#1356a0" stroke-miterlimit="10" stroke-width="1"/>
        <path id="Path_22" data-name="Path 22" d="M133.535,13.943l7.7,483.4,11.317.458L138.25,15.927A5.515,5.515,0,0,0,133.535,13.943Z" fill="#1356a0"/>
        <path id="Path_23" data-name="Path 23" d="M390.986,497.588h29.392v8.7H391.615Z" fill="#1356a0"/>
        <path id="Path_24" data-name="Path 24" d="M396.487,58.074l-.314,61.681-.314,65.634-.472,75.915L393.973,499.17l23.89-.475-6.758-238.34-2.358-76.073L405.289,57.6S401.517,52.855,396.487,58.074Z" fill="none" stroke="#1356a0" stroke-miterlimit="10" stroke-width="1"/>
        <path id="Path_25" data-name="Path 25" d="M395.387,261.3l-3.143-1.107-.157,10.28,2.829-.316Z" fill="none" stroke="#1356a0" stroke-miterlimit="10" stroke-width="1"/>
        <path id="Path_26" data-name="Path 26" d="M391.772,262.569l-68.214-.949v2.847l68.529,4.27.157-6.326Z" fill="none" stroke="#1356a0" stroke-miterlimit="10" stroke-width="1"/>
        <path id="Path_27" data-name="Path 27" d="M411.262,261.3l4.086-.158-.786,10.28-3.143-.791Z" fill="none" stroke="#1356a0" stroke-miterlimit="10" stroke-width="1"/>
        <path id="Path_28" data-name="Path 28" d="M415.034,263.044l66.328,2.056-.158,2.847L414.72,269.37" fill="none" stroke="#1356a0" stroke-miterlimit="10" stroke-width="1"/>
        <path id="Path_29" data-name="Path 29" d="M408.9,185.864l3.458-.474v1.739l-.314,7.908-2.987-.474Z" fill="none" stroke="#1356a0" stroke-miterlimit="10" stroke-width="1"/>
        <path id="Path_30" data-name="Path 30" d="M474.446,189.5l-62.084-2.372L412.2,193.3l62.084-1.423S474.446,189.976,474.446,189.5Z" fill="none" stroke="#1356a0" stroke-miterlimit="10" stroke-width="1"/>
        <path id="Path_31" data-name="Path 31" d="M407.332,128.295l2.2.791.786-9.489-3.458.632Z" fill="none" stroke="#1356a0" stroke-miterlimit="10" stroke-width="1"/>
        <path id="Path_32" data-name="Path 32" d="M410.162,121.5v.316a18.41,18.41,0,0,1-.472,5.061c0,.159-.157.317-.314.475L468,126.714l.314-2.53Z" fill="none" stroke="#1356a0" stroke-miterlimit="10" stroke-width="1"/>
        <path id="Path_33" data-name="Path 33" d="M390.672,190.292a4.407,4.407,0,0,0-.157-1.423v-.475c0-.316-.157-.474-.157-.79a1.306,1.306,0,0,1,.157-1.108l-61.455-1.9.157,2.53,61.455,6.01Z" fill="none" stroke="#1356a0" stroke-miterlimit="10" stroke-width="1"/>
        <path id="Path_34" data-name="Path 34" d="M393.344,120.7l-58.941-.316v2.056l58.941,4.27Z" fill="none" stroke="#1356a0" stroke-miterlimit="10" stroke-width="1"/>
        <path id="Path_35" data-name="Path 35" d="M396.173,59.656l-1.886-.475v4.27l2.043-.474Z" fill="#1356a0"/>
        <path id="Path_36" data-name="Path 36" d="M394.13,59.972,370.4,57.125V58.39l23.734,3.954Z" fill="none" stroke="#1356a0" stroke-miterlimit="10" stroke-width="1"/>
        <path id="Path_37" data-name="Path 37" d="M405.289,59.814l2.358-.316-.157,4.428-2.044-.633Z" fill="#1356a0"/>
        <path id="Path_38" data-name="Path 38" d="M407.49,60.447l24.2-.791-.157,1.265L407.49,62.978Z" fill="none" stroke="#1356a0" stroke-miterlimit="10" stroke-width="1"/>
        <path id="Path_39" data-name="Path 39" d="M401.045,55.7,407.8,498.379l10.059.316L405.289,57.442C405.289,57.6,403.717,55.386,401.045,55.7Z" fill="#1356a0"/>
        <path id="Path_40" data-name="Path 40" d="M665.57,498.043h25.148v8H666.041Z" fill="#1356a0"/>
        <path id="Path_41" data-name="Path 41" d="M670.285,100.1l-.157,55.8-.158,59.468L669.5,284.16l-1.1,215.382,20.59-.5-6.13-215.715-2.044-68.962-2.986-114.6S674.686,95.43,670.285,100.1Z" fill="none" stroke="#1356a0" stroke-miterlimit="10" stroke-width="1"/>
        <path id="Path_42" data-name="Path 42" d="M669.342,284.161l-2.672-1-.157,9.328,2.515-.333Z" fill="none" stroke="#1356a0" stroke-miterlimit="10" stroke-width="1"/>
        <path id="Path_43" data-name="Path 43" d="M666.2,285.326l-58.626-.833v2.5l58.941,3.831.157-5.664Z" fill="none" stroke="#1356a0" stroke-miterlimit="10" stroke-width="1"/>
        <path id="Path_44" data-name="Path 44" d="M683.016,284.161l3.458-.167-.629,9.328-2.672-.666Z" fill="none" stroke="#1356a0" stroke-miterlimit="10" stroke-width="1"/>
        <path id="Path_45" data-name="Path 45" d="M686.317,285.826l56.9,1.666-.157,2.665-57.212,1.333" fill="none" stroke="#1356a0" stroke-miterlimit="10" stroke-width="1"/>
        <path id="Path_46" data-name="Path 46" d="M680.973,215.864l2.986-.333v1.5l-.314,7.163-2.515-.5Z" fill="none" stroke="#1356a0" stroke-miterlimit="10" stroke-width="1"/>
        <path id="Path_47" data-name="Path 47" d="M737.241,219.03l-53.282-2.166-.157,5.664,53.439-1.333C737.084,221.2,737.4,219.529,737.241,219.03Z" fill="none" stroke="#1356a0" stroke-miterlimit="10" stroke-width="1"/>
        <path id="Path_48" data-name="Path 48" d="M679.558,163.726l2.044.667.628-8.5-2.986.5Z" fill="none" stroke="#1356a0" stroke-miterlimit="10" stroke-width="1"/>
        <path id="Path_49" data-name="Path 49" d="M682.073,157.563v.334a21.682,21.682,0,0,1-.314,4.5c0,.167-.157.333-.314.5l50.453-.5.157-2.332Z" fill="none" stroke="#1356a0" stroke-miterlimit="10" stroke-width="1"/>
        <path id="Path_50" data-name="Path 50" d="M665.255,219.862a3.878,3.878,0,0,0-.157-1.332V218.2c0-.167-.157-.5-.157-.667a1.156,1.156,0,0,1,.157-1l-52.81-1.666.157,2.332,52.81,5.331Z" fill="none" stroke="#1356a0" stroke-miterlimit="10" stroke-width="1"/>
        <path id="Path_51" data-name="Path 51" d="M667.613,156.9l-50.767-.334V158.4l50.767,4Z" fill="none" stroke="#1356a0" stroke-miterlimit="10" stroke-width="1"/>
        <path id="Path_52" data-name="Path 52" d="M669.97,101.593l-1.571-.5v3.831l1.729-.333Z" fill="#1356a0"/>
        <path id="Path_53" data-name="Path 53" d="M668.242,101.927l-20.433-2.665.157,1.166,20.276,3.664Z" fill="none" stroke="#1356a0" stroke-miterlimit="10" stroke-width="1"/>
        <path id="Path_54" data-name="Path 54" d="M677.829,101.76l2.044-.166-.158,3.831-1.729-.5Z" fill="#1356a0"/>
        <path id="Path_55" data-name="Path 55" d="M679.873,102.26l20.589-.666v1.166l-20.747,1.832Z" fill="none" stroke="#1356a0" stroke-miterlimit="10" stroke-width="1"/>
        <path id="Path_56" data-name="Path 56" d="M674.214,98.1l5.816,400.78,8.644.333L677.829,99.762A3.829,3.829,0,0,0,674.214,98.1Z" fill="#1356a0"/>
        <path id="Path_57" data-name="Path 57" d="M669.342,208.48l-5.03-.474,1.1,11.071,3.615-1.107Z" fill="none" stroke="#1356a0" stroke-miterlimit="10" stroke-width="1"/>
        <path id="Path_58" data-name="Path 58" d="M390.2,187.287l-.314,10.439,5.187-.791.314-13.6-5.815-1.424Z" fill="none" stroke="#1356a0" stroke-miterlimit="10" stroke-width="1"/>
        <path id="Path_59" data-name="Path 59" d="M120.8,158.661l.786,15.816,5.03-1.74.314-13.76Z" fill="none" stroke="#1356a0" stroke-miterlimit="10" stroke-width="1"/>
        <path id="Path_60" data-name="Path 60" d="M392.872,116.592l.786,13.6,2.2-1.107-.472-12.178Z" fill="none" stroke="#1356a0" stroke-miterlimit="10" stroke-width="1"/>
        <path id="Path_61" data-name="Path 61" d="M124.1,84.486l.314,12.178,2.987-.316.471-9.964Z" fill="none" stroke="#1356a0" stroke-miterlimit="10" stroke-width="1"/>
        <path id="Path_62" data-name="Path 62" d="M406.389,155.815c8.645,2.688,17.29,5.377,26.091,7.749s17.447,4.587,26.406,6.327a324.5,324.5,0,0,0,53.753,6.8,211.117,211.117,0,0,0,53.754-4.27A177.911,177.911,0,0,0,617,153.6a151.74,151.74,0,0,1-24.362,12.019,165.487,165.487,0,0,1-26.091,7.908,214.4,214.4,0,0,1-54.068,4.587A327.031,327.031,0,0,1,458.571,171,394.761,394.761,0,0,1,406.389,155.815Z" fill="#1356a0"/>
        <path id="Path_63" data-name="Path 63" d="M138.407,129.086a368.112,368.112,0,0,0,48.724,11.071,326.965,326.965,0,0,0,49.667,3.954,248.127,248.127,0,0,0,49.51-5.061A206.591,206.591,0,0,0,333.3,122.918l.315-.158.314.158c10.059,5.061,19.8,10.754,29.706,15.974,5.03,2.53,10.059,5.061,15.089,7.275a35.928,35.928,0,0,0,8.016,2.372,27.521,27.521,0,0,1,7.858,2.847c-4.872-3.005-10.845-2.531-16.031-4.9-5.187-2.056-10.374-4.586-15.4-6.959-10.059-5.061-19.961-10.6-30.02-15.5h.472a200.351,200.351,0,0,1-47.31,16.606,239.933,239.933,0,0,1-49.824,5.061,293.191,293.191,0,0,1-49.824-4.428A371.692,371.692,0,0,1,138.407,129.086Z" fill="#1356a0"/>
        <path id="Path_64" data-name="Path 64" d="M57.934,89.547c5.5,3.163,11,6.484,16.5,9.489,5.5,3.163,11.159,6.168,16.818,9.015,5.658,3,11.316,5.694,17.132,8.382,2.829,1.424,5.815,2.689,8.644,3.954l8.645,3.954c-2.986-.949-5.973-2.056-8.959-3.163s-5.973-2.372-8.8-3.638c-5.815-2.53-11.631-5.219-17.289-8.066-5.658-3-11.159-6.009-16.66-9.331S63.121,93.343,57.934,89.547Z" fill="#1356a0"/>
        <path id="Path_65" data-name="Path 65" d="M680.816,184.124c4.558-1.581,8.959-3.163,13.36-4.9s8.8-3.637,13.045-5.693,8.488-4.27,12.574-6.643c2.043-1.265,4.087-2.372,6.13-3.795l2.986-1.9a33.689,33.689,0,0,0,2.987-2.056c-1.729,1.581-3.615,3.005-5.5,4.586-1.886,1.424-3.929,2.847-5.815,4.112a107.853,107.853,0,0,1-12.574,7.117,140.075,140.075,0,0,1-13.36,5.536A136.889,136.889,0,0,1,680.816,184.124Z" fill="#1356a0"/>
        <path id="Path_66" data-name="Path 66" d="M730,165c260,65.333,860,160,1180,16" fill="none" stroke="#0b56a0" stroke-width="1"/>
        <path id="Path_67" data-name="Path 67" d="M406.389,155.023c11.16-2.53,21.848-6.958,32.064-12.019s20.118-10.913,29.863-16.923l.157-.158h.157a8.2,8.2,0,0,1,2.672.316,7.949,7.949,0,0,1,2.515,1.424,232.171,232.171,0,0,0,43.538,28.468,362.956,362.956,0,0,0,48.1,19.927c8.33,2.531,16.66,4.745,25.148,6.8a236.028,236.028,0,0,0,25.619,4.9c17.132,2.372,34.736,2.688,51.868-1.107-16.975,3.953-34.736,4.27-52.025,2.056s-34.264-6.485-51.082-11.388c-16.5-5.535-32.849-11.861-48.409-19.927a230.523,230.523,0,0,1-43.695-28.943,7.88,7.88,0,0,0-1.886-1.265,12.077,12.077,0,0,0-2.358-.316l.315-.158a310.89,310.89,0,0,1-30.178,16.606A130.039,130.039,0,0,1,406.389,155.023Z" fill="#1356a0"/>
        <path id="Path_68" data-name="Path 68" d="M209.45,94.45l10.373,6.959,10.531,6.8,10.688,6.484,10.845,6.168A335.462,335.462,0,0,0,297,142.055a253.339,253.339,0,0,0,47.938,13.127,193.522,193.522,0,0,0,49.667,1.74l-12.416,1.107-12.417.316-12.417-.633-12.417-1.423a231.1,231.1,0,0,1-48.252-12.811,337.187,337.187,0,0,1-45.109-21.509A378.762,378.762,0,0,1,209.45,94.45Z" fill="#1356a0"/>
        <path id="Path_69" data-name="Path 69" d="M230.668,109l-1.414,1.9a1.57,1.57,0,0,1-2.358.316L208.821,98.087a1.591,1.591,0,0,1-.314-2.372l1.414-1.9a1.57,1.57,0,0,1,2.358-.316l18.075,13.127A1.607,1.607,0,0,1,230.668,109Z" fill="#1356a0"/>
        <path id="Path_70" data-name="Path 70" d="M80.253,104.572l-1.415,1.9a1.569,1.569,0,0,1-2.358.316L58.405,93.66a1.591,1.591,0,0,1-.314-2.372l1.415-1.9a1.57,1.57,0,0,1,2.358-.316L79.938,102.2A1.925,1.925,0,0,1,80.253,104.572Z" fill="#1356a0"/>
        <path id="Path_71" data-name="Path 71" d="M488.12,139.683l-1.415,1.9a1.569,1.569,0,0,1-2.357.317L466.273,128.77a1.592,1.592,0,0,1-.314-2.373l1.414-1.9a1.57,1.57,0,0,1,2.358-.317l18.075,13.127A1.592,1.592,0,0,1,488.12,139.683Z" fill="#1356a0"/>
        <path id="Path_72" data-name="Path 72" d="M731.426,157.554l1.415,1.9a1.608,1.608,0,0,1-.315,2.372L715.08,175.9a1.586,1.586,0,0,1-2.358-.316l-1.414-1.9a1.607,1.607,0,0,1,.314-2.372l17.446-14.076A1.718,1.718,0,0,1,731.426,157.554Z" fill="#1356a0"/>
        <path id="Path_73" data-name="Path 73" d="M615.9,152.493l.943,2.214a1.621,1.621,0,0,1-.786,2.214l-20.118,9.648a1.6,1.6,0,0,1-2.2-.791l-.943-2.214a1.621,1.621,0,0,1,.786-2.214L613.7,151.7A1.683,1.683,0,0,1,615.9,152.493Z" fill="#1356a0"/>
        <path id="Path_74" data-name="Path 74" d="M355.308,135.887l-1.415,1.9a1.57,1.57,0,0,1-2.357.316L333.46,124.974a1.592,1.592,0,0,1-.314-2.372l1.415-1.9a1.569,1.569,0,0,1,2.357-.317l18.075,13.127A1.953,1.953,0,0,1,355.308,135.887Z" fill="#1356a0"/>
        <g id="Group_3" data-name="Group 3" clip-path="url(#clip-path-4)">
          <g id="Group_2" data-name="Group 2" opacity="0.4">
            <path id="Path_75" data-name="Path 75" d="M625.971,42.31c1.4,1.75,4.1,2.131,6.541,2.359,7.414.609,14.916.989,22.242-.152,2.53-.381,5.757-.533,7.676-2.207,2.093-1.9,1.047-4.11-1.221-5.48.436,1.75-1.047,3.577-2.966,4.338a15.065,15.065,0,0,1-6.1.609,5.266,5.266,0,0,0,2.791-3.2A13.361,13.361,0,0,1,640.8,40.1a6.125,6.125,0,0,1-3.4,2.359A14.864,14.864,0,0,1,625.971,42.31Z" fill="#2b6eb5"/>
            <path id="Path_76" data-name="Path 76" d="M593.7,41.7a3.909,3.909,0,0,0,1.308,1.294c3.751,2.588,8.723,3.044,13.52,3.349a39.016,39.016,0,0,0,9.42-.152,14.584,14.584,0,0,0,8.112-3.881A9.59,9.59,0,0,1,621,38.124c.436,1.522-.7,3.12-2.268,3.881a10.946,10.946,0,0,1-5.233.837c-3.577-.076-7.414-.913-9.857-3.273a8.353,8.353,0,0,0,5.321,4.262,19.848,19.848,0,0,0,7.327.685,7.664,7.664,0,0,1-2.966.761A36.776,36.776,0,0,1,593.7,41.7Z" fill="#2b6eb5"/>
            <path id="Path_77" data-name="Path 77" d="M661.3,36.83a6.747,6.747,0,0,0-5.669-.457,10.349,10.349,0,0,0-3.141-8.3c-2.355-2.131-6.541-2.892-9.332-1.142a13.51,13.51,0,0,0-11.863-5.556c-4.71.3-9.158,3.044-10.99,6.926-7.763-2.055-15.875,2.359-18.317,8.9a12.934,12.934,0,0,0-5.931.3c-1.832.685-3.14,2.664-2.268,4.262a3.918,3.918,0,0,0,1.308,1.294c3.751,2.588,8.723,3.044,13.52,3.349a39.016,39.016,0,0,0,9.42-.152,14.584,14.584,0,0,0,8.112-3.881c1.4,1.75,4.1,2.131,6.542,2.359,7.414.609,14.915.989,22.242-.152,2.529-.381,5.757-.533,7.675-2.207C664.523,40.407,663.477,38.2,661.3,36.83Z" fill="none" stroke="#09559f" stroke-miterlimit="10" stroke-width="1"/>
          </g>
        </g>
      </g>
      <g id="Group_6" data-name="Group 6" clip-path="url(#clip-path-5)">
        <g id="Group_5" data-name="Group 5" opacity="0.4">
          <path id="Path_78" data-name="Path 78" d="M742.633,34.615c-9-4.983-9.79-19.231-.35-24.038.7-.35,1.661-.874,2.535-1.224-4.72,2.273-7.168,7.78-7.255,13.024,0,2.71.437,5.594,2.185,7.692a9.571,9.571,0,0,0,6.556,2.972,20.654,20.654,0,0,0,7.255-1.136C750.85,34.44,746.042,36.45,742.633,34.615Z" fill="#2b6eb5"/>
          <path id="Path_79" data-name="Path 79" d="M783.717,39.072a6.382,6.382,0,0,0-7.867-9.44c1.835-.35,3.671,1.4,4.021,3.234a7.471,7.471,0,0,1-1.486,5.332,6.009,6.009,0,0,1-1.661,1.661,5.942,5.942,0,0,1-3.5.525c-2.71-.175-5.856-.874-7.08-3.322-.262,1.836,1.049,3.671,2.71,4.633a11.761,11.761,0,0,0,5.507,1.136,18.428,18.428,0,0,0,5.332-.524A8.541,8.541,0,0,0,783.717,39.072Z" fill="#2b6eb5"/>
          <path id="Path_80" data-name="Path 80" d="M811.951,44.754a2.505,2.505,0,0,1,.088,3.147,3.266,3.266,0,0,1-2.011.874,54.558,54.558,0,0,1-8.479.612c-13.2.087-26.4.087-39.6.175a9.973,9.973,0,0,1-3.933-.525,3.2,3.2,0,0,1-2.011-3.147c2.1,1.486,4.633,1.748,7.168,1.836a36.767,36.767,0,0,0,9.266-.612,14.518,14.518,0,0,0,7.867-4.633,5.683,5.683,0,0,1-2.448,5.245c8.916-1.136,18.007-.087,27.011-.262C807.406,47.464,810.99,47.114,811.951,44.754Z" fill="#2b6eb5"/>
          <path id="Path_81" data-name="Path 81" d="M756.007,45.891a12.777,12.777,0,0,1-6.643,2.972,8.2,8.2,0,0,1-6.731-2.273,58.56,58.56,0,0,1-23.689,1.4,9.409,9.409,0,0,1-3.759-1.136,3.3,3.3,0,0,1-1.66-3.322c1.048,2.01,3.846,2.447,6.118,2.71a26.357,26.357,0,0,0,7.868-.524,5.519,5.519,0,0,1-3.147-1.836,34.338,34.338,0,0,0,21.328-1.748,3.3,3.3,0,0,0,1.661,3.322,5.788,5.788,0,0,0,3.846.437,9.876,9.876,0,0,0,7.78-9.266C759.591,39.684,758.542,43.88,756.007,45.891Z" fill="#2b6eb5"/>
          <path id="Path_82" data-name="Path 82" d="M742.633,34.615c-9-4.982-9.79-19.231-.35-24.038a14.518,14.518,0,0,1,4.2-1.661c.7-.087,4.983.437,4.9,1.4.175-3.234,2.623-6.031,5.42-7.692,7.08-4.2,17.22-2.01,22.028,4.72,4.72,6.731,3.409,17.045-2.972,22.29a6.382,6.382,0,0,1,7.867,9.441,7.75,7.75,0,0,1,10.14,2.535,27.337,27.337,0,0,1,15.209,1.224,6.474,6.474,0,0,1,2.885,1.923,2.5,2.5,0,0,1,.087,3.147,3.261,3.261,0,0,1-2.01.874,54.545,54.545,0,0,1-8.479.612c-13.2.087-26.4.087-39.6.175a9.973,9.973,0,0,1-3.933-.525,3.2,3.2,0,0,1-2.011-3.147,12.777,12.777,0,0,1-6.643,2.972,8.2,8.2,0,0,1-6.731-2.273,58.562,58.562,0,0,1-23.689,1.4,9.411,9.411,0,0,1-3.759-1.136,3.3,3.3,0,0,1-1.66-3.322,3.616,3.616,0,0,1,2.8-2.535,9.958,9.958,0,0,1,3.933.175c-.524-2.535,1.049-5.157,3.147-6.556a14.407,14.407,0,0,1,7.343-1.923A36.808,36.808,0,0,1,742.633,34.615Z" fill="none" stroke="#09559f" stroke-miterlimit="10" stroke-width="1"/>
        </g>
      </g>
    </g>
  </g>
</svg>
