<svg width="216" height="216" viewBox="0 0 216 216" fill="none" xmlns="http://www.w3.org/2000/svg">
<circle cx="108" cy="108" r="108" fill="white"/>
<g clip-path="url(#clip0_1880_5374)">
<path d="M106.45 185.304H105.707L109.297 33.5394L110.04 33.6633L109.916 43.0789L106.45 185.304Z" fill="#0B53A1"/>
<path d="M82.313 184.685L81.5703 184.561L97.5387 119.643L104.347 43.4506H105.09L98.2814 119.767L82.313 184.685Z" fill="#0B53A1"/>
<path d="M137.524 184.809L121.803 120.014L115.242 40.9728H115.861L122.546 119.89L138.266 184.685L137.524 184.809Z" fill="#0B53A1"/>
<path d="M128.363 145.04L107.32 144.668H91.7227V144.049H107.32L128.363 144.297V145.04Z" fill="#0B53A1"/>
<path d="M107.069 144.668L106.822 144.049L125.39 136.244L106.574 127.572L121.305 120.51L107.069 113.324L120.438 107.873L107.812 93.8736L118.581 87.5552L108.555 75.7857L116.972 68.2285L108.555 62.1579L115.611 54.6006L108.802 51.9989L115.115 45.6806L109.298 44.07V43.4506L116.23 45.3089L110.04 51.7512L116.848 54.229L109.669 62.034L118.21 68.2285L109.298 75.9096L119.695 87.6791L108.926 93.9975L121.552 108.121L108.802 113.448L122.543 120.51L108.307 127.572L126.38 136.244L107.069 144.668Z" fill="#0B53A1"/>
<path d="M127.742 144.421L106.574 135.501L122.79 128.439L106.574 119.395L120.562 114.439L107.441 106.758L119.448 94.8648L107.936 86.1925L118.086 75.0424L107.812 66.9896L116.353 57.574L108.555 56.2112L115.239 48.2823L109.174 45.8045L115.363 41.3445L115.487 41.84L110.164 45.6806L116.477 48.0345L109.916 55.7157L117.22 57.2023L108.926 66.8657L118.829 75.0424L109.05 86.0686L120.314 94.7409L108.555 106.634L122.171 114.563L108.307 119.643L124.399 128.563L108.307 135.501L128.113 143.801L127.742 144.421Z" fill="#0B53A1"/>
<path d="M91.9675 144.792L91.8438 144.173L106.45 136.12L95.6811 128.315L107.317 120.014L98.033 114.315L107.441 106.882L99.1471 102.67L107.812 93.9975L100.385 87.3075L107.936 79.5024L101.499 74.423L108.06 67.8568L102.613 63.3968L108.679 56.5829L103.603 52.6184L108.679 48.0345L103.975 43.9461L109.298 42.3356L109.545 42.955L105.46 44.1939L109.669 48.0345L104.346 52.6184L109.793 56.2112L103.356 63.3968L109.174 67.7329L102.366 74.423L109.05 79.3786L101.375 87.3075L108.926 93.8736L100.385 102.422L108.679 106.758L99.2709 114.315L108.679 119.89L96.919 128.315L107.565 136.12L91.9675 144.792Z" fill="#0B53A1"/>
<path d="M106.574 144.297L93.4531 136.368L106.698 128.191L97.6618 121.129L107.317 113.324L98.6521 108.121L107.317 101.183L99.89 94.1214L108.307 86.4403L100.88 81.7325L108.06 73.4319L101.994 69.0957L108.555 62.1579L103.232 57.8218L108.926 51.8751L103.975 48.2823L108.307 42.5834L108.803 43.0789L104.965 48.1584L110.04 51.7512L104.346 57.6979L109.669 62.1579L103.108 68.9719L109.05 73.308L101.375 81.6086L109.545 86.5642L100.756 94.1214L108.431 101.183L99.89 107.997L108.555 113.324L98.7759 121.129L107.936 128.191L94.691 136.368L106.946 143.677L106.574 144.297Z" fill="#0B53A1"/>
<path d="M111.653 35.776L110.91 35.7908L113.883 184.304L114.625 184.29L111.653 35.776Z" fill="#0B53A1"/>
<path d="M82.4353 183.817L81.8164 183.446L96.6707 159.907L89.8625 151.111L104.222 143.925L104.469 144.668L90.729 151.358L97.5372 159.659L82.4353 183.817Z" fill="#0B53A1"/>
<path d="M113.754 185.18L101.004 160.278L82.9314 183.694L82.3125 183.198L101.128 158.916L114.373 184.809L113.754 185.18Z" fill="#0B53A1"/>
<path d="M88.2274 158.864L88.2227 159.607L132.043 159.887L132.048 159.143L88.2274 158.864Z" fill="#0B53A1"/>
<path d="M104.841 185.552L97.4141 159.04L118.334 144.173L118.953 144.545L98.2806 159.287L105.46 185.304L104.841 185.552Z" fill="#0B53A1"/>
<path d="M101.254 159.907L100.883 159.287L112.766 152.721L103.73 144.916L104.225 144.421L113.385 152.226L120.441 144.173L130.344 151.854L121.06 159.783L113.509 153.217L101.254 159.907ZM113.88 152.721L121.06 158.916L129.725 152.102L120.565 145.04L113.88 152.721Z" fill="#0B53A1"/>
<path d="M100.756 159.411L89.8633 151.111L89.9871 150.615L101.623 159.04L100.756 159.411Z" fill="#0B53A1"/>
<path d="M106.946 185.428L106.203 185.18L119.572 159.783L113.878 156.686L106.822 152.226L98.5284 144.916L91.7202 150.739L91.4727 150.243L98.5284 144.049L107.193 151.73L114.249 156.066L120.562 159.535L106.946 185.428Z" fill="#0B53A1"/>
<path d="M120.347 159.412L119.738 159.839L137.566 185.306L138.175 184.88L120.347 159.412Z" fill="#0B53A1"/>
<path d="M136.038 178.242L132.943 177.251L134.428 174.774H130.22L133.438 170.437L126.877 169.942L132.2 165.73L123.535 165.11L130.962 159.907L125.516 155.818L126.135 155.323L132.076 159.907L125.144 164.986H133.438L127.991 169.57L134.552 170.066L131.581 174.154H135.419L134.057 176.88L136.038 177.499V178.242Z" fill="#0B53A1"/>
<path d="M85.6573 177.375L84.1719 174.402L88.0092 173.906L85.2859 169.57L90.1136 170.19L86.4 165.11L92.7131 164.862L87.5141 160.402L93.0844 155.075L93.5796 155.571L88.3806 160.526L93.9509 165.234L87.5141 165.482L91.8466 171.181L86.0287 170.066L89.3709 174.526L85.1622 174.774L86.2762 177.127L85.6573 177.375Z" fill="#0B53A1"/>
<path d="M114.498 185.428L113.879 185.18L122.296 159.287L137.522 183.446L136.903 183.817L122.42 160.526L114.498 185.428Z" fill="#0B53A1"/>
<path d="M101.87 174.774L105.955 169.57L112.268 165.606L99.3945 165.358L112.516 155.323L112.887 155.942L100.385 165.11H114.744L106.45 170.066L102.861 174.278L108.183 174.154L113.63 169.199L117.839 174.526L112.268 174.774H101.87ZM113.506 170.19L109.297 174.154L112.268 174.03L116.477 173.782L113.506 170.19Z" fill="#0B53A1"/>
<path d="M100.512 169.942L106.206 165.11L106.701 165.606L101.873 169.818H117.718L112.148 165.11H119.698L113.509 160.031L104.225 165.11L103.854 164.491L113.633 159.163L120.813 165.482H114.128L119.203 170.437L100.512 169.942Z" fill="#0B53A1"/>
<path d="M80.3328 183.941H83.9226L84.1702 187.658L79.2188 187.534L80.3328 183.941Z" fill="#0B53A1"/>
<path d="M104.1 185.056L107.566 185.18L107.813 188.773H103.109" fill="#0B53A1"/>
<path d="M112.643 184.561L111.652 187.658L115.985 187.41L115.366 184.685L112.643 184.561Z" fill="#0B53A1"/>
<path d="M135.912 184.189L139.997 184.313L140.615 187.163L135.664 187.41L135.912 184.189Z" fill="#0B53A1"/>
<path d="M117.592 63.6446L117.344 62.9013L133.436 58.8129L116.602 57.3262L116.725 56.5829L135.665 58.3173V58.9368L117.592 63.6446Z" fill="#0B53A1"/>
<path d="M94.8175 111.59L82.3152 110.351L82.1914 109.732L100.388 101.307V101.927L83.6768 109.732L94.6938 110.847L99.3976 108.245L99.769 108.864L94.9413 111.59H94.8175Z" fill="#0B53A1"/>
<path d="M121.184 108.121V107.378L136.533 105.519L120.812 103.042L120.936 102.298L141.732 105.519L121.184 108.121Z" fill="#0B53A1"/>
<path d="M118.582 62.7774L118.953 62.0341L119.325 61.2908C119.572 60.7952 119.944 60.4235 120.191 59.928C120.439 59.4324 120.81 59.0608 121.058 58.5652L121.924 57.2024C121.924 57.0785 122.048 57.0785 122.172 57.2024L122.296 57.3263L122.667 62.0341H122.543L126.009 57.8219C126.133 57.698 126.133 57.698 126.257 57.8219C126.257 57.8219 126.257 57.9458 126.381 57.9458L126.752 61.4147L126.381 61.1669L127.371 60.4235C127.495 60.2997 127.742 60.1758 127.866 60.0519L128.361 59.6802C129.104 59.1846 129.723 58.6891 130.465 58.1935C129.847 58.813 129.228 59.3085 128.609 59.928L128.114 60.2997C127.99 60.4235 127.742 60.5474 127.618 60.6713L126.628 61.4147C126.504 61.4147 126.381 61.4147 126.381 61.4147C126.381 61.4147 126.381 61.4147 126.381 61.2908L126.009 57.8219L126.381 57.9458L122.915 62.158C122.791 62.2819 122.791 62.2819 122.667 62.158C122.667 62.158 122.667 62.0341 122.543 62.0341L122.048 57.4502L122.419 57.5741L121.553 58.9369C121.305 59.4324 120.934 59.8041 120.686 60.2997C120.315 60.6713 120.067 61.1669 119.696 61.5385L119.201 62.158L118.582 62.7774Z" fill="#0B53A1"/>
<path d="M124.896 107.378C124.772 107.378 124.772 107.378 124.896 107.378C124.772 107.378 124.772 107.254 124.772 107.13L125.02 103.661L121.306 106.263L121.059 106.015L125.144 103.165C125.144 103.165 125.267 103.165 125.391 103.165L125.515 103.289L125.02 106.882L130.095 103.909H130.219L130.343 104.033L130.838 106.51L130.466 106.634L130.095 104.404L124.896 107.378Z" fill="#0B53A1"/>
<path d="M99.5174 107.006L83.3672 109.49L83.4236 109.857L99.5738 107.373L99.5174 107.006Z" fill="#0B53A1"/>
<path d="M89.8635 108.74L89.4922 108.617L89.9873 106.139C89.9873 106.139 89.9873 106.015 90.1111 106.015H90.2349L94.3198 107.625L94.5674 104.28C94.5674 104.156 94.5674 104.156 94.6912 104.156H94.815L99.8902 107.873L99.6426 108.121L94.9388 104.652L94.6912 107.873C94.6912 107.873 94.6912 107.873 94.5674 107.873H94.4436L90.3587 106.51L89.8635 108.74Z" fill="#0B53A1"/>
<path d="M97.54 109.855L88.875 108.988L88.9988 108.74L97.54 109.484V109.855Z" fill="#0B53A1"/>
<path d="M94.4575 107.773L94.3906 108.138L99.0178 108.986L99.0847 108.62L94.4575 107.773Z" fill="#0B53A1"/>
<path d="M123.412 86.3164C123.288 86.3164 123.288 86.1926 123.288 86.1926L123.412 80.8653L119.451 85.8209L119.203 85.5731L123.536 80.2459C123.536 80.2459 123.659 80.122 123.783 80.2459C123.907 80.2459 123.907 80.3697 123.907 80.3697L123.783 85.697L127.868 80.8653C127.868 80.8653 127.992 80.7414 127.992 80.8653C128.116 80.8653 128.116 80.9892 128.116 80.9892L128.858 84.4581L131.582 81.237C131.582 81.237 131.705 81.1131 131.829 81.237C131.953 81.237 131.953 81.3609 131.953 81.3609V83.9625H131.582V81.8564L128.982 84.9537C128.982 84.9537 128.858 85.0775 128.858 84.9537C128.735 84.9537 128.735 84.8298 128.735 84.8298L127.992 81.3609L123.907 86.1926C123.536 86.3164 123.536 86.3164 123.412 86.3164Z" fill="#0B53A1"/>
<path d="M119.822 87.3075L119.575 86.5642L137.4 82.1041L118.832 80.4936L118.956 79.7502L139.504 81.6086L139.628 82.228L119.822 87.3075Z" fill="#0B53A1"/>
<path d="M92.7122 90.9004L81.8191 89.2898L81.6953 88.6704L101.625 79.3787L101.872 79.9981L83.057 88.7943L92.7122 90.1571L101.253 85.697V86.3165L92.9598 90.7765L92.7122 90.9004Z" fill="#0B53A1"/>
<path d="M101.019 85.0745L82.707 88.8253L82.7815 89.1894L101.094 85.4386L101.019 85.0745Z" fill="#0B53A1"/>
<path d="M99.6427 85.4493C99.2714 85.2015 98.9 84.8298 98.6524 84.582C98.2811 84.3343 98.0335 84.0865 97.6621 83.8387C97.5384 83.8387 97.5384 83.7148 97.4146 83.7148C97.2908 83.5909 97.2908 83.5909 97.167 83.467L96.6719 83.0954L95.8054 82.352L96.0529 82.2281L95.8054 86.4404C95.8054 86.5643 95.6816 86.5643 95.5578 86.5643C95.5578 86.5643 95.5578 86.5643 95.434 86.5643L91.5966 84.7059L91.8442 84.582L91.4729 87.1837C91.4729 87.3076 91.3491 87.3076 91.2253 87.3076L89.4923 86.8121C89.2447 86.6882 88.8734 86.6882 88.6258 86.5643L87.8831 86.3165L88.0069 86.1926L87.7593 86.9359L87.5117 88.0509L87.6355 86.9359L87.7593 86.0687C87.7593 86.0687 87.7593 85.9448 87.8831 85.9448L88.7496 86.1926C88.9971 86.1926 89.3685 86.3165 89.6161 86.4404L91.3491 86.9359L91.1015 87.1837L91.4729 84.4581C91.4729 84.3343 91.5966 84.3343 91.7204 84.3343L95.6816 86.3165L95.434 86.4404L95.6816 82.2281C95.6816 82.1042 95.8054 82.1042 95.9291 82.1042H96.0529L96.9194 82.8476L97.4146 83.2193C97.5384 83.3431 97.5384 83.3431 97.6621 83.467C97.7859 83.5909 97.7859 83.5909 97.9097 83.7148C98.1573 83.9626 98.5286 84.3343 98.7762 84.582C99.0238 84.8298 99.3951 85.2015 99.6427 85.4493Z" fill="#0B53A1"/>
<path d="M96.2049 86.2258L96.1484 86.5931L99.6966 87.1396L99.7531 86.7722L96.2049 86.2258Z" fill="#0B53A1"/>
<path d="M97.5408 88.1748L91.3516 87.5554L91.4754 87.1837L97.6646 87.8032L97.5408 88.1748Z" fill="#0B53A1"/>
<path d="M95.4337 88.9181L87.8828 88.0509L88.0066 87.8031L96.3002 88.5464L95.4337 88.9181Z" fill="#0B53A1"/>
<path d="M103.303 63.2802L87.1367 67.515L87.2307 67.8746L103.397 63.6398L103.303 63.2802Z" fill="#0B53A1"/>
<path d="M94.4443 69.0958L84.9128 68.1047L84.7891 67.4852L103.109 57.0785L103.481 57.6979L86.1507 67.6091L94.4443 68.4763L102.367 66.2463L102.614 66.8658L94.5681 69.0958H94.4443Z" fill="#0B53A1"/>
<path d="M98.6518 67.4853L90.3582 66.7419C90.2344 66.7419 90.2344 66.618 90.2344 66.4941L90.3582 64.6358C90.3582 64.6358 90.3582 64.5119 90.4819 64.5119H90.6057L94.1955 65.2553V62.2819C94.1955 62.158 94.1955 62.158 94.3193 62.158H94.4431L97.2902 64.0164L97.9091 60.2997C97.9091 60.1758 97.9091 60.1758 98.0329 60.1758C98.1567 60.1758 98.1567 60.1758 98.1567 60.1758L101.499 63.3969L101.251 63.6447L98.1567 60.6713L97.5377 64.2641C97.5377 64.2641 97.5377 64.388 97.4139 64.388H97.2902L94.5669 62.6536V65.503C94.5669 65.503 94.5669 65.6269 94.4431 65.6269H94.3193L90.7295 64.8836L90.6057 66.3703L98.8994 67.2375L98.6518 67.4853Z" fill="#0B53A1"/>
<path d="M102.118 66.494L94.1953 65.7507L94.3191 65.379L102.241 66.1224L102.118 66.494Z" fill="#0B53A1"/>
<path d="M102.489 65.2552L97.4141 64.7596L97.6616 64.5118L102.489 64.8835V65.2552Z" fill="#0B53A1"/>
<path d="M104.718 44.5656L104.223 44.4417L108.927 32.6722L115.735 40.9728L115.363 41.3445L109.174 33.6634L104.718 44.5656Z" fill="#0B53A1"/>
<path d="M27.8479 151.111H27.4766L29.3333 71.4497L29.7047 71.5736V76.5292L27.8479 151.111Z" fill="#0B53A1"/>
<path d="M15.2229 150.739L14.8516 150.615L23.269 116.669L26.735 76.6531H27.1063L23.6403 116.669L15.2229 150.739Z" fill="#0B53A1"/>
<path d="M44.1893 150.863L36.0195 116.793L32.4297 75.4142H32.801L36.3908 116.793L44.5607 150.739L44.1893 150.863Z" fill="#0B53A1"/>
<path d="M39.3626 129.926L28.3456 129.802H20.1758V129.43H28.3456L39.3626 129.554V129.926Z" fill="#0B53A1"/>
<path d="M28.2202 129.802L28.0964 129.43L37.8755 125.342L27.9727 120.758L35.6474 117.041L28.2202 113.324L35.276 110.475L28.5916 103.042L34.2857 99.8204L28.9629 93.6259L33.4192 89.6615L28.9629 86.5642L32.6765 82.4759L29.0867 81.1131L32.4289 77.892L29.4581 77.0247V76.6531L33.0479 77.6442L29.8294 80.9892L33.4192 82.352L29.5819 86.4404L34.0382 89.6615L29.3343 93.6259L34.7809 99.9443L29.2105 103.165L35.7712 110.599L29.0867 113.324L36.3901 117.041L28.8392 120.758L38.3706 125.342L28.2202 129.802Z" fill="#0B53A1"/>
<path d="M39.1134 129.678L27.9727 124.97L36.5139 121.253L27.9727 116.546L35.276 113.944L28.344 109.855L34.6571 103.661L28.7154 99.0771L34.0382 93.2543L28.5916 89.042L33.0479 84.0865L28.9629 83.3431L32.4289 79.2548L29.3343 77.892L32.5527 75.5381L32.6765 75.9098L29.8294 77.892L33.1717 79.007L29.7057 83.0954L33.543 83.9626L29.2105 88.9182L34.4095 93.2543L29.2105 99.0771L35.1522 103.537L28.9629 109.855L36.1425 113.944L28.8392 116.546L37.3804 121.253L28.8392 124.97L39.2371 129.306L39.1134 129.678Z" fill="#0B53A1"/>
<path d="M20.2996 129.802L20.1758 129.554L27.8505 125.218L22.2801 121.129L28.3456 116.793L23.518 113.82L28.3456 109.979L24.0131 107.749L28.5932 103.165L24.7558 99.6965L28.717 95.6081L25.3748 93.0064L28.717 89.4136L25.8699 87.1836L29.0883 83.5908L26.3651 81.4847L29.0883 79.1308L26.6126 76.9008L29.4597 76.0336V76.4052L27.3553 77.0247L29.5835 79.1308L26.8602 81.4847L29.5835 83.3431L26.2413 87.1836L29.3359 89.4136L25.7461 92.8825L29.2121 95.4842L25.251 99.6965L29.2121 103.165L24.7558 107.625L29.0883 109.855L24.1369 113.82L29.0883 116.793L22.8991 121.129L28.4694 125.342L20.2996 129.802Z" fill="#0B53A1"/>
<path d="M27.9711 129.554L21.0391 125.342L27.9711 121.129L23.2672 117.413L28.3424 113.324L23.7623 110.599L28.3424 107.006L24.3813 103.289L28.8376 99.2009L25.0002 96.7232L28.7138 92.387L25.6191 90.157L28.9613 86.4403L26.2381 84.2103L29.2089 81.1131L26.6094 79.2547L28.8376 76.2814L29.2089 76.4053L27.1046 79.1308L29.7041 80.9892L26.7332 84.2103L29.5803 86.4403L26.1143 90.0331L29.3327 92.387L25.2478 96.7232L29.5803 99.3248L24.8764 103.289L28.9613 107.006L24.3813 110.475L28.9613 113.324L23.8861 117.413L28.7138 121.129L21.658 125.342L28.0948 129.306L27.9711 129.554Z" fill="#0B53A1"/>
<path d="M30.5393 72.6938L30.168 72.7012L31.7305 150.612L32.1018 150.605L30.5393 72.6938Z" fill="#0B53A1"/>
<path d="M15.2241 150.244L14.9766 150.12L22.7751 137.731L19.1853 133.147L26.7362 129.43L26.86 129.678L19.6804 133.271L23.1464 137.607L15.2241 150.244Z" fill="#0B53A1"/>
<path d="M31.6861 150.987L25.0017 137.855L15.594 150.244L15.2227 149.996L25.1255 137.235L32.0575 150.739L31.6861 150.987Z" fill="#0B53A1"/>
<path d="M18.3149 137.279L18.3125 137.651L41.3366 137.798L41.339 137.426L18.3149 137.279Z" fill="#0B53A1"/>
<path d="M26.9819 151.111L23.1445 137.235L34.1615 129.554L34.409 129.678L23.6397 137.483L27.3532 151.111H26.9819Z" fill="#0B53A1"/>
<path d="M25.1238 137.731L25 137.359L31.1893 133.89L26.4854 129.802L26.733 129.554L31.5606 133.642L35.2742 129.43L40.4732 133.518L35.6456 137.731L31.5606 134.262L25.1238 137.731ZM31.8082 134.014L35.5218 137.235L40.1018 133.642L35.2742 129.926L31.8082 134.014Z" fill="#0B53A1"/>
<path d="M24.8777 137.483L19.1836 133.147L19.3074 132.899L25.3729 137.235L24.8777 137.483Z" fill="#0B53A1"/>
<path d="M28.0968 151.111L27.8493 150.987L34.7813 137.731L31.8104 135.996L28.0968 133.766L23.7644 129.802L20.1746 132.899L20.0508 132.651L23.7644 129.43L28.3444 133.395L32.058 135.748L35.2764 137.483L28.0968 151.111Z" fill="#0B53A1"/>
<path d="M35.1401 137.511L34.8359 137.725L44.2117 151.118L44.5158 150.905L35.1401 137.511Z" fill="#0B53A1"/>
<path d="M43.4474 147.394L41.8381 146.898L42.5809 145.536H40.3527L42.0857 143.306L38.6197 143.058L41.343 140.828L36.8867 140.456L40.7241 137.731L37.877 135.624L38.2484 135.377L41.343 137.731L37.7532 140.456H42.0857L39.2386 142.81L42.5809 143.058L41.0954 145.164L43.076 145.288L42.3333 146.651L43.4474 147.022V147.394Z" fill="#0B53A1"/>
<path d="M16.9537 146.898L16.2109 145.288L18.1915 145.04L16.8299 142.81L19.3056 143.058L17.325 140.456L20.6672 140.332L17.9439 137.978L20.9148 135.253L21.1624 135.501L18.4391 138.102L21.2861 140.58L17.9439 140.704L20.1721 143.677L17.2012 143.058L18.9342 145.412L16.7061 145.536L17.325 146.775L16.9537 146.898Z" fill="#0B53A1"/>
<path d="M32.18 151.111L31.8086 150.987L36.1411 137.359L44.1872 150.12L43.9396 150.244L36.2649 138.102L32.18 151.111Z" fill="#0B53A1"/>
<path d="M25.4957 145.536L27.7238 142.81L31.066 140.704L24.2578 140.58L31.1898 135.253L31.4374 135.501L24.753 140.456H32.3039L27.9714 143.058L25.9908 145.288L28.7141 145.164L31.5612 142.562L33.7893 145.412L30.9422 145.536H25.4957ZM31.5612 143.182L29.333 145.288H30.8185L33.0466 145.164L31.5612 143.182Z" fill="#0B53A1"/>
<path d="M24.7539 143.058L27.7248 140.456L27.9723 140.704L25.4966 142.934H33.7903L30.8194 140.456H34.7805L31.5621 137.855L26.7345 140.456L26.6107 140.208L31.6859 137.359L35.3995 140.704H31.9335L34.533 143.306L24.7539 143.058Z" fill="#0B53A1"/>
<path d="M14.2322 150.367H16.089L16.2128 152.35L13.6133 152.226L14.2322 150.367Z" fill="#0B53A1"/>
<path d="M26.6123 150.987H28.4691L28.5929 152.845H26.1172" fill="#0B53A1"/>
<path d="M31.0667 150.739L30.6953 152.35L32.9235 152.226L32.5521 150.739H31.0667Z" fill="#0B53A1"/>
<path d="M43.323 150.491H45.4274L45.7987 152.102L43.1992 152.226L43.323 150.491Z" fill="#0B53A1"/>
<path d="M33.6682 87.3075V86.9358L42.0857 84.7058L33.2969 83.9625V83.5908L43.1997 84.458V84.8297L33.6682 87.3075Z" fill="#0B53A1"/>
<path d="M21.7833 112.457L15.2227 111.714V111.342L24.7542 107.006V107.378L15.9654 111.466L21.7833 112.085L24.259 110.599L24.3828 110.97L21.9071 112.333L21.7833 112.457Z" fill="#0B53A1"/>
<path d="M35.646 110.599V110.227L43.6921 109.236L35.3984 107.873L35.5222 107.502L46.4154 109.236L35.646 110.599Z" fill="#0B53A1"/>
<path d="M34.5327 86.4403L34.7803 86.0686C34.9041 85.8209 35.0279 85.5731 35.2754 85.3253C35.3992 85.0775 35.6468 84.8297 35.7706 84.582L36.2657 83.8386H36.3895C36.3895 83.8386 36.3895 83.8386 36.3895 83.9625L36.6371 86.4403H36.5133L38.2463 84.2103H38.3701L38.6177 85.9447H38.3701L38.8652 85.5731C38.989 85.4492 38.989 85.4492 39.1128 85.3253L39.3604 85.0775C39.7317 84.8297 40.1031 84.582 40.4744 84.3342C40.1031 84.582 39.8555 84.9536 39.4842 85.2014L39.2366 85.4492C39.1128 85.5731 39.1128 85.5731 38.989 85.697L38.4939 86.0686H38.3701L38.1225 84.3342H38.2463L36.5133 86.5642H36.3895C36.3895 86.5642 36.3895 86.5642 36.3895 86.4403L36.1419 83.9625H36.2657L35.7706 84.7059C35.6468 84.9536 35.3992 85.2014 35.2754 85.4492C35.1517 85.697 34.9041 85.9447 34.7803 86.0686L34.5327 86.4403Z" fill="#0B53A1"/>
<path d="M37.504 110.227V108.245L35.5234 109.608V109.484L37.6278 107.997H37.7516C37.7516 107.997 37.7516 107.997 37.7516 108.121L37.6278 109.979L40.2273 108.369C40.2273 108.369 40.2273 108.369 40.3511 108.369C40.3511 108.369 40.3511 108.369 40.3511 108.493L40.5986 109.732H40.4749L40.2273 108.617L37.504 110.227Z" fill="#0B53A1"/>
<path d="M24.2078 110.083L15.7656 111.381L15.8032 111.626L24.2454 110.328L24.2078 110.083Z" fill="#0B53A1"/>
<path d="M19.1824 110.97H19.0586L19.3062 109.732C19.3062 109.732 19.3062 109.732 19.3062 109.608C19.3062 109.608 19.3062 109.608 19.43 109.608L21.5343 110.475L21.6581 108.74V108.617H21.7819L24.3814 110.599V110.723L21.9057 108.864L21.7819 110.599C21.7819 110.599 21.7819 110.599 21.6581 110.599L19.5537 109.732L19.1824 110.97Z" fill="#0B53A1"/>
<path d="M23.1438 111.466L18.6875 111.094V110.97L23.2676 111.342L23.1438 111.466Z" fill="#0B53A1"/>
<path d="M21.6188 110.348L21.5742 110.591L24.0096 111.038L24.0542 110.794L21.6188 110.348Z" fill="#0B53A1"/>
<path d="M36.7633 99.201V96.3515L34.6589 98.9532L34.5352 98.8293L36.7633 95.9799H36.8871C36.8871 95.9799 37.0109 95.9799 37.0109 96.1038V98.8293L39.1152 96.3515C39.1152 96.3515 39.1152 96.3515 39.239 96.3515C39.239 96.3515 39.239 96.3515 39.3628 96.4754L39.7342 98.3338L41.2196 96.5993H41.3434C41.3434 96.5993 41.3434 96.5993 41.3434 96.7232V98.086H41.0958V96.971L39.6104 98.4576C39.6104 98.4576 39.6104 98.4576 39.4866 98.4576C39.4866 98.4576 39.4866 98.4577 39.3628 98.3338L38.9914 96.4754L36.7633 99.201C36.8871 99.201 36.8871 99.201 36.7633 99.201Z" fill="#0B53A1"/>
<path d="M34.9053 99.6965L34.7815 99.3249L44.0654 96.971L34.4102 96.1037V95.7321L45.1795 96.5993L45.3033 96.971L34.9053 99.6965Z" fill="#0B53A1"/>
<path d="M20.6707 101.555L14.9766 100.688V100.316L25.3746 95.4843L25.4983 95.8559L15.5955 100.44L20.6707 101.183L25.2508 98.8293L25.127 99.2009L20.7945 101.555H20.6707Z" fill="#0B53A1"/>
<path d="M24.9985 98.4824L15.418 100.445L15.4676 100.687L25.0482 98.7251L24.9985 98.4824Z" fill="#0B53A1"/>
<path d="M24.2623 98.7054C24.1385 98.5815 23.8909 98.4576 23.7671 98.3337C23.6434 98.2098 23.3958 98.0859 23.272 97.9621L23.1482 97.8382L23.0244 97.7143L22.7769 97.4665L22.2817 97.0948L22.4055 96.9709L22.2817 99.2009C22.2817 99.2009 22.2817 99.3248 22.1579 99.3248L20.1774 98.3337L20.3011 98.2098L20.0536 99.5726C20.0536 99.5726 20.0536 99.6965 19.9298 99.6965L19.0633 99.4487C18.9395 99.4487 18.8157 99.3248 18.5681 99.3248L18.073 99.2009H18.1968L18.073 99.5726L17.9492 100.068V99.4487V99.0771C17.9492 99.0771 17.9492 99.0771 18.073 99.0771L18.5681 99.2009C18.6919 99.2009 18.8157 99.3248 19.0633 99.3248L19.9298 99.5726H19.806L20.0536 98.2098C20.0536 98.2098 20.0536 98.0859 20.1774 98.0859L22.2817 99.2009L22.1579 99.3248L22.2817 96.9709C22.2817 96.9709 22.2817 96.847 22.4055 96.847L22.9006 97.2187L23.1482 97.4665L23.272 97.5904L23.3958 97.7143C23.5196 97.8382 23.6434 97.9621 23.8909 98.2098C24.0147 98.3337 24.1385 98.5815 24.2623 98.7054Z" fill="#0B53A1"/>
<path d="M22.5377 99.1384L22.5 99.3833L24.3352 99.666L24.3729 99.4211L22.5377 99.1384Z" fill="#0B53A1"/>
<path d="M23.2719 100.068L19.9297 99.8204L20.0535 99.5726L23.2719 99.9443V100.068Z" fill="#0B53A1"/>
<path d="M22.0327 100.44L18.1953 100.068V99.9443L22.5278 100.316L22.0327 100.44Z" fill="#0B53A1"/>
<path d="M26.3265 87.0516L17.8242 89.2788L17.8869 89.5185L26.3892 87.2913L26.3265 87.0516Z" fill="#0B53A1"/>
<path d="M21.5374 90.157L16.5859 89.6614V89.2898L26.1174 83.8386L26.365 84.0864L17.2049 89.2898L21.5374 89.7853L25.7461 88.6703L25.8699 89.042L21.6611 90.157H21.5374Z" fill="#0B53A1"/>
<path d="M23.7649 89.2898L19.4324 88.9181C19.4324 88.9181 19.3086 88.9181 19.3086 88.7942V87.8031C19.3086 87.8031 19.3086 87.8031 19.3086 87.6792C19.3086 87.6792 19.3086 87.6792 19.4324 87.6792L21.2892 88.0509V86.5642V86.4403H21.4129L22.8984 87.4314L23.2697 85.4492C23.2697 85.4492 23.2697 85.3253 23.3935 85.3253H23.5173L25.2503 87.1837L25.1265 87.3075L23.5173 85.8209L23.1459 87.6792C23.1459 87.6792 23.1459 87.6792 23.1459 87.8031H23.0222L21.5367 86.812V88.2987C21.5367 88.2987 21.5367 88.2987 21.5367 88.4226C21.5367 88.4226 21.5367 88.4226 21.4129 88.4226L19.5562 88.0509V88.7942L23.8887 89.2898H23.7649Z" fill="#0B53A1"/>
<path d="M25.6201 88.7943L21.5352 88.4226V88.1748L25.6201 88.5465V88.7943Z" fill="#0B53A1"/>
<path d="M25.8678 88.1748L23.1445 87.8031L23.2683 87.6792L25.8678 87.927V88.1748Z" fill="#0B53A1"/>
<path d="M26.9819 77.2725L26.7344 77.1486L29.2101 71.078L32.7999 75.4141L32.5523 75.538L29.3339 71.5736L26.9819 77.2725Z" fill="#0B53A1"/>
<path d="M183.817 151.111H183.445L185.302 71.4497L185.673 71.5736V76.5292L183.817 151.111Z" fill="#0B53A1"/>
<path d="M171.192 150.739L170.82 150.615L179.238 116.669L182.704 76.6531H183.075L179.609 116.669L171.192 150.739Z" fill="#0B53A1"/>
<path d="M200.158 150.863L191.988 116.793L188.398 75.4142H188.77L192.36 116.793L200.529 150.739L200.158 150.863Z" fill="#0B53A1"/>
<path d="M195.331 129.926L184.314 129.802H176.145V129.43H184.314L195.331 129.554V129.926Z" fill="#0B53A1"/>
<path d="M184.189 129.802L184.065 129.43L193.844 125.342L183.941 120.758L191.616 117.041L184.189 113.324L191.245 110.475L184.56 103.042L190.254 99.8204L184.932 93.6259L189.388 89.6615L184.932 86.5642L188.645 82.4759L185.055 81.1131L188.398 77.892L185.427 77.0247V76.6531L189.017 77.6442L185.798 80.9892L189.388 82.352L185.551 86.4404L190.007 89.6615L185.303 93.6259L190.75 99.9443L185.179 103.165L191.74 110.599L185.055 113.324L192.359 117.041L184.808 120.758L194.339 125.342L184.189 129.802Z" fill="#0B53A1"/>
<path d="M195.082 129.678L183.941 124.97L192.483 121.253L183.941 116.546L191.245 113.944L184.313 109.855L190.626 103.661L184.684 99.0771L190.007 93.2543L184.56 89.042L189.017 84.0865L184.932 83.3431L188.398 79.2548L185.303 77.892L188.521 75.5381L188.645 75.9098L185.798 77.892L189.14 79.007L185.674 83.0954L189.512 83.9626L185.179 88.9182L190.378 93.2543L185.179 99.0771L191.121 103.537L184.932 109.855L192.111 113.944L184.808 116.546L193.349 121.253L184.808 124.97L195.206 129.306L195.082 129.678Z" fill="#0B53A1"/>
<path d="M176.268 129.802L176.145 129.554L183.819 125.218L178.249 121.129L184.314 116.793L179.487 113.82L184.314 109.979L179.982 107.749L184.562 103.165L180.725 99.6965L184.686 95.6081L181.344 93.0064L184.686 89.4136L181.839 87.1836L185.057 83.5908L182.334 81.4847L185.057 79.1308L182.581 76.9008L185.428 76.0336V76.4052L183.324 77.0247L185.552 79.1308L182.829 81.4847L185.552 83.3431L182.21 87.1836L185.305 89.4136L181.715 92.8825L185.181 95.4842L181.22 99.6965L185.181 103.165L180.725 107.625L185.057 109.855L180.106 113.82L185.057 116.793L178.868 121.129L184.438 125.342L176.268 129.802Z" fill="#0B53A1"/>
<path d="M183.94 129.554L177.008 125.342L183.94 121.129L179.236 117.413L184.311 113.324L179.731 110.599L184.311 107.006L180.35 103.289L184.806 99.2009L180.969 96.7232L184.683 92.387L181.588 90.157L184.93 86.4403L182.207 84.2103L185.178 81.1131L182.578 79.2547L184.806 76.2814L185.178 76.4053L183.073 79.1308L185.673 80.9892L182.702 84.2103L185.549 86.4403L182.083 90.0331L185.301 92.387L181.217 96.7232L185.549 99.3248L180.845 103.289L184.93 107.006L180.35 110.475L184.93 113.324L179.855 117.413L184.683 121.129L177.627 125.342L184.064 129.306L183.94 129.554Z" fill="#0B53A1"/>
<path d="M186.508 72.6937L186.137 72.701L187.699 150.612L188.071 150.604L186.508 72.6937Z" fill="#0B53A1"/>
<path d="M171.193 150.244L170.945 150.12L178.744 137.731L175.154 133.147L182.705 129.43L182.829 129.678L175.649 133.271L179.115 137.607L171.193 150.244Z" fill="#0B53A1"/>
<path d="M187.655 150.987L180.97 137.855L171.563 150.244L171.191 149.996L181.094 137.235L188.026 150.739L187.655 150.987Z" fill="#0B53A1"/>
<path d="M174.284 137.276L174.281 137.648L197.305 137.795L197.308 137.423L174.284 137.276Z" fill="#0B53A1"/>
<path d="M182.951 151.111L179.113 137.235L190.13 129.554L190.378 129.678L179.608 137.483L183.322 151.111H182.951Z" fill="#0B53A1"/>
<path d="M181.093 137.731L180.969 137.359L187.158 133.89L182.454 129.802L182.702 129.554L187.529 133.642L191.243 129.43L196.442 133.518L191.614 137.731L187.653 134.262L181.093 137.731ZM187.777 134.014L191.491 137.235L196.071 133.642L191.243 129.926L187.777 134.014Z" fill="#0B53A1"/>
<path d="M180.846 137.483L175.152 133.147L175.276 132.899L181.342 137.235L180.846 137.483Z" fill="#0B53A1"/>
<path d="M184.066 151.111L183.818 150.987L190.75 137.731L187.779 135.996L184.066 133.766L179.733 129.802L176.143 132.899L176.02 132.651L179.733 129.43L184.313 133.395L188.027 135.748L191.245 137.483L184.066 151.111Z" fill="#0B53A1"/>
<path d="M191.113 137.519L190.809 137.732L200.184 151.126L200.488 150.912L191.113 137.519Z" fill="#0B53A1"/>
<path d="M199.416 147.394L197.807 146.898L198.55 145.536H196.321L198.054 143.306L194.588 143.058L197.312 140.828L192.855 140.456L196.693 137.731L193.846 135.624L194.217 135.377L197.312 137.731L193.722 140.456H198.054L195.207 142.81L198.55 143.058L197.064 145.164L199.045 145.288L198.302 146.651L199.416 147.022V147.394Z" fill="#0B53A1"/>
<path d="M172.922 146.898L172.18 145.288L174.16 145.04L172.799 142.81L175.274 143.058L173.294 140.456L176.636 140.332L173.913 137.978L176.884 135.253L177.131 135.501L174.408 138.102L177.255 140.58L173.913 140.704L176.141 143.677L173.17 143.058L174.903 145.412L172.675 145.536L173.294 146.775L172.922 146.898Z" fill="#0B53A1"/>
<path d="M188.149 151.111L187.777 150.987L192.11 137.359L200.156 150.12L199.908 150.244L192.234 138.102L188.149 151.111Z" fill="#0B53A1"/>
<path d="M181.464 145.536L183.693 142.81L187.035 140.704L180.227 140.58L187.159 135.253L187.406 135.501L180.722 140.456H188.273L183.94 143.058L182.083 145.288L184.807 145.164L187.654 142.562L189.882 145.412L186.911 145.536H181.464ZM187.53 143.182L185.302 145.288H186.787L189.015 145.164L187.53 143.182Z" fill="#0B53A1"/>
<path d="M180.723 143.058L183.694 140.456L183.941 140.704L181.465 142.934H189.759L186.788 140.456H190.749L187.531 137.855L182.703 140.456L182.579 140.208L187.655 137.359L191.368 140.704H187.902L190.502 143.306L180.723 143.058Z" fill="#0B53A1"/>
<path d="M170.201 150.367H172.058L172.182 152.35L169.582 152.226L170.201 150.367Z" fill="#0B53A1"/>
<path d="M182.581 150.987H184.438L184.562 152.845H182.086" fill="#0B53A1"/>
<path d="M187.035 150.739L186.664 152.35L188.892 152.226L188.521 150.739H187.035Z" fill="#0B53A1"/>
<path d="M199.292 150.491H201.396L201.767 152.102L199.168 152.226L199.292 150.491Z" fill="#0B53A1"/>
<path d="M189.637 87.3075V86.9358L198.054 84.7058L189.266 83.9625V83.5908L199.168 84.458V84.8297L189.637 87.3075Z" fill="#0B53A1"/>
<path d="M177.752 112.457L171.191 111.714V111.342L180.723 107.006V107.378L171.934 111.466L177.752 112.085L180.228 110.599L180.352 110.97L177.876 112.333L177.752 112.457Z" fill="#0B53A1"/>
<path d="M191.615 110.599V110.227L199.661 109.236L191.367 107.873L191.491 107.502L202.384 109.236L191.615 110.599Z" fill="#0B53A1"/>
<path d="M190.501 86.4403L190.749 86.0686C190.873 85.8209 190.997 85.5731 191.244 85.3253C191.368 85.0775 191.616 84.8297 191.739 84.582L192.234 83.8386H192.358C192.358 83.8386 192.358 83.8386 192.358 83.9625L192.606 86.4403H192.482L194.215 84.2103H194.339L194.586 85.9447H194.339L194.834 85.5731C194.958 85.4492 194.958 85.4492 195.082 85.3253L195.329 85.0775C195.7 84.8297 196.072 84.582 196.443 84.3342C196.072 84.582 195.824 84.9536 195.453 85.2014L195.205 85.4492C195.082 85.5731 195.082 85.5731 194.958 85.697L194.463 86.0686H194.339L194.091 84.3342H194.215L192.482 86.5642H192.358C192.358 86.5642 192.358 86.5642 192.358 86.4403L192.111 83.9625H192.234L191.739 84.7059C191.616 84.9536 191.368 85.2014 191.244 85.4492C191.12 85.697 190.873 85.9447 190.749 86.0686L190.501 86.4403Z" fill="#0B53A1"/>
<path d="M193.472 110.227V108.245L191.491 109.608L191.367 109.484L193.472 107.997H193.595C193.595 107.997 193.595 107.997 193.595 108.121L193.472 109.979L196.071 108.369C196.071 108.369 196.071 108.369 196.195 108.369C196.195 108.369 196.195 108.369 196.195 108.493L196.442 109.732H196.319L196.071 108.617L193.472 110.227Z" fill="#0B53A1"/>
<path d="M180.177 110.079L171.734 111.377L171.772 111.622L180.214 110.324L180.177 110.079Z" fill="#0B53A1"/>
<path d="M175.151 110.97H175.027L175.275 109.732C175.275 109.732 175.275 109.732 175.275 109.608C175.275 109.608 175.275 109.608 175.399 109.608L177.503 110.475L177.627 108.74V108.617H177.751L180.35 110.599L180.226 110.723L177.751 108.864L177.627 110.599C177.627 110.599 177.627 110.599 177.503 110.599L175.399 109.732L175.151 110.97Z" fill="#0B53A1"/>
<path d="M179.113 111.466L174.656 111.094V110.97L179.236 111.342L179.113 111.466Z" fill="#0B53A1"/>
<path d="M177.595 110.341L177.551 110.584L179.986 111.031L180.031 110.787L177.595 110.341Z" fill="#0B53A1"/>
<path d="M192.732 99.201V96.3515L190.628 98.9532L190.504 98.8293L192.732 95.9799H192.856C192.856 95.9799 192.98 95.9799 192.98 96.1038V98.8293L195.084 96.3515C195.084 96.3515 195.084 96.3515 195.208 96.3515C195.208 96.3515 195.208 96.3515 195.332 96.4754L195.703 98.3338L197.188 96.5993H197.312C197.312 96.5993 197.312 96.5993 197.312 96.7232V98.086H197.065V96.971L195.703 98.5815C195.703 98.5815 195.703 98.5815 195.579 98.5815C195.579 98.5815 195.579 98.5815 195.455 98.4576L195.084 96.5993L192.732 99.201C192.856 99.201 192.856 99.201 192.732 99.201Z" fill="#0B53A1"/>
<path d="M190.874 99.6965L190.75 99.3249L200.034 96.971L190.379 96.1037V95.7321L201.148 96.5993L201.272 96.971L190.874 99.6965Z" fill="#0B53A1"/>
<path d="M176.639 101.555L170.945 100.688V100.316L181.343 95.4843L181.467 95.8559L171.564 100.44L176.639 101.183L181.22 98.8293L181.096 99.2009L176.763 101.555H176.639Z" fill="#0B53A1"/>
<path d="M180.967 98.4795L171.387 100.442L171.436 100.685L181.017 98.7223L180.967 98.4795Z" fill="#0B53A1"/>
<path d="M180.23 98.7054C180.106 98.5815 179.858 98.4576 179.735 98.3337C179.611 98.2098 179.363 98.0859 179.24 97.9621L179.116 97.8382L178.992 97.7143L178.744 97.4665L178.249 97.0948L178.373 96.9709L178.249 99.2009C178.249 99.2009 178.249 99.3248 178.125 99.3248L176.021 98.3337L176.145 98.2098L175.897 99.5726C175.897 99.5726 175.897 99.6965 175.774 99.6965L174.907 99.4487C174.783 99.4487 174.659 99.3248 174.412 99.3248L173.917 99.2009H174.041L173.917 99.5726L173.793 100.068V99.4487V99.0771C173.793 99.0771 173.793 99.0771 173.917 99.0771L174.412 99.2009C174.536 99.2009 174.659 99.3248 174.907 99.3248L175.774 99.5726L176.021 98.2098C176.021 98.2098 176.021 98.0859 176.145 98.0859L178.249 99.0771L178.125 99.2009L178.249 96.9709C178.249 96.9709 178.249 96.847 178.373 96.847L178.868 97.2187L179.116 97.4665L179.24 97.5904L179.363 97.7143C179.487 97.8382 179.611 97.9621 179.858 98.2098C179.982 98.3337 180.106 98.5815 180.23 98.7054Z" fill="#0B53A1"/>
<path d="M178.514 99.1339L178.477 99.3788L180.312 99.6614L180.349 99.4165L178.514 99.1339Z" fill="#0B53A1"/>
<path d="M179.241 100.068L175.898 99.8204L176.022 99.5726L179.241 99.9443V100.068Z" fill="#0B53A1"/>
<path d="M178.001 100.44L174.164 100.068V99.9443L178.497 100.316L178.001 100.44Z" fill="#0B53A1"/>
<path d="M182.291 87.0527L173.789 89.2799L173.852 89.5196L182.354 87.2924L182.291 87.0527Z" fill="#0B53A1"/>
<path d="M177.506 90.157L172.555 89.6614V89.2898L182.086 83.8386L182.334 84.0864L173.174 89.2898L177.506 89.7853L181.715 88.6703L181.839 89.042L177.63 90.157H177.506Z" fill="#0B53A1"/>
<path d="M179.734 89.2898L175.401 88.9181C175.401 88.9181 175.277 88.9181 175.277 88.7942V87.8031C175.277 87.8031 175.277 87.8031 175.277 87.6792C175.277 87.6792 175.277 87.6792 175.401 87.6792L177.258 88.0509V86.5642V86.4403H177.382L178.867 87.4314L179.238 85.4492C179.238 85.4492 179.238 85.3253 179.362 85.3253H179.486L181.219 87.0598L181.095 87.1837L179.486 85.5731L179.115 87.4314C179.115 87.4314 179.115 87.4314 179.115 87.5553H178.991L177.505 86.5642V88.0509C177.505 88.0509 177.505 88.0509 177.505 88.1748C177.505 88.1748 177.505 88.1748 177.382 88.1748L175.525 87.8031V88.5464L179.857 89.042L179.734 89.2898Z" fill="#0B53A1"/>
<path d="M181.589 88.7943L177.504 88.4226V88.1748L181.589 88.5465V88.7943Z" fill="#0B53A1"/>
<path d="M181.837 88.1748L179.113 87.8031L179.237 87.6792L181.837 87.927V88.1748Z" fill="#0B53A1"/>
<path d="M182.951 77.2725L182.703 77.1486L185.179 71.078L188.769 75.4141L188.521 75.538L185.303 71.5736L182.951 77.2725Z" fill="#0B53A1"/>
<path d="M42.9497 84.9537C42.826 84.9537 42.7022 84.9537 42.5784 84.9537C42.4546 84.9537 42.3308 84.9537 42.207 84.8298L42.4546 84.582C43.94 84.9537 72.4107 82.9715 84.9131 67.8569L85.1606 68.1047C73.2772 82.2281 47.7774 84.9537 42.9497 84.9537Z" fill="#0B53A1"/>
<path d="M46.2916 97.5904C45.6727 97.5904 45.3013 97.5904 44.9299 97.4665C44.6824 97.3426 44.5586 97.3426 44.5586 97.0949L44.9299 96.971C44.9299 96.971 45.0537 97.0949 45.5489 97.0949C50.3765 97.4665 76.6191 92.7587 81.8181 88.1748L82.0656 88.4226C77.238 92.7587 52.7284 97.5904 46.2916 97.5904Z" fill="#0B53A1"/>
<path d="M64.9849 111.466C55.7009 111.466 47.0359 110.475 46.0457 109.732C45.9219 109.608 45.9219 109.608 45.9219 109.484H46.2932C46.9122 110.475 70.4314 112.953 83.1814 109.36L83.3051 109.732C78.3537 110.97 71.5455 111.466 64.9849 111.466Z" fill="#0B53A1"/>
<path d="M173.545 89.7853C152.873 85.4492 143.713 71.078 138.762 63.3969C137.152 60.9191 136.038 59.0607 135.172 58.813L135.296 58.4413C136.286 58.813 137.4 60.5474 139.133 63.1491C144.084 70.8302 153.245 85.0775 173.669 89.4137L173.545 89.7853Z" fill="#0B53A1"/>
<path d="M171.07 100.935C148.169 95.8559 139.257 83.8386 138.762 82.228L139.133 82.1041C139.628 83.7147 148.417 95.4842 171.194 100.564L171.07 100.935Z" fill="#0B53A1"/>
<path d="M161.164 113.448C149.404 113.448 143.339 108.245 140.987 105.643C140.987 105.519 140.863 105.519 140.863 105.519L141.111 105.271L141.235 105.395C144.205 108.74 153.118 116.174 172.305 111.714L172.429 112.085C168.096 113.077 164.383 113.448 161.164 113.448Z" fill="#0B53A1"/>
</g>
<defs>
<clipPath id="clip0_1880_5374">
<rect width="188.773" height="156.101" fill="white" transform="translate(13.6133 32.6722)"/>
</clipPath>
</defs>
</svg>
