<svg width="214" height="220" viewBox="0 0 214 220" fill="none" xmlns="http://www.w3.org/2000/svg">
<circle cx="107" cy="110" r="107" fill="white"/>
<mask id="mask0_2112_9642" style="mask-type:luminance" maskUnits="userSpaceOnUse" x="0" y="0" width="214" height="220">
<path d="M107 219.56C166.094 219.56 214 170.41 214 109.78C214 49.1502 166.094 0 107 0C47.9055 0 0 49.1502 0 109.78C0 170.41 47.9055 219.56 107 219.56Z" fill="white"/>
</mask>
<g mask="url(#mask0_2112_9642)">
<path d="M123.699 204.453H124.799H134.899V208.352H123.899L123.699 204.453Z" fill="#0B52A0"/>
<path d="M124.699 205.377V205.172L125.199 99.906L125.399 66.3564L125.499 37.3211L125.599 9.92741C126.299 9.10662 126.999 8.79883 127.699 8.79883C128.699 8.79883 129.299 9.72221 129.299 9.72221V9.82481L130.599 65.8434L131.499 99.4956L134.099 205.172L124.699 205.377ZM125.899 10.03L125.799 37.2185L125.699 66.2538L125.499 99.8034L124.999 205.069L133.799 204.864L131.199 99.5982L130.299 65.946L128.999 9.82481C128.899 9.61961 128.399 9.10662 127.699 9.10662C127.099 9.10662 126.499 9.41442 125.899 10.03Z" fill="#0B52A0"/>
<path d="M123.998 98.9826L124.098 93.9553L125.598 94.5709L125.498 98.7774L123.998 98.9826ZM124.398 94.4683L124.298 98.5722L125.098 98.4696L125.198 94.7761L124.398 94.4683Z" fill="#0B52A0"/>
<path d="M124.298 98.1618L97.8984 96.315V94.6735L123.998 95.0839L124.398 94.9813L124.298 98.1618ZM98.1984 95.9046L123.998 97.7514L124.098 95.3917L98.2984 94.9813V95.9046H98.1984Z" fill="#0B52A0"/>
<path d="M132.899 99.393L131.399 98.9826L131.299 94.4683H133.199L132.899 99.393ZM131.699 98.6748L132.599 98.88L132.799 94.7761H131.599L131.699 98.6748Z" fill="#0B52A0"/>
<path d="M132.699 98.367V98.0592L157.899 97.4436V96.5202L132.899 95.6994V95.2891L158.299 96.2124L158.199 97.7514H158.099L132.699 98.367Z" fill="#0B52A0"/>
<path d="M131.899 70.7681L130.399 70.4603L130.299 66.3564L131.999 66.0486L131.899 70.7681ZM130.699 70.2551L131.499 70.3577L131.599 66.5616L130.599 66.7668L130.699 70.2551Z" fill="#0B52A0"/>
<path d="M131.598 69.9473L131.698 66.8694H131.898L155.698 67.8954V67.998C155.798 68.2032 155.698 68.9214 155.698 69.1265V69.2291H155.598L131.598 69.9473ZM131.998 67.2798L131.898 69.6395L155.298 69.0239C155.298 68.7161 155.298 68.511 155.298 68.3058L131.998 67.2798Z" fill="#0B52A0"/>
<path d="M130.898 41.6302L129.698 41.2198L129.498 37.3211L131.198 37.0133L130.898 41.6302ZM130.098 41.0146L130.698 41.2198L130.998 37.5263L129.998 37.7315L130.098 41.0146Z" fill="#0B52A0"/>
<path d="M130.598 40.912V40.7068L130.698 40.6042C130.798 39.886 130.898 39.2704 130.898 38.4496V38.347L130.798 38.1418H130.998L153.398 39.373L153.298 40.8094L130.598 40.912ZM131.198 38.2444C131.198 39.0652 131.198 39.7834 130.998 40.5016L152.898 40.1938L152.998 39.4756L131.198 38.2444Z" fill="#0B52A0"/>
<path d="M123.699 69.9473H123.499L99.8988 67.2798L99.7988 65.8434L123.699 66.6642L123.599 66.8694C123.599 66.972 123.499 67.0746 123.599 67.2798C123.599 67.3824 123.699 67.485 123.699 67.5876V67.7928C123.699 67.9979 123.699 68.2031 123.699 68.4083C123.699 68.7161 123.699 69.0239 123.699 69.3317V69.9473ZM100.299 66.972L123.399 69.5369V69.3317C123.399 69.0239 123.399 68.7161 123.399 68.5109C123.399 68.3057 123.399 68.1005 123.399 67.8953V67.6902C123.399 67.5876 123.399 67.485 123.299 67.3824C123.299 67.2798 123.299 67.0746 123.299 66.972L100.299 66.1512V66.972Z" fill="#0B52A0"/>
<path d="M125.598 40.6042H125.398L101.898 38.6549V37.4237L125.598 37.5263V40.6042ZM102.298 38.3471L125.298 40.1939V37.9367L102.298 37.8341V38.3471Z" fill="#0B52A0"/>
<path d="M127.498 9.00406L130.098 204.864L133.898 205.069L129.098 9.82485C129.098 9.82485 128.598 8.79887 127.498 9.00406Z" fill="#0B52A0"/>
<path d="M123.299 70.6656L123.399 65.5356L125.499 65.7408L125.699 70.6656H123.299ZM123.699 65.8434L123.599 70.2552L125.199 70.1526L125.099 65.946L123.699 65.8434Z" fill="#0B52A0"/>
<path d="M132 47.8302L130.564 50.2149L128.745 49.1656L129.511 47.2578L126.351 45.35L125.681 47.3532L123 45.8269L124.34 43.4421L132 47.8302Z" stroke="#0B52A0" stroke-width="0.5" stroke-miterlimit="10"/>
<path d="M89.961 134.033L75.6606 165.353H70L85.2935 131.918C85.3928 131.616 85.7901 131.414 86.1873 131.515C86.2866 131.515 86.2866 131.515 86.3859 131.616L86.5845 131.716H86.6839L89.3652 132.925C89.3652 132.925 89.3652 132.925 89.4645 132.925H89.5638C89.5638 132.925 89.6631 133.025 89.7624 133.025C89.961 133.328 90.0603 133.73 89.961 134.033Z" stroke="#0B52A0" stroke-miterlimit="10"/>
<path d="M89.8582 133.424L89.7596 133.325L87.0986 132.137H87L126.029 47.3124L128 48.2032L89.8582 133.424Z" stroke="#0B52A0" stroke-miterlimit="10"/>
<path d="M123.707 185.59C122.802 182.591 120.287 180.833 117.068 180.833C104.595 180.833 92.1217 180.833 79.6486 180.833H62.9508C62.7496 180.833 62.5484 180.833 62.3472 180.833C60.5366 180.937 59.0278 181.661 57.7201 183.108C55.9095 185.28 55.5071 187.761 56.6136 190.45C57.7201 193.035 59.9331 194.379 62.649 194.379C71.7021 194.379 80.7551 194.379 89.8082 194.379C98.8612 194.379 108.015 194.379 117.068 194.379C121.796 194.379 125.015 189.933 123.707 185.59ZM63.4537 191.691C61.2407 191.691 59.4301 189.933 59.4301 187.658C59.4301 185.383 61.2407 183.522 63.4537 183.522C65.6667 183.522 67.3767 185.383 67.3767 187.555C67.3767 189.829 65.6667 191.587 63.4537 191.691ZM74.1162 191.691C71.9032 191.691 70.0926 189.933 70.0926 187.555C70.0926 185.28 71.8026 183.522 74.0156 183.522C76.2286 183.522 78.0392 185.383 78.0392 187.658C78.0392 189.829 76.2286 191.691 74.1162 191.691ZM84.7787 191.691C82.5657 191.691 80.7551 189.829 80.7551 187.555C80.7551 185.28 82.5657 183.522 84.6781 183.522C86.8911 183.522 88.7017 185.383 88.7017 187.658C88.7017 189.829 86.8911 191.691 84.7787 191.691ZM95.3406 191.691C93.1276 191.691 91.4176 189.829 91.4176 187.658C91.4176 185.383 93.2282 183.522 95.4412 183.522C97.5536 183.522 99.3642 185.383 99.3642 187.555C99.3642 189.829 97.5536 191.691 95.3406 191.691ZM106.104 191.691C103.891 191.691 102.181 189.933 102.181 187.658C102.181 185.383 103.991 183.522 106.104 183.522C108.317 183.522 110.127 185.383 110.027 187.658C110.027 189.829 108.216 191.691 106.104 191.691ZM116.666 191.691C114.453 191.691 112.642 189.829 112.743 187.555C112.743 185.28 114.553 183.522 116.766 183.522C118.979 183.522 120.79 185.383 120.689 187.658C120.689 189.829 118.879 191.691 116.666 191.691Z" stroke="#0B52A0" stroke-miterlimit="10"/>
<path d="M87.5418 177.174V176.077H92.8207C92.8207 175.878 92.9203 175.778 92.9203 175.678C92.9203 171.989 92.9203 168.3 92.9203 164.61C92.9203 164.411 92.8207 164.112 92.7211 163.912C91.2271 160.822 89.6335 157.83 88.239 154.739C87.8406 153.942 87.3426 153.742 86.5458 153.742C82.9602 153.742 79.3745 153.742 75.8884 153.742C74.5936 153.742 74.1952 154.141 74.1952 155.437V175.479H64.6335V177.273H48V179.866H98V177.174H87.5418ZM75.6892 163.015V156.833C75.6892 155.836 76.0876 155.437 77.1833 155.437C80.0717 155.437 82.8606 155.437 85.749 155.437C86.247 155.437 86.745 155.537 86.9442 156.035C88.1394 158.528 89.3347 161.021 90.6295 163.613H75.7888C75.7888 163.314 75.6892 163.115 75.6892 163.015ZM85.1514 173.185C84.3546 172.188 83.3586 171.291 82.4622 170.394C82.2629 170.194 82.0637 169.795 82.0637 169.496C82.0637 168.3 82.0637 167.003 82.0637 165.807C82.0637 165.209 82.3626 164.91 82.8606 164.91H90.7291V168.998C90.7291 170.693 90.7291 172.288 90.7291 173.983C90.7291 174.88 90.5299 174.98 89.6335 175.08C87.741 175.279 86.3466 174.781 85.1514 173.185Z" stroke="#0B52A0" stroke-miterlimit="10"/>
<path d="M85.2809 161.581C84.6789 161.581 84.2776 162.076 84.2776 162.768C84.2776 163.559 84.2776 164.35 84.2776 165.339H63.9097C62.0033 165.339 61 166.327 61 168.107C61 169.491 61 170.875 61 172.161C61 174.138 61.903 175.028 64.01 175.028H91V161.483C89.0936 161.581 87.1873 161.581 85.2809 161.581ZM63.5084 167.316C63.709 167.217 63.9097 167.316 64.1104 167.316H79.7625C79.9632 167.316 80.2642 167.316 80.3646 167.415C80.5652 167.514 80.7659 167.81 80.7659 168.008C80.7659 168.206 80.5652 168.404 80.3646 168.601C80.1639 168.7 79.9632 168.601 79.7625 168.601C77.7559 168.601 75.7492 168.601 73.7425 168.601H68.0234C66.7191 168.601 65.4147 168.601 64.1104 168.601C63.9097 168.601 63.6087 168.601 63.5084 168.601C63.3077 168.503 63.107 168.206 63.107 168.008C63.107 167.81 63.3077 167.514 63.5084 167.316ZM79.9632 170.875C77.5552 170.875 75.0468 170.875 72.6388 170.875H71.8361C70.1304 170.875 68.5251 170.875 66.8194 170.875C65.8161 170.875 64.8127 170.875 63.8094 170.875C63.5084 170.875 63.2074 170.777 63.0067 170.579C62.7057 170.183 62.9064 169.887 63.3077 169.689C63.5084 169.59 63.8094 169.689 64.1104 169.689H79.8629C80.2642 169.689 80.6655 169.788 80.6655 170.282C80.8662 170.777 80.4649 170.875 79.9632 170.875Z" stroke="#0B52A0" stroke-miterlimit="10"/>
<path d="M63 169.724C63 170.113 62.6189 170.19 62.2379 170.19C59.9514 170.19 57.5697 170.19 55.2833 170.19H54.5212C52.9016 170.19 51.3773 170.19 49.7578 170.19C48.8051 170.19 47.8524 170.19 46.8998 170.19C46.6139 170.19 46.3281 170.113 46.1376 169.957C45.8518 169.646 46.0423 169.413 46.4234 169.257C46.6139 169.18 46.8997 169.257 47.1856 169.257H62.1426C62.6189 169.257 63 169.335 63 169.724Z" stroke="#0B52A0" stroke-miterlimit="10"/>
<path d="M63 167.772C63 167.922 62.8068 168.072 62.6136 168.222C62.4205 168.297 62.2273 168.222 62.0341 168.222C60.1023 168.222 58.1705 168.222 56.2386 168.222H50.733C49.4773 168.222 48.2216 168.222 46.9659 168.222C46.7727 168.222 46.483 168.222 46.3864 168.222C46.1932 168.147 46 167.922 46 167.772C46 167.621 46.1932 167.471 46.3864 167.321C46.5795 167.246 46.7727 167.321 46.9659 167.321H62.0341C62.2273 167.321 62.517 167.321 62.6136 167.396C62.8068 167.471 63 167.621 63 167.772Z" stroke="#0B52A0" stroke-miterlimit="10"/>
</g>
</svg>
