<svg width="214" height="214" viewBox="0 0 214 214" fill="none" xmlns="http://www.w3.org/2000/svg">
<circle cx="107" cy="107" r="107" fill="white"/>
<g clip-path="url(#clip0_1581_1297)">
<path d="M130.696 28.3748H102.43V29.7666H130.696V28.3748Z" stroke="#1356A0" stroke-miterlimit="10"/>
<path d="M129.448 30.3375H129.27V31.0156H129.448V30.3375Z" stroke="#1356A0" stroke-miterlimit="10"/>
<path d="M129.343 30.4089C129.129 30.4089 128.773 30.2305 128.773 29.9807V29.6952H128.951V29.9807C128.951 30.1234 129.165 30.2662 129.343 30.2662C129.521 30.2662 129.735 30.1234 129.735 29.9807V29.6952H129.913V29.9807C129.913 30.2305 129.557 30.4089 129.343 30.4089Z" stroke="#1356A0" stroke-miterlimit="10"/>
<path d="M128.701 38.2246C128.63 38.2246 128.559 38.1532 128.559 38.0818V37.7963C128.559 37.7249 128.63 37.6536 128.701 37.6536C128.772 37.6536 128.843 37.7249 128.843 37.7963V38.0818C128.879 38.1532 128.808 38.2246 128.701 38.2246Z" stroke="#1356A0" stroke-miterlimit="10"/>
<path d="M130.053 38.0104H129.875V37.5108C129.875 37.1896 129.626 36.9754 129.341 36.9754C129.056 36.9754 128.807 37.2252 128.807 37.5108V38.0104H128.629V37.5108C128.629 37.1182 128.949 36.797 129.341 36.797C129.733 36.797 130.053 37.1182 130.053 37.5108V38.0104Z" stroke="#1356A0" stroke-miterlimit="10"/>
<path d="M129.912 31.5152H128.809C128.631 31.5152 128.488 31.3725 128.488 31.194C128.488 30.8015 129.093 30.7301 129.378 30.7301C129.556 30.7301 129.77 30.7658 129.948 30.8372C130.09 30.9085 130.268 31.0156 130.268 31.194C130.233 31.3725 130.09 31.5152 129.912 31.5152Z" stroke="#1356A0" stroke-miterlimit="10"/>
<path d="M129.912 32.229H128.809C128.631 32.229 128.488 32.0862 128.488 31.9078C128.488 31.5152 129.093 31.4438 129.378 31.4438C129.556 31.4438 129.77 31.4795 129.948 31.5509C130.09 31.6223 130.268 31.7293 130.268 31.9078C130.233 32.0505 130.09 32.229 129.912 32.229Z" stroke="#1356A0" stroke-miterlimit="10"/>
<path d="M129.912 32.9071H128.809C128.631 32.9071 128.488 32.7643 128.488 32.5859C128.488 32.1933 129.093 32.1219 129.378 32.1219C129.556 32.1219 129.77 32.1576 129.948 32.229C130.09 32.3004 130.268 32.4074 130.268 32.5859C130.233 32.7643 130.09 32.9071 129.912 32.9071Z" stroke="#1356A0" stroke-miterlimit="10"/>
<path d="M129.912 33.6208H128.809C128.631 33.6208 128.488 33.4781 128.488 33.2996C128.488 32.9071 129.093 32.8357 129.378 32.8357C129.556 32.8357 129.77 32.8714 129.948 32.9428C130.09 33.0141 130.268 33.1212 130.268 33.2996C130.233 33.4424 130.09 33.6208 129.912 33.6208Z" stroke="#1356A0" stroke-miterlimit="10"/>
<path d="M129.912 34.2989H128.809C128.631 34.2989 128.488 34.1562 128.488 33.9777C128.488 33.5852 129.093 33.5138 129.378 33.5138C129.556 33.5138 129.77 33.5495 129.948 33.6209C130.09 33.6922 130.268 33.7993 130.268 33.9777C130.233 34.1562 130.09 34.2989 129.912 34.2989Z" stroke="#1356A0" stroke-miterlimit="10"/>
<path d="M129.912 35.0127H128.809C128.631 35.0127 128.488 34.8699 128.488 34.6915C128.488 34.2989 129.093 34.2275 129.378 34.2275C129.556 34.2275 129.77 34.2632 129.948 34.3346C130.09 34.406 130.268 34.513 130.268 34.6915C130.233 34.8342 130.09 35.0127 129.912 35.0127Z" stroke="#1356A0" stroke-miterlimit="10"/>
<path d="M129.912 35.6906H128.809C128.631 35.6906 128.488 35.5479 128.488 35.3695C128.488 34.9769 129.093 34.9055 129.378 34.9055C129.556 34.9055 129.77 34.9412 129.948 35.0126C130.09 35.084 130.268 35.191 130.268 35.3695C130.233 35.5479 130.09 35.6906 129.912 35.6906Z" stroke="#1356A0" stroke-miterlimit="10"/>
<path d="M129.912 36.4044H128.809C128.631 36.4044 128.488 36.2616 128.488 36.0832C128.488 35.6906 129.093 35.6193 129.378 35.6193C129.556 35.6193 129.77 35.655 129.948 35.7263C130.09 35.7977 130.268 35.9048 130.268 36.0832C130.233 36.226 130.09 36.4044 129.912 36.4044Z" stroke="#1356A0" stroke-miterlimit="10"/>
<path d="M129.912 37.0825H128.809C128.631 37.0825 128.488 36.9397 128.488 36.7613C128.488 36.3687 129.093 36.2974 129.378 36.2974C129.556 36.2974 129.77 36.3331 129.948 36.4044C130.09 36.4758 130.268 36.5829 130.268 36.7613C130.233 36.9397 130.09 37.0825 129.912 37.0825Z" stroke="#1356A0" stroke-miterlimit="10"/>
<path d="M129.982 38.2246C129.911 38.2246 129.84 38.1532 129.84 38.0818V37.7963C129.84 37.7249 129.911 37.6536 129.982 37.6536C130.053 37.6536 130.125 37.7249 130.125 37.7963V38.0818C130.125 38.1532 130.053 38.2246 129.982 38.2246Z" stroke="#1356A0" stroke-miterlimit="10"/>
<path d="M103.889 30.3375H103.711V31.0156H103.889V30.3375Z" stroke="#1356A0" stroke-miterlimit="10"/>
<path d="M103.781 30.4089C103.567 30.4089 103.211 30.2305 103.211 29.9807V29.6952H103.389V29.9807C103.389 30.1234 103.603 30.2662 103.781 30.2662C103.959 30.2662 104.172 30.1234 104.172 29.9807V29.6952H104.35V29.9807C104.35 30.2305 103.994 30.4089 103.781 30.4089Z" stroke="#1356A0" stroke-miterlimit="10"/>
<path d="M103.138 38.2246C103.067 38.2246 102.996 38.1532 102.996 38.0818V37.7963C102.996 37.7249 103.067 37.6536 103.138 37.6536C103.21 37.6536 103.281 37.7249 103.281 37.7963V38.0818C103.281 38.1532 103.245 38.2246 103.138 38.2246Z" stroke="#1356A0" stroke-miterlimit="10"/>
<path d="M104.494 38.0104H104.316V37.5108C104.316 37.1896 104.067 36.9754 103.782 36.9754C103.498 36.9754 103.248 37.2252 103.248 37.5108V38.0104H103.07V37.5108C103.07 37.1182 103.391 36.797 103.782 36.797C104.174 36.797 104.494 37.1182 104.494 37.5108V38.0104Z" stroke="#1356A0" stroke-miterlimit="10"/>
<path d="M104.315 31.5152H103.211C103.033 31.5152 102.891 31.3725 102.891 31.194C102.891 30.8015 103.496 30.7301 103.781 30.7301C103.959 30.7301 104.172 30.7658 104.35 30.8372C104.493 30.9085 104.671 31.0156 104.671 31.194C104.671 31.3725 104.493 31.5152 104.315 31.5152Z" stroke="#1356A0" stroke-miterlimit="10"/>
<path d="M104.315 32.229H103.211C103.033 32.229 102.891 32.0862 102.891 31.9078C102.891 31.5152 103.496 31.4438 103.781 31.4438C103.959 31.4438 104.172 31.4795 104.35 31.5509C104.493 31.6223 104.671 31.7293 104.671 31.9078C104.671 32.0505 104.493 32.229 104.315 32.229Z" stroke="#1356A0" stroke-miterlimit="10"/>
<path d="M104.315 32.9071H103.211C103.033 32.9071 102.891 32.7643 102.891 32.5859C102.891 32.1933 103.496 32.1219 103.781 32.1219C103.959 32.1219 104.172 32.1576 104.35 32.229C104.493 32.3004 104.671 32.4074 104.671 32.5859C104.671 32.7643 104.493 32.9071 104.315 32.9071Z" stroke="#1356A0" stroke-miterlimit="10"/>
<path d="M104.315 33.6208H103.211C103.033 33.6208 102.891 33.4781 102.891 33.2996C102.891 32.9071 103.496 32.8357 103.781 32.8357C103.959 32.8357 104.172 32.8714 104.35 32.9428C104.493 33.0141 104.671 33.1212 104.671 33.2996C104.671 33.4424 104.493 33.6208 104.315 33.6208Z" stroke="#1356A0" stroke-miterlimit="10"/>
<path d="M104.315 34.2989H103.211C103.033 34.2989 102.891 34.1562 102.891 33.9777C102.891 33.5852 103.496 33.5138 103.781 33.5138C103.959 33.5138 104.172 33.5495 104.35 33.6209C104.493 33.6922 104.671 33.7993 104.671 33.9777C104.671 34.1562 104.493 34.2989 104.315 34.2989Z" stroke="#1356A0" stroke-miterlimit="10"/>
<path d="M104.315 35.0127H103.211C103.033 35.0127 102.891 34.8699 102.891 34.6915C102.891 34.2989 103.496 34.2275 103.781 34.2275C103.959 34.2275 104.172 34.2632 104.35 34.3346C104.493 34.406 104.671 34.513 104.671 34.6915C104.671 34.8342 104.493 35.0127 104.315 35.0127Z" stroke="#1356A0" stroke-miterlimit="10"/>
<path d="M104.315 35.6906H103.211C103.033 35.6906 102.891 35.5479 102.891 35.3695C102.891 34.9769 103.496 34.9055 103.781 34.9055C103.959 34.9055 104.172 34.9412 104.35 35.0126C104.493 35.084 104.671 35.191 104.671 35.3695C104.671 35.5479 104.493 35.6906 104.315 35.6906Z" stroke="#1356A0" stroke-miterlimit="10"/>
<path d="M104.315 36.4044H103.211C103.033 36.4044 102.891 36.2616 102.891 36.0832C102.891 35.6906 103.496 35.6193 103.781 35.6193C103.959 35.6193 104.172 35.655 104.35 35.7263C104.493 35.7977 104.671 35.9048 104.671 36.0832C104.671 36.226 104.493 36.4044 104.315 36.4044Z" stroke="#1356A0" stroke-miterlimit="10"/>
<path d="M104.315 37.0825H103.211C103.033 37.0825 102.891 36.9397 102.891 36.7613C102.891 36.3687 103.496 36.2974 103.781 36.2974C103.959 36.2974 104.172 36.3331 104.35 36.4044C104.493 36.4758 104.671 36.5829 104.671 36.7613C104.671 36.9397 104.493 37.0825 104.315 37.0825Z" stroke="#1356A0" stroke-miterlimit="10"/>
<path d="M104.385 38.2246C104.313 38.2246 104.242 38.1532 104.242 38.0818V37.7963C104.242 37.7249 104.313 37.6536 104.385 37.6536C104.456 37.6536 104.527 37.7249 104.527 37.7963V38.0818C104.563 38.1532 104.491 38.2246 104.385 38.2246Z" stroke="#1356A0" stroke-miterlimit="10"/>
<path d="M130.696 40.6514H102.43V42.0432H130.696V40.6514Z" stroke="#1356A0" stroke-miterlimit="10"/>
<path d="M129.448 42.6141H129.27V43.2922H129.448V42.6141Z" stroke="#1356A0" stroke-miterlimit="10"/>
<path d="M129.343 42.6856C129.129 42.6856 128.773 42.5071 128.773 42.2573V41.9718H128.951V42.2573C128.951 42.4001 129.165 42.5428 129.343 42.5428C129.521 42.5428 129.735 42.4001 129.735 42.2573V41.9718H129.913V42.2573C129.913 42.5071 129.557 42.6856 129.343 42.6856Z" stroke="#1356A0" stroke-miterlimit="10"/>
<path d="M128.701 50.5011C128.63 50.5011 128.559 50.4297 128.559 50.3583V50.0372C128.559 49.9658 128.63 49.8944 128.701 49.8944C128.772 49.8944 128.843 49.9658 128.843 50.0372V50.3227C128.879 50.4297 128.808 50.5011 128.701 50.5011Z" stroke="#1356A0" stroke-miterlimit="10"/>
<path d="M130.053 50.2514H129.875V49.7517C129.875 49.4305 129.626 49.2164 129.341 49.2164C129.056 49.2164 128.807 49.4662 128.807 49.7517V50.2514H128.629V49.7517C128.629 49.3592 128.949 49.038 129.341 49.038C129.733 49.038 130.053 49.3592 130.053 49.7517V50.2514Z" stroke="#1356A0" stroke-miterlimit="10"/>
<path d="M129.912 43.7918H128.809C128.631 43.7918 128.488 43.6491 128.488 43.4707C128.488 43.0781 129.093 43.0067 129.378 43.0067C129.556 43.0067 129.77 43.0424 129.948 43.1138C130.09 43.1852 130.268 43.2922 130.268 43.4707C130.233 43.6491 130.09 43.7918 129.912 43.7918Z" stroke="#1356A0" stroke-miterlimit="10"/>
<path d="M129.912 44.4699H128.809C128.631 44.4699 128.488 44.3272 128.488 44.1488C128.488 43.7562 129.093 43.6848 129.378 43.6848C129.556 43.6848 129.77 43.7205 129.948 43.7919C130.09 43.8633 130.268 43.9703 130.268 44.1488C130.233 44.3272 130.09 44.4699 129.912 44.4699Z" stroke="#1356A0" stroke-miterlimit="10"/>
<path d="M129.912 45.1837H128.809C128.631 45.1837 128.488 45.0409 128.488 44.8625C128.488 44.4699 129.093 44.3986 129.378 44.3986C129.556 44.3986 129.77 44.4342 129.948 44.5056C130.09 44.577 130.268 44.6841 130.268 44.8625C130.233 45.0409 130.09 45.1837 129.912 45.1837Z" stroke="#1356A0" stroke-miterlimit="10"/>
<path d="M129.912 45.8618H128.809C128.631 45.8618 128.488 45.719 128.488 45.5406C128.488 45.148 129.093 45.0767 129.378 45.0767C129.556 45.0767 129.77 45.1123 129.948 45.1837C130.09 45.2551 130.268 45.3622 130.268 45.5406C130.233 45.719 130.09 45.8618 129.912 45.8618Z" stroke="#1356A0" stroke-miterlimit="10"/>
<path d="M129.912 46.5755H128.809C128.631 46.5755 128.488 46.4328 128.488 46.2543C128.488 45.8618 129.093 45.7904 129.378 45.7904C129.556 45.7904 129.77 45.8261 129.948 45.8975C130.09 45.9688 130.268 46.0759 130.268 46.2543C130.233 46.4328 130.09 46.5755 129.912 46.5755Z" stroke="#1356A0" stroke-miterlimit="10"/>
<path d="M129.912 47.2535H128.809C128.631 47.2535 128.488 47.1108 128.488 46.9323C128.488 46.5398 129.093 46.4684 129.378 46.4684C129.556 46.4684 129.77 46.5041 129.948 46.5754C130.09 46.6468 130.268 46.7539 130.268 46.9323C130.233 47.1108 130.09 47.2535 129.912 47.2535Z" stroke="#1356A0" stroke-miterlimit="10"/>
<path d="M129.912 47.9673H128.809C128.631 47.9673 128.488 47.8245 128.488 47.6461C128.488 47.2535 129.093 47.1821 129.378 47.1821C129.556 47.1821 129.77 47.2178 129.948 47.2892C130.09 47.3606 130.268 47.4676 130.268 47.6461C130.233 47.8245 130.09 47.9673 129.912 47.9673Z" stroke="#1356A0" stroke-miterlimit="10"/>
<path d="M129.912 48.6454H128.809C128.631 48.6454 128.488 48.5026 128.488 48.3242C128.488 47.9316 129.093 47.8602 129.378 47.8602C129.556 47.8602 129.77 47.8959 129.948 47.9673C130.09 48.0387 130.268 48.1457 130.268 48.3242C130.233 48.5026 130.09 48.6454 129.912 48.6454Z" stroke="#1356A0" stroke-miterlimit="10"/>
<path d="M129.912 49.3591H128.809C128.631 49.3591 128.488 49.2164 128.488 49.0379C128.488 48.6453 129.093 48.574 129.378 48.574C129.556 48.574 129.77 48.6097 129.948 48.681C130.09 48.7524 130.268 48.8595 130.268 49.0379C130.233 49.2164 130.09 49.3591 129.912 49.3591Z" stroke="#1356A0" stroke-miterlimit="10"/>
<path d="M129.982 50.5011C129.911 50.5011 129.84 50.4297 129.84 50.3583V50.0372C129.84 49.9658 129.911 49.8944 129.982 49.8944C130.053 49.8944 130.125 49.9658 130.125 50.0372V50.3227C130.125 50.4297 130.053 50.5011 129.982 50.5011Z" stroke="#1356A0" stroke-miterlimit="10"/>
<path d="M103.889 42.6141H103.711V43.2922H103.889V42.6141Z" stroke="#1356A0" stroke-miterlimit="10"/>
<path d="M103.781 42.6856C103.567 42.6856 103.211 42.5071 103.211 42.2573V41.9718H103.389V42.2573C103.389 42.4001 103.603 42.5428 103.781 42.5428C103.959 42.5428 104.172 42.4001 104.172 42.2573V41.9718H104.35V42.2573C104.35 42.5071 103.994 42.6856 103.781 42.6856Z" stroke="#1356A0" stroke-miterlimit="10"/>
<path d="M103.138 50.5011C103.067 50.5011 102.996 50.4297 102.996 50.3583V50.0372C102.996 49.9658 103.067 49.8944 103.138 49.8944C103.21 49.8944 103.281 49.9658 103.281 50.0372V50.3227C103.281 50.4297 103.245 50.5011 103.138 50.5011Z" stroke="#1356A0" stroke-miterlimit="10"/>
<path d="M104.494 50.2514H104.316V49.7517C104.316 49.4305 104.067 49.2164 103.782 49.2164C103.498 49.2164 103.248 49.4662 103.248 49.7517V50.2514H103.07V49.7517C103.07 49.3592 103.391 49.038 103.782 49.038C104.174 49.038 104.494 49.3592 104.494 49.7517V50.2514Z" stroke="#1356A0" stroke-miterlimit="10"/>
<path d="M104.315 43.7918H103.211C103.033 43.7918 102.891 43.6491 102.891 43.4707C102.891 43.0781 103.496 43.0067 103.781 43.0067C103.959 43.0067 104.172 43.0424 104.35 43.1138C104.493 43.1852 104.671 43.2922 104.671 43.4707C104.671 43.6491 104.493 43.7918 104.315 43.7918Z" stroke="#1356A0" stroke-miterlimit="10"/>
<path d="M104.315 44.4699H103.211C103.033 44.4699 102.891 44.3272 102.891 44.1488C102.891 43.7562 103.496 43.6848 103.781 43.6848C103.959 43.6848 104.172 43.7205 104.35 43.7919C104.493 43.8633 104.671 43.9703 104.671 44.1488C104.671 44.3272 104.493 44.4699 104.315 44.4699Z" stroke="#1356A0" stroke-miterlimit="10"/>
<path d="M104.315 45.1837H103.211C103.033 45.1837 102.891 45.0409 102.891 44.8625C102.891 44.4699 103.496 44.3986 103.781 44.3986C103.959 44.3986 104.172 44.4342 104.35 44.5056C104.493 44.577 104.671 44.6841 104.671 44.8625C104.671 45.0409 104.493 45.1837 104.315 45.1837Z" stroke="#1356A0" stroke-miterlimit="10"/>
<path d="M104.315 45.8618H103.211C103.033 45.8618 102.891 45.719 102.891 45.5406C102.891 45.148 103.496 45.0767 103.781 45.0767C103.959 45.0767 104.172 45.1123 104.35 45.1837C104.493 45.2551 104.671 45.3622 104.671 45.5406C104.671 45.719 104.493 45.8618 104.315 45.8618Z" stroke="#1356A0" stroke-miterlimit="10"/>
<path d="M104.315 46.5755H103.211C103.033 46.5755 102.891 46.4328 102.891 46.2543C102.891 45.8618 103.496 45.7904 103.781 45.7904C103.959 45.7904 104.172 45.8261 104.35 45.8975C104.493 45.9688 104.671 46.0759 104.671 46.2543C104.671 46.4328 104.493 46.5755 104.315 46.5755Z" stroke="#1356A0" stroke-miterlimit="10"/>
<path d="M104.315 47.2535H103.211C103.033 47.2535 102.891 47.1108 102.891 46.9323C102.891 46.5398 103.496 46.4684 103.781 46.4684C103.959 46.4684 104.172 46.5041 104.35 46.5754C104.493 46.6468 104.671 46.7539 104.671 46.9323C104.671 47.1108 104.493 47.2535 104.315 47.2535Z" stroke="#1356A0" stroke-miterlimit="10"/>
<path d="M104.315 47.9673H103.211C103.033 47.9673 102.891 47.8245 102.891 47.6461C102.891 47.2535 103.496 47.1821 103.781 47.1821C103.959 47.1821 104.172 47.2178 104.35 47.2892C104.493 47.3606 104.671 47.4676 104.671 47.6461C104.671 47.8245 104.493 47.9673 104.315 47.9673Z" stroke="#1356A0" stroke-miterlimit="10"/>
<path d="M104.315 48.6454H103.211C103.033 48.6454 102.891 48.5026 102.891 48.3242C102.891 47.9316 103.496 47.8602 103.781 47.8602C103.959 47.8602 104.172 47.8959 104.35 47.9673C104.493 48.0387 104.671 48.1457 104.671 48.3242C104.671 48.5026 104.493 48.6454 104.315 48.6454Z" stroke="#1356A0" stroke-miterlimit="10"/>
<path d="M104.315 49.3591H103.211C103.033 49.3591 102.891 49.2164 102.891 49.0379C102.891 48.6453 103.496 48.574 103.781 48.574C103.959 48.574 104.172 48.6097 104.35 48.681C104.493 48.7524 104.671 48.8595 104.671 49.0379C104.671 49.2164 104.493 49.3591 104.315 49.3591Z" stroke="#1356A0" stroke-miterlimit="10"/>
<path d="M104.385 50.5011C104.313 50.5011 104.242 50.4297 104.242 50.3583V50.0372C104.242 49.9658 104.313 49.8944 104.385 49.8944C104.456 49.8944 104.527 49.9658 104.527 50.0372V50.3227C104.563 50.4297 104.491 50.5011 104.385 50.5011Z" stroke="#1356A0" stroke-miterlimit="10"/>
<path d="M130.696 52.8922H102.43V54.284H130.696V52.8922Z" stroke="#1356A0" stroke-miterlimit="10"/>
<path d="M129.448 54.8907H129.27V55.5688H129.448V54.8907Z" stroke="#1356A0" stroke-miterlimit="10"/>
<path d="M129.343 54.9622C129.129 54.9622 128.773 54.7837 128.773 54.5339V54.2484H128.951V54.5339C128.951 54.6767 129.165 54.8194 129.343 54.8194C129.521 54.8194 129.735 54.6767 129.735 54.5339V54.2484H129.913V54.5339C129.913 54.7837 129.557 54.9622 129.343 54.9622Z" stroke="#1356A0" stroke-miterlimit="10"/>
<path d="M128.701 62.7421C128.63 62.7421 128.559 62.6708 128.559 62.5994V62.3139C128.559 62.2425 128.63 62.1711 128.701 62.1711C128.772 62.1711 128.843 62.2425 128.843 62.3139V62.5994C128.879 62.6708 128.808 62.7421 128.701 62.7421Z" stroke="#1356A0" stroke-miterlimit="10"/>
<path d="M130.053 62.528H129.875V62.0283C129.875 61.7071 129.626 61.493 129.341 61.493C129.056 61.493 128.807 61.7428 128.807 62.0283V62.528H128.629V62.0283C128.629 61.6358 128.949 61.3146 129.341 61.3146C129.733 61.3146 130.053 61.6358 130.053 62.0283V62.528Z" stroke="#1356A0" stroke-miterlimit="10"/>
<path d="M129.912 56.0328H128.809C128.631 56.0328 128.488 55.8901 128.488 55.7116C128.488 55.3191 129.093 55.2477 129.378 55.2477C129.556 55.2477 129.77 55.2834 129.948 55.3547C130.09 55.4261 130.268 55.5332 130.268 55.7116C130.233 55.8901 130.09 56.0328 129.912 56.0328Z" stroke="#1356A0" stroke-miterlimit="10"/>
<path d="M129.912 56.7466H128.809C128.631 56.7466 128.488 56.6038 128.488 56.4254C128.488 56.0328 129.093 55.9614 129.378 55.9614C129.556 55.9614 129.77 55.9971 129.948 56.0685C130.09 56.1399 130.268 56.2469 130.268 56.4254C130.233 56.6038 130.09 56.7466 129.912 56.7466Z" stroke="#1356A0" stroke-miterlimit="10"/>
<path d="M129.912 57.4247H128.809C128.631 57.4247 128.488 57.2819 128.488 57.1035C128.488 56.7109 129.093 56.6395 129.378 56.6395C129.556 56.6395 129.77 56.6752 129.948 56.7466C130.09 56.818 130.268 56.925 130.268 57.1035C130.233 57.2819 130.09 57.4247 129.912 57.4247Z" stroke="#1356A0" stroke-miterlimit="10"/>
<path d="M129.912 58.1384H128.809C128.631 58.1384 128.488 57.9957 128.488 57.8172C128.488 57.4246 129.093 57.3533 129.378 57.3533C129.556 57.3533 129.77 57.389 129.948 57.4603C130.09 57.5317 130.268 57.6388 130.268 57.8172C130.233 57.9957 130.09 58.1384 129.912 58.1384Z" stroke="#1356A0" stroke-miterlimit="10"/>
<path d="M129.912 58.8165H128.809C128.631 58.8165 128.488 58.6738 128.488 58.4953C128.488 58.1027 129.093 58.0314 129.378 58.0314C129.556 58.0314 129.77 58.0671 129.948 58.1384C130.09 58.2098 130.268 58.3169 130.268 58.4953C130.233 58.6738 130.09 58.8165 129.912 58.8165Z" stroke="#1356A0" stroke-miterlimit="10"/>
<path d="M129.912 59.5303H128.809C128.631 59.5303 128.488 59.3875 128.488 59.2091C128.488 58.8165 129.093 58.7451 129.378 58.7451C129.556 58.7451 129.77 58.7808 129.948 58.8522C130.09 58.9236 130.268 59.0306 130.268 59.2091C130.233 59.3875 130.09 59.5303 129.912 59.5303Z" stroke="#1356A0" stroke-miterlimit="10"/>
<path d="M129.912 60.2082H128.809C128.631 60.2082 128.488 60.0655 128.488 59.887C128.488 59.4945 129.093 59.4231 129.378 59.4231C129.556 59.4231 129.77 59.4588 129.948 59.5302C130.09 59.6015 130.268 59.7086 130.268 59.887C130.233 60.0655 130.09 60.2082 129.912 60.2082Z" stroke="#1356A0" stroke-miterlimit="10"/>
<path d="M129.912 60.922H128.809C128.631 60.922 128.488 60.7792 128.488 60.6008C128.488 60.2082 129.093 60.1368 129.378 60.1368C129.556 60.1368 129.77 60.1725 129.948 60.2439C130.09 60.3153 130.268 60.4223 130.268 60.6008C130.233 60.7792 130.09 60.922 129.912 60.922Z" stroke="#1356A0" stroke-miterlimit="10"/>
<path d="M129.912 61.6001H128.809C128.631 61.6001 128.488 61.4573 128.488 61.2789C128.488 60.8863 129.093 60.8149 129.378 60.8149C129.556 60.8149 129.77 60.8506 129.948 60.922C130.09 60.9934 130.268 61.1004 130.268 61.2789C130.233 61.4573 130.09 61.6001 129.912 61.6001Z" stroke="#1356A0" stroke-miterlimit="10"/>
<path d="M129.982 62.7421C129.911 62.7421 129.84 62.6708 129.84 62.5994V62.3139C129.84 62.2425 129.911 62.1711 129.982 62.1711C130.053 62.1711 130.125 62.2425 130.125 62.3139V62.5994C130.125 62.6708 130.053 62.7421 129.982 62.7421Z" stroke="#1356A0" stroke-miterlimit="10"/>
<path d="M103.889 54.8907H103.711V55.5688H103.889V54.8907Z" stroke="#1356A0" stroke-miterlimit="10"/>
<path d="M103.781 54.9622C103.567 54.9622 103.211 54.7837 103.211 54.5339V54.2484H103.389V54.5339C103.389 54.6767 103.603 54.8194 103.781 54.8194C103.959 54.8194 104.172 54.6767 104.172 54.5339V54.2484H104.35V54.5339C104.35 54.7837 103.994 54.9622 103.781 54.9622Z" stroke="#1356A0" stroke-miterlimit="10"/>
<path d="M103.138 62.7421C103.067 62.7421 102.996 62.6708 102.996 62.5994V62.3139C102.996 62.2425 103.067 62.1711 103.138 62.1711C103.21 62.1711 103.281 62.2425 103.281 62.3139V62.5994C103.281 62.6708 103.245 62.7421 103.138 62.7421Z" stroke="#1356A0" stroke-miterlimit="10"/>
<path d="M104.494 62.528H104.316V62.0283C104.316 61.7071 104.067 61.493 103.782 61.493C103.498 61.493 103.248 61.7428 103.248 62.0283V62.528H103.07V62.0283C103.07 61.6358 103.391 61.3146 103.782 61.3146C104.174 61.3146 104.494 61.6358 104.494 62.0283V62.528Z" stroke="#1356A0" stroke-miterlimit="10"/>
<path d="M104.315 56.0328H103.211C103.033 56.0328 102.891 55.8901 102.891 55.7116C102.891 55.3191 103.496 55.2477 103.781 55.2477C103.959 55.2477 104.172 55.2834 104.35 55.3547C104.493 55.4261 104.671 55.5332 104.671 55.7116C104.671 55.8901 104.493 56.0328 104.315 56.0328Z" stroke="#1356A0" stroke-miterlimit="10"/>
<path d="M104.315 56.7466H103.211C103.033 56.7466 102.891 56.6038 102.891 56.4254C102.891 56.0328 103.496 55.9614 103.781 55.9614C103.959 55.9614 104.172 55.9971 104.35 56.0685C104.493 56.1399 104.671 56.2469 104.671 56.4254C104.671 56.6038 104.493 56.7466 104.315 56.7466Z" stroke="#1356A0" stroke-miterlimit="10"/>
<path d="M104.315 57.4247H103.211C103.033 57.4247 102.891 57.2819 102.891 57.1035C102.891 56.7109 103.496 56.6395 103.781 56.6395C103.959 56.6395 104.172 56.6752 104.35 56.7466C104.493 56.818 104.671 56.925 104.671 57.1035C104.671 57.2819 104.493 57.4247 104.315 57.4247Z" stroke="#1356A0" stroke-miterlimit="10"/>
<path d="M104.315 58.1384H103.211C103.033 58.1384 102.891 57.9957 102.891 57.8172C102.891 57.4246 103.496 57.3533 103.781 57.3533C103.959 57.3533 104.172 57.389 104.35 57.4603C104.493 57.5317 104.671 57.6388 104.671 57.8172C104.671 57.9957 104.493 58.1384 104.315 58.1384Z" stroke="#1356A0" stroke-miterlimit="10"/>
<path d="M104.315 58.8165H103.211C103.033 58.8165 102.891 58.6738 102.891 58.4953C102.891 58.1027 103.496 58.0314 103.781 58.0314C103.959 58.0314 104.172 58.0671 104.35 58.1384C104.493 58.2098 104.671 58.3169 104.671 58.4953C104.671 58.6738 104.493 58.8165 104.315 58.8165Z" stroke="#1356A0" stroke-miterlimit="10"/>
<path d="M104.315 59.5303H103.211C103.033 59.5303 102.891 59.3875 102.891 59.2091C102.891 58.8165 103.496 58.7451 103.781 58.7451C103.959 58.7451 104.172 58.7808 104.35 58.8522C104.493 58.9236 104.671 59.0306 104.671 59.2091C104.671 59.3875 104.493 59.5303 104.315 59.5303Z" stroke="#1356A0" stroke-miterlimit="10"/>
<path d="M104.315 60.2082H103.211C103.033 60.2082 102.891 60.0655 102.891 59.887C102.891 59.4945 103.496 59.4231 103.781 59.4231C103.959 59.4231 104.172 59.4588 104.35 59.5302C104.493 59.6015 104.671 59.7086 104.671 59.887C104.671 60.0655 104.493 60.2082 104.315 60.2082Z" stroke="#1356A0" stroke-miterlimit="10"/>
<path d="M104.315 60.922H103.211C103.033 60.922 102.891 60.7792 102.891 60.6008C102.891 60.2082 103.496 60.1368 103.781 60.1368C103.959 60.1368 104.172 60.1725 104.35 60.2439C104.493 60.3153 104.671 60.4223 104.671 60.6008C104.671 60.7792 104.493 60.922 104.315 60.922Z" stroke="#1356A0" stroke-miterlimit="10"/>
<path d="M104.315 61.6001H103.211C103.033 61.6001 102.891 61.4573 102.891 61.2789C102.891 60.8863 103.496 60.8149 103.781 60.8149C103.959 60.8149 104.172 60.8506 104.35 60.922C104.493 60.9934 104.671 61.1004 104.671 61.2789C104.671 61.4573 104.493 61.6001 104.315 61.6001Z" stroke="#1356A0" stroke-miterlimit="10"/>
<path d="M104.385 62.7421C104.313 62.7421 104.242 62.6708 104.242 62.5994V62.3139C104.242 62.2425 104.313 62.1711 104.385 62.1711C104.456 62.1711 104.527 62.2425 104.527 62.3139V62.5994C104.563 62.6708 104.491 62.7421 104.385 62.7421Z" stroke="#1356A0" stroke-miterlimit="10"/>
<path d="M119.27 4.17847H118.273V28.6602H119.27V4.17847Z" stroke="#1356A0" stroke-miterlimit="10"/>
<path d="M117.169 102.177V26.9473H114.25V101.963C115.211 101.999 116.208 102.07 117.169 102.177Z" stroke="#1356A0" stroke-miterlimit="10"/>
<path d="M118.307 102.284V26.9473H117.168V102.177C117.524 102.213 117.916 102.248 118.307 102.284Z" stroke="#1356A0" stroke-miterlimit="10"/>
<path d="M115.959 31.5866C115.959 31.7294 115.853 31.8364 115.71 31.8364C115.568 31.8364 115.461 31.7294 115.461 31.5866C115.461 31.4439 115.568 31.3368 115.71 31.3368C115.853 31.3368 115.959 31.4439 115.959 31.5866Z" stroke="#1356A0" stroke-miterlimit="10"/>
<path d="M115.959 36.0119C115.959 36.1546 115.853 36.2617 115.71 36.2617C115.568 36.2617 115.461 36.1546 115.461 36.0119C115.461 35.8691 115.568 35.7621 115.71 35.7621C115.853 35.7621 115.959 35.9048 115.959 36.0119Z" stroke="#1356A0" stroke-miterlimit="10"/>
<path d="M115.959 40.4728C115.959 40.6156 115.853 40.7227 115.71 40.7227C115.568 40.7227 115.461 40.6156 115.461 40.4728C115.461 40.3301 115.568 40.223 115.71 40.223C115.853 40.223 115.959 40.3301 115.959 40.4728Z" stroke="#1356A0" stroke-miterlimit="10"/>
<path d="M115.959 44.9339C115.959 45.0766 115.853 45.1837 115.71 45.1837C115.568 45.1837 115.461 45.0766 115.461 44.9339C115.461 44.7911 115.568 44.6841 115.71 44.6841C115.853 44.6841 115.959 44.7911 115.959 44.9339Z" stroke="#1356A0" stroke-miterlimit="10"/>
<path d="M115.959 49.3592C115.959 49.5019 115.853 49.609 115.71 49.609C115.568 49.609 115.461 49.5019 115.461 49.3592C115.461 49.2164 115.568 49.1094 115.71 49.1094C115.853 49.1094 115.959 49.2164 115.959 49.3592Z" stroke="#1356A0" stroke-miterlimit="10"/>
<path d="M115.959 53.8201C115.959 53.9629 115.853 54.0699 115.71 54.0699C115.568 54.0699 115.461 53.9629 115.461 53.8201C115.461 53.6774 115.568 53.5703 115.71 53.5703C115.853 53.5703 115.959 53.6774 115.959 53.8201Z" stroke="#1356A0" stroke-miterlimit="10"/>
<path d="M115.959 58.2811C115.959 58.4239 115.853 58.5309 115.71 58.5309C115.568 58.5309 115.461 58.4239 115.461 58.2811C115.461 58.1384 115.568 58.0313 115.71 58.0313C115.853 57.9956 115.959 58.1384 115.959 58.2811Z" stroke="#1356A0" stroke-miterlimit="10"/>
<path d="M115.959 62.7064C115.959 62.8491 115.853 62.9562 115.71 62.9562C115.568 62.9562 115.461 62.8491 115.461 62.7064C115.461 62.5636 115.568 62.4565 115.71 62.4565C115.853 62.4565 115.959 62.5636 115.959 62.7064Z" stroke="#1356A0" stroke-miterlimit="10"/>
<path d="M115.71 71.8424C115.848 71.8424 115.959 71.7306 115.959 71.5926C115.959 71.4546 115.848 71.3428 115.71 71.3428C115.573 71.3428 115.461 71.4546 115.461 71.5926C115.461 71.7306 115.573 71.8424 115.71 71.8424Z" stroke="#1356A0" stroke-miterlimit="10"/>
<path d="M115.959 80.5145C115.959 80.6572 115.853 80.7643 115.71 80.7643C115.568 80.7643 115.461 80.6572 115.461 80.5145C115.461 80.3717 115.568 80.2646 115.71 80.2646C115.853 80.2646 115.959 80.3717 115.959 80.5145Z" stroke="#1356A0" stroke-miterlimit="10"/>
<path d="M117.169 25.8052H114.25V28.6602H117.169V25.8052Z" stroke="#1356A0" stroke-miterlimit="10"/>
<path d="M118.308 28.6602V26.5903L117.168 25.8052H117.133V28.6602H118.308Z" stroke="#1356A0" stroke-miterlimit="10"/>
<path d="M118.308 28.6602V26.5903L117.169 25.8052H114.25V28.6602H118.308Z" stroke="#1356A0" stroke-miterlimit="10"/>
<path d="M118.308 102.284V26.5903L117.168 25.8052L117.133 102.177C117.524 102.213 117.916 102.248 118.308 102.284Z" fill="#1356A0"/>
<path d="M102.891 31.1941L102.997 36.9398H103.531L104.137 37.0826L104.564 36.9041L104.599 30.8729L103.781 30.6945L103.104 30.8015L102.891 31.1941Z" fill="#1356A0"/>
<path d="M128.453 31.1941L128.702 30.7658L129.343 30.6945L129.913 30.8372L130.233 31.1941L130.126 37.1182L128.952 37.0112L128.631 37.0826L128.453 31.1941Z" fill="#1356A0"/>
<path d="M102.93 43.2922L103.926 43.0424L104.567 43.3279L104.496 49.3591L103.072 49.3234L102.93 43.2922Z" fill="#1356A0"/>
<path d="M128.453 43.4349L129.094 43.0424H129.664L130.162 43.3279L130.126 49.252L128.809 49.3591L128.453 49.0379L128.56 43.7918L128.453 43.4349Z" fill="#1356A0"/>
<path d="M102.891 55.7115L103.104 55.3546L103.781 55.2476L104.35 55.3546L104.671 55.7115L104.528 61.5286H103.104L102.926 61.4929L102.891 55.7115Z" fill="#1356A0"/>
<path d="M128.453 55.7115L129.201 55.2476L130.055 55.4974L130.126 61.5643L128.809 61.6L128.489 61.4572L128.453 55.7115Z" fill="#1356A0"/>
<path d="M168.718 42.2573H144.332V43.4707H168.718V42.2573Z" stroke="#1356A0" stroke-miterlimit="10"/>
<path d="M167.611 43.9703H167.469V44.5413H167.611V43.9703Z" stroke="#1356A0" stroke-miterlimit="10"/>
<path d="M167.541 44.0417C167.363 44.0417 167.043 43.8632 167.043 43.6491V43.3993H167.185V43.6491C167.185 43.7562 167.399 43.8989 167.541 43.8989C167.684 43.8989 167.897 43.7919 167.897 43.6491V43.3993H168.04V43.6491C168.004 43.8989 167.719 44.0417 167.541 44.0417Z" stroke="#1356A0" stroke-miterlimit="10"/>
<path d="M167.006 50.8223C166.934 50.8223 166.863 50.7509 166.863 50.6796V50.4297C166.863 50.3584 166.934 50.287 167.006 50.287C167.077 50.287 167.148 50.3584 167.148 50.4297V50.6796C167.112 50.7866 167.077 50.8223 167.006 50.8223Z" stroke="#1356A0" stroke-miterlimit="10"/>
<path d="M168.148 50.644H168.006V50.2157C168.006 49.9659 167.792 49.7518 167.543 49.7518C167.293 49.7518 167.08 49.9659 167.08 50.2157V50.644H166.938V50.2157C166.938 49.8588 167.222 49.609 167.543 49.609C167.863 49.609 168.148 49.8945 168.148 50.2157V50.644Z" stroke="#1356A0" stroke-miterlimit="10"/>
<path d="M168.004 45.0053H167.043C166.9 45.0053 166.758 44.8625 166.758 44.7198C166.758 44.3986 167.256 44.2915 167.505 44.2915C167.683 44.2915 167.826 44.3272 168.004 44.3986C168.146 44.4699 168.289 44.5413 168.289 44.7198C168.289 44.8625 168.182 45.0053 168.004 45.0053Z" stroke="#1356A0" stroke-miterlimit="10"/>
<path d="M168.004 45.6119H167.043C166.9 45.6119 166.758 45.4692 166.758 45.3264C166.758 45.0053 167.256 44.8982 167.505 44.8982C167.683 44.8982 167.826 44.9339 168.004 45.0053C168.146 45.0766 168.289 45.148 168.289 45.3264C168.289 45.4692 168.182 45.6119 168.004 45.6119Z" stroke="#1356A0" stroke-miterlimit="10"/>
<path d="M168.004 46.2186H167.043C166.9 46.2186 166.758 46.0759 166.758 45.9331C166.758 45.6119 167.256 45.5049 167.505 45.5049C167.683 45.5049 167.826 45.5406 168.004 45.6119C168.146 45.6833 168.289 45.7547 168.289 45.9331C168.289 46.0759 168.182 46.2186 168.004 46.2186Z" stroke="#1356A0" stroke-miterlimit="10"/>
<path d="M168.004 46.8253H167.043C166.9 46.8253 166.758 46.6826 166.758 46.5398C166.758 46.2186 167.256 46.1116 167.505 46.1116C167.683 46.1116 167.826 46.1473 168.004 46.2186C168.146 46.29 168.289 46.3614 168.289 46.5398C168.289 46.6826 168.182 46.8253 168.004 46.8253Z" stroke="#1356A0" stroke-miterlimit="10"/>
<path d="M168.004 47.432H167.043C166.9 47.432 166.758 47.2893 166.758 47.1465C166.758 46.8253 167.256 46.7183 167.505 46.7183C167.683 46.7183 167.826 46.754 168.004 46.8253C168.146 46.8967 168.289 46.9681 168.289 47.1465C168.289 47.2893 168.182 47.432 168.004 47.432Z" stroke="#1356A0" stroke-miterlimit="10"/>
<path d="M168.004 48.0387H167.043C166.9 48.0387 166.758 47.896 166.758 47.7532C166.758 47.432 167.256 47.325 167.505 47.325C167.683 47.325 167.826 47.3606 168.004 47.432C168.146 47.5034 168.289 47.5748 168.289 47.7532C168.289 47.896 168.182 48.0387 168.004 48.0387Z" stroke="#1356A0" stroke-miterlimit="10"/>
<path d="M168.004 48.6454H167.043C166.9 48.6454 166.758 48.5026 166.758 48.3599C166.758 48.0387 167.256 47.9316 167.505 47.9316C167.683 47.9316 167.826 47.9673 168.004 48.0387C168.146 48.1101 168.289 48.1815 168.289 48.3599C168.289 48.5026 168.182 48.6454 168.004 48.6454Z" stroke="#1356A0" stroke-miterlimit="10"/>
<path d="M168.004 49.2521H167.043C166.9 49.2521 166.758 49.1093 166.758 48.9666C166.758 48.6454 167.256 48.5383 167.505 48.5383C167.683 48.5383 167.826 48.574 168.004 48.6454C168.146 48.7168 168.289 48.7881 168.289 48.9666C168.289 49.1093 168.182 49.2521 168.004 49.2521Z" stroke="#1356A0" stroke-miterlimit="10"/>
<path d="M168.004 49.8588H167.043C166.9 49.8588 166.758 49.716 166.758 49.5733C166.758 49.2521 167.256 49.145 167.505 49.145C167.683 49.145 167.826 49.1807 168.004 49.2521C168.146 49.3235 168.289 49.3948 168.289 49.5733C168.289 49.716 168.182 49.8588 168.004 49.8588Z" stroke="#1356A0" stroke-miterlimit="10"/>
<path d="M168.076 50.8223C168.005 50.8223 167.934 50.7509 167.934 50.6796V50.4297C167.934 50.3584 168.005 50.287 168.076 50.287C168.147 50.287 168.218 50.3584 168.218 50.4297V50.6796C168.218 50.7866 168.147 50.8223 168.076 50.8223Z" stroke="#1356A0" stroke-miterlimit="10"/>
<path d="M145.576 43.9703H145.434V44.5413H145.576V43.9703Z" stroke="#1356A0" stroke-miterlimit="10"/>
<path d="M145.471 44.0417C145.293 44.0417 144.973 43.8632 144.973 43.6491V43.3993H145.115V43.6491C145.115 43.7562 145.329 43.8989 145.471 43.8989C145.613 43.8989 145.827 43.7919 145.827 43.6491V43.3993H145.969V43.6491C145.969 43.8989 145.685 44.0417 145.471 44.0417Z" stroke="#1356A0" stroke-miterlimit="10"/>
<path d="M144.935 50.8223C144.864 50.8223 144.793 50.7509 144.793 50.6796V50.4297C144.793 50.3584 144.864 50.287 144.935 50.287C145.007 50.287 145.078 50.3584 145.078 50.4297V50.6796C145.078 50.7866 145.007 50.8223 144.935 50.8223Z" stroke="#1356A0" stroke-miterlimit="10"/>
<path d="M146.113 50.644H145.97V50.2157C145.97 49.9659 145.757 49.7518 145.508 49.7518C145.258 49.7518 145.045 49.9659 145.045 50.2157V50.644H144.902V50.2157C144.902 49.8588 145.187 49.609 145.508 49.609C145.828 49.609 146.113 49.8945 146.113 50.2157V50.644Z" stroke="#1356A0" stroke-miterlimit="10"/>
<path d="M145.969 45.0053H145.007C144.865 45.0053 144.723 44.8625 144.723 44.7198C144.723 44.3986 145.221 44.2915 145.47 44.2915C145.648 44.2915 145.791 44.3272 145.969 44.3986C146.111 44.4699 146.253 44.5413 146.253 44.7198C146.253 44.8625 146.111 45.0053 145.969 45.0053Z" stroke="#1356A0" stroke-miterlimit="10"/>
<path d="M145.969 45.6119H145.007C144.865 45.6119 144.723 45.4692 144.723 45.3264C144.723 45.0053 145.221 44.8982 145.47 44.8982C145.648 44.8982 145.791 44.9339 145.969 45.0053C146.111 45.0766 146.253 45.148 146.253 45.3264C146.253 45.4692 146.111 45.6119 145.969 45.6119Z" stroke="#1356A0" stroke-miterlimit="10"/>
<path d="M145.969 46.2186H145.007C144.865 46.2186 144.723 46.0759 144.723 45.9331C144.723 45.6119 145.221 45.5049 145.47 45.5049C145.648 45.5049 145.791 45.5406 145.969 45.6119C146.111 45.6833 146.253 45.7547 146.253 45.9331C146.253 46.0759 146.111 46.2186 145.969 46.2186Z" stroke="#1356A0" stroke-miterlimit="10"/>
<path d="M145.969 46.8253H145.007C144.865 46.8253 144.723 46.6826 144.723 46.5398C144.723 46.2186 145.221 46.1116 145.47 46.1116C145.648 46.1116 145.791 46.1473 145.969 46.2186C146.111 46.29 146.253 46.3614 146.253 46.5398C146.253 46.6826 146.111 46.8253 145.969 46.8253Z" stroke="#1356A0" stroke-miterlimit="10"/>
<path d="M145.969 47.432H145.007C144.865 47.432 144.723 47.2893 144.723 47.1465C144.723 46.8253 145.221 46.7183 145.47 46.7183C145.648 46.7183 145.791 46.754 145.969 46.8253C146.111 46.8967 146.253 46.9681 146.253 47.1465C146.253 47.2893 146.111 47.432 145.969 47.432Z" stroke="#1356A0" stroke-miterlimit="10"/>
<path d="M145.969 48.0387H145.007C144.865 48.0387 144.723 47.896 144.723 47.7532C144.723 47.432 145.221 47.325 145.47 47.325C145.648 47.325 145.791 47.3606 145.969 47.432C146.111 47.5034 146.253 47.5748 146.253 47.7532C146.253 47.896 146.111 48.0387 145.969 48.0387Z" stroke="#1356A0" stroke-miterlimit="10"/>
<path d="M145.969 48.6454H145.007C144.865 48.6454 144.723 48.5026 144.723 48.3599C144.723 48.0387 145.221 47.9316 145.47 47.9316C145.648 47.9316 145.791 47.9673 145.969 48.0387C146.111 48.1101 146.253 48.1815 146.253 48.3599C146.253 48.5026 146.111 48.6454 145.969 48.6454Z" stroke="#1356A0" stroke-miterlimit="10"/>
<path d="M145.969 49.2521H145.007C144.865 49.2521 144.723 49.1093 144.723 48.9666C144.723 48.6454 145.221 48.5383 145.47 48.5383C145.648 48.5383 145.791 48.574 145.969 48.6454C146.111 48.7168 146.253 48.7881 146.253 48.9666C146.253 49.1093 146.111 49.2521 145.969 49.2521Z" stroke="#1356A0" stroke-miterlimit="10"/>
<path d="M145.969 49.8588H145.007C144.865 49.8588 144.723 49.716 144.723 49.5733C144.723 49.2521 145.221 49.145 145.47 49.145C145.648 49.145 145.791 49.1807 145.969 49.2521C146.111 49.3235 146.253 49.3948 146.253 49.5733C146.253 49.716 146.111 49.8588 145.969 49.8588Z" stroke="#1356A0" stroke-miterlimit="10"/>
<path d="M146.041 50.8223C145.97 50.8223 145.898 50.7509 145.898 50.6796V50.4297C145.898 50.3584 145.97 50.287 146.041 50.287C146.112 50.287 146.183 50.3584 146.183 50.4297V50.6796C146.148 50.7866 146.112 50.8223 146.041 50.8223Z" stroke="#1356A0" stroke-miterlimit="10"/>
<path d="M168.718 52.928H144.332V54.1414H168.718V52.928Z" stroke="#1356A0" stroke-miterlimit="10"/>
<path d="M167.611 54.641H167.469V55.212H167.611V54.641Z" stroke="#1356A0" stroke-miterlimit="10"/>
<path d="M167.541 54.7123C167.363 54.7123 167.043 54.5339 167.043 54.3198V54.0699H167.185V54.3198C167.185 54.4268 167.399 54.5696 167.541 54.5696C167.684 54.5696 167.897 54.4625 167.897 54.3198V54.0699H168.04V54.3198C168.004 54.5696 167.719 54.7123 167.541 54.7123Z" stroke="#1356A0" stroke-miterlimit="10"/>
<path d="M167.006 61.493C166.934 61.493 166.863 61.4216 166.863 61.3502V61.1004C166.863 61.029 166.934 60.9576 167.006 60.9576C167.077 60.9576 167.148 61.029 167.148 61.1004V61.3502C167.112 61.4573 167.077 61.493 167.006 61.493Z" stroke="#1356A0" stroke-miterlimit="10"/>
<path d="M168.148 61.3146H168.006V60.8864C168.006 60.6365 167.792 60.4224 167.543 60.4224C167.293 60.4224 167.08 60.6365 167.08 60.8864V61.3146H166.938V60.8864C166.938 60.5295 167.222 60.2797 167.543 60.2797C167.863 60.2797 168.148 60.5652 168.148 60.8864V61.3146Z" stroke="#1356A0" stroke-miterlimit="10"/>
<path d="M168.004 55.6759H167.043C166.9 55.6759 166.758 55.5332 166.758 55.3904C166.758 55.0692 167.256 54.9622 167.505 54.9622C167.683 54.9622 167.826 54.9978 168.004 55.0692C168.146 55.1406 168.289 55.212 168.289 55.3904C168.289 55.5332 168.182 55.6759 168.004 55.6759Z" stroke="#1356A0" stroke-miterlimit="10"/>
<path d="M168.004 56.2826H167.043C166.9 56.2826 166.758 56.1399 166.758 55.9971C166.758 55.6759 167.256 55.5688 167.505 55.5688C167.683 55.5688 167.826 55.6045 168.004 55.6759C168.146 55.7473 168.289 55.8187 168.289 55.9971C168.289 56.1399 168.182 56.2826 168.004 56.2826Z" stroke="#1356A0" stroke-miterlimit="10"/>
<path d="M168.004 56.8893H167.043C166.9 56.8893 166.758 56.7465 166.758 56.6038C166.758 56.2826 167.256 56.1755 167.505 56.1755C167.683 56.1755 167.826 56.2112 168.004 56.2826C168.146 56.354 168.289 56.4254 168.289 56.6038C168.289 56.7465 168.182 56.8893 168.004 56.8893Z" stroke="#1356A0" stroke-miterlimit="10"/>
<path d="M168.004 57.496H167.043C166.9 57.496 166.758 57.3532 166.758 57.2105C166.758 56.8893 167.256 56.7822 167.505 56.7822C167.683 56.7822 167.826 56.8179 168.004 56.8893C168.146 56.9607 168.289 57.032 168.289 57.2105C168.289 57.3532 168.182 57.496 168.004 57.496Z" stroke="#1356A0" stroke-miterlimit="10"/>
<path d="M168.004 58.1027H167.043C166.9 58.1027 166.758 57.9599 166.758 57.8172C166.758 57.496 167.256 57.3889 167.505 57.3889C167.683 57.3889 167.826 57.4246 168.004 57.496C168.146 57.5674 168.289 57.6387 168.289 57.8172C168.289 57.9599 168.182 58.1027 168.004 58.1027Z" stroke="#1356A0" stroke-miterlimit="10"/>
<path d="M168.004 58.7094H167.043C166.9 58.7094 166.758 58.5666 166.758 58.4239C166.758 58.1027 167.256 57.9956 167.505 57.9956C167.683 57.9956 167.826 58.0313 168.004 58.1027C168.146 58.174 168.289 58.2454 168.289 58.4239C168.289 58.5666 168.182 58.7094 168.004 58.7094Z" stroke="#1356A0" stroke-miterlimit="10"/>
<path d="M168.004 59.316H167.043C166.9 59.316 166.758 59.1733 166.758 59.0305C166.758 58.7094 167.256 58.6023 167.505 58.6023C167.683 58.6023 167.826 58.638 168.004 58.7094C168.146 58.7807 168.289 58.8521 168.289 59.0305C168.289 59.1733 168.182 59.316 168.004 59.316Z" stroke="#1356A0" stroke-miterlimit="10"/>
<path d="M168.004 59.9227H167.043C166.9 59.9227 166.758 59.78 166.758 59.6372C166.758 59.316 167.256 59.209 167.505 59.209C167.683 59.209 167.826 59.2447 168.004 59.316C168.146 59.3874 168.289 59.4588 168.289 59.6372C168.289 59.78 168.182 59.9227 168.004 59.9227Z" stroke="#1356A0" stroke-miterlimit="10"/>
<path d="M168.004 60.5294H167.043C166.9 60.5294 166.758 60.3867 166.758 60.2439C166.758 59.9227 167.256 59.8157 167.505 59.8157C167.683 59.8157 167.826 59.8514 168.004 59.9227C168.146 59.9941 168.289 60.0655 168.289 60.2439C168.289 60.3867 168.182 60.5294 168.004 60.5294Z" stroke="#1356A0" stroke-miterlimit="10"/>
<path d="M168.076 61.493C168.005 61.493 167.934 61.4216 167.934 61.3502V61.1004C167.934 61.029 168.005 60.9576 168.076 60.9576C168.147 60.9576 168.218 61.029 168.218 61.1004V61.3502C168.218 61.4573 168.147 61.493 168.076 61.493Z" stroke="#1356A0" stroke-miterlimit="10"/>
<path d="M145.576 54.641H145.434V55.212H145.576V54.641Z" stroke="#1356A0" stroke-miterlimit="10"/>
<path d="M145.471 54.7123C145.293 54.7123 144.973 54.5339 144.973 54.3198V54.0699H145.115V54.3198C145.115 54.4268 145.329 54.5696 145.471 54.5696C145.613 54.5696 145.827 54.4625 145.827 54.3198V54.0699H145.969V54.3198C145.969 54.5696 145.685 54.7123 145.471 54.7123Z" stroke="#1356A0" stroke-miterlimit="10"/>
<path d="M144.935 61.493C144.864 61.493 144.793 61.4216 144.793 61.3502V61.1004C144.793 61.029 144.864 60.9576 144.935 60.9576C145.007 60.9576 145.078 61.029 145.078 61.1004V61.3502C145.078 61.4573 145.007 61.493 144.935 61.493Z" stroke="#1356A0" stroke-miterlimit="10"/>
<path d="M146.113 61.3146H145.97V60.8864C145.97 60.6365 145.757 60.4224 145.508 60.4224C145.258 60.4224 145.045 60.6365 145.045 60.8864V61.3146H144.902V60.8864C144.902 60.5295 145.187 60.2797 145.508 60.2797C145.828 60.2797 146.113 60.5652 146.113 60.8864V61.3146Z" stroke="#1356A0" stroke-miterlimit="10"/>
<path d="M145.969 55.6759H145.007C144.865 55.6759 144.723 55.5332 144.723 55.3904C144.723 55.0692 145.221 54.9622 145.47 54.9622C145.648 54.9622 145.791 54.9978 145.969 55.0692C146.111 55.1406 146.253 55.212 146.253 55.3904C146.253 55.5332 146.111 55.6759 145.969 55.6759Z" stroke="#1356A0" stroke-miterlimit="10"/>
<path d="M145.969 56.2826H145.007C144.865 56.2826 144.723 56.1399 144.723 55.9971C144.723 55.6759 145.221 55.5688 145.47 55.5688C145.648 55.5688 145.791 55.6045 145.969 55.6759C146.111 55.7473 146.253 55.8187 146.253 55.9971C146.253 56.1399 146.111 56.2826 145.969 56.2826Z" stroke="#1356A0" stroke-miterlimit="10"/>
<path d="M145.969 56.8893H145.007C144.865 56.8893 144.723 56.7465 144.723 56.6038C144.723 56.2826 145.221 56.1755 145.47 56.1755C145.648 56.1755 145.791 56.2112 145.969 56.2826C146.111 56.354 146.253 56.4254 146.253 56.6038C146.253 56.7465 146.111 56.8893 145.969 56.8893Z" stroke="#1356A0" stroke-miterlimit="10"/>
<path d="M145.969 57.496H145.007C144.865 57.496 144.723 57.3532 144.723 57.2105C144.723 56.8893 145.221 56.7822 145.47 56.7822C145.648 56.7822 145.791 56.8179 145.969 56.8893C146.111 56.9607 146.253 57.032 146.253 57.2105C146.253 57.3532 146.111 57.496 145.969 57.496Z" stroke="#1356A0" stroke-miterlimit="10"/>
<path d="M145.969 58.1027H145.007C144.865 58.1027 144.723 57.9599 144.723 57.8172C144.723 57.496 145.221 57.3889 145.47 57.3889C145.648 57.3889 145.791 57.4246 145.969 57.496C146.111 57.5674 146.253 57.6387 146.253 57.8172C146.253 57.9599 146.111 58.1027 145.969 58.1027Z" stroke="#1356A0" stroke-miterlimit="10"/>
<path d="M145.969 58.7094H145.007C144.865 58.7094 144.723 58.5666 144.723 58.4239C144.723 58.1027 145.221 57.9956 145.47 57.9956C145.648 57.9956 145.791 58.0313 145.969 58.1027C146.111 58.174 146.253 58.2454 146.253 58.4239C146.253 58.5666 146.111 58.7094 145.969 58.7094Z" stroke="#1356A0" stroke-miterlimit="10"/>
<path d="M145.969 59.316H145.007C144.865 59.316 144.723 59.1733 144.723 59.0305C144.723 58.7094 145.221 58.6023 145.47 58.6023C145.648 58.6023 145.791 58.638 145.969 58.7094C146.111 58.7807 146.253 58.8521 146.253 59.0305C146.253 59.1733 146.111 59.316 145.969 59.316Z" stroke="#1356A0" stroke-miterlimit="10"/>
<path d="M145.969 59.9227H145.007C144.865 59.9227 144.723 59.78 144.723 59.6372C144.723 59.316 145.221 59.209 145.47 59.209C145.648 59.209 145.791 59.2447 145.969 59.316C146.111 59.3874 146.253 59.4588 146.253 59.6372C146.253 59.78 146.111 59.9227 145.969 59.9227Z" stroke="#1356A0" stroke-miterlimit="10"/>
<path d="M145.969 60.5294H145.007C144.865 60.5294 144.723 60.3867 144.723 60.2439C144.723 59.9227 145.221 59.8157 145.47 59.8157C145.648 59.8157 145.791 59.8514 145.969 59.9227C146.111 59.9941 146.253 60.0655 146.253 60.2439C146.253 60.3867 146.111 60.5294 145.969 60.5294Z" stroke="#1356A0" stroke-miterlimit="10"/>
<path d="M146.041 61.493C145.97 61.493 145.898 61.4216 145.898 61.3502V61.1004C145.898 61.029 145.97 60.9576 146.041 60.9576C146.112 60.9576 146.183 61.029 146.183 61.1004V61.3502C146.148 61.4573 146.112 61.493 146.041 61.493Z" stroke="#1356A0" stroke-miterlimit="10"/>
<path d="M168.718 63.5985H144.332V64.8119H168.718V63.5985Z" stroke="#1356A0" stroke-miterlimit="10"/>
<path d="M167.611 65.3116H167.469V65.8826H167.611V65.3116Z" stroke="#1356A0" stroke-miterlimit="10"/>
<path d="M167.541 65.383C167.363 65.383 167.043 65.2045 167.043 64.9904V64.7406H167.185V64.9904C167.185 65.0975 167.399 65.2402 167.541 65.2402C167.684 65.2402 167.897 65.1332 167.897 64.9904V64.7406H168.04V64.9904C168.004 65.2402 167.719 65.383 167.541 65.383Z" stroke="#1356A0" stroke-miterlimit="10"/>
<path d="M167.006 72.1994C166.934 72.1994 166.863 72.128 166.863 72.0566V71.8068C166.863 71.7354 166.934 71.6641 167.006 71.6641C167.077 71.6641 167.148 71.7354 167.148 71.8068V72.0566C167.112 72.128 167.077 72.1994 167.006 72.1994Z" stroke="#1356A0" stroke-miterlimit="10"/>
<path d="M168.148 71.9853H168.006V71.557C168.006 71.3072 167.792 71.0931 167.543 71.0931C167.293 71.0931 167.08 71.3072 167.08 71.557V71.9853H166.938V71.557C166.938 71.2001 167.222 70.9503 167.543 70.9503C167.863 70.9503 168.148 71.2358 168.148 71.557V71.9853Z" stroke="#1356A0" stroke-miterlimit="10"/>
<path d="M168.004 66.3466H167.043C166.9 66.3466 166.758 66.2038 166.758 66.0611C166.758 65.7399 167.256 65.6328 167.505 65.6328C167.683 65.6328 167.826 65.6685 168.004 65.7399C168.146 65.8113 168.289 65.8826 168.289 66.0611C168.289 66.2038 168.182 66.3466 168.004 66.3466Z" stroke="#1356A0" stroke-miterlimit="10"/>
<path d="M168.004 66.9533H167.043C166.9 66.9533 166.758 66.8105 166.758 66.6678C166.758 66.3466 167.256 66.2395 167.505 66.2395C167.683 66.2395 167.826 66.2752 168.004 66.3466C168.146 66.4179 168.289 66.4893 168.289 66.6678C168.289 66.8105 168.182 66.9533 168.004 66.9533Z" stroke="#1356A0" stroke-miterlimit="10"/>
<path d="M168.004 67.5599H167.043C166.9 67.5599 166.758 67.4172 166.758 67.2744C166.758 66.9533 167.256 66.8462 167.505 66.8462C167.683 66.8462 167.826 66.8819 168.004 66.9533C168.146 67.0246 168.289 67.096 168.289 67.2744C168.289 67.4172 168.182 67.5599 168.004 67.5599Z" stroke="#1356A0" stroke-miterlimit="10"/>
<path d="M168.004 68.1666H167.043C166.9 68.1666 166.758 68.0239 166.758 67.8811C166.758 67.5599 167.256 67.4529 167.505 67.4529C167.683 67.4529 167.826 67.4886 168.004 67.5599C168.146 67.6313 168.289 67.7027 168.289 67.8811C168.289 68.0239 168.182 68.1666 168.004 68.1666Z" stroke="#1356A0" stroke-miterlimit="10"/>
<path d="M168.004 68.7733H167.043C166.9 68.7733 166.758 68.6306 166.758 68.4878C166.758 68.1666 167.256 68.0596 167.505 68.0596C167.683 68.0596 167.826 68.0953 168.004 68.1666C168.146 68.238 168.289 68.3094 168.289 68.4878C168.289 68.6306 168.182 68.7733 168.004 68.7733Z" stroke="#1356A0" stroke-miterlimit="10"/>
<path d="M168.004 69.38H167.043C166.9 69.38 166.758 69.2373 166.758 69.0945C166.758 68.7733 167.256 68.6663 167.505 68.6663C167.683 68.6663 167.826 68.7019 168.004 68.7733C168.146 68.8447 168.289 68.9161 168.289 69.0945C168.289 69.2373 168.182 69.38 168.004 69.38Z" stroke="#1356A0" stroke-miterlimit="10"/>
<path d="M168.004 69.9867H167.043C166.9 69.9867 166.758 69.844 166.758 69.7012C166.758 69.38 167.256 69.2729 167.505 69.2729C167.683 69.2729 167.826 69.3086 168.004 69.38C168.146 69.4514 168.289 69.5228 168.289 69.7012C168.289 69.844 168.182 69.9867 168.004 69.9867Z" stroke="#1356A0" stroke-miterlimit="10"/>
<path d="M168.004 70.5934H167.043C166.9 70.5934 166.758 70.4506 166.758 70.3079C166.758 69.9867 167.256 69.8796 167.505 69.8796C167.683 69.8796 167.826 69.9153 168.004 69.9867C168.146 70.0581 168.289 70.1295 168.289 70.3079C168.289 70.4506 168.182 70.5934 168.004 70.5934Z" stroke="#1356A0" stroke-miterlimit="10"/>
<path d="M168.004 71.2001H167.043C166.9 71.2001 166.758 71.0573 166.758 70.9146C166.758 70.5934 167.256 70.4863 167.505 70.4863C167.683 70.4863 167.826 70.522 168.004 70.5934C168.146 70.6648 168.289 70.7361 168.289 70.9146C168.289 71.0573 168.182 71.2001 168.004 71.2001Z" stroke="#1356A0" stroke-miterlimit="10"/>
<path d="M168.076 72.1994C168.005 72.1994 167.934 72.128 167.934 72.0566V71.8068C167.934 71.7354 168.005 71.6641 168.076 71.6641C168.147 71.6641 168.218 71.7354 168.218 71.8068V72.0566C168.218 72.128 168.147 72.1994 168.076 72.1994Z" stroke="#1356A0" stroke-miterlimit="10"/>
<path d="M145.576 65.3116H145.434V65.8826H145.576V65.3116Z" stroke="#1356A0" stroke-miterlimit="10"/>
<path d="M145.471 65.383C145.293 65.383 144.973 65.2045 144.973 64.9904V64.7406H145.115V64.9904C145.115 65.0975 145.329 65.2402 145.471 65.2402C145.613 65.2402 145.827 65.1332 145.827 64.9904V64.7406H145.969V64.9904C145.969 65.2402 145.685 65.383 145.471 65.383Z" stroke="#1356A0" stroke-miterlimit="10"/>
<path d="M144.935 72.1994C144.864 72.1994 144.793 72.128 144.793 72.0566V71.8068C144.793 71.7354 144.864 71.6641 144.935 71.6641C145.007 71.6641 145.078 71.7354 145.078 71.8068V72.0566C145.078 72.128 145.007 72.1994 144.935 72.1994Z" stroke="#1356A0" stroke-miterlimit="10"/>
<path d="M146.113 71.9853H145.97V71.557C145.97 71.3072 145.757 71.0931 145.508 71.0931C145.258 71.0931 145.045 71.3072 145.045 71.557V71.9853H144.902V71.557C144.902 71.2001 145.187 70.9503 145.508 70.9503C145.828 70.9503 146.113 71.2358 146.113 71.557V71.9853Z" stroke="#1356A0" stroke-miterlimit="10"/>
<path d="M145.969 66.3466H145.007C144.865 66.3466 144.723 66.2038 144.723 66.0611C144.723 65.7399 145.221 65.6328 145.47 65.6328C145.648 65.6328 145.791 65.6685 145.969 65.7399C146.111 65.8113 146.253 65.8826 146.253 66.0611C146.253 66.2038 146.111 66.3466 145.969 66.3466Z" stroke="#1356A0" stroke-miterlimit="10"/>
<path d="M145.969 66.9533H145.007C144.865 66.9533 144.723 66.8105 144.723 66.6678C144.723 66.3466 145.221 66.2395 145.47 66.2395C145.648 66.2395 145.791 66.2752 145.969 66.3466C146.111 66.4179 146.253 66.4893 146.253 66.6678C146.253 66.8105 146.111 66.9533 145.969 66.9533Z" stroke="#1356A0" stroke-miterlimit="10"/>
<path d="M145.969 67.5599H145.007C144.865 67.5599 144.723 67.4172 144.723 67.2744C144.723 66.9533 145.221 66.8462 145.47 66.8462C145.648 66.8462 145.791 66.8819 145.969 66.9533C146.111 67.0246 146.253 67.096 146.253 67.2744C146.253 67.4172 146.111 67.5599 145.969 67.5599Z" stroke="#1356A0" stroke-miterlimit="10"/>
<path d="M145.969 68.1666H145.007C144.865 68.1666 144.723 68.0239 144.723 67.8811C144.723 67.5599 145.221 67.4529 145.47 67.4529C145.648 67.4529 145.791 67.4886 145.969 67.5599C146.111 67.6313 146.253 67.7027 146.253 67.8811C146.253 68.0239 146.111 68.1666 145.969 68.1666Z" stroke="#1356A0" stroke-miterlimit="10"/>
<path d="M145.969 68.7733H145.007C144.865 68.7733 144.723 68.6306 144.723 68.4878C144.723 68.1666 145.221 68.0596 145.47 68.0596C145.648 68.0596 145.791 68.0953 145.969 68.1666C146.111 68.238 146.253 68.3094 146.253 68.4878C146.253 68.6306 146.111 68.7733 145.969 68.7733Z" stroke="#1356A0" stroke-miterlimit="10"/>
<path d="M145.969 69.38H145.007C144.865 69.38 144.723 69.2373 144.723 69.0945C144.723 68.7733 145.221 68.6663 145.47 68.6663C145.648 68.6663 145.791 68.7019 145.969 68.7733C146.111 68.8447 146.253 68.9161 146.253 69.0945C146.253 69.2373 146.111 69.38 145.969 69.38Z" stroke="#1356A0" stroke-miterlimit="10"/>
<path d="M145.969 69.9867H145.007C144.865 69.9867 144.723 69.844 144.723 69.7012C144.723 69.38 145.221 69.2729 145.47 69.2729C145.648 69.2729 145.791 69.3086 145.969 69.38C146.111 69.4514 146.253 69.5228 146.253 69.7012C146.253 69.844 146.111 69.9867 145.969 69.9867Z" stroke="#1356A0" stroke-miterlimit="10"/>
<path d="M145.969 70.5934H145.007C144.865 70.5934 144.723 70.4506 144.723 70.3079C144.723 69.9867 145.221 69.8796 145.47 69.8796C145.648 69.8796 145.791 69.9153 145.969 69.9867C146.111 70.0581 146.253 70.1295 146.253 70.3079C146.253 70.4506 146.111 70.5934 145.969 70.5934Z" stroke="#1356A0" stroke-miterlimit="10"/>
<path d="M145.969 71.2001H145.007C144.865 71.2001 144.723 71.0573 144.723 70.9146C144.723 70.5934 145.221 70.4863 145.47 70.4863C145.648 70.4863 145.791 70.522 145.969 70.5934C146.111 70.6648 146.253 70.7361 146.253 70.9146C146.253 71.0573 146.111 71.2001 145.969 71.2001Z" stroke="#1356A0" stroke-miterlimit="10"/>
<path d="M146.041 72.1994C145.97 72.1994 145.898 72.128 145.898 72.0566V71.8068C145.898 71.7354 145.97 71.6641 146.041 71.6641C146.112 71.6641 146.183 71.7354 146.183 71.8068V72.0566C146.148 72.128 146.112 72.1994 146.041 72.1994Z" stroke="#1356A0" stroke-miterlimit="10"/>
<path d="M158.858 21.2015H158.004V42.5071H158.858V21.2015Z" stroke="#1356A0" stroke-miterlimit="10"/>
<path d="M157.043 106.709V41.0439H154.516V105.817C155.37 106.031 156.224 106.317 157.043 106.709Z" stroke="#1356A0" stroke-miterlimit="10"/>
<path d="M158.004 107.209L158.04 41.0082H157.043V106.674C157.363 106.852 157.684 107.03 158.004 107.209Z" stroke="#1356A0" stroke-miterlimit="10"/>
<path d="M155.76 45.255C155.878 45.255 155.974 45.1592 155.974 45.0409C155.974 44.9226 155.878 44.8268 155.76 44.8268C155.642 44.8268 155.547 44.9226 155.547 45.0409C155.547 45.1592 155.642 45.255 155.76 45.255Z" stroke="#1356A0" stroke-miterlimit="10"/>
<path d="M155.76 49.145C155.878 49.145 155.974 49.0492 155.974 48.9309C155.974 48.8127 155.878 48.7168 155.76 48.7168C155.642 48.7168 155.547 48.8127 155.547 48.9309C155.547 49.0492 155.642 49.145 155.76 49.145Z" stroke="#1356A0" stroke-miterlimit="10"/>
<path d="M155.76 52.9993C155.878 52.9993 155.974 52.9034 155.974 52.7852C155.974 52.6669 155.878 52.571 155.76 52.571C155.642 52.571 155.547 52.6669 155.547 52.7852C155.547 52.9034 155.642 52.9993 155.76 52.9993Z" stroke="#1356A0" stroke-miterlimit="10"/>
<path d="M155.974 56.6752C155.974 56.7823 155.867 56.8893 155.76 56.8893C155.654 56.8893 155.547 56.7823 155.547 56.6752C155.547 56.5681 155.654 56.4611 155.76 56.4611C155.903 56.4611 155.974 56.5324 155.974 56.6752Z" stroke="#1356A0" stroke-miterlimit="10"/>
<path d="M155.76 60.7436C155.878 60.7436 155.974 60.6477 155.974 60.5294C155.974 60.4112 155.878 60.3153 155.76 60.3153C155.642 60.3153 155.547 60.4112 155.547 60.5294C155.547 60.6477 155.642 60.7436 155.76 60.7436Z" stroke="#1356A0" stroke-miterlimit="10"/>
<path d="M155.76 64.6335C155.878 64.6335 155.974 64.5376 155.974 64.4193C155.974 64.3011 155.878 64.2052 155.76 64.2052C155.642 64.2052 155.547 64.3011 155.547 64.4193C155.547 64.5376 155.642 64.6335 155.76 64.6335Z" stroke="#1356A0" stroke-miterlimit="10"/>
<path d="M155.76 68.4878C155.878 68.4878 155.974 68.392 155.974 68.2737C155.974 68.1554 155.878 68.0596 155.76 68.0596C155.642 68.0596 155.547 68.1554 155.547 68.2737C155.547 68.392 155.642 68.4878 155.76 68.4878Z" stroke="#1356A0" stroke-miterlimit="10"/>
<path d="M155.974 72.1637C155.974 72.2707 155.867 72.3778 155.76 72.3778C155.654 72.3778 155.547 72.2707 155.547 72.1637C155.547 72.0566 155.654 71.9495 155.76 71.9495C155.903 71.9139 155.974 72.0209 155.974 72.1637Z" stroke="#1356A0" stroke-miterlimit="10"/>
<path d="M155.76 80.122C155.878 80.122 155.974 80.0261 155.974 79.9078C155.974 79.7896 155.878 79.6937 155.76 79.6937C155.642 79.6937 155.547 79.7896 155.547 79.9078C155.547 80.0261 155.642 80.122 155.76 80.122Z" stroke="#1356A0" stroke-miterlimit="10"/>
<path d="M155.76 87.8306C155.878 87.8306 155.974 87.7347 155.974 87.6165C155.974 87.4982 155.878 87.4023 155.76 87.4023C155.642 87.4023 155.547 87.4982 155.547 87.6165C155.547 87.7347 155.642 87.8306 155.76 87.8306Z" stroke="#1356A0" stroke-miterlimit="10"/>
<path d="M157.043 40.0447H154.516V42.5428H157.043V40.0447Z" stroke="#1356A0" stroke-miterlimit="10"/>
<path d="M158.005 42.5071V40.7227L157.043 40.0447H157.008V42.5071H158.005Z" stroke="#1356A0" stroke-miterlimit="10"/>
<path d="M158.004 42.5071V40.7227L157.043 40.0447H154.516V42.5071H158.004Z" stroke="#1356A0" stroke-miterlimit="10"/>
<path d="M158.004 107.209L158.039 40.7227L157.078 40.0447V106.709C157.363 106.852 157.683 107.031 158.004 107.209Z" fill="#1356A0"/>
<path d="M144.723 44.7198L144.829 49.716H145.257L145.791 49.8231L146.182 49.6804L146.218 44.4343L145.47 44.2915L144.901 44.3986L144.723 44.7198Z" fill="#1356A0"/>
<path d="M166.797 44.7198L166.975 44.3629L167.544 44.2915L168.007 44.3986L168.292 44.7198L168.221 49.8588L167.188 49.7874L166.904 49.8231L166.797 44.7198Z" fill="#1356A0"/>
<path d="M144.758 55.2476L145.612 54.9978L146.182 55.2833L146.111 60.5294L144.865 60.4937L144.758 55.2476Z" fill="#1356A0"/>
<path d="M166.797 55.3904L167.295 54.9978H167.829L168.256 55.2833L168.221 60.4223L167.046 60.5294L166.797 60.2439L166.868 55.6759L166.797 55.3904Z" fill="#1356A0"/>
<path d="M144.723 66.0611L144.901 65.7399L145.47 65.6328L145.969 65.7399L146.253 66.0611L146.147 71.1287H144.901L144.758 71.093L144.723 66.0611Z" fill="#1356A0"/>
<path d="M166.797 66.0611L167.438 65.6328L168.15 65.8826L168.221 71.1644L167.046 71.2001L166.797 71.0573V66.0611Z" fill="#1356A0"/>
<path d="M53.7633 106.745L40.52 112.134L40.5912 112.883L41.588 113.133L41.6592 113.633L41.588 115.203L42.1576 115.274L43.2256 168.092L42.478 168.592V169.591L52.8021 170.662V173.196L51.3425 173.124L50.2745 174.266L50.5237 181.796L56.5757 182.296L55.5789 182.688V183.902L59.3526 184.544L61.631 183.081L101.076 187.828L100.186 188.72V189.541L102.714 190.04L104.601 189.969L106.06 188.399L148.14 193.502L147.392 194.323L147.463 195.215L148.603 195.536L150.489 195.786L152.198 195.715L153.409 194.144L159.888 194.787L161.098 193.716L161.347 186.186L159.318 185.793L162.415 182.117L168.645 182.76L169.785 181.868V174.587L153.266 172.625V169.02L157.859 170.662L162.949 168.842L163.127 158.349C163.127 158.349 167.862 157.85 165.406 156.387L165.335 153.853C165.335 153.853 168.432 153.282 168.61 150.391L169.001 133.832C169.001 133.832 168.61 131.191 165.904 130.62V128.086C165.904 128.086 169.429 126.623 164.195 125.695L164.445 115.025C164.445 115.025 165.014 112.812 160.778 112.741H159.71C159.71 112.741 160.101 110.849 156.435 111.17L156.257 110.528C156.257 110.528 161.169 107.316 155.189 105.674C155.189 105.674 150.454 103.961 130.375 102.819L86.836 99.9643L72.5959 98.8223L72.4179 97.6089L66.0454 97.2877C66.0454 97.2877 67.0422 89.3294 61.7734 88.1874L61.8446 79.3368C61.8446 79.3368 70.175 77.945 69.6054 67.203C69.6054 67.203 68.6086 57.032 58.2133 56.5324L58.1421 54.1413C58.1421 54.1413 61.4174 53.3918 57.5013 52.6781C57.5013 52.6781 48.8149 52.3569 49.3845 53.6773C49.3845 53.6773 50.2033 54.177 50.5237 54.177L50.4525 57.6387L35.4648 60.9933C35.4648 60.9933 24.3219 62.8848 25.1407 73.8052C25.1407 73.8052 25.5323 83.7978 33.3999 87.0811L33.7203 98.5725L33.2219 98.6439L33.2931 100.107H33.6135V102.498L51.5205 103.819C51.6629 103.712 48.4589 105.924 53.7633 106.745Z" stroke="#1356A0" stroke-miterlimit="10"/>
<path d="M35.0742 87.3666L35.2878 95.8959C35.2878 95.8959 35.181 97.4305 36.0354 97.5376L43.6895 94.5755V86.5814C43.6895 86.6171 38.9903 89.5792 35.0742 87.3666Z" stroke="#1356A0" stroke-miterlimit="10"/>
<path d="M37.0312 98.8581L43.7953 96.1101L44.4361 96.4313L44.5429 97.7517L43.9021 98.3941L50.5594 98.5012C50.5594 98.5012 50.8798 99.9287 47.9249 99.9287L37.0312 98.8581Z" stroke="#1356A0" stroke-miterlimit="10"/>
<path d="M52.3047 98.751V101.249L57.1107 101.499L61.4896 99.6075L52.3047 98.751Z" stroke="#1356A0" stroke-miterlimit="10"/>
<path d="M45.2188 86.51L45.3256 92.2914C45.3256 92.2914 45.646 95.7888 50.3452 95.2535L50.7724 95.4676L50.6656 90.1145C50.6656 90.1145 47.7108 89.0082 46.7496 86.51H45.2188Z" stroke="#1356A0" stroke-miterlimit="10"/>
<path d="M52.0898 83.2268L52.1966 87.5093L60.5983 87.8305C60.5983 87.8305 61.3459 83.3339 57.2163 83.1198L52.0898 83.2268Z" stroke="#1356A0" stroke-miterlimit="10"/>
<path d="M52.3047 90.0074L52.4115 95.6818L58.4279 96.1101C58.4279 96.1101 60.386 96.11 60.5996 94.0402V90.8639L52.3047 90.0074Z" stroke="#1356A0" stroke-miterlimit="10"/>
<path d="M43.6887 86.6171C43.6887 86.6171 52.4108 82.1204 48.9219 70.3078C48.9219 70.3078 45.7535 60.6721 36.3906 60.6721" stroke="#1356A0" stroke-miterlimit="10"/>
<path d="M52.7322 120.628L52.7678 121.698L53.8714 174.873L55.0818 175.087L53.9782 120.378L52.8034 120.342L51.2726 120.271L51.1658 118.094L50.6318 117.987L50.7386 117.344L54.2274 115.274L53.8358 106.745L59.3539 107.138L122.331 111.527L126.14 111.777C126.14 111.777 152.093 113.847 156.293 110.528C156.293 110.528 161.42 107.673 155.225 105.674C147.714 103.034 73.0956 98.751 73.0956 98.751L72.6684 98.7867L72.348 99.9644L66.1179 99.6432L66.3315 101.82H63.0563L63.2699 104.104L51.6998 103.712C51.6998 103.712 49.9554 104.782 50.8098 105.532L52.5542 106.638" stroke="#1356A0" stroke-miterlimit="10"/>
<path d="M54.6894 120.342L75.2308 121.984L75.302 119.95L51.0938 118.094L51.2005 120.306L54.6894 120.342Z" stroke="#1356A0" stroke-miterlimit="10"/>
<path d="M81.0333 116.595L80.9621 117.558L77.1885 119.521L77.3665 120.271L78.3989 120.199L78.3277 120.592L75.2305 121.984L75.3017 119.949L81.0333 116.595Z" fill="#1356A0"/>
<path d="M70.7084 110.742L81.2817 116.238L75.3008 119.949L50.5586 117.987L50.6654 117.344L53.6914 115.596L66.5431 110.599L70.7084 110.742Z" fill="#1356A0" stroke="#1356A0" stroke-miterlimit="10"/>
<path d="M80.9611 117.558L81.1747 117.487L92.4956 112.633H96.4829L97.0881 112.812L108.053 118.379L108.195 119.2L103.461 121.984L78.4335 120.128L77.9351 120.092L77.1875 119.521L80.9611 117.558Z" fill="#1356A0" stroke="#1356A0" stroke-miterlimit="10"/>
<path d="M78.3281 120.592V122.412L102.714 124.375L105.669 122.662L104.85 122.162L104.922 121.413L103.142 121.877L102.714 121.984L78.4349 120.128L78.3281 120.592Z" stroke="#1356A0" stroke-miterlimit="10"/>
<path d="M106.24 124.553L105.67 124.446V122.662L104.852 122.162L105.101 121.091L120.48 114.703L125.215 114.846L135.859 120.592L135.931 121.413L135.29 121.984L135.219 123.554L131.374 126.516L106.24 124.553Z" fill="#1356A0" stroke="#1356A0" stroke-miterlimit="10"/>
<path d="M105.668 122.662L131.763 124.446L134.967 122.412" stroke="#1356A0" stroke-miterlimit="10"/>
<path d="M135.928 121.413L135.857 120.592L126.316 115.381L125.212 114.846L123.219 116.381L130.552 124.375V126.516" fill="#1356A0"/>
<path d="M134.717 123.804L133.969 180.583L134.539 181.047L134.468 182.046L130.623 185.9L105.098 183.045V181.868H105.738L106.237 124.553L131.371 126.516L134.717 123.804Z" stroke="#1356A0" stroke-miterlimit="10"/>
<path d="M130.375 184.758L131.372 126.516L134.718 123.804L133.828 180.155L134.54 181.047L134.469 182.046L130.624 185.9L130.375 184.758Z" fill="#1356A0"/>
<path d="M102.714 124.375L105.028 122.983L105.669 123.233V124.446L106.238 124.553L105.74 179.584L103.034 182.796L102.892 181.868L102.465 181.404L102.714 124.375Z" fill="#1356A0"/>
<path d="M102.57 182.796L78.326 179.905L78.1836 178.834L79.0024 178.763L78.6464 122.305L102.712 124.375L102.463 180.726L102.961 182.296L103.033 182.796H102.57Z" stroke="#1356A0" stroke-miterlimit="10"/>
<path d="M78.8269 176.729L75.9433 179.512L52.3047 176.622L52.7319 175.658L53.5507 174.98L52.7675 120.378L74.9109 122.091L78.3285 120.592L78.8269 176.729Z" stroke="#1356A0" stroke-miterlimit="10"/>
<path d="M75.9438 178.834L75.125 121.734L78.329 120.592L78.2578 122.162L78.5782 123.233L78.8274 176.729L75.9438 179.512V178.834Z" fill="#1356A0"/>
<path d="M154.121 114.846L154.334 122.055L157.823 121.52V124.018L154.014 124.339L153.907 134.189L155.865 134.403L156.292 134.724V136.473L154.975 136.366L155.972 137.579L155.082 137.793L155.189 147.322L156.079 147.536V148.856L154.868 148.749L154.655 160.455L152.91 160.562L153.231 161.668L156.399 160.455L156.719 163.203L153.124 164.095L153.302 169.056L157.894 170.697L158.179 153.389C158.179 153.389 155.687 152.854 155.794 149.463L156.114 138.507C156.114 138.507 155.117 130.299 159.283 130.834L159.176 126.123V115.167L154.121 114.846Z" stroke="#1356A0" stroke-miterlimit="10"/>
<path d="M132.617 183.866L160.1 187.149L159.993 193.252L105.347 186.685L52.1955 180.69L51.6615 180.583L51.5547 174.659L52.8363 174.552L52.7295 175.658L52.3023 176.622L75.2289 179.477L78.5041 177.085L79.0025 178.763L78.1837 178.834L78.3261 179.905L103.033 182.796L105.738 179.584V181.868H105.098V183.045L128.345 185.722L130.231 185.829L131.62 185.044L132.617 183.866Z" stroke="#1356A0" stroke-miterlimit="10"/>
<path d="M50.5234 57.4959C50.5234 57.4959 57.7147 60.1368 58.2843 56.4253L58.2131 54.0342C58.2131 54.0342 53.3003 55.0334 50.5946 54.0342L50.5234 57.4959Z" stroke="#1356A0" stroke-miterlimit="10"/>
<path d="M137.104 136.58L136.926 159.242L138.884 161.383L154.655 160.455L155.082 137.793L153.124 135.117L137.104 136.58Z" stroke="#1356A0" stroke-miterlimit="10"/>
<path d="M138.741 160.812L139.133 138.471L137.104 136.58L136.926 159.242L138.741 160.812Z" fill="#1356A0"/>
<path d="M154.514 137.758L139.135 138.471L137.105 136.58L153.126 135.117L154.514 137.758Z" stroke="#1356A0" stroke-miterlimit="10"/>
<path d="M60.597 90.864C60.597 90.864 62.8754 91.3993 62.6262 97.2164C62.6262 97.4662 62.555 101.642 62.555 101.642L66.0082 101.891L66.0794 96.3956C66.0794 96.3956 67.2186 88.5086 59.8494 87.6878L52.1953 87.4736L52.3021 89.9718L60.597 90.864Z" stroke="#1356A0" stroke-miterlimit="10"/>
<path d="M44.9336 85.7964C44.9336 85.7964 48.8496 85.5822 50.4872 81.4068L52.1249 81.0856L52.0537 83.2268L52.3385 91.2566L52.2673 101.249L50.8076 101.535L51.0212 89.6149C51.0212 89.6149 49.7752 86.403 46.7136 86.5101H45.1828L44.9336 85.7964Z" stroke="#1356A0" stroke-miterlimit="10"/>
<path d="M53.0156 82.9413C53.0156 82.9413 56.3977 83.0484 60.5273 77.6952L61.8445 77.5881L61.7733 88.116L60.5629 87.8305L60.3849 78.6945C60.4205 78.6945 58.2489 83.2625 53.0156 82.9413Z" stroke="#1356A0" stroke-miterlimit="10"/>
<path d="M73.3065 100L73.4133 101.535L70.0312 102.855L78.8601 103.819L81.9217 101.535H78.7533L78.5397 99.7859L73.3065 100Z" stroke="#1356A0" stroke-miterlimit="10"/>
<path d="M96.8768 101.32L96.77 103.176L93.7084 103.961L93.6016 104.604L102.786 105.246L105.492 103.283L102.11 102.641L102.003 101.106L96.8768 101.32Z" stroke="#1356A0" stroke-miterlimit="10"/>
<path d="M121.654 102.962L121.548 104.39L117.738 105.71L126.567 106.888L130.27 105.246L127.422 104.711L127.315 102.748L121.654 102.962Z" stroke="#1356A0" stroke-miterlimit="10"/>
<path d="M98.9391 84.8684L99.0459 87.8662L98.4051 88.4015V89.0439L95.6283 90.6142L95.5571 92.1844L97.1947 92.3986L95.6283 93.9688V94.8967L97.0523 95.5391L95.5215 96.5383L95.4147 98.5725L96.9455 98.6796L94.8095 99.893L94.7383 101.713C94.7383 101.713 100.755 102.605 104.03 101.499L103.852 99.8573L102.214 98.751L103.567 98.3584L103.638 96.5383L102.286 95.432L103.816 95.1108L103.888 93.4692L102.57 92.4342L103.816 92.006L103.71 90.4357L101.04 89.2223L100.933 88.3302L100.434 87.7235L100.363 84.4402L98.8323 84.3331L98.9391 84.8684Z" fill="#1356A0"/>
<path d="M75.5489 83.0126L75.6557 86.0104L75.0149 86.5457V87.1881L72.2381 88.7584L72.1669 90.3286L73.8045 90.5428L72.2381 92.113V93.0409L73.6621 93.6833L72.1313 94.6825L71.9889 96.7881L73.5197 96.8952L71.3837 98.1086L71.3125 99.9286C71.3125 99.9286 77.3289 100.821 80.6042 99.7145L80.4262 98.0729L78.7886 96.9665L80.1414 96.574L80.2126 94.7539L78.8598 93.6476L80.3906 93.3264L80.4618 91.6848L79.1446 90.6498L80.3906 90.2216L80.2838 88.6513L77.6138 87.4379L77.5069 86.5457L77.0085 85.939L76.9373 82.6558L75.4065 82.5487L75.5489 83.0126Z" fill="#1356A0"/>
<path d="M123.787 86.2959L123.894 89.2937L123.253 89.829V90.4714L120.476 92.0417L120.405 93.6119L122.042 93.826L120.476 95.3963V96.3242L121.9 96.9666L120.369 97.9658L120.262 100L121.793 100.107L119.657 101.32L119.586 103.141C119.586 103.141 125.602 104.033 128.878 102.926L128.7 101.285L127.062 100.178L128.415 99.7859L128.486 97.9658L127.133 96.8595L128.664 96.5383L128.735 94.8967L127.418 93.8617L128.664 93.4335L128.557 91.8632L125.887 90.6498L125.78 89.7576L125.282 89.151L125.211 85.8677L123.68 85.7606L123.787 86.2959Z" fill="#1356A0"/>
<path d="M54.9023 122.198L55.8992 175.515L56.896 175.622L55.8992 122.305L54.9023 122.198Z" fill="#1356A0"/>
<path d="M60.1367 122.876L61.1335 176.015L62.0947 176.122L61.1335 122.983L60.1367 122.876Z" fill="#1356A0"/>
<path d="M65.3672 123.09L66.3284 176.586L67.3252 176.693L66.3284 123.197L65.3672 123.09Z" fill="#1356A0"/>
<path d="M70.5664 123.518L71.5632 177.371L72.56 177.478L71.5632 123.625L70.5664 123.518Z" fill="#1356A0"/>
<path d="M80.7109 124.303L80.8889 178.477L81.8501 178.584L81.6721 124.446L80.7109 124.303Z" fill="#1356A0"/>
<path d="M85.9102 125.053L86.0882 179.048L87.085 179.191L86.907 125.195L85.9102 125.053Z" fill="#1356A0"/>
<path d="M91.1055 125.374L91.3191 179.726L92.2803 179.834L92.1023 125.481L91.1055 125.374Z" fill="#1356A0"/>
<path d="M96.3398 125.874L96.5178 180.583L97.4791 180.726L97.3367 126.016L96.3398 125.874Z" fill="#1356A0"/>
<path d="M108.871 126.516L108.551 181.332L109.548 181.475L109.832 126.623L108.871 126.516Z" fill="#1356A0"/>
<path d="M114.07 127.301L113.785 181.939L114.746 182.082L115.067 127.444L114.07 127.301Z" fill="#1356A0"/>
<path d="M119.301 127.658L118.98 182.688L119.942 182.796L120.262 127.801L119.301 127.658Z" fill="#1356A0"/>
<path d="M124.5 128.229L124.18 183.616L125.176 183.759L125.461 128.372L124.5 128.229Z" fill="#1356A0"/>
<path d="M37.2821 65.2045C32.2268 65.2045 28.1328 69.3086 28.1328 74.3762C28.1328 79.4439 32.2268 83.5837 37.2821 83.5837C42.3373 83.5837 46.4314 79.4796 46.4314 74.4119C46.4314 69.3442 42.3373 65.2045 37.2821 65.2045ZM34.7545 79.3725L37.4245 75.0186H34.0425L37.1041 69.4513H40.2013L36.9617 74.055H40.5573L34.7545 79.3725Z" fill="#1356A0"/>
<path d="M139.132 138.471L155.081 137.793L154.654 160.455L138.883 161.383L139.132 138.471Z" stroke="#1356A0" stroke-miterlimit="10"/>
<path d="M70.7071 110.742L68.8203 112.205L75.2996 119.949L81.2804 116.238L70.7071 110.742Z" fill="#1356A0"/>
<path d="M96.4827 112.633L94.7383 114.025L102.713 121.984L108.195 119.2L106.166 117.487L96.4827 112.633Z" fill="#1356A0"/>
<path d="M135.039 121.734L134.967 123.304L131.123 126.266L130.695 124.874L135.039 121.734Z" fill="#1356A0"/>
<path d="M103.215 34.2988C104.496 35.762 105.885 37.1538 107.309 38.4386C108.768 39.7234 110.264 40.9724 111.83 42.0788C113.397 43.1851 115.034 44.2557 116.743 45.1836C118.452 46.1115 120.196 46.8966 122.047 47.5747C122.51 47.7174 122.937 47.9315 123.4 48.0386L124.789 48.4669C125.714 48.681 126.675 48.9308 127.637 49.1092L128.349 49.252C128.598 49.2877 128.811 49.3234 129.061 49.3591C129.523 49.3947 130.022 49.4661 130.485 49.5018L131.944 49.5732C132.443 49.6089 132.905 49.5732 133.404 49.5732H134.116C134.365 49.5732 134.614 49.5375 134.828 49.5375L136.288 49.4304C137.249 49.2877 138.21 49.1806 139.136 48.9308C141.058 48.5739 142.874 47.8959 144.689 47.1821C142.909 47.9315 141.094 48.6453 139.171 49.0736C138.246 49.3234 137.249 49.4661 136.288 49.6446L134.828 49.7873C134.579 49.823 134.33 49.8587 134.116 49.8587L133.368 49.8944C131.41 50.0014 129.452 49.823 127.53 49.5018C126.569 49.3591 125.607 49.1092 124.682 48.8951L123.293 48.4669C122.831 48.3241 122.368 48.1457 121.905 48.0029C120.089 47.3249 118.309 46.504 116.601 45.5762C114.892 44.6126 113.254 43.5776 111.688 42.3999C108.59 39.9732 105.671 37.3323 103.215 34.2988Z" fill="#1356A0"/>
<path d="M129.344 34.1918C129.593 34.5486 129.949 34.8698 130.234 35.191C130.554 35.5122 130.875 35.8334 131.195 36.1546C131.836 36.7613 132.512 37.368 133.189 37.9747C134.541 39.1524 135.965 40.2944 137.425 41.3293C140.344 43.4349 143.406 45.3263 146.717 46.7895C149.992 48.2527 153.516 49.252 157.076 49.4661C160.672 49.6802 164.303 48.9665 167.507 47.3249C166.724 47.7531 165.905 48.1457 165.051 48.4669C164.196 48.7881 163.342 49.0379 162.452 49.252C160.672 49.6446 158.856 49.7873 157.041 49.7159C153.41 49.5732 149.85 48.5739 146.539 47.1107C143.228 45.6118 140.131 43.7204 137.247 41.5434C135.787 40.4371 134.399 39.2951 133.082 38.0817C132.405 37.475 131.765 36.8327 131.124 36.1903C130.803 35.8691 130.483 35.5479 130.198 35.2267C129.913 34.9055 129.593 34.5843 129.344 34.1918Z" fill="#1356A0"/>
<path d="M103.215 44.0416C104.496 45.5048 105.885 46.8966 107.309 48.1814C108.768 49.4662 110.264 50.7152 111.83 51.8216C113.397 52.9279 115.034 53.9985 116.743 54.9264C118.452 55.8543 120.196 56.6394 122.047 57.3175C122.51 57.4602 122.937 57.6743 123.4 57.7814L124.789 58.2097C125.714 58.4238 126.675 58.6736 127.637 58.852L128.349 58.9948C128.598 59.0305 128.811 59.0662 129.061 59.1018C129.523 59.1375 130.022 59.2089 130.485 59.2446L131.944 59.316C132.443 59.3517 132.905 59.316 133.404 59.316H134.116C134.365 59.316 134.614 59.2803 134.828 59.2803L136.288 59.1732C137.249 59.0305 138.21 58.9234 139.136 58.6736C141.058 58.3167 142.874 57.6387 144.689 56.9249C142.909 57.6743 141.094 58.3881 139.171 58.8164C138.246 59.0662 137.249 59.2089 136.288 59.3874L134.828 59.5301C134.579 59.5658 134.33 59.6015 134.116 59.6015L133.368 59.6372C131.41 59.7442 129.452 59.5658 127.53 59.2446C126.569 59.1019 125.607 58.852 124.682 58.6379L123.293 58.2097C122.831 58.0669 122.368 57.8885 121.905 57.7457C120.089 57.0677 118.309 56.2468 116.601 55.319C114.892 54.3554 113.254 53.3204 111.688 52.1427C108.59 49.716 105.671 47.0394 103.215 44.0416Z" fill="#1356A0"/>
<path d="M129.344 43.9346C129.593 44.2914 129.949 44.6126 130.234 44.9338C130.554 45.255 130.875 45.5762 131.195 45.8974C131.836 46.5041 132.512 47.1108 133.189 47.7175C134.541 48.8952 135.965 50.0372 137.425 51.0721C140.344 53.1777 143.406 55.0691 146.717 56.5323C149.992 57.9955 153.516 58.9948 157.076 59.2089C160.672 59.423 164.303 58.7093 167.507 57.0677C166.724 57.4959 165.905 57.8885 165.051 58.2097C164.196 58.5309 163.342 58.7807 162.452 58.9948C160.672 59.3874 158.856 59.5301 157.041 59.4587C153.41 59.316 149.85 58.3167 146.539 56.8535C143.228 55.3546 140.131 53.4632 137.247 51.2862C135.787 50.1799 134.399 49.0379 133.082 47.8245C132.405 47.2178 131.765 46.5755 131.124 45.9331C130.803 45.6119 130.483 45.2907 130.198 44.9695C129.913 44.6126 129.593 44.2914 129.344 43.9346Z" fill="#1356A0"/>
</g>
<defs>
<clipPath id="clip0_1581_1297">
<rect width="145" height="192" fill="white" transform="translate(25 4)"/>
</clipPath>
</defs>
</svg>
