<svg width="214" height="215" viewBox="0 0 214 215" fill="none" xmlns="http://www.w3.org/2000/svg">
<path d="M106.995 214.264C166.086 214.264 213.99 166.299 213.99 107.132C213.99 47.9647 166.086 0.00012207 106.995 0.00012207C47.9032 0.00012207 0 47.9647 0 107.132C0 166.299 47.9032 214.264 106.995 214.264Z" fill="white"/>
<mask id="mask0_1864_3027" style="mask-type:luminance" maskUnits="userSpaceOnUse" x="0" y="0" width="214" height="215">
<path d="M107.003 214.264C166.094 214.264 213.997 166.299 213.997 107.132C213.997 47.9645 166.094 0 107.003 0C47.911 0 0.0078125 47.9645 0.0078125 107.132C0.0078125 166.299 47.911 214.264 107.003 214.264Z" fill="white"/>
</mask>
<g mask="url(#mask0_1864_3027)">
<g opacity="0.3">
<path d="M-117.148 55.8597C-78.9861 50.3547 -50.1487 46.1989 -26.6476 42.8258C-26.2433 37.1319 -25.839 31.5459 -25.4348 25.825C-24.5184 31.411 -23.656 36.781 -22.7936 42.0432C-1.93364 39.0748 13.1858 36.916 26.6342 35C26.6881 31.9507 26.4456 29.0363 26.8768 26.0139C27.2272 23.6122 24.7746 23.2074 19.7079 23.5043C7.25659 24.2868 -7.70112 25.0154 -25.9468 26.0139C-4.00885 24.5027 13.2666 23.3154 27.9009 22.3169C27.8201 26.9314 27.7392 30.7633 27.6584 34.7571C42.5352 32.6523 53.9893 31.0062 63.8533 29.6299C64.2306 26.9584 64.6619 24.0979 65.0931 20.9946C71.4535 20.6708 76.655 20.4009 81.587 20.1581C81.1019 22.5328 80.6437 24.8805 80.1586 27.3362C85.7913 26.5266 90.4268 25.879 94.6851 25.2583C95.1702 23.3154 95.6553 21.3994 96.1674 19.2676C98.8625 19.1326 101.153 18.9977 103.282 18.9707C103.498 18.9707 103.687 19.5644 103.606 19.9152C103.309 21.2915 102.878 22.6677 102.447 24.2329C103.39 24.0979 104.199 23.99 105.007 23.8551C107.487 23.5043 109.778 23.0995 111.826 22.9106C112.688 22.8296 112.985 22.3979 113.281 21.3724C114.171 18.377 115.114 15.3277 116.111 12.1434C117.459 12.2784 118.698 12.3863 119.938 12.5212C119.534 13.7626 119.129 15.0578 118.698 16.3801C120.558 16.3801 122.148 16.3801 123.684 16.3531C124.061 15.2198 124.439 14.1134 124.816 12.953C125.705 13.0339 126.46 13.1149 127.269 13.1959C126.864 14.3832 126.433 15.5976 126.029 16.7849C125.625 17.9453 125.247 19.1056 124.843 20.239C124.627 20.8057 124.627 21.0756 125.005 20.9676C125.382 20.8597 125.705 20.8597 126.11 20.8057C126.46 19.7803 126.81 18.8088 127.161 17.7834C127.889 17.7564 128.535 17.7024 129.182 17.6754C128.913 18.404 128.643 19.1326 128.428 19.8343C128.347 20.0501 128.374 20.266 128.32 20.4819C128.293 20.5359 128.293 20.5898 128.266 20.6438C127.942 20.6978 127.592 20.7518 127.215 20.8057C126.891 21.6962 126.595 22.5328 126.271 23.4503C126.649 23.3693 126.999 23.2884 127.35 23.2074C127.323 23.2614 127.323 23.3154 127.296 23.3693C126.487 23.5582 125.625 23.7741 124.708 23.99C123.442 24.2868 123.442 24.2868 122.687 26.5266C122.498 27.0933 122.552 27.2282 122.876 27.1203C124.115 26.7155 125.247 26.3647 126.325 26.0409C126.298 26.0949 126.298 26.1488 126.271 26.1758C125.975 26.2568 125.706 26.3107 125.382 26.4457C125.274 26.4996 125.059 26.7695 124.978 26.9314C124.088 29.0093 124.115 29.1172 125.247 28.6585C125.274 28.6315 125.328 28.6315 125.382 28.6045C125.355 28.6585 125.355 28.7124 125.328 28.7394C124.439 29.0902 123.496 29.441 122.498 29.8188C121.366 30.2506 121.393 30.2506 120.693 32.1396C120.423 32.9221 120.504 33.0571 120.989 32.8412C122.229 32.2745 123.334 31.7888 124.412 31.303C124.385 31.357 124.385 31.384 124.358 31.4379C123.145 31.9777 121.825 32.5713 120.396 33.219C120.208 33.2999 120.019 33.4079 119.83 33.4888C105.412 40.0463 73.2322 54.6723 -61.495 115.902C-67.5589 118.655 -73.9193 121.596 -80.684 124.699C-80.7918 124.483 -80.9265 124.241 -81.0343 124.025C-78.3123 122.406 -73.2994 119.788 -73.4072 119.41C-74.4583 115.767 -76.1023 112.259 -78.5548 108.913C-78.8783 108.481 -84.5918 110.181 -87.9607 110.91C-88.0954 110.64 -88.2302 110.397 -88.365 110.127C-47.4266 94.5027 -18.158 83.3577 3.9147 74.9113C3.67213 71.5382 3.42957 68.2459 3.16006 64.7918C-20.6375 72.2937 -51.7388 82.0355 -95.9381 95.9329C-96.0998 95.6361 -96.2615 95.3392 -96.4232 95.0424C-93.2431 93.7201 -87.4217 91.5883 -87.5295 91.2644C-89.2274 86.3531 -91.5451 81.3878 -94.6984 76.3955C-94.9679 75.9638 -101.76 77.0971 -105.667 77.5289C-105.856 77.1781 -106.045 76.8273 -106.233 76.4765C-56.6169 65.1696 -22.7127 57.4248 2.08203 51.7579C1.78558 47.6831 1.48912 43.7163 1.16571 39.5605C-25.7043 43.5814 -62.0879 49.0054 -116.502 57.101C-116.717 56.6692 -116.933 56.2645 -117.148 55.8597ZM120.315 33.138C120.423 32.8142 120.504 32.5983 120.585 32.3554C122.229 27.579 123.927 22.6407 125.705 17.5135C125.975 16.7309 125.921 16.542 125.517 16.542C122.795 16.596 119.588 16.623 115.707 16.65C115.437 16.65 115.168 16.704 114.844 16.7309C112.473 24.4487 110.236 31.7078 108.107 38.616C112.985 36.4572 116.92 34.6762 120.315 33.138ZM46.4431 42.2051C22.6186 47.7641 -12.6331 55.9406 -72.7604 70.081C-78.0428 71.3223 -87.772 74.8843 -87.6642 75.6399C-86.8018 81.037 -83.945 85.7055 -81.9237 90.185C-14.6814 69.4603 21.837 58.1804 45.6615 50.8404C45.931 48.0069 46.1736 45.3354 46.4431 42.2051ZM47.3594 50.4896C61.1583 46.1989 71.5343 42.9877 79.8891 40.3971C85.387 38.697 85.2793 38.724 86.3034 34.6762C86.7076 33.0301 85.953 32.9221 84.0665 33.3809C75.7117 35.4048 65.2548 37.8335 51.7255 41.0447C50.5396 41.3146 49.3268 41.7463 48.141 42.0972C47.8715 44.9846 47.629 47.6292 47.3594 50.4896ZM-73.1108 105.729C-71.1434 110.154 -69.3916 114.04 -67.7206 117.818C-11.4742 92.4788 21.7292 77.5289 44.2331 67.3824C44.4487 64.9268 44.6644 62.606 44.88 59.9884C21.5675 69.0285 -13.4955 82.6291 -73.1108 105.729ZM45.7154 66.8697C47.7637 65.9522 49.3268 65.2236 50.863 64.549C61.4817 59.7456 70.1868 55.8327 77.4366 52.5405C82.8267 50.1118 82.7459 50.1388 83.6622 46.3878C84.0126 44.9846 83.3927 44.9036 81.587 45.6322C73.5826 48.7895 63.6916 52.5405 51.1864 57.3978C49.6502 57.9915 48.0871 58.7741 46.4162 59.5027C46.1736 62.0393 45.958 64.3061 45.7154 66.8697ZM83.1232 49.8689C90.6155 46.4958 96.4908 43.8512 101.531 41.5844C101.854 40.4241 102.231 39.2907 102.474 38.2113C102.528 37.9684 102.15 37.7525 101.854 37.8605C97.3532 39.5605 92.0709 41.6114 85.7374 44.0941C85.2523 44.283 84.2821 45.1465 84.1743 45.4973C83.6891 46.9815 83.4735 48.3847 83.1232 49.8689ZM105.196 28.6045C100.183 29.7918 94.3347 31.1411 87.1119 32.8412C86.6537 34.8111 86.2495 36.6461 85.8452 38.4541C93.1758 36.1874 99.0781 34.3794 103.983 32.8682C104.387 31.411 104.792 30.0617 105.196 28.6045ZM98.6469 25.1234C91.8553 26.1488 83.6083 27.3901 72.9358 28.9823C72.5045 31.411 72.1272 33.6238 71.723 35.8366C82.4764 33.3809 90.7233 31.5189 97.3532 30.0077C97.8114 28.3346 98.2157 26.7695 98.6469 25.1234ZM111.475 26.8235C111.88 25.4742 112.257 24.2598 112.634 23.0185C108.807 23.5852 104.36 24.2598 99.0511 25.0694C98.593 26.7695 98.1887 28.3616 97.7575 29.9538C103.202 28.7394 107.648 27.714 111.475 26.8235ZM69.4591 44.1211C54.9057 48.7086 35.1507 54.9422 6.20551 64.0632C6.42112 67.5983 6.60977 70.7556 6.82538 73.9129C35.2316 63.0648 54.2858 55.7787 68.3811 50.4086C68.7314 48.3038 69.0818 46.2529 69.4591 44.1211ZM69.1357 50.1658C79.4309 46.2259 87.3545 43.2036 93.8496 40.6669C94.1461 40.559 94.7929 39.9383 94.8737 39.6955C95.305 38.3732 95.6014 37.0779 95.9518 35.7286C89.1063 37.8874 80.8593 40.478 70.2676 43.8242C69.8634 46.01 69.54 47.953 69.1357 50.1658ZM95.0624 40.2622C100.345 38.2383 104.765 36.5652 108.565 35.081C108.726 35 109.158 34.5682 109.212 34.3524C109.562 33.3269 109.858 32.3015 110.182 31.2491C106.22 32.4904 101.692 33.9206 96.2752 35.6207C95.8709 37.1858 95.4936 38.67 95.0624 40.2622ZM72.0733 29.0632C57.2234 31.276 36.9295 34.3254 5.936 38.9669C6.17857 43.0416 6.39417 46.7926 6.60978 50.5166C36.7408 43.6893 56.5766 39.1827 70.8875 35.9445C71.2918 33.6507 71.6691 31.4649 72.0733 29.0632ZM104.199 32.8682C105.573 32.4364 106.732 32.0856 107.837 31.7348C110.344 30.9522 110.344 30.9522 111.179 28.0108C111.206 27.9299 111.26 27.8219 111.233 27.7949C111.125 27.579 111.098 27.1473 110.883 27.2013C109.427 27.4711 107.864 27.8489 106.193 28.3076C105.924 28.3886 105.358 28.9553 105.25 29.2521C104.872 30.4125 104.576 31.5459 104.199 32.8682ZM107.891 38.751C108.214 37.6716 108.565 36.6731 108.807 35.7016C108.861 35.4857 108.619 35.2699 108.43 35.3508C106.948 35.8635 105.358 36.4842 103.66 37.1858C103.39 37.2938 102.851 37.8335 102.77 38.0763C102.366 39.2367 102.07 40.3701 101.746 41.5305C103.983 40.505 105.924 39.6415 107.891 38.751ZM124.142 29.0632C124.439 28.1997 124.735 27.3901 125.032 26.5806C124.196 26.8504 123.334 27.1203 122.417 27.3901C122.094 28.3346 121.798 29.1982 121.501 30.0617C122.444 29.7379 123.28 29.3871 124.142 29.0632ZM123.549 24.0709C124.466 23.8551 125.301 23.6662 126.11 23.4773C126.433 22.5868 126.73 21.7232 127.026 20.8597C126.218 20.9676 125.409 21.1026 124.52 21.2375C124.196 22.209 123.873 23.0995 123.549 24.0709ZM94.9546 25.3123C96.383 25.0964 97.488 24.9615 98.539 24.7996C102.474 24.2059 102.474 24.2059 103.309 20.266C103.336 20.1581 103.39 20.0231 103.363 19.9962C103.175 19.7263 103.04 19.2136 102.743 19.2136C101.099 19.2136 99.2937 19.3215 97.3802 19.5104C97.0298 19.5374 96.3021 20.1581 96.1943 20.4819C95.7092 22.0201 95.3858 23.5582 94.9546 25.3123ZM126.164 20.7787C126.864 20.6708 127.457 20.5898 128.05 20.5089C128.374 19.5914 128.697 18.7279 129.02 17.7834C128.481 17.8104 127.969 17.8104 127.43 17.8913C127.349 17.8913 127.107 18.1881 127.026 18.377C126.73 19.1596 126.46 19.9422 126.164 20.7787ZM64.6888 29.2521C70.618 28.4156 75.3344 27.7679 79.6465 27.1743C80.1047 24.9075 80.509 22.7487 80.9941 20.347C76.9784 20.5629 72.7741 20.7248 68.0846 21.1026C67.33 21.1565 65.9016 22.128 65.7668 22.6677C65.2009 24.7996 65.0392 26.9314 64.6888 29.2521ZM126.056 16.3801C126.406 15.3277 126.757 14.3832 127.08 13.3848C126.352 13.3038 125.625 13.2498 124.843 13.1689C124.466 14.2753 124.115 15.3007 123.765 16.3801C124.574 16.3801 125.328 16.3801 126.056 16.3801ZM116.192 12.3593C115.734 13.8165 115.329 15.1388 114.952 16.4071C116.246 16.4071 117.432 16.4071 118.51 16.4071C118.914 15.1388 119.291 13.9245 119.695 12.7101C118.564 12.5752 117.432 12.4673 116.192 12.3593Z" fill="#81A7CD"/>
<path d="M113.309 53.4311C114.791 49.1135 116.354 44.6609 117.944 40.0464C118.025 39.7765 118.133 39.5067 118.268 39.1559C117.244 39.7496 116.22 40.3432 115.169 40.9639C112.635 42.4211 109.805 44.0672 106.598 45.9292C106.167 46.1721 105.709 46.334 105.466 47.1435C103.634 53.1613 101.855 58.9361 100.184 64.4681C100.049 64.5761 99.9144 64.684 99.8065 64.7919C100.13 63.8475 100.507 62.903 100.777 61.9855C100.804 61.8505 100.48 61.9315 100.265 62.1204C98.7016 63.3347 97.0576 64.657 95.2788 66.0872C95.0093 66.3031 94.4703 66.9238 94.4433 67.0857C94.1738 68.0572 94.0121 68.9207 93.7965 69.8382C93.6348 69.9731 93.4731 70.1081 93.3114 70.243C93.5809 69.3794 93.7965 68.5159 94.093 67.5984C94.2547 67.0587 94.1469 66.9778 93.4462 67.5444C88.8376 71.2145 83.5552 75.4511 77.3565 80.3625C76.4132 81.0911 75.8742 81.6848 75.7934 82.2784C75.6317 83.3039 75.3621 84.3833 75.1465 85.4357C75.0118 85.5437 74.877 85.6516 74.7423 85.7595C74.9309 84.869 75.0387 84.0595 75.3621 83.061C75.7395 81.9276 75.2543 81.9816 73.3139 83.5737C65.7946 89.6185 56.8469 96.7156 45.9318 105.405C44.6112 106.457 43.2637 107.618 41.6467 108.967C41.4849 110.721 41.3232 112.286 41.1885 113.851C40.6495 114.283 40.1374 114.742 39.5984 115.174C39.9218 113.716 40.1913 112.286 40.6225 110.721C40.919 109.669 39.9218 110.154 37.4423 112.151C20.2207 125.833 -2.66051 144.048 -34.6781 169.549C-41.1193 174.676 -43.1137 176.835 -42.4669 177.564C-41.3619 178.751 -40.9307 180.451 -40.23 181.908C-40.9846 182.556 -41.7392 183.177 -42.5208 183.824C-43.1137 182.232 -43.3832 180.343 -44.623 179.156C-44.9464 178.832 -48.3152 180.964 -50.3365 181.989C-50.3904 181.881 -50.4443 181.773 -50.5252 181.665C-26.4042 162.506 -7.2691 147.313 8.33543 134.927C8.20068 133.011 8.06592 131.149 7.90421 129.233C-8.6436 141.7 -28.4794 156.65 -53.7054 175.648C-53.7593 175.513 -53.8401 175.405 -53.894 175.27C-52.1692 173.813 -48.989 171.249 -49.0159 171.087C-49.6628 168.874 -50.633 166.823 -52.0075 164.988C-52.1153 164.827 -55.6189 167.093 -57.5863 168.254C-57.6672 168.119 -57.7211 167.984 -57.8019 167.849C-30.6624 148.797 -9.58688 133.982 7.33824 122.082C7.17654 119.869 7.01484 117.737 6.85313 115.551C-11.177 127.398 -33.1419 141.862 -61.6559 160.617C-61.7367 160.455 -61.8176 160.32 -61.8984 160.158C-42.3591 147.367 -26.0269 136.654 -11.0692 126.858C-11.5273 124.187 -11.9855 121.596 -12.4706 118.79C3.16087 109.372 15.3965 102.005 26.3655 95.3933C26.3116 97.6061 26.2847 99.7379 26.2308 102.005C38.0891 94.2869 47.6297 88.0533 56.281 82.4134C56.5505 80.6323 56.82 78.7703 57.0895 76.8004C62.8031 73.3733 67.4925 70.5398 72.0741 67.7873C71.7238 69.4874 71.4004 71.2145 71.0231 72.9955C76.3593 69.5144 80.8062 66.6 85.0105 63.8475C85.3609 62.4442 85.7113 60.987 86.1155 59.4219C89.0262 57.6678 91.5596 56.1566 94.066 54.6185C93.7157 55.9408 93.3383 57.263 92.961 58.7202C94.2816 57.8567 95.3596 57.1281 96.4377 56.4535C98.8094 54.9153 100.992 53.4311 103.014 52.1628C103.768 51.6771 104.065 51.3263 104.307 50.5707C105.035 48.115 105.844 45.5514 106.652 42.9068C108.161 42.1243 109.509 41.4226 110.937 40.694C110.668 41.5306 110.371 42.3941 110.156 43.2037C110.102 43.4465 110.21 43.7434 110.371 43.6354C112.204 42.61 113.902 41.6115 115.546 40.6671C115.896 39.6416 116.22 38.6701 116.57 37.6717C117.567 37.159 118.483 36.6732 119.373 36.2145C118.672 38.2384 118.025 40.1543 117.325 42.0973C117.055 42.8529 117.136 42.9608 117.675 42.583C118.78 41.8274 118.753 41.8544 119.292 40.3702C119.427 40.0194 119.535 39.6686 119.696 39.2368C120.505 38.7511 121.232 38.3193 122.014 37.8336C121.798 38.4543 121.556 39.0749 121.367 39.6686C121.313 39.8305 121.367 39.9115 121.367 40.0464C121.34 40.1004 121.34 40.1273 121.313 40.1813C120.882 40.5051 120.478 40.829 120.047 41.1798C119.777 41.9354 119.535 42.664 119.265 43.4196C119.723 43.0957 120.101 42.8259 120.478 42.556C120.451 42.61 120.451 42.637 120.424 42.691C119.481 43.3386 118.51 44.0402 117.486 44.7688C116.058 45.7943 116.058 45.7673 115.438 47.6832C115.276 48.169 115.357 48.223 115.734 47.9261C117.109 46.8737 118.403 45.9022 119.615 44.9847C119.588 45.0387 119.588 45.0657 119.561 45.1196C119.157 45.4165 118.753 45.7403 118.349 46.0371C117.298 48.3039 117.352 48.4388 118.753 47.3055C118.78 47.3055 118.78 47.2785 118.807 47.2785C118.78 47.3324 118.78 47.3594 118.753 47.4134C117.405 48.4928 115.95 49.6532 114.279 50.9755C114.037 51.812 113.794 52.5676 113.578 53.2962C113.471 53.3232 113.39 53.3771 113.309 53.4311ZM42.3743 102.949C54.2596 94.0171 63.6116 87.0009 71.4004 81.1451C76.6827 77.1782 76.6019 77.2322 77.3565 74.2098C77.626 73.1304 77.2218 73.1034 75.3352 74.4527C67.4117 80.1196 57.8171 86.8659 45.9318 95.2854C44.9346 95.987 43.9105 96.7966 42.8864 97.5521C42.7247 99.4141 42.563 101.087 42.3743 102.949ZM40.919 103.975C41.0807 102.167 41.2424 100.413 41.4041 98.4157C22.4577 111.827 -3.44209 130.069 -41.5236 157.055C-44.03 158.809 -48.3691 162.722 -48.3422 163.18C-48.1805 165.663 -46.9407 167.309 -46.0514 169.252C-4.97829 138.435 21.5952 118.493 40.919 103.975ZM96.276 59.7187C91.1014 63.3617 85.1992 67.5445 78.0572 72.6177C77.7338 74.0749 77.4104 75.4242 77.1139 76.8004C84.3098 71.4034 90.239 66.9508 95.3058 63.1458C95.6292 61.9855 95.9256 60.9061 96.276 59.7187ZM63.5846 78.1767C50.3518 86.8929 33.3727 98.0379 10.1681 113.285C10.3028 115.659 10.4106 117.656 10.5454 119.653C33.5075 103.543 50.0553 91.9122 62.7492 82.9801C63.0456 81.334 63.3151 79.7688 63.5846 78.1767ZM86.5198 72.8066C92.1525 68.327 96.8419 64.63 100.885 61.4188C101.208 60.3933 101.477 59.4488 101.774 58.4774C97.6505 61.5807 92.988 65.1158 87.4361 69.2715C87.1127 70.4859 86.8163 71.6192 86.5198 72.8066ZM10.0872 127.614C10.222 129.638 10.3298 131.446 10.4376 133.227C32.5103 115.686 48.573 102.949 60.9704 93.0996C61.2399 91.5884 61.4825 90.1582 61.752 88.647C48.9773 98.2807 32.672 110.586 10.0872 127.614ZM87.0318 69.6223C80.2941 74.6956 72.3437 80.7133 62.5875 88.0803C62.3179 89.6185 62.0754 91.0487 61.8059 92.4519C71.616 84.6532 79.4856 78.4195 86.1155 73.1574C86.412 71.97 86.7084 70.8636 87.0318 69.6223ZM88.568 64.9269C94.1738 60.987 98.8094 57.7218 102.879 54.8613C103.202 53.8089 103.526 52.7835 103.822 51.785C99.6987 54.4835 95.0362 57.5599 89.5652 61.1759C89.2149 62.4712 88.8914 63.6586 88.568 64.9269ZM63.4499 82.5483C73.5834 75.4242 81.5608 69.8112 88.1368 65.1967C88.4872 63.8744 88.7836 62.6601 89.1071 61.4458C82.3424 65.8983 74.338 71.1875 64.2854 77.7989C63.9889 79.445 63.7463 80.9562 63.4499 82.5483ZM98.8902 60.5013C102.07 58.1266 102.07 58.1266 102.69 55.7249C102.69 55.6979 102.717 55.6439 102.717 55.6439C102.556 55.5899 102.475 55.3471 102.232 55.509C101.397 56.0217 100.507 56.6963 99.5909 57.344C96.3029 59.6647 96.3029 59.6647 95.71 62.3633C95.6022 62.822 95.737 62.876 96.3568 62.4172C97.2193 61.7426 98.0547 61.1219 98.8902 60.5013ZM119.049 43.4735C119.319 42.664 119.588 41.9354 119.858 41.2068C118.915 41.8274 117.998 42.4481 116.974 43.0957C116.678 43.9323 116.408 44.7149 116.139 45.5244C117.19 44.7958 118.133 44.1482 119.049 43.4735ZM118.106 46.1451C117.163 46.8737 116.193 47.6023 115.169 48.3579C114.899 49.1674 114.63 49.896 114.387 50.6516C115.438 49.8151 116.408 49.0325 117.352 48.3039C117.594 47.6023 117.837 46.9007 118.106 46.1451ZM-9.20956 125.725C4.91267 116.28 15.6391 109.129 25.5031 102.544C25.5301 100.682 25.7457 98.8204 25.4492 97.2283C25.3953 96.8775 23.5357 97.3632 22.4038 98.0379C14.1029 102.949 4.72401 108.616 -5.94851 115.174C-7.48471 116.118 -10.072 118.412 -10.0989 118.844C-10.1528 121.272 -9.58688 123.269 -9.20956 125.725ZM118.322 38.94C118.591 38.1844 118.861 37.4288 119.076 36.7272C119.13 36.5653 119.022 36.4034 118.915 36.4573C118.295 36.7542 117.648 37.078 116.947 37.4828C116.839 37.5368 116.543 37.9146 116.489 38.0495C116.193 38.859 115.923 39.6416 115.654 40.4782C116.624 39.9385 117.459 39.4527 118.322 38.94ZM57.0625 81.9546C62.2101 78.6084 66.5223 75.775 70.5649 73.1574C70.8883 71.5383 71.2117 69.9461 71.5082 68.408C67.2769 70.9716 62.83 73.6701 57.8441 76.6655C57.5746 78.4735 57.332 80.1466 57.0625 81.9546ZM85.5226 63.4157C86.8701 62.5252 88.056 61.7696 89.1879 61.014C93.0688 58.4774 93.0688 58.4774 93.6348 55.6439C93.6617 55.563 93.7157 55.455 93.6887 55.428C93.5 55.3471 93.3653 55.1312 93.0958 55.2661C91.1014 56.4265 88.9454 57.7488 86.5737 59.179C86.2233 60.6902 85.8999 61.9585 85.5226 63.4157ZM121.852 37.9146C121.232 38.2923 120.613 38.6432 119.966 39.0749C119.885 39.1289 119.669 39.4257 119.615 39.5337C119.346 40.2623 119.103 40.9909 118.834 41.7735C119.669 41.1798 120.37 40.6671 121.071 40.1813C121.34 39.4257 121.583 38.7241 121.852 37.9146ZM109.697 43.9593C110.048 42.8799 110.344 41.8814 110.668 40.9099C109.401 41.5846 108.107 42.2592 106.787 42.9338C106.436 44.0942 106.113 45.1466 105.79 46.1991C107.191 45.4165 108.458 44.6879 109.697 43.9593Z" fill="#81A7CD"/>
<path d="M113.413 45.5513C112.389 47.1974 112.146 48.3578 111.688 49.707C112.281 49.2753 112.793 48.8975 113.359 48.4927C113.71 47.3053 114.41 45.9021 114.249 45.0925C114.249 45.3894 114.356 45.6052 114.276 45.9561C114.06 46.7656 113.737 47.6291 113.413 48.5197C112.82 48.9514 112.2 49.3832 111.473 49.9229C111.877 48.7895 112.281 47.7101 112.739 46.5767C112.847 46.3069 113.171 45.9021 113.413 45.5513Z" fill="#81A7CD"/>
<path d="M107.7 49.0323C106.837 50.1118 106.298 51.1102 106.029 52.0277C105.813 52.7563 105.571 53.5119 105.301 54.2945C106.056 53.7548 106.703 53.269 107.565 52.6484C107.835 51.569 108.077 50.4896 108.347 49.3832C108.374 49.599 108.481 49.761 108.401 50.0578C108.158 50.9213 107.835 51.8118 107.538 52.7563C106.756 53.323 106.002 53.8627 105.059 54.5643C105.49 53.323 105.894 52.0547 106.433 50.7054C106.676 50.2737 107.296 49.599 107.7 49.0323Z" fill="#81A7CD"/>
<path d="M116.6 22.2089C115.764 22.5057 115.198 23.4502 114.848 24.3677C114.39 25.6091 114.066 26.7964 113.662 28.0647C114.336 27.8758 114.956 27.7139 115.683 27.525C116.088 26.0678 116.465 24.6646 116.869 23.2343C116.519 24.6916 116.169 26.1218 115.818 27.633C114.983 27.8488 114.282 28.0377 113.527 28.2536C113.959 26.8504 114.336 25.3932 114.929 23.936C115.225 23.0994 115.791 22.047 116.6 22.2089Z" fill="#81A7CD"/>
<path d="M121.337 21.8582C120.312 23.3963 119.962 24.9075 119.45 26.4996C119.962 26.3647 120.42 26.2298 120.932 26.0949C121.444 24.6377 122.037 23.1804 122.172 21.8312C122.118 22.2629 122.145 22.6947 122.01 23.1535C121.714 24.1519 121.337 25.1774 120.986 26.2298C120.447 26.3917 119.908 26.5266 119.234 26.7155C119.719 25.3932 120.178 24.0979 120.717 22.7757C120.824 22.4518 121.121 22.155 121.337 21.8582Z" fill="#81A7CD"/>
</g>
<path d="M152.523 17.999L179.798 188.276L281.429 185.227L156.943 15.5433" fill="#D9E2EC"/>
<path d="M183.173 187.548L153.716 13.4116L153.23 13.3846L179.184 187.548H183.173Z" fill="#81A7CD"/>
<path d="M286.555 187.548L154.145 13.4116H153.66L282.782 187.548H286.555Z" fill="#81A7CD"/>
<path d="M228.387 175.566H224.613L222.296 170.385L226.015 170.412L228.387 175.566ZM220.22 157.648L216.609 157.621L218.792 162.479L222.457 162.506L220.22 157.648ZM214.749 145.694L211.219 145.667L213.267 150.254L216.825 150.281L214.749 145.694ZM209.629 134.441L206.206 134.387L208.12 138.704L211.569 138.731L209.629 134.441ZM204.778 123.809L201.463 123.755L203.268 127.829L206.637 127.883L204.778 123.809ZM200.196 113.77L196.962 113.716L198.687 117.575L201.948 117.629L200.196 113.77ZM195.857 104.244L192.704 104.19L194.321 107.833L197.501 107.887L195.857 104.244ZM191.76 95.2311L188.688 95.1771L190.224 98.6312L193.323 98.6852L191.76 95.2311ZM187.852 86.6767L184.861 86.5958L186.316 89.888L189.335 89.942L187.852 86.6767ZM184.16 78.5541L181.223 78.4732L182.624 81.6035L185.589 81.6844L184.16 78.5541ZM180.63 70.8094L177.773 70.7284L179.093 73.6968L181.977 73.7777L180.63 70.8094ZM177.261 63.4424L174.458 63.3614L175.725 66.1949L178.554 66.2758L177.261 63.4424ZM174.081 56.4262L171.359 56.3452L172.571 59.0437L175.32 59.1247L174.081 56.4262ZM171.008 49.7068L168.34 49.6259L169.499 52.2165L172.194 52.2974L171.008 49.7068ZM168.071 43.2843L165.456 43.2034L166.561 45.659L169.203 45.74L168.071 43.2843ZM165.295 37.1586L162.734 37.0777L163.785 39.4524L166.373 39.5333L165.295 37.1586ZM162.6 31.2758L160.093 31.1949L161.117 33.4616L163.651 33.5426L162.6 31.2758ZM160.039 25.6359L157.587 25.5549L158.557 27.7138L161.036 27.7947L160.039 25.6359ZM157.56 20.2118L155.161 20.1309L156.104 22.2088L158.53 22.2897L157.56 20.2118ZM155.188 15.0307L152.816 14.9497L153.706 16.9466L156.077 17.0276L155.188 15.0307ZM232.187 183.932H228.333L230.812 189.464H234.72L232.187 183.932Z" fill="#0B56A0"/>
<path d="M150.881 10.74L-47.2617 187.791L8.09529 188.33L154.789 13.9512" fill="#D9E2EC"/>
<path d="M14.2953 141.267L13.918 141.537C14.0527 141.483 14.1605 141.375 14.2953 141.267Z" fill="#2A6BAC"/>
<path d="M46.2926 112.447C46.05 112.663 45.9961 112.798 45.9961 112.852C46.2117 112.609 46.3734 112.42 46.2926 112.447Z" fill="#2A6BAC"/>
<path d="M52.0535 107.86C51.9187 107.968 51.8379 108.049 51.7031 108.129C51.8648 108.049 51.9996 107.941 52.0535 107.86Z" fill="#2A6BAC"/>
<path d="M14.3008 141.268L15.2441 140.593C15.2171 140.431 14.732 140.917 14.3008 141.268Z" fill="#2A6BAC"/>
<path d="M0.522241 154.328L0.252732 154.571C0.198831 154.679 0.171875 154.787 0.171875 154.895L0.522241 154.328Z" fill="#2A6BAC"/>
<path d="M8.29297 147.366C8.34687 147.393 8.42773 147.393 8.48163 147.366C8.42773 147.339 8.37382 147.339 8.29297 147.366Z" fill="#2A6BAC"/>
<path d="M62.3235 99.1433C62.2966 99.1703 62.2965 99.1703 62.2696 99.1703C62.027 99.4402 62.1887 99.3052 62.3235 99.1433Z" fill="#2A6BAC"/>
<path d="M155.253 14.0314C154.66 14.4632 154.498 14.4902 154.525 14.3822C154.552 14.2743 154.768 14.0045 154.929 13.7886C155.091 13.5727 155.199 13.3838 155.091 13.3838C154.983 13.3838 154.633 13.5997 153.932 14.1394C154.175 14.0045 153.959 14.4092 153.905 14.6791C153.851 14.9489 153.959 15.0839 155.253 14.0314Z" fill="#2A6BAC"/>
<path d="M153.933 14.1666L153.637 14.3825C153.771 14.2746 153.825 14.2206 153.933 14.1666Z" fill="#2A6BAC"/>
<path d="M85.0691 78.0947C84.9883 78.0947 84.8535 78.1217 84.7188 78.1757C84.7727 78.2027 84.8535 78.1757 85.0691 78.0947Z" fill="#2A6BAC"/>
<path d="M67.6562 93.2606L68.1144 92.9098C67.8988 93.0447 67.7641 93.1527 67.6562 93.2606Z" fill="#2A6BAC"/>
<path d="M93.5898 69.6215C93.8324 69.4326 93.9402 69.4056 94.2367 69.0818C94.1828 69.0818 94.1558 69.1088 94.1019 69.1358C94.021 69.2707 93.8863 69.4326 93.5898 69.6215Z" fill="#2A6BAC"/>
<path d="M102.805 61.202C102.725 61.229 102.671 61.256 102.59 61.31C102.509 61.3909 102.401 61.4989 102.32 61.5798L102.805 61.202Z" fill="#2A6BAC"/>
<path d="M91.9492 67.058L93.4585 65.7627C93.0273 66.1135 92.4613 66.5723 91.9492 67.058Z" fill="#2A6BAC"/>
<path d="M71.3019 9.28223L70.8438 9.30921C71.0324 9.30921 71.1941 9.30921 71.3019 9.28223Z" fill="#2A6BAC"/>
<path d="M97.7695 61.7688C98.1199 61.6339 98.4433 61.445 98.7667 61.2021C98.8206 61.1211 98.8476 61.0402 98.8745 60.9862L97.7695 61.7688Z" fill="#2A6BAC"/>
<path d="M-31.6248 2.75177C-29.7383 2.8867 -30.7085 2.32 -30.2773 2.07714C-28.0134 2.10412 -29.2531 2.5089 -28.5255 2.83273C-27.124 2.80574 -25.9921 2.42794 -24.968 2.5089C-24.8871 2.58986 -24.6984 2.64383 -24.941 2.72478C-23.4318 2.42795 -20.5211 3.02162 -18.7693 2.64383C-18.6345 2.6978 -18.5806 2.75177 -18.5537 2.77875C-18.8232 2.5089 -18.8501 2.26603 -18.7693 2.07714C-17.9338 2.13111 -17.1792 1.86125 -16.8827 2.21206C-17.3948 2.15809 -17.4487 2.29302 -17.6912 2.37397L-16.8019 2.29302C-16.0472 2.80574 -18.0146 2.37397 -18.0416 2.72478C-16.3167 2.6978 -14.2685 2.45493 -12.9479 2.67081C-12.7053 3.15655 -16.0472 2.61684 -14.3224 3.12956L-16.3437 2.80574C-14.8344 3.64228 -17.5834 2.67081 -16.2089 3.53434C-13.5139 3.85817 -13.1904 3.50736 -10.4954 3.83118C-9.87549 3.6153 -10.6571 3.45339 -10.0372 3.2375C-6.18324 3.04861 -7.09956 4.58677 -4.26972 4.18199C-3.5151 3.93912 -3.19168 3.37243 -1.22427 3.8042L-1.95195 4.26295C0.662285 4.50582 -0.415749 3.6153 2.30629 4.15501C1.79422 4.31692 0.258026 4.18199 0.635338 4.26295C2.38714 4.80265 1.90202 4.04706 3.27651 4.15501L3.51907 4.64074C6.29501 4.74868 9.3674 4.64074 12.4667 4.77567C12.2781 4.9106 11.7391 5.01854 12.4667 5.20743C16.3477 5.2614 20.7407 5.8281 24.4599 6.3678L25.9152 6.07096C26.2386 6.09795 26.5081 6.28685 26.1578 6.34082C27.6131 6.58369 26.2386 6.09795 26.9663 5.99001C27.8018 6.01699 28.0443 6.28685 27.5053 6.3678C30.0926 6.20589 34.8898 6.15192 37.558 6.77258L37.019 6.85354C39.1211 7.15038 39.4445 6.20589 41.385 6.71861L41.0077 6.77258C45.5624 7.25832 50.6561 7.25832 54.1058 8.09486C54.8065 7.58214 58.6335 8.66156 58.9569 7.87898C61.5442 8.44567 60.7896 8.55362 64.4549 9.06634C65.4251 9.17428 65.9642 8.66156 67.1769 8.66156V9.06634L68.8479 8.74251L69.6834 9.30921L70.8422 9.28222C70.3841 9.22825 69.899 9.03935 69.9798 8.90442C71.7855 8.85045 74.292 9.4981 74.3189 9.71398L78.5502 9.66001C78.4424 9.82193 77.7417 9.82193 77.1757 9.90288C79.4665 9.63303 77.553 10.3616 79.6552 10.1188C79.3857 10.0108 79.8169 9.8759 79.8708 9.79494C80.868 10.1188 83.2127 10.2807 84.9645 10.3077L84.6141 10.5775C87.7404 10.8744 91.2171 10.9013 94.7207 11.1442C93.4809 10.9283 93.8044 10.4426 94.8285 10.4696L95.2058 10.9283C95.8796 10.7124 94.1547 10.6855 95.5292 10.4426C96.8498 10.5775 96.3647 11.0093 95.6101 11.0902L97.2271 11.0363C97.308 11.1712 96.9307 11.2252 96.8229 11.3871C97.4966 11.1712 99.5449 12.0077 100.515 11.603L100.596 11.7379C104.1 11.9808 105.717 11.9538 108.573 12.1157C108.654 11.7379 109.759 11.8998 110.649 11.6569C112.751 11.9268 115.042 12.3855 117.575 12.5205C119.354 12.4665 118.114 12.2236 118.923 12.0617C119.03 12.4125 121.564 12.5474 120.243 12.7094C123.289 12.8713 124.124 12.8983 127.978 12.8983C127.574 12.7363 127.116 12.6284 127.358 12.5205C128.059 12.5205 128.921 12.7633 128.813 12.9252L128.625 12.9522C132.964 12.7363 138.516 14.6523 141.992 14.1666L141.804 14.1936L145.388 14.0586C147.032 14.2205 144.391 14.2475 145.577 14.5444C146.412 14.4904 147.167 14.4634 147.841 14.4904C148.083 14.4904 148.299 14.5174 148.541 14.5174C148.649 14.5174 148.757 14.5444 148.838 14.5444C149.027 14.5713 149.188 14.5983 149.323 14.6253C149.485 14.6523 149.62 14.6793 149.862 14.6523C149.808 14.7333 149.781 14.7872 149.781 14.8682C149.134 15.1111 148.838 15.219 148.676 15.2999C148.622 15.3269 148.595 15.3269 148.568 15.3539L148.515 15.3809C148.461 15.4349 148.38 15.4888 148.326 15.5698C147.922 15.9476 147.517 16.3254 147.113 16.7302C145.469 18.3223 143.771 20.0224 142.343 20.8859L142.639 20.9399C142.154 21.6955 141.777 21.5336 141.265 21.9114C141.453 21.9923 142.1 21.4526 141.804 21.9114C136.629 27.0116 130.511 31.734 124.852 36.5914C122.803 38.3724 124.555 38.5613 121.618 40.4233L122.049 39.4248C118.357 43.5266 113.748 46.9807 110.083 50.9206C110.244 50.6237 110.164 50.5158 110.568 50.165C109.517 50.6777 107.468 52.9715 107.63 53.1874C106.983 53.7271 107.334 53.1334 106.849 53.3763C105.878 53.9969 105.016 55.616 104.342 55.7779C104.234 55.8049 104.504 55.4811 104.639 55.3192C104.207 55.9399 102.051 57.6129 102.833 57.4241C101.216 58.6384 100.084 60.1496 98.7633 61.0671C98.2782 62.0925 96.0682 63.2529 96.2299 63.9005C95.9335 63.3608 93.2923 65.9244 92.5377 67.0038C92.7263 66.5721 91.5944 67.5975 91.7831 67.0848C90.705 68.0833 89.8156 69.0547 90.1929 69.1087C87.7135 70.377 86.6085 73.1835 84.8567 73.5073C81.8921 76.6646 79.0623 79.525 76.2863 82.2506C75.9899 81.7108 79.4126 79.3092 78.8736 78.9584C76.3133 81.6299 75.1005 83.4379 72.2976 85.8126C71.543 86.3793 72.5132 85.2459 72.6749 84.9761C70.1146 87.6476 67.3656 89.7255 65.1826 92.1812C65.1556 92.1272 65.3712 91.8573 65.5868 91.5875C65.1287 92.0462 64.4279 92.532 64.6436 92.6939L65.0478 92.2082C66.0719 91.8034 63.7272 94.5559 63.7811 94.7987C64.0506 93.4765 61.2478 96.8226 61.8676 94.9067C61.5981 95.2305 61.2747 95.6893 61.4903 95.7702C60.9782 96.148 60.7626 96.202 61.086 95.6353C59.469 97.3084 60.2775 96.9576 58.7144 98.3878C58.6335 98.2798 58.903 97.956 58.9569 97.6862C58.3371 98.6037 57.7441 99.4942 56.3427 100.628C56.3697 100.493 56.1541 100.547 56.5314 100.196C54.3214 102.274 53.1625 104.217 50.5213 106.268C50.8447 105.161 49.5511 106.888 49.0929 106.645L47.8801 107.968L48.5809 107.671C47.422 108.723 46.6404 109.938 45.5085 110.72L46.2361 109.776L44.134 111.826L45.5085 110.855C44.5113 112.123 46.0744 111.206 44.4304 112.528C44.6999 112.204 43.2716 113.581 42.463 113.904C42.0049 114.552 41.5197 115.2 40.5765 115.901C40.2531 115.982 40.3878 115.335 40.1722 115.389C39.8757 116.225 37.531 117.952 37.0998 118.951C37.2615 118.654 37.0998 118.438 36.992 118.492L36.7494 119.166C36.1296 119.571 36.0218 119.598 35.9679 119.382C34.2969 120.813 36.9111 119.382 34.809 120.948C34.9437 120.786 34.8359 120.813 35.1055 120.489C33.0841 122.135 31.521 124.051 29.6344 125.535C28.772 125.643 31.0898 124.024 30.2273 124.267C27.7209 126.668 25.3493 129.556 22.7889 131.715L23.301 131.337C23.4357 132.173 21.2258 132.767 20.2016 134.143C20.4711 133.82 20.3364 133.496 20.3094 133.631C18.5307 135.088 16.9675 136.923 14.542 139.432L14.7306 139.001C13.6256 139.783 12.0355 141.321 10.9036 142.239C10.7149 142.671 10.0681 143.21 10.6341 143.076C6.59147 145.342 4.651 149.282 1.12045 151.333C1.47081 151.009 1.84812 150.442 1.57861 150.712L-0.820007 153.141C-0.415749 153.195 -0.361847 152.979 0.338875 152.682C0.150215 153.114 -0.46965 153.87 -1.08952 154.436C-0.0923386 153.249 -1.43988 154.086 -2.0328 154.382C-1.89804 154.382 -1.97889 154.598 -1.87109 154.652C-3.56899 155.435 -1.68244 155.327 -3.70376 156.676L-3.73071 156.46C-4.35058 157.135 -4.80874 157.863 -5.56336 158.484C-6.10238 158.484 -4.97044 157.702 -5.10519 157.459C-6.10237 158.403 -6.6414 159.806 -7.82723 160.373C-7.44992 159.914 -6.83005 159.348 -6.47969 158.862C-7.77333 159.456 -7.80028 159.645 -8.6088 160.265L-8.52795 160.211L-10.3876 161.641L-9.87549 161.318C-10.5223 163.18 -12.355 163.8 -13.6486 165.824C-12.3819 163.881 -13.5947 165.311 -13.7564 164.907C-14.2685 165.23 -15.0231 165.743 -14.9153 165.473C-15.5082 166.445 -16.4515 166.526 -17.26 167.902C-17.3948 167.848 -18.1224 168.685 -18.1763 168.28C-19.1735 169.305 -17.7721 168.226 -17.7451 168.415C-19.0657 170.223 -21.9225 171.491 -23.836 174.082C-25.6687 176.106 -25.7495 176.78 -27.4744 178.642C-28.256 179.074 -27.2857 177.806 -27.2857 177.806C-28.4446 178.588 -29.1723 179.317 -30.0347 180.288C-29.9269 180.018 -30.1964 180.126 -30.5737 180.288C-31.3284 181.017 -30.7624 181.125 -31.9213 181.88C-31.8404 181.611 -31.7865 181.233 -31.517 180.801C-32.3525 181.718 -33.0802 182.717 -33.9426 183.661C-34.3468 183.715 -33.6192 182.879 -33.3766 182.474C-34.3738 183.5 -35.9639 185.119 -36.0448 185.685L-35.2901 185.173C-35.6674 185.523 -35.6944 185.119 -35.4518 184.822C-34.7511 183.796 -34.0504 183.715 -33.9156 183.769L-34.5355 184.444C-33.3227 184.39 -31.9213 181.907 -30.5468 180.72L-30.7354 181.638L-29.6574 180.045C-29.2531 179.883 -28.8489 179.937 -29.4688 180.612C-28.3099 179.937 -28.7411 179.695 -27.7169 179.155C-27.5822 179.101 -27.6091 179.155 -27.69 179.263L-26.8545 178.291C-26.9623 178.534 -26.4233 178.453 -27.0701 178.912C-25.1566 177.617 -24.6176 176.106 -23.7013 175.836L-23.8091 175.998C-21.5991 173.704 -23.863 175.485 -22.4346 173.515L-20.575 173.191L-20.6289 172.678C-20.3863 172.463 -19.8743 172.058 -19.8473 172.247C-19.1466 171.221 -20.1168 172.247 -19.7665 171.572C-18.3381 170.789 -16.6671 168.523 -15.9664 168.766C-15.7508 168.145 -17.2331 169.602 -16.155 168.307C-15.3196 168.496 -14.8075 166.904 -13.5139 166.175C-13.5947 166.742 -14.7266 167.524 -13.4599 166.796C-13.2443 165.743 -11.3039 165.015 -10.4684 164.097C-10.7649 163.692 -8.6627 162.154 -7.26126 160.67C-7.23431 160.886 -4.24277 158.295 -2.73352 157.135L-2.70657 157.243C-2.76047 156.622 -1.25122 155.381 -0.280991 154.355C-0.119286 154.625 -0.227089 154.868 -0.712204 155.489L0.284973 154.571C0.419731 154.247 0.662285 153.897 1.2552 153.276V153.789C2.54884 152.574 3.62688 151.036 5.48648 149.687C5.35173 149.336 3.49213 150.2 5.13612 148.392C5.32478 148.473 5.62124 148.634 5.19003 149.12C5.32478 148.958 5.62124 148.5 5.99855 148.284L5.48648 149.174C6.34891 148.581 5.7021 148.607 6.34892 148.068C6.51062 148.284 6.94183 147.798 6.99574 148.041C6.86098 148.203 6.37586 148.446 6.21416 148.742C6.94183 148.149 7.88511 147.501 8.31632 147.393C8.15462 147.339 8.07376 147.123 8.55888 146.638C9.85252 145.423 9.23265 146.476 10.0951 145.855C10.2837 145.423 11.254 144.803 11.0114 144.479C11.3887 144.128 11.6043 144.209 11.8199 144.155C12.3859 143.399 14.9732 141.214 13.9221 141.591L13.7334 141.726C13.7604 141.699 13.7873 141.645 13.8412 141.618C15.8087 139.298 18.6385 137.544 20.7407 135.412L20.8215 135.52C22.0343 134.197 23.7053 132.767 24.4599 131.688C24.8641 131.337 25.5379 131.013 25.484 131.283C26.4273 130.284 26.4542 130.069 28.0443 128.908C27.1819 130.015 28.5294 128.746 27.128 129.988C28.5294 128.881 28.9607 128.773 30.1196 127.208C29.877 127.91 31.3862 126.614 31.9522 125.967L30.8742 126.614C31.5479 125.94 32.1678 125.4 32.8146 124.86L32.7877 125.508C35.8331 123.457 37.019 120.408 39.6871 119.193C40.1992 118.303 38.07 120.354 38.4743 119.517C39.741 118.438 41.4658 117.736 41.8701 117.385C43.7297 116.036 43.002 115.469 44.8886 113.958C44.5652 114.039 44.0531 113.931 45.2659 112.609C46.5326 111.53 47.2333 111.719 46.5326 112.528C46.2361 112.798 46.0744 112.906 46.0475 112.852C45.6971 113.257 45.212 113.796 45.8049 113.473L45.8588 113.203C46.5865 112.771 48.2844 111.206 48.0419 111.746C48.8773 110.774 48.2575 111.179 47.5298 111.746C49.2816 110.477 50.0093 109.479 51.7611 108.103C51.4377 108.264 51.0873 108.345 51.3298 108.129C53.8632 106.079 52.1923 106.942 53.7554 105.404C54.8335 104.729 53.8093 106.133 55.3186 104.486C56.4236 103.704 55.8037 104.594 55.5072 105.053C56.8009 103.461 58.4179 102.651 59.3073 101.923L58.6066 102.732C59.0378 102.247 59.4151 101.896 59.7924 101.545L59.1186 101.707C59.6037 101.329 60.008 100.978 60.0889 101.086C60.4123 100.493 59.3612 101.032 60.1158 99.9529C60.8435 99.5212 61.8676 98.1179 62.3797 98.2259C60.3584 99.872 62.8917 98.3338 61.3017 99.899C61.5712 99.5751 61.9754 99.2243 62.4605 98.8465C62.5683 98.8195 62.4605 98.9815 62.3527 99.1164C64.4549 97.7132 62.8917 97.983 64.8053 96.256C64.7244 96.6607 65.5599 96.175 65.8294 95.8512C65.0478 96.5528 65.1826 95.9051 65.7755 95.1226C67.123 94.1511 67.0152 93.8003 67.689 93.2336L66.9074 93.8273C66.9883 93.4225 67.6351 92.8828 68.4436 92.0462C68.6323 92.1272 67.7429 92.8558 68.1202 92.6399C68.794 91.4526 70.5727 90.9938 71.7047 89.5906C72.4323 89.1588 72.055 89.8604 72.6749 89.4556C73.9416 87.8635 74.5076 88.2413 75.909 86.6222C75.2352 86.7841 75.2083 86.919 76.0977 85.6777L73.6721 88.1873L74.9927 86.3253C74.2111 87.027 73.4834 87.9715 72.9983 88.3492C73.6182 87.4317 73.5912 87.5667 73.0253 87.7016C74.3997 87.0809 74.9388 85.5698 76.3941 84.7062L76.8792 85.3269C78.9545 83.8967 79.8708 82.0347 82.4042 80.0108L81.5417 80.6045C81.6495 80.0648 82.9971 79.2282 83.6708 78.4186C83.7786 78.6885 84.3177 78.3107 84.7758 78.1218C84.6141 78.0139 86.5276 76.5297 86.3929 75.936L87.6865 75.2344C89.7078 73.5883 89.3844 72.6708 91.2979 71.0247C90.9206 71.7533 91.9178 71.1056 90.7859 72.4009C91.4057 71.8342 91.9986 71.3755 91.8908 71.2136C92.376 70.9977 93.3731 69.3786 94.1008 69.0547C94.2895 68.7309 94.1817 68.4341 94.8824 67.8404C94.9902 67.8134 94.9632 67.9483 94.9632 67.9483C94.8824 67.8404 95.9335 66.8149 95.1249 67.1658C97.6044 66.0324 100.434 62.2544 102.563 61.256C103.857 59.9607 105.42 58.3955 106.66 57.2621C106.633 57.3971 106.741 57.3701 106.498 57.559C108.358 56.2097 107.037 56.0478 109.139 54.4827C110.406 53.889 108.277 55.589 109.005 55.1573C109.867 55.5621 111.242 52.9445 112.886 52.1349L112.616 52.4587C113.802 51.7841 114.826 50.0031 116.47 48.5729C116.47 48.5729 116.443 48.7078 116.551 48.6808C117.359 47.3315 119.354 45.3076 120.836 43.7965C120.593 44.4981 120.243 44.579 120.782 44.5521C121.456 43.8774 120.189 44.3362 121.537 42.9869C122.13 42.717 123.235 41.9075 123.612 42.0694L122.318 43.2837C123.316 43.0139 124.016 41.7186 124.771 41.1519L124.825 41.3948C126.792 39.5058 126.469 39.074 128.652 37.1311L128.328 37.212C129.164 35.7548 129.514 36.5374 130.431 35.1612L131.158 35.2421C131.859 34.4326 133.557 32.3547 134.877 31.0054C134.338 32.0309 132.856 33.677 131.994 34.7564C132.775 34.0548 134.608 32.3277 134.824 31.761C134.554 32.0848 134.231 32.5436 133.88 32.7595C134.554 31.5721 135.659 30.2768 137.222 28.9006C137.653 29.926 141.426 25.4194 143.07 24.9877C144.31 23.6114 145.685 22.3971 147.167 21.1558C147.895 20.5351 148.649 19.9144 149.431 19.2668C149.808 18.943 150.212 18.6191 150.59 18.2683C150.859 18.0255 151.102 17.8096 151.371 17.5667C151.695 17.2699 152.045 16.9461 152.395 16.6222C151.695 16.973 151.506 17.027 151.506 16.973C151.506 16.8921 151.722 16.7032 151.991 16.4603C152.261 16.2174 152.557 15.9206 152.719 15.7047C152.881 15.4888 152.854 15.3539 152.503 15.4079C153.42 14.5174 153.797 14.1666 153.986 14.0586L156.034 12.5205C155.468 12.3855 154.875 12.2776 154.201 12.1427C153.824 12.0077 154.282 11.9808 154.875 11.9808C155.468 11.9808 156.196 12.0077 156.33 11.9268C154.498 11.7649 154.201 11.6569 154.093 11.549C153.986 11.441 154.093 11.3061 152.773 11.1172C152.908 11.2791 152.422 11.3601 151.668 11.3601C150.913 11.3601 149.862 11.3061 148.73 11.1442C149.808 11.3331 150.778 11.549 151.668 11.7379C150.293 11.7649 149.431 11.7109 148.703 11.603C148.245 11.522 147.949 11.4141 147.598 11.3061C146.951 11.0902 146.278 10.8744 144.741 10.9823L145.739 10.7934C144.149 10.8474 139.89 10.3886 138.3 10.9283C138.031 10.8204 137.68 10.5505 138.381 10.5505C134.608 10.1997 129.918 10.6585 127.008 10.0648L127.304 9.8759C126.604 9.8759 126.038 10.1727 125.175 9.90288C125.229 9.82193 125.472 9.71399 125.148 9.687C124.771 9.74097 123.262 9.90288 122.318 9.71398L123.127 9.55207C119.462 9.03935 117.413 9.71399 114.314 9.63303C114.368 9.03935 111.484 8.63457 110.029 8.44567L110.083 8.36472C105.797 7.98692 102.752 8.33773 98.7633 8.31075C96.3377 7.50119 90.4086 7.44722 86.4737 6.82655C87.0667 6.98847 86.339 7.28531 85.6383 7.28531C84.7219 7.09641 83.024 7.52817 83.2127 6.98847L83.5361 7.01545C82.8623 6.42177 80.9488 6.44876 79.4396 6.31383L79.1431 7.01545C75.3161 5.72016 68.8748 6.69163 66.7996 5.61221C65.8563 5.72016 64.6705 5.6392 63.7272 5.74714L63.8081 5.36935C61.1939 5.09949 59.9002 4.96457 56.6661 4.82964L57.3399 4.61376C55.5072 4.45185 54.9682 5.55824 53.2703 5.4503L52.8121 4.85662C49.6319 4.64074 46.4518 3.91214 43.2716 4.20898C43.3255 4.12802 43.4333 3.96611 43.9453 3.99309C42.4361 3.88515 38.1778 3.21052 38.6629 4.02008C38.6629 3.50736 35.375 3.75023 33.6501 3.85817L33.9466 3.50736C32.4643 3.88515 32.4104 4.02008 30.3621 3.99309C29.877 3.91214 29.9578 3.66927 30.6047 3.8042C29.0146 3.50736 29.338 4.07405 27.3975 3.75023L28.1252 3.56133C26.4812 3.4264 26.6159 3.56133 25.6727 3.77721C24.6216 3.85817 22.5464 3.45339 22.3307 3.10258C22.0882 3.29148 21.1719 3.50736 20.2016 3.34545C20.0669 3.21052 20.4442 3.15655 20.6059 3.12956C17.8839 2.67081 16.4824 3.29148 14.6228 2.77875C14.5959 2.64383 14.4611 2.58986 14.3264 2.53589C16.5094 2.6978 18.2612 2.83273 18.0995 2.85971C18.1264 2.5089 16.3746 2.32 17.803 1.94221C16.3746 2.10412 13.8951 2.5089 12.1972 2.21206C12.1164 2.18508 12.0355 2.13111 11.9816 2.07714L12.1703 2.05015C11.766 1.99618 11.4157 1.99618 11.0923 2.02317C10.5532 1.91522 10.2029 1.86125 9.66386 1.80728C9.4752 1.51044 7.64255 1.51044 6.78012 1.42949C6.83402 1.80728 5.67514 1.67236 6.72623 2.05015C6.59147 2.02317 6.88792 2.02317 7.48084 2.05015C7.6156 2.05015 7.7773 2.05015 7.85815 2.05015C7.8312 2.05015 7.83121 2.07714 7.80426 2.07714C8.37022 2.10412 9.12485 2.15809 9.98727 2.21206C9.28655 2.34699 8.53192 2.45493 7.58865 2.18508C7.13048 2.40096 6.61842 2.61684 6.32196 2.6978C5.16308 2.07714 2.84531 1.64537 2.54884 1.29456C-0.14624 1.32155 -3.78461 0.997722 -5.53641 1.5914C-6.31799 1.61838 -6.39884 1.32155 -6.66835 1.18662C-6.21018 1.13265 -5.69812 1.18662 -5.45556 1.10566C-6.99175 1.18662 -9.9833 0.862796 -10.3876 1.32155C-12.3011 0.970737 -9.28258 0.943752 -11.9238 0.835811L-11.5464 0.700884C-16.6941 -0.459486 -20.0899 1.37552 -25.8034 -0.0277202C-25.3992 0.0532358 -25.2105 0.107206 -25.1297 0.188163C-31.6787 -0.729339 -38.7129 -0.324559 -45.1541 -1.48493C-46.9868 -1.75478 -47.2024 -1.45794 -48.3613 -1.29603L-48.7386 -1.7278L-50.706 -1.40397C-53.455 -1.24206 -55.3685 -2.72625 -58.8721 -2.32147L-58.4409 -2.02463C-59.7345 -2.02463 -62.4296 -1.99765 -62.1871 -2.29449C-62.3218 -2.24052 -62.6183 -2.02463 -63.0764 -2.21353L-63.1034 -2.42941L-66.2027 -2.2675C-68.5474 -2.59133 -65.7715 -3.07706 -69.2212 -3.3739C-70.5149 -3.3739 -72.9135 -2.99611 -72.4553 -2.83419C-71.9433 -2.78022 -71.1347 -2.61831 -71.1078 -2.40243L-72.2936 -2.37544C-72.5362 -1.75478 -73.5064 -1.18809 -70.6496 -0.540442L-68.6283 -0.783309L-68.0084 -0.4325L-69.7063 -0.540442C-68.7631 -0.189632 -68.1432 -0.405515 -67.4425 -0.513456C-67.2808 -0.351544 -67.0113 -0.216617 -66.6339 -0.108676L-64.6126 -0.567427C-64.397 -0.297574 -65.529 -0.135661 -64.2084 0.0802212C-63.2651 -0.135661 -65.0438 -0.540442 -63.5076 -0.594412C-62.5644 -0.243603 -62.8608 -0.0277202 -61.7289 -0.189632C-61.5941 -0.0277202 -61.8367 0.0802212 -62.2679 0.107206C-61.2438 -0.0277202 -59.5998 0.215148 -59.0608 -0.0816908C-58.0905 0.350075 -55.665 0.0532358 -55.7997 0.646913C-55.4763 0.538972 -53.994 0.296104 -53.0777 0.350075C-54.8025 0.943752 -49.628 0.619928 -50.14 1.34853C-48.8464 0.808825 -45.6123 1.37552 -43.4023 1.18662C-43.5371 1.24059 -43.7796 1.32155 -43.9683 1.26758C-42.7286 1.4025 -42.3782 1.61839 -41.5966 1.80728C-41.408 1.29456 -39.4675 1.29456 -38.3895 1.05169C-36.9072 1.67236 -39.3597 1.61838 -38.9015 2.13111C-38.9554 1.69934 -36.2334 1.88824 -36.7185 1.48346C-35.5866 1.88824 -35.7213 1.69934 -35.1554 2.18508C-34.9128 1.53743 -34.0773 2.15809 -33.0802 1.80728C-31.4092 2.23905 -32.6759 2.45493 -30.8163 2.37397C-29.9539 2.61684 -31.6248 2.75177 -31.6248 2.75177ZM12.4667 4.66773C12.0894 4.66773 11.766 4.64074 11.5504 4.64074C11.7391 4.64074 12.0086 4.64074 12.4667 4.66773ZM16.159 4.9106C15.7009 4.85663 15.1618 4.82964 14.5689 4.77567C14.4611 4.64074 14.5959 4.50582 14.9732 4.5328C14.7576 4.61376 15.62 4.74868 16.159 4.9106ZM8.53192 1.75331C9.12484 1.75331 9.3135 1.83427 9.39436 1.91522C9.12485 1.91522 8.80144 1.88824 8.37022 1.88824C8.34328 1.88824 8.31632 1.91522 8.28937 1.94221C8.34327 1.86125 8.39717 1.7803 8.53192 1.75331Z" fill="#2A6BAC"/>
<path d="M7.42616 2.15808C7.34531 2.15808 7.2914 2.18507 7.18359 2.15808C7.2914 2.21205 7.39921 2.23904 7.53396 2.26602C7.61481 2.23904 7.69566 2.18507 7.74956 2.15808C7.64176 2.18507 7.53396 2.18507 7.42616 2.15808Z" fill="#2A6BAC"/>
<path d="M13.8656 141.591L13.9195 141.537C13.8656 141.564 13.8117 141.591 13.7578 141.618C13.8387 141.591 13.8387 141.591 13.8656 141.591Z" fill="#2A6BAC"/>
<path d="M67.1711 9.17422V9.09326L66.8477 9.14723L67.1711 9.17422Z" fill="#2A6BAC"/>
<path d="M65.5898 91.6953C65.6437 91.6413 65.7246 91.5604 65.7785 91.5064C66.1828 91.0207 65.8863 91.3445 65.5898 91.6953Z" fill="#2A6BAC"/>
<path d="M42.459 113.985C42.6746 113.715 42.8632 113.419 43.1058 113.149C42.6745 113.5 42.3242 113.796 42.459 113.985Z" fill="#2A6BAC"/>
<path d="M91.7852 67.1927C91.8391 67.1387 91.893 67.1117 91.9469 67.0577L91.7852 67.1927Z" fill="#2A6BAC"/>
<path d="M44.2144 112.15C43.7293 112.474 43.4058 112.825 43.1094 113.149C43.4867 112.852 43.9179 112.501 44.2144 112.15Z" fill="#2A6BAC"/>
<path d="M25.8867 131.013L26.0215 131.364C26.6952 130.689 25.9676 131.256 25.8867 131.013Z" fill="#2A6BAC"/>
<path d="M31.9472 123.106L31.1117 123.565L31.0039 124.105L31.9472 123.106Z" fill="#2A6BAC"/>
<path d="M37.8824 121.028L37.5859 121.352L38.6909 120.192L37.8824 121.028Z" fill="#2A6BAC"/>
<path d="M101.381 62.956L100.895 62.848C100.464 63.3068 100.707 63.7655 101.381 62.956Z" fill="#2A6BAC"/>
<path d="M128.57 37.5897C129.002 37.4818 129.864 36.8611 130.214 36.2944C129.567 36.8341 128.84 37.2659 128.57 37.5897Z" fill="#2A6BAC"/>
<path d="M77.2328 6.47574L77.9874 6.3678L76.5859 6.39478L77.2328 6.47574Z" fill="#2A6BAC"/>
<path d="M4.96109 204.765L-7.08594 202.984L141.79 25.6899L143.03 27.2281L4.96109 204.765Z" fill="#0B56A0"/>
<path d="M31.4285 204.764L17.6836 202.983L142.035 27.6597L143.274 27.2279L31.4285 204.764Z" fill="#0B56A0"/>
<path d="M52.5301 208.947L38.7852 207.166L141.064 28.1454L142.276 27.7406L52.5301 208.947Z" fill="#0B56A0"/>
<path d="M81.9559 216.557L68.2109 214.776L141.059 27.1741L142.272 26.7423L81.9559 216.557Z" fill="#0B56A0"/>
<path d="M121.934 48.9244C122.365 47.9799 123.658 47.3862 124.602 47.818C125.545 48.2497 125.976 49.3831 125.545 50.3276" stroke="#D9E2EC" stroke-miterlimit="10"/>
<path d="M131.742 41.0445C132.173 40.1 133.467 39.5063 134.41 39.9381C135.354 40.3698 135.785 41.5032 135.354 42.4477" stroke="#D9E2EC" stroke-miterlimit="10"/>
<path d="M117.543 61.9313C117.974 60.9868 119.268 60.3932 120.211 60.8249C121.154 61.2567 121.586 62.3901 121.154 63.3346" stroke="#D9E2EC" stroke-miterlimit="10"/>
<path d="M95.7109 80.0654C96.3578 78.6352 98.2982 77.7447 99.6997 78.3923C101.128 79.04 101.748 80.7131 101.101 82.1433" stroke="#D9E2EC" stroke-miterlimit="10"/>
<path d="M123.684 69.7299C124.277 68.4346 126.082 67.5981 127.376 68.1918C128.67 68.7855 129.262 70.3236 128.669 71.6459" stroke="#D9E2EC" stroke-miterlimit="10"/>
<path d="M112.961 98.0375C113.743 96.3375 116.06 95.258 117.785 96.0406C119.51 96.8232 120.238 98.8471 119.456 100.547" stroke="#D9E2EC" stroke-miterlimit="10"/>
<path d="M93.207 96.0408C93.9078 94.4756 96.0369 93.5041 97.6 94.2327C99.1632 94.9344 99.8369 96.7694 99.1362 98.3345" stroke="#D9E2EC" stroke-miterlimit="10"/>
<path d="M63.8281 118.196C64.6636 116.361 67.197 115.2 69.0296 116.037C70.8623 116.873 71.6708 119.059 70.8353 120.894" stroke="#D9E2EC" stroke-miterlimit="10"/>
<path d="M104.309 121.137C105.144 119.302 107.677 118.142 109.51 118.978C111.343 119.815 112.151 122.001 111.316 123.836" stroke="#D9E2EC" stroke-miterlimit="10"/>
<path d="M65.4141 135.655C66.3304 133.658 69.0794 132.39 71.0737 133.307C73.0681 134.225 73.9575 136.6 73.0411 138.597" stroke="#D9E2EC" stroke-miterlimit="10"/>
</g>
</svg>
