<svg width="214" height="215" viewBox="0 0 214 215" fill="none" xmlns="http://www.w3.org/2000/svg">
<path d="M107 214.2C166.094 214.2 214 166.294 214 107.2C214 48.1055 166.094 0.199951 107 0.199951C47.9055 0.199951 0 48.1055 0 107.2C0 166.294 47.9055 214.2 107 214.2Z" fill="white"/>
<mask id="mask0_2279_1270" style="mask-type:luminance" maskUnits="userSpaceOnUse" x="0" y="0" width="214" height="215">
<path d="M107 214.2C166.094 214.2 214 166.294 214 107.2C214 48.1055 166.094 0.199951 107 0.199951C47.9055 0.199951 0 48.1055 0 107.2C0 166.294 47.9055 214.2 107 214.2Z" fill="white"/>
</mask>
<g mask="url(#mask0_2279_1270)">
<path d="M102.502 297.5V297.3L103.202 161.7L103.502 118.4L103.602 81L103.702 37.3L103.802 37.2C104.702 36.2 105.602 35.7 106.502 35.7C107.802 35.8 108.602 36.9 108.602 36.9V37V37.1L110.402 117.7L111.602 161.1L115.002 297.2L102.502 297.5ZM104.202 37.5L104.002 81L103.902 118.4L103.602 161.7L103.002 297.1L114.602 296.8L111.202 161.2L110.002 117.8L108.202 37.3C108.002 37.1 107.402 36.4 106.502 36.3C105.702 36.3 105.002 36.7 104.202 37.5Z" fill="#0B53A1"/>
<path d="M101.602 160.5L101.702 154.1L103.702 154.9L103.502 160.3L101.602 160.5ZM102.102 154.7L102.002 160L103.002 159.9L103.202 155.2L102.102 154.7Z" fill="#0B53A1"/>
<path d="M102.002 159.4L67.1016 157V154.9L101.602 155.4L102.102 155.2L102.002 159.4ZM67.5016 156.6L101.502 159L101.602 156L67.5016 155.5V156.6Z" fill="#0B53A1"/>
<path d="M113.301 161L111.301 160.5L111.201 154.7H113.701L113.301 161ZM111.801 160.1L113.001 160.4L113.301 155.1H111.801V160.1Z" fill="#0B53A1"/>
<path d="M113.202 159.8L113.102 159.3L146.402 158.5L146.502 157.3L113.302 156.2L113.402 155.8L146.902 156.9V158.9H146.602L113.202 159.8Z" fill="#0B53A1"/>
<path d="M112.002 124.2L110.102 123.9L110.002 118.6L112.202 118.3L112.002 124.2ZM110.502 123.5L111.502 123.7L111.702 118.8L110.402 119L110.502 123.5Z" fill="#0B53A1"/>
<path d="M111.602 123.2L111.702 119.2H111.902L143.302 120.6V120.8C143.402 121.1 143.302 122 143.202 122.2V122.4H143.002L111.602 123.2ZM112.202 119.6L112.102 122.6L143.002 121.8C143.002 121.5 143.102 121.1 143.102 120.9L112.202 119.6Z" fill="#0B53A1"/>
<path d="M110.802 86.7L109.202 86.1L109.002 81.1L111.202 80.7L110.802 86.7ZM109.702 85.8L110.402 86.1L110.802 81.3L109.502 81.5L109.702 85.8Z" fill="#0B53A1"/>
<path d="M110.301 85.5999V85.2999L110.401 85.1999C110.401 85.1999 110.501 85.0999 110.501 84.9999C110.701 84.0999 110.701 83.1999 110.701 82.1999V82.0999L110.601 81.7999H110.901L140.501 83.3999L140.301 85.2999L110.301 85.5999ZM111.201 82.2999C111.201 83.2999 111.201 84.1999 111.001 85.1999L140.001 84.8999L140.101 83.8999L111.201 82.2999Z" fill="#0B53A1"/>
<path d="M101.301 123.1H101.101L69.9008 119.7L69.8008 117.8L101.401 118.9L101.201 119.2C101.101 119.3 101.101 119.5 101.101 119.7C101.101 119.8 101.201 120 101.201 120.1V120.4C101.201 120.7 101.201 120.9 101.301 121.3C101.301 121.7 101.301 122.1 101.301 122.4V123.1ZM70.3008 119.3L100.801 122.6V122.3C100.801 121.9 100.801 121.6 100.801 121.2C100.801 120.9 100.801 120.6 100.801 120.4V120.2C100.801 120.1 100.701 119.9 100.701 119.8C100.701 119.6 100.601 119.5 100.701 119.3L70.3008 118.3V119.3Z" fill="#0B53A1"/>
<path d="M103.702 85.2999H103.502L72.502 82.8999V81.2999L103.802 81.4999V85.2999H103.702ZM72.902 82.3999L103.302 84.7999V81.7999L72.902 81.5999V82.3999Z" fill="#0B53A1"/>
<path d="M106.301 36.0999L109.701 296.8L114.701 297L108.301 37.1999C108.401 37.1999 107.701 35.9999 106.301 36.0999Z" fill="#0B53A1"/>
<path d="M100.701 124L100.801 117.3L103.501 117.5L103.701 123.8L100.701 124ZM101.201 117.8L101.101 123.5L103.301 123.4L103.101 118L101.201 117.8Z" fill="#0B53A1"/>
<g opacity="0.8">
<path d="M147.101 136.1C146.201 136.1 145.301 135.8 144.501 135.2C138.801 131.2 135.101 112.6 138.801 84.7L139.601 84.8C135.901 112.3 139.401 130.6 144.901 134.5C146.201 135.4 147.501 135.5 148.901 134.8C156.701 130.8 170.001 97.9 170.501 0.0999756H171.301C170.801 91.9 159.101 130.4 149.301 135.5C148.601 135.9 147.901 136.1 147.101 136.1Z" fill="#0B53A1"/>
<path d="M159.701 161.3C159.501 161.3 159.201 161.3 159.001 161.3C147.601 159.9 141.901 124 141.701 122.4L142.501 122.3C142.601 122.7 148.301 159.2 159.101 160.5C163.701 161.1 168.601 155.2 173.801 143C194.701 93.9 208.601 -8.69995 208.701 -9.69995L209.501 -9.59995C209.401 -8.59995 195.501 94.1001 174.501 143.3C169.401 155.2 164.401 161.3 159.701 161.3Z" fill="#0B53A1"/>
<path d="M160.201 183.9C150.901 183.9 144.901 159.2 144.801 159L145.601 158.8C147.101 165.2 153.101 183.1 160.201 183.1C160.301 183.1 160.301 183.1 160.401 183.1C166.001 182.8 174.301 171.2 182.201 117.2C203.301 -27.7 198.201 -36.8 197.501 -37.3C197.501 -37.3 197.601 -37.3 197.701 -37.3V-38.1C197.801 -38.1 198.001 -38.1 198.201 -37.9C199.301 -36.7 203.601 -23.7 183.101 117.3C176.701 161.1 169.101 183.4 160.601 183.8C160.401 183.9 160.301 183.9 160.201 183.9Z" fill="#0B53A1"/>
</g>
<g opacity="0.8">
<path d="M64.6004 133.1C63.9004 133.1 63.1004 132.9 62.4004 132.5C52.5004 127.4 40.8004 88.9 40.4004 -2.90002H41.2004C41.7004 94.9 55.0004 127.8 62.8004 131.8C64.2004 132.5 65.6004 132.4 66.8004 131.5C72.3004 127.6 75.9004 109.3 72.1004 81.8L72.9004 81.7C76.7004 109.5 72.9004 128.1 67.2004 132.2C66.4004 132.8 65.5004 133.1 64.6004 133.1Z" fill="#0B53A1"/>
<path d="M53.3008 157.5C48.5008 157.5 43.5008 151.4 38.3008 139.3C17.3008 90 3.40078 -12.6001 3.30078 -13.7001L4.10078 -13.8C4.20078 -12.8 18.1008 89.7999 39.0008 138.9C44.2008 151.2 49.2008 157.2 53.9008 156.6C64.6008 155.3 70.3008 119.8 70.3008 119.4L71.1008 119.5C70.9008 121 65.3008 155.9 54.0008 157.3C53.7008 157.5 53.5008 157.5 53.3008 157.5Z" fill="#0B53A1"/>
<path d="M52.6017 180.1C52.5017 180.1 52.5017 180.1 52.4017 180.1C43.8017 179.7 36.2017 157.3 29.8017 113.4C9.30174 -27.6 13.6017 -40.6 14.7017 -41.8C14.9017 -42 15.0017 -42 15.1017 -42V-41.2C15.2017 -41.2 15.3017 -41.2 15.3017 -41.2C14.6017 -40.6 9.50174 -31.6 30.6017 113.3C38.5017 167.4 46.8017 179.1 52.5017 179.4C52.6017 179.4 52.6017 179.4 52.7017 179.4C59.8017 179.4 65.7017 161.6 67.2017 155.3L68.0017 155.5C66.3017 162.4 60.3017 180.1 52.6017 180.1Z" fill="#0B53A1"/>
</g>
</g>
</svg>
