<svg width="51" height="51" viewBox="0 0 51 51" fill="none" xmlns="http://www.w3.org/2000/svg">
<path d="M21.7428 0C22.7571 0.168988 23.7713 0.274606 24.7644 0.506964C32.8361 2.23909 39.1329 8.91412 40.3795 17.0467C41.267 22.919 39.8935 28.1999 36.2803 32.9104C36.2169 32.9949 36.1535 33.1005 36.0056 33.2907C36.1535 33.3963 36.3226 33.4808 36.4493 33.6075C41.0557 38.2124 45.662 42.7962 50.2473 47.4012C50.8389 47.9926 51.1558 48.6686 50.9234 49.5135C50.5431 50.9077 48.9161 51.4569 47.775 50.5697C47.606 50.443 47.4581 50.274 47.3102 50.1261C42.7461 45.5634 38.182 41.0007 33.6179 36.4381C33.4911 36.3113 33.4066 36.1423 33.3432 36.079C32.0543 36.8817 30.9133 37.7055 29.6877 38.3392C18.0028 44.4439 3.6555 37.9167 0.570511 25.0947C0.338081 24.1231 0.232431 23.1091 0.0845202 22.1163C0.0633902 21.9896 0.02113 21.8628 0 21.7361C0 20.8067 0 19.8772 0 18.9478C0.02113 18.8211 0.0633902 18.6943 0.0845202 18.5676C0.295821 17.4058 0.380341 16.2229 0.697292 15.1033C3.00047 7.32986 8.09281 2.45033 15.9743 0.506964C16.9252 0.274606 17.9183 0.190112 18.9114 0.0211235C19.8834 0 20.8131 0 21.7428 0ZM4.01471 20.3208C4.01471 29.3194 11.3046 36.6282 20.306 36.6493C29.3285 36.6704 36.6606 29.3617 36.6606 20.3419C36.6818 11.3222 29.3708 3.99234 20.3271 3.99234C11.3046 3.97122 4.01471 11.28 4.01471 20.3208Z" fill="white"/>
</svg>
