<svg width="90" height="91" viewBox="0 0 90 91" fill="none" xmlns="http://www.w3.org/2000/svg">
<g clip-path="url(#clip0_4140_1668)">
<path d="M0.000849217 21.1716C0.196501 20.682 0.294327 20.1923 0.48998 19.7027C2.4465 13.9246 9.58781 12.0639 14.0878 16.1771C14.4791 16.4709 14.8704 16.7647 15.3595 16.8626C22.7943 18.7233 25.8269 27.4393 21.1313 33.4132C20.74 33.9029 20.74 34.1967 21.1313 34.6863C22.0117 35.7636 22.7943 36.8408 23.6748 37.9181C29.5443 33.707 36.0009 31.4546 43.24 31.0628C43.24 29.4959 43.24 27.929 43.24 26.2641C42.9465 26.3621 42.653 26.5579 42.4574 26.6559C37.0769 29.1042 30.8161 26.6559 28.3704 21.2696C26.0226 15.8833 28.4682 9.6156 33.9465 7.26522C34.3378 7.06936 34.6313 6.77556 34.8269 6.38383C37.0769 2.46653 40.5009 0.312012 45.0009 0.312012C49.5009 0.312012 52.9248 2.46653 55.1748 6.38383C55.3704 6.77556 55.7617 7.06936 56.0552 7.26522C60.4574 9.22387 63.0987 13.6308 62.5117 18.2337C61.9248 23.0324 58.3052 26.8517 53.5117 27.5373C51.4574 27.8311 49.5009 27.5373 47.5443 26.6559C47.2509 26.5579 47.0552 26.46 46.6639 26.2641C46.6639 27.929 46.6639 29.398 46.6639 31.0628C53.8052 31.4546 60.2617 33.707 66.2291 37.9181C67.2074 36.7429 68.1856 35.5677 69.0661 34.2946C69.1639 34.0987 68.9682 33.707 68.8704 33.4132C66.4248 30.0835 65.8378 26.5579 67.5009 22.7386C68.8704 19.6047 71.3161 17.6461 74.6422 16.7647C75.0335 16.6667 75.4248 16.4709 75.7182 16.1771C79.0443 13.0432 84.2291 13.1412 87.3596 16.3729C90.5878 19.5068 90.5878 24.5993 87.5552 28.0269C87.2617 28.3207 87.0661 28.7124 86.9682 29.0062C85.3052 35.6657 78.7509 38.9954 72.3922 36.3512C72.2943 36.2533 72.0987 36.2533 71.903 36.1553C70.9248 37.4284 69.8487 38.7016 68.7726 40.0726C72.49 43.4023 75.4248 47.2217 77.7726 51.6287C77.7726 50.5514 77.7726 49.3762 77.7726 48.299C77.8704 45.361 80.0226 43.1085 82.9574 42.6189C85.6965 42.2271 88.4356 43.892 89.4139 46.6341C89.6096 47.1238 89.7074 47.7114 89.7074 48.299C89.7074 52.8039 89.7074 57.3087 89.5117 61.8136C89.3161 65.5351 88.0443 69.0607 86.2835 72.2924C86.0878 73.3697 85.1096 73.7614 84.1313 73.2718C83.2509 72.7821 82.9574 71.8028 83.4465 70.8234C85.7943 66.4165 86.5769 61.7157 86.4791 56.7211C86.3813 54.077 86.4791 51.3349 86.4791 48.6907C86.4791 47.4176 85.5987 46.4382 84.4248 46.2424C83.2509 46.0465 82.0769 46.732 81.6856 47.8093C81.5878 48.201 81.49 48.6907 81.49 49.1803C81.49 52.5101 81.49 55.9377 81.49 59.2674C81.49 63.3806 80.1204 66.8082 77.1856 69.6482C74.0552 72.7821 70.9248 75.9159 67.7943 79.0498C67.5009 79.3436 67.3052 79.5394 67.0117 79.7353C66.3269 80.225 65.4465 80.127 64.8596 79.5394C64.2726 78.9518 64.1748 78.0704 64.5661 77.3849C64.7617 77.0911 65.0552 76.8953 65.2508 76.6015C68.3813 73.4676 71.5117 70.3338 74.6422 67.102C75.6204 66.1227 75.8161 64.7516 75.3269 63.5764C74.8378 62.4992 73.5661 61.7157 72.3922 61.9116C71.7074 62.0095 70.9248 62.4012 70.3378 62.9888C67.7943 65.4371 65.3487 67.9834 62.8052 70.4317C62.4139 70.8234 61.8269 71.2152 61.3378 71.2152C56.0552 71.411 52.3378 74.0552 49.5987 78.4622C47.8378 81.3022 46.8595 84.4361 46.7617 87.7658C46.7617 88.843 46.4682 89.7244 45.49 90.2141C45.0987 90.2141 44.8052 90.2141 44.4139 90.2141C43.4356 89.6265 43.1422 88.843 43.1422 87.7658C43.0443 84.4361 42.1639 81.4002 40.403 78.658C37.7617 74.4469 34.24 71.6069 29.0552 71.3131C28.1748 71.3131 27.49 70.9214 26.903 70.3338C24.4574 67.8855 22.0117 65.4371 19.5661 62.9888C19.0769 62.4992 18.2943 62.1074 17.5117 61.9116C16.3378 61.7157 15.0661 62.4012 14.5769 63.5764C13.99 64.7516 14.1856 66.1227 15.1639 67.102C18.1965 70.1379 21.3269 73.2718 24.3595 76.3077C24.653 76.6015 25.0443 76.8953 25.24 77.287C26.0226 78.3642 25.3378 80.0291 23.9682 80.0291C23.3813 80.0291 22.6965 79.6374 22.3052 79.2456C19.0769 76.1118 15.8487 72.7821 12.6204 69.6482C9.68563 66.8082 8.31607 63.2826 8.31607 59.2674C8.31607 55.8398 8.31607 52.3142 8.31607 48.8865C8.31607 47.2217 7.33781 46.1444 5.87041 46.1444C4.40302 46.1444 3.32694 47.2217 3.32694 48.8865C3.32694 51.9225 3.32694 54.9584 3.32694 57.8963C3.22911 65.4371 5.87041 71.8028 11.2508 77.189C14.4791 80.4208 17.7074 83.6526 20.8378 86.7864C22.2074 88.1575 22.1095 89.1368 20.4465 90.2141C20.153 90.2141 19.8595 90.2141 19.5661 90.2141C19.1748 89.9203 18.7835 89.7244 18.49 89.4306C14.8704 85.8071 11.2508 82.1836 7.63128 78.5601C4.3052 75.1325 1.95737 71.0193 0.685632 66.3185C0.196501 64.4578 0.000849217 62.4992 -0.390455 60.6385C-0.390455 56.3294 -0.390455 51.9225 -0.390455 47.6134C-0.390455 47.5155 -0.292629 47.4176 -0.292629 47.3196C0.196501 44.5775 2.93563 42.1292 6.35955 42.6189C9.29433 43.0106 11.74 45.4589 11.6422 49.0824C11.6422 49.9638 11.6422 50.8452 11.6422 51.6287C13.99 47.2217 16.9248 43.3044 20.5443 40.0726C19.4682 38.7016 18.49 37.4284 17.4139 36.1553C17.2182 36.2533 17.1204 36.2533 16.9248 36.3512C10.5661 39.0933 4.01172 35.7636 2.34868 29.0062C2.34868 28.8104 2.25085 28.6145 2.15302 28.4186C0.685632 27.0476 0.000849217 25.2848 -0.488281 23.4241C0.000849217 22.7386 0.000849217 21.9551 0.000849217 21.1716ZM63.6856 64.8496C63.0987 64.3599 62.7074 63.9682 62.2182 63.6744C60.9465 62.793 59.6748 62.0095 58.403 61.1281C51.8487 56.5253 51.3595 47.1238 57.3269 41.8354C58.5987 40.7582 60.1639 39.9747 61.5335 39.0933C49.2074 31.2587 31.8922 33.707 21.9139 44.1858C22.7943 44.1858 23.4791 44.1858 24.1639 44.1858C26.8052 44.2837 28.9574 45.5568 30.3269 47.8093C32.4791 51.139 31.7943 55.546 28.6639 58.0922C26.903 59.4633 25.7291 61.226 25.6313 63.4785C25.6313 63.8702 25.7291 64.262 26.0226 64.5558C26.903 65.5351 27.7835 66.4165 28.6639 67.1999C29.0552 67.4937 29.5443 67.6896 30.1313 67.8855C31.7943 68.3751 33.653 68.571 35.2182 69.2565C39.5226 71.1172 42.3596 74.6428 44.4139 78.756C44.5117 78.9518 44.6095 79.2456 44.8052 79.5394C45.2943 78.658 45.6856 77.7766 46.0769 77.0911C49.2074 71.8028 53.6095 68.2772 59.9682 67.7875C60.1639 67.7875 60.4574 67.6896 60.5552 67.5917C61.7291 66.8082 62.6095 65.8289 63.6856 64.8496ZM47.0552 22.053C47.5443 22.4448 47.8378 22.7386 48.2291 22.9344C50.7726 24.5013 53.3161 24.5013 55.7617 23.0324C58.2074 21.4654 59.3813 19.1151 58.99 16.1771C58.5987 13.2391 56.9356 11.2805 54.1965 10.3011C53.2182 10.0073 52.7291 9.41974 52.3378 8.53834C50.8704 5.50244 48.4248 3.73965 45.0987 3.73965C41.6748 3.73965 39.2291 5.4045 37.7617 8.53834C37.3704 9.41974 36.7835 10.0073 35.8052 10.3011C32.8704 11.1825 30.9139 14.0226 31.0117 17.1564C31.0117 20.1923 33.0661 22.9344 36.0009 23.7179C38.0552 24.3055 40.1096 24.1096 41.9682 22.7386C40.6965 21.4654 39.4248 20.1923 38.2509 19.0171C37.3704 18.1357 37.2726 17.0585 38.0552 16.275C38.8378 15.4916 39.9139 15.5895 40.7943 16.4709C41.5769 17.2543 42.3595 18.1357 43.1422 18.9192C43.3378 18.5275 43.3378 18.2337 43.3378 17.9399C43.3378 15.7854 43.3378 13.6308 43.3378 11.4763C43.3378 10.2032 44.2182 9.41974 45.3922 9.6156C46.2726 9.71354 46.8596 10.497 46.8596 11.4763C46.8596 13.337 46.8596 15.0998 46.8596 17.1564C47.2509 16.7647 47.4465 16.5688 47.74 16.3729C48.6204 15.5895 49.6965 15.4916 50.3813 16.275C51.1639 17.0585 51.0661 18.0378 50.1856 18.9192C49.1095 19.9965 48.1313 20.9758 47.0552 22.053ZM76.99 60.0509C75.2291 52.9997 71.7074 47.2217 66.4248 42.6189C66.2291 42.423 65.9356 42.3251 65.6422 42.3251C61.8269 42.2271 58.5009 44.5775 57.2291 48.201C55.9574 51.7266 57.0335 55.7418 60.0661 57.9943C62.1204 59.5612 64.2726 60.8343 66.3269 62.3033C69.5552 57.8963 73.4682 57.6025 76.99 60.0509ZM19.8595 26.9497C19.8595 23.62 17.5117 20.7799 14.1856 20.2902C13.2074 20.0944 12.5226 19.8006 11.8378 19.0171C10.0769 17.0585 6.9465 16.9605 4.98998 18.9192C3.03346 20.7799 2.93563 23.9138 4.89215 25.7745C5.67476 26.5579 6.06607 27.3414 6.26172 28.4186C6.84868 31.8463 10.1748 34.2946 13.5009 33.9029C17.2182 33.5111 19.8595 30.4752 19.8595 26.9497ZM70.1422 26.9497C70.1422 30.4752 72.7835 33.4132 76.403 33.8049C79.8269 34.1967 83.0552 31.7484 83.74 28.3207C83.9356 27.4393 84.1313 26.6559 84.9139 25.9703C87.0661 24.1096 87.1639 20.8778 85.1096 18.9192C83.0552 16.9605 79.9248 17.0585 78.0661 19.213C77.5769 19.8006 76.99 20.0944 76.2074 20.1923C72.6856 20.682 70.1422 23.522 70.1422 26.9497ZM13.0117 59.9529C16.5335 57.6025 19.6639 58.0922 22.5009 60.9323C22.8922 60.0509 23.1856 59.2674 23.6748 58.5819C24.5552 57.4067 25.6313 56.3294 26.7074 55.2522C27.9791 53.979 28.5661 52.2163 27.9791 50.5514C27.3922 48.8865 25.8269 47.8093 24.0661 47.7114C23.2835 47.7114 22.5009 47.8093 21.8161 47.7114C19.4682 47.3196 18.1965 48.299 17.0226 50.3555C15.2617 53.3914 13.8922 56.5253 13.0117 59.9529Z" fill="#0B52A0"/>
<path d="M69.2622 90.312C67.5991 89.2348 67.5013 88.2554 68.8709 86.8844C70.3382 85.4154 71.7078 84.0443 73.1752 82.5753C74.0556 81.6939 75.1317 81.596 75.9143 82.3795C76.6969 83.1629 76.5991 84.1423 75.7187 85.1216C74.2513 86.5906 72.7839 88.0596 71.2187 89.6265C70.9252 89.9203 70.5339 90.1161 70.1426 90.4099C69.8491 90.312 69.5556 90.312 69.2622 90.312Z" fill="#0B52A0"/>
<path d="M81.9786 78.0704C81.9786 79.0498 81.2938 79.8332 80.3156 79.8332C79.3373 79.8332 78.5547 79.0498 78.5547 78.0704C78.5547 77.0911 79.3373 76.3076 80.3156 76.3076C81.196 76.3076 81.9786 77.0911 81.9786 78.0704Z" fill="#0B52A0"/>
<path d="M34.9263 61.1281C34.7306 58.484 35.2198 56.1336 36.785 54.2729C38.8393 51.8245 41.4806 50.7473 44.6111 51.5307C47.5459 52.2163 49.4045 54.1749 50.1872 57.1129C50.6763 58.8757 50.3828 60.6385 49.5024 62.3033C48.9154 63.3806 48.3285 64.4578 47.7415 65.5351C46.1763 68.2772 43.2415 69.6483 40.3067 68.9627C37.2741 68.2772 35.2198 65.8289 34.9263 62.6951C34.8285 62.1075 34.9263 61.5199 34.9263 61.1281ZM38.2524 60.7364C38.3502 61.4219 38.3502 62.1075 38.448 62.793C38.6437 64.164 39.6219 65.2413 40.9915 65.5351C42.3611 65.8289 43.7306 65.3392 44.5132 64.0661C45.2959 62.793 45.9806 61.6178 46.5676 60.2467C47.5459 58.0922 46.3719 55.546 44.0241 54.8605C41.8719 54.2729 39.5241 55.546 38.7415 57.7984C38.448 58.8757 38.448 59.855 38.2524 60.7364Z" fill="#0B52A0"/>
</g>
<defs>
<clipPath id="clip0_4140_1668">
<rect width="90" height="90" fill="white" transform="translate(0 0.312012)"/>
</clipPath>
</defs>
</svg>
