<svg width="90" height="91" viewBox="0 0 90 91" fill="none" xmlns="http://www.w3.org/2000/svg">
<g clip-path="url(#clip0_4148_1735)">
<path d="M0 39.1589C0.427365 38.5502 0.930512 38.0658 1.74797 38.3614C2.55176 38.6521 2.64991 39.3303 2.6437 40.0843C2.62506 42.4271 2.676 44.7711 2.62134 47.1138C2.59152 48.3809 3.03503 49.3473 3.92828 50.2292C7.88637 54.1409 11.7861 58.1121 15.7529 62.0138C18.5394 64.7541 19.9197 68.031 19.8501 71.9314C19.8327 72.8892 19.8476 73.8481 19.8476 74.8406C25.0207 74.8406 30.0969 74.8406 35.27 74.8406C35.27 74.4667 35.27 74.1512 35.27 73.8345C35.27 69.3527 35.2439 64.8721 35.2787 60.3915C35.3035 57.1681 34.2103 54.4601 31.8734 52.2204C30.0137 50.4367 28.2346 48.5697 26.3898 46.7697C25.3151 45.7213 24.0082 45.3996 22.5808 45.8965C21.1595 46.3909 20.3222 47.4418 20.1097 48.9299C19.9321 50.1733 20.3731 51.2292 21.2552 52.1111C22.4366 53.2912 23.6193 54.4688 24.7946 55.6551C25.2717 56.1358 25.5388 56.7656 25.0779 57.3022C24.771 57.6587 24.1772 57.8351 23.6802 57.9308C23.4516 57.9755 23.1038 57.6798 22.8851 57.4625C19.1283 53.7222 15.3777 49.9758 11.6407 46.2157C10.5089 45.0766 10.0456 43.6531 10.0456 42.0643C10.0456 38.6372 10.0493 35.2112 10.0431 31.784C10.0381 29.4288 8.48642 27.7469 6.33966 27.7519C4.19165 27.7569 2.64867 29.4437 2.63749 31.7989C2.63624 32.1803 2.62258 32.5616 2.63997 32.9405C2.67351 33.6895 2.5617 34.3665 1.75418 34.6671C0.92927 34.974 0.439788 34.4721 0 33.8858C0 32.7144 0 31.5418 0 30.3704C0.100629 30.1033 0.21244 29.84 0.299404 29.5692C1.13922 26.9619 3.50837 25.1768 6.21418 25.116C8.91254 25.0551 11.386 26.7383 12.2954 29.3208C12.4892 29.8711 12.765 30.1493 13.3216 30.3406C15.2075 30.989 16.4821 32.3107 17.1406 34.1839C17.312 34.6696 17.5244 34.9441 18.0276 35.1156C20.6626 36.0161 22.2888 38.3167 22.3248 41.119C22.3335 41.7873 22.3261 42.4569 22.3261 42.9562C23.5659 43.1127 24.7635 43.0879 25.827 43.4519C26.7836 43.7798 27.6979 44.4257 28.4496 45.1251C30.3342 46.8803 32.1058 48.756 33.9407 50.5646C36.603 53.1894 37.9075 56.3681 37.905 60.0984C37.9025 64.7839 37.9087 69.4694 37.8988 74.1537C37.8975 74.6692 37.9634 75.0729 38.4106 75.4505C38.7051 75.699 38.9001 76.2033 38.9262 76.6058C39.1076 79.387 39.2492 82.1708 39.3672 84.9545C39.4169 86.1234 39.3809 87.2973 39.3734 88.4686C39.366 89.7642 38.8467 90.3083 37.5832 90.3096C30.8783 90.3145 24.1722 90.3158 17.4673 90.3083C16.2833 90.3071 15.7255 89.7791 15.7119 88.6028C15.687 86.4364 15.4373 84.2253 15.7827 82.1149C16.097 80.1957 16.0585 78.3026 16.1902 76.3983C16.2125 76.0791 16.3902 75.6543 16.6374 75.489C17.2362 75.0903 17.2424 74.5574 17.2126 73.9612C17.1331 72.4146 17.1989 70.847 16.9641 69.3241C16.6386 67.2099 15.4895 65.4783 13.9763 63.974C10.0729 60.0922 6.20548 56.1731 2.28218 52.3124C1.21004 51.2578 0.412457 50.0889 0 48.6516C0 45.4878 0 42.324 0 39.1589ZM36.3235 80.3249C36.3235 79.6491 36.2713 79.0653 36.3359 78.4939C36.4254 77.7001 36.1173 77.5163 35.3545 77.5213C30.1429 77.5536 24.93 77.5387 19.7184 77.5387C19.4339 77.5387 19.1507 77.5387 18.8413 77.5387C18.8413 78.515 18.8413 79.3783 18.8413 80.3249C19.2066 80.3249 19.5209 80.3249 19.8364 80.3249C22.2379 80.3249 24.6381 80.3187 27.0395 80.3286C28.1266 80.3336 28.7291 80.8416 28.7092 81.6925C28.6893 82.5248 28.1402 82.9571 27.0606 82.9595C24.484 82.9658 21.9074 82.9595 19.3308 82.9633C19.0239 82.9633 18.7158 82.9906 18.4053 83.0067C18.4053 84.6154 18.4053 86.1209 18.4053 87.6128C24.5461 87.6128 30.6199 87.6128 36.6776 87.6128C36.6776 86.0414 36.6776 84.5359 36.6776 82.962C35.7135 82.962 34.8103 82.9682 33.9072 82.9608C32.84 82.9521 32.2822 82.5086 32.2735 81.6764C32.2648 80.854 32.8524 80.3497 33.8749 80.3298C34.6575 80.3125 35.4402 80.3249 36.3235 80.3249ZM14.8882 45.6182C14.8882 42.7177 14.8944 39.9762 14.8832 37.236C14.8807 36.6534 14.872 36.0609 14.7627 35.4932C14.5416 34.3467 13.872 33.5268 12.6818 32.907C12.6818 33.3517 12.6818 33.6312 12.6818 33.9119C12.6818 36.4261 12.7625 38.9427 12.6545 41.452C12.5762 43.2693 13.3701 44.504 14.8882 45.6182ZM17.5816 47.3411C18.1916 46.5039 18.8413 45.6282 19.4675 44.7363C19.5904 44.5611 19.6762 44.3214 19.6799 44.1102C19.6985 43.0295 19.7346 41.9463 19.6675 40.8694C19.583 39.4992 18.9096 38.4744 17.5816 37.7751C17.5816 41.0793 17.5816 44.2754 17.5816 47.3411Z" fill="#0B52A0"/>
<path d="M46.0518 0.312012C46.2617 0.397722 46.4667 0.497097 46.6804 0.56666C50.6745 1.87965 51.9852 6.65461 49.2359 9.83211C49.021 10.0806 48.9452 10.4507 48.8036 10.7638C49.1626 10.9016 49.5204 11.1538 49.8819 11.1588C52.1653 11.196 54.45 11.1699 56.7334 11.1811C58.259 11.1886 59.0056 11.9165 59.0168 13.4369C59.0354 15.7213 59.0044 18.0057 59.0392 20.2888C59.0442 20.6515 59.2839 21.0105 59.4156 21.3708C59.7312 21.2205 60.1001 21.131 60.3561 20.9112C62.6892 18.9013 66.1068 19.0143 68.2312 21.1969C70.3494 23.3719 70.3842 26.8413 68.3108 29.0686C66.241 31.2909 62.8184 31.4722 60.4468 29.5071C60.1598 29.2686 59.7759 29.1481 59.4367 28.9729C59.2988 29.3853 59.0491 29.7953 59.0404 30.2102C59.0007 32.3765 59.0268 34.5441 59.0205 36.7105C59.0156 38.4632 58.3124 39.17 56.5818 39.1725C54.2686 39.1762 51.9554 39.1601 49.6421 39.1775C48.1066 39.1887 46.9786 38.5452 46.3574 37.1415C45.7524 35.7764 46.1089 34.6087 47.1488 33.5529C48.3849 32.297 48.3426 30.4052 47.1351 29.2189C45.9462 28.05 44.0516 28.0488 42.8602 29.2164C41.6526 30.4002 41.6067 32.2983 42.8403 33.5504C43.8814 34.6062 44.238 35.7714 43.6354 37.1378C43.0155 38.544 41.8875 39.1874 40.3532 39.1775C38.0101 39.1613 35.6683 39.1775 33.3253 39.1725C31.7127 39.1688 30.981 38.4371 30.9735 36.8037C30.9636 34.6075 30.9921 32.4113 30.9524 30.2151C30.9449 29.8002 30.6965 29.3891 30.5586 28.9754C30.2194 29.1493 29.8343 29.2686 29.5473 29.5071C27.1707 31.4735 23.758 31.2958 21.6833 29.0723C19.6086 26.8488 19.6409 23.3769 21.7578 21.2018C23.8822 19.0181 27.29 18.9025 29.633 20.9112C29.8889 21.131 30.2554 21.2217 30.571 21.372C30.7039 21.0143 30.9474 20.6578 30.9524 20.2975C30.9884 18.0728 30.9648 15.8468 30.9723 13.6208C30.9772 11.8743 31.6729 11.1849 33.4296 11.1811C35.6546 11.1762 37.8809 11.1985 40.1059 11.1613C40.4675 11.155 40.824 10.9016 41.183 10.7625C41.0439 10.4495 40.9694 10.0806 40.7544 9.83336C38.0039 6.66454 39.3183 1.87965 43.3124 0.56666C43.5273 0.495855 43.7323 0.397722 43.9423 0.312012C44.6454 0.312012 45.3486 0.312012 46.0518 0.312012ZM33.6085 36.4C33.7601 36.4695 33.811 36.513 33.8619 36.513C35.9404 36.5229 38.02 36.5478 40.0985 36.5192C40.4612 36.5142 40.8203 36.2807 41.1818 36.1528C41.0253 35.8174 40.9358 35.4261 40.7035 35.1565C38.7431 32.8833 38.8624 29.4537 41.0029 27.3469C43.1807 25.2041 46.6344 25.152 48.8682 27.2302C51.1975 29.3965 51.292 32.8871 49.1042 35.3528C48.934 35.5441 48.77 35.8546 48.8036 36.0782C48.8309 36.2534 49.1688 36.5055 49.3713 36.508C51.6758 36.5378 53.9816 36.5279 56.3222 36.5279C56.3483 36.308 56.3806 36.1689 56.3806 36.0285C56.3843 34.0075 56.3769 31.9865 56.3905 29.9654C56.393 29.5294 56.3992 29.0748 56.521 28.6636C57.2887 26.0824 60.4107 25.5793 61.9189 27.2302C63.0159 28.4289 64.5067 28.5655 65.7478 27.7804C66.8075 27.1097 67.297 26.1271 67.1802 24.8762C67.0622 23.6166 66.3677 22.7496 65.2049 22.3136C63.9551 21.8465 62.8333 22.1633 61.9102 23.1049C60.9101 24.1247 59.7374 24.3619 58.4553 23.8353C57.1496 23.2999 56.4427 22.2738 56.3918 20.8404C56.3719 20.2839 56.3843 19.7274 56.3831 19.1709C56.3818 17.4206 56.3831 15.6716 56.3831 13.8183C55.9743 13.8183 55.6613 13.8183 55.3482 13.8183C53.3853 13.817 51.4224 13.8456 49.4607 13.8059C48.0221 13.776 46.9313 13.1065 46.3512 11.7575C45.7772 10.4246 46.0803 9.27065 47.0904 8.23094C48.3675 6.91546 48.3576 5.0348 47.1326 3.82864C45.9462 2.66098 44.0566 2.66098 42.8552 3.82988C41.6328 5.01865 41.6253 6.92043 42.9 8.23218C43.8826 9.24332 44.2019 10.3725 43.6714 11.6792C43.1049 13.073 42.003 13.7736 40.5246 13.8046C38.563 13.8456 36.6001 13.817 34.6372 13.817C34.3241 13.817 34.0123 13.817 33.606 13.817C33.606 16.0256 33.6147 18.1274 33.5998 20.228C33.5961 20.7211 33.5961 21.2379 33.4594 21.7037C32.7177 24.2303 29.6231 24.7843 28.0577 23.1148C26.5893 21.5496 24.3133 21.8366 23.2387 23.5558C22.4361 24.8402 22.7169 26.5643 23.886 27.5283C25.1556 28.5754 26.8017 28.4885 28.0863 27.2339C29.1088 26.2352 30.2691 25.9954 31.5487 26.5246C32.8544 27.0649 33.5538 28.0972 33.5986 29.5282C33.6197 30.2015 33.6073 30.876 33.6073 31.5492C33.6085 33.1815 33.6085 34.8137 33.6085 36.4Z" fill="#0B52A0"/>
<path d="M67.673 43.2046C67.673 42.4307 67.6643 41.7326 67.6742 41.0345C67.7152 38.3415 69.3613 36.0099 71.882 35.1354C72.3926 34.9578 72.6734 34.7292 72.8597 34.1851C73.5269 32.2374 74.8997 30.9629 76.8228 30.2337C77.1408 30.1132 77.4924 29.7853 77.6092 29.4723C78.7261 26.4836 81.6058 24.6923 84.5688 25.1967C87.8038 25.747 89.9792 28.2711 89.9903 31.5604C90.009 36.8918 89.9941 42.2221 89.9966 47.5535C89.9978 49.2578 89.3468 50.6664 88.1455 51.8627C84.1601 55.8302 80.2181 59.8424 76.2029 63.7789C73.8698 66.0658 72.6858 68.7626 72.7852 72.027C72.8026 72.6121 72.7964 73.1984 72.7852 73.7847C72.7728 74.4543 72.7107 75.1014 73.4188 75.5561C73.6573 75.7089 73.7965 76.161 73.8163 76.4865C73.9965 79.3833 74.1555 82.2813 74.2872 85.1805C74.3356 86.2625 74.3046 87.3481 74.2922 88.4313C74.276 89.7853 73.7617 90.307 72.4336 90.3083C65.7846 90.312 59.1356 90.312 52.4866 90.3083C51.1424 90.307 50.6318 89.7903 50.6219 88.4512C50.6181 87.9245 50.6032 87.3966 50.6244 86.8699C50.7598 83.4713 50.889 80.0714 51.0629 76.674C51.084 76.2666 51.243 75.7163 51.5362 75.5027C52.1251 75.0716 52.104 74.5462 52.0953 73.9586C52.0841 73.227 52.068 72.4929 52.1052 71.7625C52.1499 70.873 52.7015 70.3426 53.4768 70.3737C54.2172 70.4035 54.6955 70.9202 54.7191 71.7885C54.7452 72.7786 54.7253 73.7698 54.7253 74.8307C59.8872 74.8307 64.9622 74.8307 70.1514 74.8307C70.1514 74.4269 70.18 74.0245 70.1465 73.6282C69.7092 68.4297 71.5963 64.2795 75.4463 60.7641C79.1423 57.3904 82.55 53.7036 86.113 50.1845C86.9851 49.3236 87.3827 48.3671 87.374 47.1374C87.3404 41.9239 87.3703 36.7092 87.3516 31.4958C87.3454 29.5977 86.0757 28.1394 84.2284 27.8015C82.6146 27.5071 80.8691 28.4462 80.2529 30.025C80.0467 30.5542 79.9696 31.1629 79.9647 31.7355C79.9386 35.1043 79.9324 38.4731 79.9585 41.8407C79.9721 43.7003 79.3597 45.2555 78.0316 46.5709C74.4313 50.1373 70.8596 53.7309 67.2754 57.3134C67.1922 57.3966 67.1139 57.4835 67.0257 57.5606C66.3971 58.1096 65.6579 58.1394 65.1324 57.6388C64.5597 57.0922 64.5472 56.342 65.1746 55.6936C66.3561 54.4737 67.5786 53.2924 68.7687 52.08C69.7377 51.0925 70.1353 49.9224 69.8086 48.5448C69.1675 45.848 65.8815 44.6977 63.8528 46.5834C61.4737 48.7945 59.1791 51.1074 56.9876 53.5061C55.3005 55.352 54.7191 57.6922 54.7278 60.1754C54.734 61.8448 54.7365 63.5143 54.7253 65.1838C54.7179 66.2583 54.2681 66.8049 53.4296 66.8111C52.5984 66.8173 52.0804 66.2496 52.1015 65.205C52.1562 62.6026 52.1077 59.9865 52.3798 57.4053C52.6444 54.8936 53.9252 52.7583 55.6881 50.9546C57.6746 48.9236 59.6847 46.915 61.7135 44.9263C63.3335 43.34 65.2951 42.7873 67.673 43.2046ZM71.6162 83.0278C65.4479 83.0278 59.3754 83.0278 53.3165 83.0278C53.3165 84.6042 53.3165 86.1122 53.3165 87.6102C59.4462 87.6102 65.5163 87.6102 71.6162 87.6102C71.6162 86.0637 71.6162 84.5806 71.6162 83.0278ZM53.7973 80.2627C59.5816 80.2627 65.361 80.2627 71.1466 80.2627C71.1466 79.341 71.1466 78.4802 71.1466 77.5374C70.7428 77.5374 70.3974 77.5374 70.052 77.5374C65.3697 77.5374 60.6861 77.5374 56.0037 77.5374C53.4656 77.5374 53.4656 77.5374 53.7066 80.1137C53.7078 80.1397 53.7352 80.1633 53.7973 80.2627ZM75.1494 45.5809C76.6799 44.4816 77.4514 43.1922 77.3409 41.3488C77.2266 39.4557 77.316 37.5502 77.316 35.6509C77.316 34.7876 77.316 33.9255 77.316 33.0274C76.06 33.487 75.2102 34.5019 75.1742 35.9341C75.096 39.1091 75.1494 42.2867 75.1494 45.5809ZM72.3914 47.3349C72.3914 44.2828 72.3914 41.0792 72.3914 37.7924C71.1664 38.4185 70.4844 39.3539 70.3626 40.5737C70.2409 41.7885 70.3042 43.0233 70.3241 44.2493C70.3266 44.4456 70.5043 44.6505 70.6297 44.8319C71.2223 45.6853 71.8249 46.5324 72.3914 47.3349Z" fill="#0B52A0"/>
</g>
<defs>
<clipPath id="clip0_4148_1735">
<rect width="90" height="90" fill="white" transform="translate(0 0.312012)"/>
</clipPath>
</defs>
</svg>
