<svg width="90" height="91" viewBox="0 0 90 91" fill="none" xmlns="http://www.w3.org/2000/svg">
<g clip-path="url(#clip0_4140_1640)">
<path d="M71.3668 78.9791C70.6384 78.9003 69.9071 78.8413 69.1815 78.7372C67.8132 78.5432 66.9877 79.1604 66.5602 80.5031C66.158 81.7698 65.7417 83.0717 65.0766 84.2092C63.5044 86.9029 61.0279 87.8604 58.0396 86.9901C56.8893 86.6555 55.7867 86.1114 54.7152 85.5603C53.1837 84.7729 52.3076 85.0049 51.2909 86.356C50.5892 87.2882 49.7792 88.1894 48.8552 88.8895C46.2761 90.8438 43.4523 90.7763 40.9478 88.7293C40.0435 87.9897 39.2673 87.0759 38.5121 86.1761C37.5024 84.9726 36.5504 84.8503 35.1638 85.5785C33.9375 86.2225 32.6353 86.8284 31.2951 87.1251C28.7062 87.6987 26.5082 86.7919 25.0808 84.5691C24.2877 83.3333 23.8152 81.8739 23.3216 80.4708C22.8533 79.1393 22.0475 78.6754 20.6651 78.7274C18.9973 78.7906 17.2676 78.823 15.6574 78.4574C13.0755 77.8712 11.7114 75.9577 11.4315 73.3764C11.2951 72.1223 11.3851 70.8302 11.4976 69.5663C11.6298 68.083 11.0982 67.2943 9.67509 66.9287C8.63164 66.6616 7.56709 66.3677 6.60801 65.8939C3.41296 64.3165 2.23872 61.5594 3.30608 58.1655C3.63796 57.111 4.1386 56.0973 4.65751 55.116C5.48299 53.5554 5.33112 52.716 3.90937 51.6869C2.11075 50.385 0.586354 48.861 0.120878 46.589C-0.450068 43.8038 1.04199 40.7473 3.74203 39.025C5.38877 37.9733 5.5294 37.2099 4.63361 35.4651C4.04156 34.3123 3.49031 33.1017 3.16546 31.8533C2.40888 28.9416 3.44812 26.4896 6.07785 25.0429C7.20286 24.4243 8.48538 24.0559 9.73415 23.7086C11.0195 23.3501 11.634 22.5291 11.5201 21.2004C11.4146 19.966 11.3007 18.7119 11.4048 17.4859C11.679 14.2691 13.7716 12.1546 17.0032 11.8312C18.2294 11.7089 19.4866 11.782 20.7199 11.8875C22.0798 12.0042 22.894 11.5008 23.3033 10.1933C23.6464 9.10231 23.9628 7.98177 24.4831 6.97231C26.075 3.87924 28.9649 2.67012 32.2851 3.7063C33.3061 4.02545 34.2806 4.54143 35.2158 5.07569C36.5068 5.81241 37.5151 5.63244 38.4868 4.48238C39.2659 3.56149 40.059 2.6167 40.9928 1.86733C43.5522 -0.188156 46.3957 -0.205027 48.9762 1.82937C49.8874 2.54781 50.6693 3.47011 51.3725 4.40365C52.2429 5.55934 53.1908 5.81803 54.5098 5.18957C55.7966 4.57658 57.0974 3.92141 58.4657 3.5643C61.1221 2.87117 63.3975 3.7527 64.8347 6.07391C65.5941 7.29849 66.0863 8.71146 66.5433 10.0907C67.0088 11.4952 67.7513 12.0225 69.2265 11.8847C70.457 11.7694 71.7156 11.6892 72.9405 11.8087C75.9583 12.1026 78.0607 14.1342 78.4333 17.1541C78.5923 18.4335 78.5121 19.7608 78.3912 21.0528C78.259 22.477 78.7132 23.2517 80.097 23.7072C81.2431 24.0854 82.4159 24.444 83.4819 24.9937C86.5841 26.5965 87.6486 29.1876 86.5799 32.5239C86.2339 33.6065 85.6953 34.637 85.161 35.6479C84.4409 37.0131 84.635 37.8805 85.8036 38.9153C86.8485 39.8404 87.9172 40.7894 88.7427 41.9015C90.4345 44.1806 90.4106 46.6297 88.6837 48.8919C87.8624 49.966 86.8063 50.8813 85.7713 51.767C84.6378 52.7371 84.5 53.5905 85.1272 54.9529C85.8261 56.4713 86.5349 58.0361 86.8682 59.6572C87.3561 62.029 86.286 63.9411 84.2595 65.1657C83.0769 65.8799 81.7367 66.3734 80.4176 66.8162C78.6541 67.4067 78.273 67.9916 78.4277 69.8193C78.5402 71.1409 78.6162 72.5187 78.3757 73.808C77.7415 77.2244 75.2003 79.01 71.3668 78.9791ZM71.9828 74.7584C74.0275 74.8976 74.6589 74.2312 74.4564 72.2277C74.4184 71.8467 74.358 71.4685 74.313 71.0875C73.8011 66.7684 75.483 64.1211 79.6034 62.7587C80.239 62.5492 80.8943 62.3903 81.5117 62.1373C82.8209 61.6002 83.2723 60.3166 82.6283 59.0639C82.4975 58.8094 82.3386 58.569 82.1979 58.3173C79.5837 53.6369 80.3192 50.3653 84.6842 47.2694C86.2016 46.1925 86.2607 44.705 84.8361 43.4593C84.1161 42.8295 83.3539 42.239 82.6873 41.5557C80.8282 39.652 80.2587 37.3941 81.1137 34.862C81.4582 33.8427 81.9378 32.8599 82.4511 31.9109C83.3609 30.228 82.887 28.9373 81.0701 28.3244C80.0745 27.9883 79.0549 27.7015 78.0972 27.2741C75.9935 26.3364 74.6322 24.7308 74.4241 22.4039C74.2947 20.9572 74.4311 19.4838 74.507 18.0244C74.5844 16.5271 73.9755 15.8072 72.4651 15.8016C71.7325 15.7988 70.9928 15.9619 70.2685 15.9014C68.9143 15.7876 67.4869 15.7932 66.2382 15.3405C63.6323 14.3943 62.5186 12.0984 62.039 9.57752C61.5989 7.26896 60.0182 6.94981 58.3138 7.80603C57.2619 8.33467 56.1777 8.81269 55.071 9.21057C52.939 9.97681 50.9675 9.63797 49.2954 8.07316C48.4362 7.26896 47.643 6.38884 46.8724 5.49748C45.7389 4.18573 44.268 4.13652 43.0867 5.40609C42.2401 6.31573 41.4315 7.27318 40.5006 8.09144C38.9902 9.42005 37.1747 9.88542 35.2327 9.33851C33.9881 8.98702 32.7717 8.46682 31.62 7.87211C29.7848 6.92169 28.6119 7.31958 27.9004 9.27524C27.508 10.3536 27.1579 11.4502 26.6924 12.4963C25.8022 14.4955 24.2384 15.6863 22.0475 15.8368C20.592 15.9366 19.1224 15.8129 17.6585 15.7833C16.151 15.7524 15.3255 16.5777 15.3986 18.0778C15.4253 18.6191 15.4985 19.1576 15.5561 19.6975C16.0118 23.9252 14.1934 26.7216 10.1476 28.001C9.78337 28.1163 9.41071 28.2063 9.03945 28.2934C7.04958 28.756 6.44629 30.1521 7.46443 31.9503C10.2981 36.954 9.69478 39.8995 5.11314 43.427C3.64078 44.5602 3.63234 45.9703 5.0372 47.1823C5.95269 47.9724 6.87942 48.7696 7.67115 49.6778C9.25039 51.4887 9.59774 53.6004 8.77789 55.8513C8.42069 56.8341 7.94397 57.7817 7.44334 58.7025C6.46879 60.4979 7.06083 61.8758 9.06617 62.3524C9.31368 62.4114 9.56259 62.4705 9.80728 62.5408C14.178 63.7935 16.0821 66.663 15.5266 71.155C15.1188 74.4491 15.7671 75.0269 19.1154 74.7261C24.2244 74.2677 26.158 75.976 27.3772 79.8451C27.5966 80.5439 27.8287 81.244 28.1338 81.909C28.7652 83.2855 29.9648 83.6426 31.2993 82.9326C32.1136 82.4995 32.9306 82.0581 33.7842 81.7094C36.7093 80.5186 39.2813 81.0655 41.4498 83.3797C42.0165 83.9856 42.5481 84.6239 43.1064 85.2383C44.2398 86.4854 45.7333 86.4629 46.819 85.1989C47.4011 84.5213 47.9833 83.8422 48.5937 83.1913C50.6398 81.0106 53.0375 80.4483 55.8022 81.677C56.7922 82.1171 57.7668 82.5937 58.7638 83.0183C60.3698 83.7016 61.5061 83.1069 61.9434 81.4282C62.1684 80.5678 62.4033 79.6989 62.7464 78.882C63.7561 76.4835 65.5364 75.0129 68.169 74.7823C69.429 74.667 70.7101 74.7584 71.9828 74.7584Z" fill="#0B52A0"/>
<path d="M44.9356 73.9243C29.1221 73.9187 16.3039 61.0712 16.3517 45.2782C16.3995 29.4811 29.1699 16.7362 44.9454 16.7404C60.7632 16.7446 73.5757 29.5851 73.5293 45.3851C73.4829 61.1823 60.7126 73.9299 44.9356 73.9243ZM20.42 45.2853C20.3975 58.7767 31.3622 69.8049 44.8484 69.8541C58.3781 69.9033 69.4399 58.9032 69.4624 45.3738C69.4863 31.8782 58.523 20.8556 45.0326 20.8078C31.4987 20.7628 20.4425 31.7573 20.42 45.2853Z" fill="#0B52A0"/>
<path d="M40.7601 50.6728C41.1595 50.2932 41.4169 50.0599 41.6616 49.8138C46.2221 45.2543 50.777 40.6907 55.3488 36.1424C55.7229 35.7699 56.1687 35.3804 56.6538 35.2258C57.5102 34.9516 58.3118 35.2131 58.849 35.9793C59.3792 36.7343 59.3778 37.5371 58.8673 38.3062C58.676 38.5944 58.4117 38.839 58.1642 39.0865C53.0425 44.2125 47.9181 49.3372 42.7936 54.4605C41.31 55.9423 40.3987 55.9395 38.9053 54.4492C36.4204 51.9677 33.9411 49.4806 31.4534 47.0019C30.7953 46.3454 30.4423 45.61 30.7573 44.6737C31.2594 43.1876 33.0284 42.8333 34.2491 44.0227C36.1926 45.9165 38.0981 47.8497 40.012 49.773C40.2595 50.0219 40.4634 50.3129 40.7601 50.6728Z" fill="#0B52A0"/>
</g>
<defs>
<clipPath id="clip0_4140_1640">
<rect width="90" height="90" fill="white" transform="translate(0 0.312012)"/>
</clipPath>
</defs>
</svg>
