<svg width="90" height="91" viewBox="0 0 90 91" fill="none" xmlns="http://www.w3.org/2000/svg">
<g clip-path="url(#clip0_4148_1688)">
<path d="M89.9988 28.4962C89.6789 30.1541 89.4656 31.9304 89.0391 33.5883C87.9727 37.9699 85.84 41.7594 82.9609 44.9567C81.3614 46.7331 79.8685 48.391 78.1623 50.2857C78.9088 51.1146 79.6552 51.8252 80.295 52.5357C82.4277 54.7857 83.1742 57.6278 82.1078 60.7067C81.1481 63.7857 79.0154 65.4436 76.0296 65.7989C75.923 65.7989 75.923 65.7989 75.8163 65.9173C76.5628 68.8778 76.2429 71.6015 74.2168 73.8515C72.1907 76.1015 69.7381 76.5752 66.9656 75.7462C65.4727 82.0225 62.7002 84.0357 57.5817 82.8515C57.3685 86.0489 55.9822 88.5357 53.3163 89.7199C50.6505 90.9041 48.0912 90.312 45.8519 88.1804C43.6125 90.312 41.1599 91.0225 38.3874 89.8383C35.6149 88.6541 34.3353 86.1673 34.122 82.9699C29.2168 84.5094 25.058 81.0752 24.7381 75.8646C22.0723 76.6936 19.513 76.3383 17.4869 74.0883C15.4609 71.8383 15.141 69.1146 15.8874 66.0357C12.795 65.6804 10.5557 64.141 9.59595 60.9436C8.42297 56.7989 10.0225 53.8383 12.795 51.2331C12.0486 50.4041 11.3021 49.5752 10.5557 48.8646C9.80922 48.0357 9.70259 47.2067 10.3424 46.4962C10.9822 45.9041 11.7287 46.0225 12.4751 46.8515C13.2215 47.6804 13.8614 48.391 14.7144 49.3383C15.8874 47.9173 16.9538 46.6146 18.1268 45.4304C21.859 41.641 27.8306 43.4173 29.3234 48.8646C29.6433 49.9304 29.6433 50.9962 29.75 52.062C34.6552 51.7067 37.8542 55.9699 37.4277 60.8252C39.667 60.5883 41.6931 61.1804 43.2926 62.9567C44.8922 64.7331 45.4253 66.8646 45.2121 69.3515C45.9585 69.4699 46.705 69.4699 47.3448 69.5883C49.2642 69.9436 50.7571 71.1278 51.9301 72.9041C52.4633 73.8515 53.1031 74.6804 53.8495 75.391C54.9159 76.5752 55.9822 77.7594 57.0486 78.9436C58.7547 80.8383 61.4206 80.8383 63.0201 78.9436C64.6197 77.0489 64.7263 74.2067 63.0201 72.312C59.6078 68.5225 56.1955 64.6146 52.6765 60.8252C52.4633 60.5883 52.25 60.3515 52.0367 59.9962C51.7168 59.4041 51.7168 58.6936 52.1434 58.2199C52.6765 57.6278 53.2097 57.6278 53.8495 57.9831C54.0628 58.2199 54.3827 58.4567 54.596 58.6936C58.4348 62.9567 62.3803 67.3383 66.2192 71.6015C67.3922 72.9041 68.7784 73.4962 70.4846 73.0225C73.577 72.1936 74.6434 68.0489 72.5107 65.4436C71.6576 64.3778 70.5912 63.312 69.6315 62.2462C66.4325 58.6936 63.34 55.2594 60.141 51.7067C59.9277 51.4699 59.7144 51.2331 59.5012 50.8778C59.1813 50.2857 59.1813 49.4567 59.8211 49.1015C60.2476 48.8646 60.8874 48.8646 61.314 48.9831C61.5272 48.9831 61.8471 49.4567 62.0604 49.6936C65.5794 53.6015 69.0983 57.6278 72.7239 61.5357C75.0699 64.141 78.9088 63.0752 79.7618 59.5225C80.1884 57.7462 79.7618 56.0883 78.5889 54.7857C75.8163 51.7067 73.0438 48.7462 70.2713 45.6673C69.3116 44.6015 69.0983 43.7725 69.7381 43.062C70.378 42.3515 71.1244 42.4699 72.0841 43.6541C73.3637 45.1936 74.6433 46.8515 75.923 48.391C76.0296 48.2725 76.1362 48.1541 76.2429 48.0357C76.3495 48.0357 76.3495 48.0357 76.4561 48.0357C78.5889 45.6673 80.9348 43.4173 82.8543 40.812C88.9324 32.5225 89.0391 20.7989 83.1742 12.2725C83.1742 12.1541 83.0675 12.1541 83.0675 12.0357C82.4277 11.0883 82.4277 10.2594 83.0675 9.66728C83.7073 9.07517 84.5604 9.19359 85.0936 10.141C86.0533 11.7989 87.013 13.3383 87.8661 15.1146C89.0391 17.7199 89.6789 20.4436 89.9988 23.4041C89.9988 23.641 90.1054 23.7594 90.1054 23.9962C89.9988 25.5357 89.9988 27.0752 89.9988 28.4962ZM22.3922 73.2594C23.4585 73.2594 24.4182 72.9041 25.1647 72.0752C28.0438 68.9962 30.8163 65.9173 33.5888 62.7199C35.1884 60.9436 34.9751 58.1015 33.4822 56.3252C31.8827 54.5489 29.4301 54.312 27.7239 56.0883C24.7381 59.1673 21.859 62.3646 19.0865 65.6804C17.9135 67.1015 17.8069 68.8778 18.5533 70.6541C19.4064 72.312 20.686 73.141 22.3922 73.2594ZM16.1007 63.1936C16.9538 62.7199 18.0201 62.6015 18.6599 61.891C21.1125 59.2857 23.5651 56.562 25.9111 53.8383C27.404 52.062 27.1907 49.3383 25.6979 47.6804C24.205 46.0225 21.6457 45.6673 20.1528 47.3252C17.5936 49.9304 15.141 52.6541 12.795 55.4962C11.622 56.9173 11.5154 58.6936 12.2618 60.4699C13.0083 62.0094 14.2879 62.8383 16.1007 63.1936ZM31.7761 80.2462C32.8424 80.2462 33.8021 79.891 34.5486 79.062C36.8945 76.4567 39.2405 73.9699 41.4798 71.3646C42.9727 69.5883 42.9727 66.7462 41.3732 64.9699C39.8803 63.1936 37.2144 62.9567 35.6149 64.7331C33.1623 67.3383 30.8163 69.9436 28.4704 72.6673C27.2974 74.0883 27.0841 75.8646 27.9372 77.641C28.6836 79.4173 29.9633 80.2462 31.7761 80.2462ZM40.6268 87.3515C42.013 87.3515 42.9727 86.9962 43.7192 86.1673C45.6386 84.1541 47.4514 82.141 49.2642 80.0094C50.7571 78.2331 50.6505 75.5094 49.1576 73.7331C47.6647 71.9567 45.1054 71.7199 43.3993 73.3778C41.3732 75.391 39.5604 77.5225 37.7476 79.7725C36.5746 81.1936 36.468 82.9699 37.2144 84.6278C37.9609 86.4041 39.2405 87.2331 40.6268 87.3515ZM52.8898 78.5883C52.25 82.0225 49.5841 83.562 47.8779 85.9304C49.3708 87.8252 52.1434 87.8252 53.8495 85.9304C55.2358 84.1541 55.5557 80.7199 52.8898 78.5883Z" fill="#0B52A0"/>
<path d="M52.3578 26.7199C50.2251 29.0883 48.0924 31.4567 46.0663 33.7067C42.8673 37.2594 38.4952 38.0883 34.6564 35.9567C33.9099 35.4831 33.1635 35.0094 32.5237 34.4173C30.4976 32.4041 30.391 29.6804 32.3104 27.5488C35.6161 23.7594 39.0284 20.0883 42.3341 16.4173C42.5474 16.1804 42.8673 15.9436 43.1872 15.7067C39.4549 11.6804 36.3625 7.29885 31.6706 5.04885C19.0876 -0.753785 4.79854 8.00937 2.87911 22.9304C2.02603 29.9173 3.62556 36.0752 7.78432 41.4041C7.89096 41.5225 8.10423 41.7594 8.21086 41.8778C8.6374 42.5883 8.6374 43.4173 7.99759 44.0094C7.46442 44.4831 6.61134 44.4831 6.1848 43.7725C5.01181 42.1146 3.83883 40.5752 2.87911 38.6804C-5.01188 22.812 4.0521 2.91727 20.3673 0.548847C28.045 -0.516942 34.763 2.08832 40.308 8.24622C41.9075 9.90411 43.4004 11.6804 45.1066 13.5752C45.4265 13.1015 45.7464 12.6278 46.0663 12.2725C48.3056 9.90411 50.4383 7.29885 52.9976 5.16727C60.7819 -1.22747 71.6587 -1.34589 79.6563 4.69358C79.763 4.93043 79.9763 5.04885 80.1895 5.16727C80.936 5.75937 81.1492 6.58832 80.7227 7.29885C80.2962 8.00937 79.4431 8.1278 78.6966 7.53569C76.8838 6.11464 74.8578 4.93043 72.6184 4.2199C64.9407 1.85148 58.0094 3.50937 52.2511 9.66727C46.1729 16.1804 40.308 22.812 34.3365 29.4436C33.3767 30.5094 33.4834 31.2199 34.4431 32.1673C37.2156 34.891 41.3744 34.7725 44.0402 31.9304C46.4928 29.3252 48.8388 26.6015 51.1848 23.9962C52.2511 22.812 52.7843 22.812 53.8507 23.9962C58.2227 28.6146 62.5947 33.3515 66.9668 37.9699C67.18 38.2067 67.3933 38.4436 67.6066 38.6804C68.0331 39.2725 68.0331 39.9831 67.5 40.5752C66.9668 41.1673 66.327 41.1673 65.7938 40.6936C65.4739 40.4567 65.2606 40.1015 64.9407 39.8646C60.6753 35.6015 56.6232 31.2199 52.3578 26.7199Z" fill="#0B52A0"/>
</g>
<defs>
<clipPath id="clip0_4148_1688">
<rect width="90" height="90" fill="white" transform="translate(0 0.312012)"/>
</clipPath>
</defs>
</svg>
