<svg width="90" height="91" viewBox="0 0 90 91" fill="none" xmlns="http://www.w3.org/2000/svg">
<path d="M64.2089 0.313492C65.9349 0.893792 67.3003 1.86343 67.7767 3.72424C67.9266 4.31046 67.9489 4.92925 68.0424 5.63686C69.6972 5.04028 71.2822 5.12169 72.7144 6.18903C74.1569 7.26377 74.6437 8.77818 74.6111 10.4421C75.4808 10.3799 76.3267 10.1904 77.14 10.2852C79.4018 10.5487 81.0967 12.3325 81.1486 14.596C81.2288 18.1385 81.1902 21.6854 81.1783 25.2294C81.1753 26.0658 80.6307 26.618 79.9124 26.6387C79.1421 26.6609 78.5633 26.0599 78.5574 25.1228C78.5381 21.9874 78.5499 18.8535 78.547 15.7181C78.547 15.3673 78.5514 15.0134 78.5114 14.6656C78.3867 13.5982 77.4888 12.8062 76.4855 12.8521C75.4511 12.8995 74.623 13.7181 74.6066 14.8077C74.5755 16.7988 74.5933 18.7913 74.5933 20.7839C74.5933 21.5329 74.338 22.1177 73.5455 22.2983C72.6342 22.5055 71.9575 21.8868 71.9545 20.8268C71.9441 17.3983 71.9501 13.9713 71.9501 10.5428C71.9501 10.2793 71.9634 10.0128 71.9352 9.75225C71.8269 8.71008 71.0329 7.94622 70.0296 7.89885C69.0471 7.85296 68.1789 8.57241 68.0038 9.60866C67.9504 9.92398 67.9548 10.2497 67.9548 10.5724C67.9518 13.8543 67.9533 17.1348 67.9518 20.4168C67.9518 20.7099 67.9667 21.0089 67.9132 21.2931C67.796 21.9119 67.3983 22.2672 66.7675 22.322C66.1427 22.3767 65.6544 22.1192 65.4511 21.5226C65.3324 21.1732 65.316 20.7765 65.316 20.4005C65.3071 15.5079 65.3116 10.6153 65.3101 5.72272C65.3101 5.4 65.319 5.07728 65.2908 4.75605C65.1973 3.72424 64.3781 2.96777 63.3629 2.95593C62.4072 2.94409 61.5464 3.66798 61.4039 4.6391C61.3534 4.98402 61.3683 5.34079 61.3683 5.69163C61.3668 10.5842 61.3683 15.4768 61.3653 20.3694C61.3653 20.6906 61.3831 21.0252 61.303 21.3287C61.1219 22.0022 60.6604 22.3753 59.942 22.322C59.2297 22.2702 58.823 21.8586 58.7414 21.1525C58.7117 20.892 58.7251 20.6255 58.7251 20.362C58.7236 17.0519 58.7265 13.7403 58.7206 10.4303C58.7206 10.0824 58.7073 9.72265 58.6227 9.38809C58.403 8.5132 57.6446 7.92549 56.772 7.89885C55.926 7.87368 55.1083 8.44806 54.8678 9.31407C54.7521 9.72857 54.7283 10.1801 54.7283 10.6138C54.7209 17.7921 54.7224 24.9689 54.7224 32.1471C54.7224 34.042 54.0516 34.492 52.2439 33.817C49.801 32.9036 47.3626 31.9769 44.9124 31.0813C43.7325 30.6505 42.6105 31.0546 42.1074 32.0302C41.8996 32.4343 41.8387 32.7792 42.3166 33.0738C46.6132 35.7133 50.9023 38.3646 55.1765 41.0011C57.2691 39.6733 58.5395 39.654 60.1602 40.9005C61.7467 42.1203 62.4176 44.2224 61.7467 46.1824C61.113 48.0358 60.3873 49.8581 59.7046 51.6952C59.5948 51.9913 59.4938 52.2918 59.3617 52.6664C64.0679 52.6664 68.6865 52.6664 73.403 52.6664C73.403 51.528 73.403 50.4236 73.403 49.3193C73.403 47.5621 73.4268 45.8034 73.3926 44.0462C73.3763 43.2335 73.6523 42.6517 74.338 42.2032C75.2953 41.577 76.205 40.8812 77.1563 40.2462C78.1166 39.6037 78.5663 38.7303 78.5544 37.5771C78.5336 35.6437 78.5485 33.7104 78.5514 31.7755C78.5514 31.4839 78.544 31.1864 78.5915 30.8992C78.7176 30.156 79.1851 29.746 79.9331 29.7756C80.6796 29.8052 81.1635 30.2449 81.1664 31.0013C81.1783 33.549 81.2214 36.1012 81.0982 38.6444C81.0284 40.0729 80.2136 41.2336 79.0634 42.104C78.2917 42.6873 77.5036 43.2528 76.6903 43.7768C76.2228 44.0773 76.024 44.4104 76.0314 44.9863C76.0655 47.528 76.0462 50.0698 76.0462 52.7241C77.5318 52.7241 78.9328 52.69 80.3309 52.7315C83.265 52.8188 85.2997 55.0971 85.0014 57.9379C84.9539 58.3953 84.8085 58.8424 84.709 59.2969C88.1952 59.6581 90.0133 61.2717 89.9999 63.9763C89.9881 66.6972 88.1626 68.3226 84.6987 68.6172C85.2255 70.2782 85.2211 71.8888 84.1139 73.3307C83.0231 74.7503 81.5167 75.264 79.7832 75.193C79.8886 75.8828 80.0563 76.5075 80.0682 77.1352C80.1112 79.5067 78.2368 81.6547 75.8592 81.708C71.4262 81.8087 66.9901 81.7584 62.5556 81.748C61.7749 81.7465 61.251 81.1988 61.2273 80.503C61.2035 79.8102 61.6978 79.2625 62.4695 79.1574C62.7589 79.1174 63.0557 79.1278 63.3481 79.1278C67.1074 79.1263 70.8667 79.1263 74.6274 79.1263C74.9213 79.1263 75.2166 79.1337 75.5075 79.11C76.6443 79.0167 77.4547 78.17 77.4324 77.11C77.4101 76.0353 76.5864 75.2152 75.4303 75.1974C73.6093 75.1693 71.7883 75.1885 69.9673 75.187C69.7328 75.187 69.4968 75.1989 69.2623 75.1796C68.449 75.113 67.9058 74.5623 67.9207 73.8355C67.9355 73.1101 68.4891 72.5964 69.3157 72.5535C69.5502 72.5416 69.7862 72.549 70.0207 72.549C73.3392 72.549 76.6592 72.5505 79.9777 72.5476C81.4885 72.5461 82.3686 71.8252 82.3864 70.5905C82.4042 69.3174 81.5152 68.5684 79.9495 68.5654C76.6013 68.5595 73.2531 68.5639 69.9049 68.5624C69.6111 68.5624 69.3128 68.5758 69.0263 68.5299C68.3585 68.4233 67.8851 67.9688 67.9682 67.3456C68.029 66.8837 68.4268 66.3908 68.8082 66.071C69.0486 65.8697 69.5369 65.9318 69.9138 65.9318C74.8189 65.9244 79.7239 65.9274 84.6289 65.9259C84.9227 65.9259 85.2181 65.9333 85.509 65.9111C86.5716 65.8282 87.3151 65.0599 87.3463 64.0311C87.3775 62.9845 86.6146 62.1199 85.5461 62.0119C85.2552 61.9823 84.9599 61.9941 84.666 61.9941C79.7907 61.9926 74.9138 61.9941 70.0385 61.9926C69.7447 61.9926 69.4478 62.0104 69.1584 61.9719C68.3971 61.8712 67.8984 61.3102 67.9207 60.6159C67.9444 59.9216 68.4772 59.4109 69.246 59.362C69.4805 59.3472 69.7165 59.3561 69.9509 59.3561C73.2412 59.3561 76.5301 59.3591 79.8204 59.3517C80.1988 59.3502 80.5891 59.3354 80.9512 59.2406C81.8195 59.0171 82.3478 58.3272 82.3834 57.4583C82.4205 56.5597 81.913 55.7781 81.0388 55.5205C80.6262 55.3991 80.1721 55.3725 79.7372 55.3725C72.5111 55.3636 65.2864 55.368 58.0602 55.3651C56.2006 55.3651 55.7583 54.7093 56.4173 52.9461C57.33 50.508 58.2516 48.0728 59.148 45.6287C59.5933 44.4119 59.2311 43.346 58.262 42.8042C57.7678 42.5274 57.4235 42.5688 57.1 43.0958C54.568 47.2112 52.0154 51.3148 49.4731 55.4154C50.9928 57.4464 51.0937 58.7462 49.8738 60.4057C48.6108 62.1229 46.4558 62.8127 44.384 62.0918C42.5289 61.4464 40.6989 60.7313 38.8571 60.0489C38.5856 59.9482 38.3125 59.8565 37.9741 59.738C37.9741 64.5003 37.9741 69.196 37.9741 73.9998C39.2549 73.9998 40.5075 73.9998 41.7601 73.9998C43.17 73.9998 44.5814 74.0487 45.9883 73.9835C46.9872 73.9376 47.652 74.3003 48.1715 75.1367C48.7265 76.0323 49.3825 76.8643 49.9762 77.7347C50.6218 78.6807 51.487 79.1574 52.652 79.1292C53.915 79.0996 55.178 79.11 56.441 79.1278C57.5051 79.1426 58.0646 79.6089 58.072 80.4408C58.081 81.2891 57.5363 81.748 56.4677 81.7569C55.1172 81.7672 53.7651 81.7643 52.4146 81.7554C50.549 81.7436 49.0783 80.9501 47.9785 79.4653C47.4027 78.6881 46.8744 77.8769 46.2896 77.1071C46.1323 76.9013 45.8503 76.66 45.6218 76.6585C43.1017 76.6259 40.5802 76.6378 37.9207 76.6378C37.9207 77.8295 37.9474 78.959 37.9103 80.0855C37.888 80.7532 37.8554 81.4445 37.6684 82.0781C36.9783 84.426 34.6111 85.7672 32.2172 85.2283C31.9367 85.1647 31.6592 85.0951 31.3772 85.0285C30.7301 88.7368 29.2222 90.3711 26.539 90.3104C23.9343 90.2512 22.465 88.5754 21.9545 84.9944C20.3131 85.5658 18.731 85.5125 17.2929 84.4408C15.8473 83.3645 15.3517 81.8605 15.3873 80.1966C14.4656 80.2439 13.5633 80.4216 12.698 80.3106C10.5832 80.0397 9.00556 78.2617 8.83785 76.133C8.80965 75.7836 8.80817 75.4313 8.80668 75.079C8.8052 67.8711 8.83785 60.6647 8.78739 53.4569C8.77107 51.072 9.57694 49.1579 11.6696 48.021C13.5143 47.0203 14.2267 45.6998 13.9967 43.6006C13.7933 41.7561 13.9536 39.8716 13.9536 37.9013C12.4888 37.9013 11.1175 37.9279 9.74613 37.8953C6.7868 37.8258 4.74316 35.6156 4.9925 32.7629C5.03257 32.3025 5.17801 31.8525 5.29526 31.2989C3.51431 31.3507 1.96489 30.8311 0.86961 29.3478C0.197304 28.4373 -0.0683534 27.4114 0.0147574 26.2864C0.201756 23.7505 1.9545 22.3057 5.30268 22.0037C4.76839 20.3413 4.78175 18.7306 5.89039 17.2873C6.98122 15.8676 8.49057 15.3599 10.2596 15.4324C10.1409 14.8817 9.98656 14.4065 9.94352 13.9224C9.70161 11.2889 11.6592 9.03724 14.3202 8.88921C15.0815 8.84628 15.8474 8.86996 16.6102 8.86996C23.4238 8.86848 30.2389 8.89809 37.0525 8.85368C39.341 8.83887 41.2214 9.6131 42.2869 11.6131C43.3555 13.619 44.8159 14.294 47.0213 14.0305C48.639 13.838 50.2967 13.9935 52.0732 13.9935C52.0732 12.7115 51.9961 11.4887 52.0985 10.2793C52.1742 9.39549 52.333 8.45694 52.7218 7.67383C53.6479 5.80414 55.7435 4.93073 57.7767 5.39556C58.0557 5.45922 58.3347 5.53027 58.6583 5.60725C58.7132 5.03435 58.7117 4.50587 58.8215 4.00254C59.2564 2.03071 60.6173 0.936723 62.4443 0.312012C63.0335 0.313492 63.6212 0.313492 64.2089 0.313492ZM42.8376 36.4964C40.5728 40.1529 38.3615 43.7235 36.1279 47.3282C37.143 47.9559 38.0631 48.5258 38.9863 49.0928C40.3769 49.9499 40.7168 50.5776 40.227 51.3799C39.7224 52.2045 38.9996 52.1971 37.6313 51.3562C36.6636 50.7611 35.6945 50.169 34.7521 49.5931C32.9607 51.0483 31.2065 50.9921 29.5532 49.488C28.0913 48.1572 27.612 46.1483 28.3303 44.175C29.0783 42.1188 29.8619 40.0759 30.6589 37.9486C25.929 37.9486 21.3089 37.9486 16.5983 37.9486C16.5983 38.3084 16.5983 38.6237 16.5983 38.939C16.5983 41.5163 16.5864 44.0951 16.6057 46.6724C16.6117 47.414 16.3564 47.9588 15.7301 48.3718C14.8738 48.9373 14.0753 49.5931 13.1982 50.1231C11.9055 50.9047 11.4202 51.9869 11.4291 53.4909C11.4751 60.6677 11.4484 67.8445 11.4529 75.0212C11.4529 75.4017 11.4469 75.7881 11.5152 76.1596C11.717 77.2625 12.8153 77.9672 13.8794 77.7066C14.8129 77.4772 15.3888 76.7547 15.3991 75.7126C15.417 73.7215 15.3917 71.7289 15.414 69.7364C15.4229 68.8437 15.9587 68.296 16.7349 68.296C17.52 68.296 18.0142 68.8348 18.0483 69.7334C18.0572 69.9673 18.0498 70.2027 18.0498 70.4366C18.0498 73.7763 18.0557 77.116 18.0453 80.4542C18.0424 81.3853 18.3525 82.1299 19.2222 82.5385C20.6099 83.1884 22.0257 82.1684 22.0391 80.4778C22.0643 77.4313 22.0465 74.3847 22.0465 71.3381C22.0465 70.7519 22.0346 70.1657 22.0584 69.5809C22.0896 68.8304 22.4873 68.3804 23.2457 68.3049C23.9744 68.2323 24.5339 68.6883 24.6571 69.4521C24.7031 69.7393 24.6883 70.0369 24.6883 70.3285C24.6897 75.3084 24.6868 80.2884 24.6912 85.2683C24.6927 86.7649 25.4333 87.6665 26.6473 87.6724C27.8539 87.6798 28.6197 86.759 28.6345 85.2772C28.6375 85.0137 28.6345 84.7502 28.6345 84.4866C28.6345 79.6829 28.633 74.8791 28.636 70.0754C28.6375 68.894 29.1005 68.2901 29.9777 68.296C30.8592 68.3019 31.2748 68.8733 31.2777 70.0946C31.2807 72.0576 31.2777 74.0205 31.2792 75.982C31.2792 77.5053 31.2644 79.0286 31.2852 80.5519C31.3015 81.8161 32.1148 82.7013 33.2323 82.7295C34.3217 82.7576 35.1943 81.862 35.2745 80.6244C35.2908 80.3624 35.2804 80.0974 35.2804 79.8339C35.2804 72.6867 35.2804 65.5396 35.2819 58.3924C35.2819 56.6115 35.9765 56.1422 37.6684 56.7743C40.1112 57.6877 42.5496 58.6159 44.9955 59.5189C46.1471 59.9453 47.1385 59.6773 47.75 58.8276C48.1611 58.2562 48.1878 57.818 47.4725 57.4094C46.1486 56.653 44.8663 55.8269 43.5752 55.0157C42.6921 54.462 42.4561 53.7426 42.8984 53.0424C43.3288 52.3599 44.1005 52.2622 44.9821 52.7907C45.7019 53.223 46.4143 53.6671 47.1638 54.126C49.427 50.4725 51.6384 46.9004 53.872 43.2957C50.1587 41.0115 46.5449 38.7821 42.8376 36.4964ZM52.0332 16.63C49.2905 16.63 46.6488 16.5945 44.0085 16.6478C43.0127 16.6685 42.3404 16.3384 41.8254 15.496C41.3386 14.6981 40.7182 13.9802 40.227 13.1837C39.4745 11.9669 38.4386 11.4784 36.9961 11.4858C29.7432 11.5272 22.4888 11.5035 15.2359 11.5065C14.9138 11.5065 14.5873 11.502 14.2697 11.5479C13.2516 11.6945 12.5229 12.5694 12.5645 13.5657C12.6045 14.5338 13.3555 15.3258 14.3454 15.4279C14.6066 15.4546 14.8738 15.4442 15.1379 15.4442C16.8996 15.4457 18.6612 15.4383 20.4244 15.4472C21.4544 15.4516 22.0643 15.9446 22.0777 16.7499C22.091 17.5567 21.4781 18.0719 20.463 18.0778C19.1124 18.0867 17.7619 18.0807 16.4098 18.0807C14.1777 18.0807 11.9456 18.0674 9.71497 18.0867C8.47424 18.0985 7.65055 18.8727 7.61197 19.9904C7.5719 21.1614 8.36887 21.9741 9.64521 22.0599C9.8797 22.0762 10.1142 22.0659 10.3502 22.0659C13.5811 22.0659 16.8105 22.0659 20.0415 22.0674C20.3056 22.0674 20.5713 22.0585 20.834 22.0822C21.5909 22.1503 22.0272 22.5914 22.0628 23.3271C22.097 24.0273 21.6992 24.4877 21.0106 24.6432C20.7286 24.7068 20.4288 24.7009 20.1365 24.7009C16.3772 24.7039 12.6194 24.7024 8.86011 24.7039C7.42052 24.7039 5.98092 24.6817 4.54429 24.7216C3.42823 24.7527 2.66985 25.561 2.65204 26.6298C2.63423 27.6764 3.40449 28.5217 4.48344 28.6194C4.77433 28.6461 5.06967 28.6357 5.36353 28.6357C10.3561 28.6372 15.3487 28.6342 20.3398 28.6387C21.4425 28.6401 22.0658 29.1227 22.0792 29.9517C22.0925 30.7807 21.4692 31.2707 20.3724 31.2707C17.0243 31.2737 13.6776 31.2722 10.3294 31.2722C10.0652 31.2722 9.79956 31.2604 9.53687 31.2841C8.44159 31.3788 7.68914 32.0997 7.61939 33.1049C7.54518 34.1648 8.21007 35.0086 9.31871 35.21C9.68974 35.2781 10.0786 35.2677 10.4585 35.2677C17.6535 35.2707 24.8485 35.2692 32.0421 35.2707C33.7384 35.2707 34.2282 35.9664 33.6419 37.5341C32.7188 39.9989 31.7987 42.4652 30.8666 44.927C30.503 45.8893 30.5565 46.7701 31.3252 47.5162C32.0599 48.2282 32.4947 48.1631 33.0349 47.2912C35.4125 43.4585 37.7901 39.6259 40.1647 35.7918C40.2997 35.5741 40.4184 35.3476 40.5342 35.1419C38.8987 33.3965 38.8675 31.6142 40.4036 29.8748C41.7245 28.3781 43.7206 27.8659 45.6989 28.5676C47.5496 29.2234 49.3825 29.9295 51.2243 30.6105C51.4796 30.7052 51.7408 30.7793 52.0332 30.8725C52.0332 26.0939 52.0332 21.416 52.0332 16.63Z" fill="#0B52A0"/>
</svg>
